G04 #@! TF.GenerationSoftware,KiCad,Pcbnew,(5.0.1)-3*
G04 #@! TF.CreationDate,2021-04-08T14:22:07+02:00*
G04 #@! TF.ProjectId,MAN_Motor_Drivers,4D414E5F4D6F746F725F447269766572,rev?*
G04 #@! TF.SameCoordinates,Original*
G04 #@! TF.FileFunction,Soldermask,Top*
G04 #@! TF.FilePolarity,Negative*
%FSLAX46Y46*%
G04 Gerber Fmt 4.6, Leading zero omitted, Abs format (unit mm)*
G04 Created by KiCad (PCBNEW (5.0.1)-3) date 08.04.2021 14:22:07*
%MOMM*%
%LPD*%
G01*
G04 APERTURE LIST*
%ADD10C,0.100000*%
G04 APERTURE END LIST*
D10*
G36*
X177922947Y-104855722D02*
X178186833Y-104965027D01*
X178424324Y-105123713D01*
X178626287Y-105325676D01*
X178784973Y-105563167D01*
X178894278Y-105827053D01*
X178950000Y-106107186D01*
X178950000Y-106392814D01*
X178894278Y-106672947D01*
X178784973Y-106936833D01*
X178626287Y-107174324D01*
X178424324Y-107376287D01*
X178186833Y-107534973D01*
X177922947Y-107644278D01*
X177642814Y-107700000D01*
X177357186Y-107700000D01*
X177077053Y-107644278D01*
X176813167Y-107534973D01*
X176575676Y-107376287D01*
X176373713Y-107174324D01*
X176215027Y-106936833D01*
X176105722Y-106672947D01*
X176050000Y-106392814D01*
X176050000Y-106107186D01*
X176105722Y-105827053D01*
X176215027Y-105563167D01*
X176373713Y-105325676D01*
X176575676Y-105123713D01*
X176813167Y-104965027D01*
X177077053Y-104855722D01*
X177357186Y-104800000D01*
X177642814Y-104800000D01*
X177922947Y-104855722D01*
X177922947Y-104855722D01*
G37*
G36*
X158523127Y-103126901D02*
X158658365Y-103153801D01*
X158913149Y-103259336D01*
X159139397Y-103410511D01*
X159142451Y-103412551D01*
X159337449Y-103607549D01*
X159337451Y-103607552D01*
X159369917Y-103656140D01*
X159490665Y-103836853D01*
X159596199Y-104091636D01*
X159650000Y-104362111D01*
X159650000Y-104637889D01*
X159596199Y-104908364D01*
X159490665Y-105163147D01*
X159337449Y-105392451D01*
X159142451Y-105587449D01*
X159142448Y-105587451D01*
X158913149Y-105740664D01*
X158658365Y-105846199D01*
X158523127Y-105873099D01*
X158387889Y-105900000D01*
X158112111Y-105900000D01*
X157976874Y-105873100D01*
X157841635Y-105846199D01*
X157586851Y-105740664D01*
X157357552Y-105587451D01*
X157357549Y-105587449D01*
X157162551Y-105392451D01*
X157009335Y-105163147D01*
X156903801Y-104908364D01*
X156850000Y-104637889D01*
X156850000Y-104362111D01*
X156903801Y-104091636D01*
X157009335Y-103836853D01*
X157130084Y-103656140D01*
X157162549Y-103607552D01*
X157162551Y-103607549D01*
X157357549Y-103412551D01*
X157360603Y-103410511D01*
X157586851Y-103259336D01*
X157841635Y-103153801D01*
X157976873Y-103126901D01*
X158112111Y-103100000D01*
X158387889Y-103100000D01*
X158523127Y-103126901D01*
X158523127Y-103126901D01*
G37*
G36*
X149023127Y-103126901D02*
X149158365Y-103153801D01*
X149413149Y-103259336D01*
X149639397Y-103410511D01*
X149642451Y-103412551D01*
X149837449Y-103607549D01*
X149837451Y-103607552D01*
X149869917Y-103656140D01*
X149990665Y-103836853D01*
X150096199Y-104091636D01*
X150150000Y-104362111D01*
X150150000Y-104637889D01*
X150096199Y-104908364D01*
X149990665Y-105163147D01*
X149837449Y-105392451D01*
X149642451Y-105587449D01*
X149642448Y-105587451D01*
X149413149Y-105740664D01*
X149158365Y-105846199D01*
X149023127Y-105873099D01*
X148887889Y-105900000D01*
X148612111Y-105900000D01*
X148476874Y-105873100D01*
X148341635Y-105846199D01*
X148086851Y-105740664D01*
X147857552Y-105587451D01*
X147857549Y-105587449D01*
X147662551Y-105392451D01*
X147509335Y-105163147D01*
X147403801Y-104908364D01*
X147350000Y-104637889D01*
X147350000Y-104362111D01*
X147403801Y-104091636D01*
X147509335Y-103836853D01*
X147630084Y-103656140D01*
X147662549Y-103607552D01*
X147662551Y-103607549D01*
X147857549Y-103412551D01*
X147860603Y-103410511D01*
X148086851Y-103259336D01*
X148341635Y-103153801D01*
X148476873Y-103126901D01*
X148612111Y-103100000D01*
X148887889Y-103100000D01*
X149023127Y-103126901D01*
X149023127Y-103126901D01*
G37*
G36*
X170568779Y-103429916D02*
X170610870Y-103442685D01*
X170649666Y-103463422D01*
X170683671Y-103491329D01*
X170711578Y-103525334D01*
X170732315Y-103564130D01*
X170745084Y-103606221D01*
X170750000Y-103656140D01*
X170750000Y-104343860D01*
X170745084Y-104393779D01*
X170732315Y-104435870D01*
X170711578Y-104474666D01*
X170683671Y-104508671D01*
X170649666Y-104536578D01*
X170610870Y-104557315D01*
X170568779Y-104570084D01*
X170518860Y-104575000D01*
X169731140Y-104575000D01*
X169681221Y-104570084D01*
X169639130Y-104557315D01*
X169600334Y-104536578D01*
X169566329Y-104508671D01*
X169538422Y-104474666D01*
X169517685Y-104435870D01*
X169504916Y-104393779D01*
X169500000Y-104343860D01*
X169500000Y-103656140D01*
X169504916Y-103606221D01*
X169517685Y-103564130D01*
X169538422Y-103525334D01*
X169566329Y-103491329D01*
X169600334Y-103463422D01*
X169639130Y-103442685D01*
X169681221Y-103429916D01*
X169731140Y-103425000D01*
X170518860Y-103425000D01*
X170568779Y-103429916D01*
X170568779Y-103429916D01*
G37*
G36*
X168818779Y-103429916D02*
X168860870Y-103442685D01*
X168899666Y-103463422D01*
X168933671Y-103491329D01*
X168961578Y-103525334D01*
X168982315Y-103564130D01*
X168995084Y-103606221D01*
X169000000Y-103656140D01*
X169000000Y-104343860D01*
X168995084Y-104393779D01*
X168982315Y-104435870D01*
X168961578Y-104474666D01*
X168933671Y-104508671D01*
X168899666Y-104536578D01*
X168860870Y-104557315D01*
X168818779Y-104570084D01*
X168768860Y-104575000D01*
X167981140Y-104575000D01*
X167931221Y-104570084D01*
X167889130Y-104557315D01*
X167850334Y-104536578D01*
X167816329Y-104508671D01*
X167788422Y-104474666D01*
X167767685Y-104435870D01*
X167754916Y-104393779D01*
X167750000Y-104343860D01*
X167750000Y-103656140D01*
X167754916Y-103606221D01*
X167767685Y-103564130D01*
X167788422Y-103525334D01*
X167816329Y-103491329D01*
X167850334Y-103463422D01*
X167889130Y-103442685D01*
X167931221Y-103429916D01*
X167981140Y-103425000D01*
X168768860Y-103425000D01*
X168818779Y-103429916D01*
X168818779Y-103429916D01*
G37*
G36*
X168818779Y-101679916D02*
X168860870Y-101692685D01*
X168899666Y-101713422D01*
X168933671Y-101741329D01*
X168961578Y-101775334D01*
X168982315Y-101814130D01*
X168995084Y-101856221D01*
X169000000Y-101906140D01*
X169000000Y-102593860D01*
X168995084Y-102643779D01*
X168982315Y-102685870D01*
X168961578Y-102724666D01*
X168933671Y-102758671D01*
X168899666Y-102786578D01*
X168860870Y-102807315D01*
X168818779Y-102820084D01*
X168768860Y-102825000D01*
X167981140Y-102825000D01*
X167931221Y-102820084D01*
X167889130Y-102807315D01*
X167850334Y-102786578D01*
X167816329Y-102758671D01*
X167788422Y-102724666D01*
X167767685Y-102685870D01*
X167754916Y-102643779D01*
X167750000Y-102593860D01*
X167750000Y-101906140D01*
X167754916Y-101856221D01*
X167767685Y-101814130D01*
X167788422Y-101775334D01*
X167816329Y-101741329D01*
X167850334Y-101713422D01*
X167889130Y-101692685D01*
X167931221Y-101679916D01*
X167981140Y-101675000D01*
X168768860Y-101675000D01*
X168818779Y-101679916D01*
X168818779Y-101679916D01*
G37*
G36*
X170568779Y-101679916D02*
X170610870Y-101692685D01*
X170649666Y-101713422D01*
X170683671Y-101741329D01*
X170711578Y-101775334D01*
X170732315Y-101814130D01*
X170745084Y-101856221D01*
X170750000Y-101906140D01*
X170750000Y-102593860D01*
X170745084Y-102643779D01*
X170732315Y-102685870D01*
X170711578Y-102724666D01*
X170683671Y-102758671D01*
X170649666Y-102786578D01*
X170610870Y-102807315D01*
X170568779Y-102820084D01*
X170518860Y-102825000D01*
X169731140Y-102825000D01*
X169681221Y-102820084D01*
X169639130Y-102807315D01*
X169600334Y-102786578D01*
X169566329Y-102758671D01*
X169538422Y-102724666D01*
X169517685Y-102685870D01*
X169504916Y-102643779D01*
X169500000Y-102593860D01*
X169500000Y-101906140D01*
X169504916Y-101856221D01*
X169517685Y-101814130D01*
X169538422Y-101775334D01*
X169566329Y-101741329D01*
X169600334Y-101713422D01*
X169639130Y-101692685D01*
X169681221Y-101679916D01*
X169731140Y-101675000D01*
X170518860Y-101675000D01*
X170568779Y-101679916D01*
X170568779Y-101679916D01*
G37*
G36*
X140436232Y-99723746D02*
X140525770Y-99750907D01*
X140615309Y-99778068D01*
X140780347Y-99866283D01*
X140925001Y-99984999D01*
X141043717Y-100129653D01*
X141131932Y-100294691D01*
X141186254Y-100473769D01*
X141204596Y-100660000D01*
X141186254Y-100846231D01*
X141131932Y-101025309D01*
X141043717Y-101190347D01*
X140925001Y-101335001D01*
X140780347Y-101453717D01*
X140615309Y-101541932D01*
X140525770Y-101569093D01*
X140436232Y-101596254D01*
X140296666Y-101610000D01*
X140203334Y-101610000D01*
X140133552Y-101603127D01*
X140063768Y-101596254D01*
X139974230Y-101569093D01*
X139884691Y-101541932D01*
X139719653Y-101453717D01*
X139574999Y-101335001D01*
X139456283Y-101190347D01*
X139368068Y-101025309D01*
X139313746Y-100846231D01*
X139295404Y-100660000D01*
X139313746Y-100473769D01*
X139368068Y-100294691D01*
X139456283Y-100129653D01*
X139574999Y-99984999D01*
X139719653Y-99866283D01*
X139884691Y-99778068D01*
X139974230Y-99750907D01*
X140063768Y-99723746D01*
X140203334Y-99710000D01*
X140296666Y-99710000D01*
X140436232Y-99723746D01*
X140436232Y-99723746D01*
G37*
G36*
X156925000Y-99375000D02*
X155675000Y-99375000D01*
X155675000Y-94175000D01*
X156925000Y-94175000D01*
X156925000Y-99375000D01*
X156925000Y-99375000D01*
G37*
G36*
X155325000Y-99375000D02*
X151725000Y-99375000D01*
X151725000Y-94175000D01*
X155325000Y-94175000D01*
X155325000Y-99375000D01*
X155325000Y-99375000D01*
G37*
G36*
X151375000Y-99375000D02*
X150125000Y-99375000D01*
X150125000Y-94175000D01*
X151375000Y-94175000D01*
X151375000Y-99375000D01*
X151375000Y-99375000D01*
G37*
G36*
X169130126Y-97030546D02*
X169253826Y-97042729D01*
X169452223Y-97102912D01*
X169635067Y-97200644D01*
X169706425Y-97259207D01*
X169795331Y-97332169D01*
X169856260Y-97406412D01*
X169926856Y-97492433D01*
X170024588Y-97675277D01*
X170084771Y-97873674D01*
X170105092Y-98080000D01*
X170084771Y-98286326D01*
X170024588Y-98484723D01*
X169926856Y-98667567D01*
X169879721Y-98725000D01*
X169795331Y-98827831D01*
X169711048Y-98897000D01*
X169635067Y-98959356D01*
X169452223Y-99057088D01*
X169253826Y-99117271D01*
X169130126Y-99129454D01*
X169099202Y-99132500D01*
X168900798Y-99132500D01*
X168869874Y-99129454D01*
X168746174Y-99117271D01*
X168547777Y-99057088D01*
X168364933Y-98959356D01*
X168288952Y-98897000D01*
X168204669Y-98827831D01*
X168120279Y-98725000D01*
X168073144Y-98667567D01*
X167975412Y-98484723D01*
X167915229Y-98286326D01*
X167894908Y-98080000D01*
X167915229Y-97873674D01*
X167975412Y-97675277D01*
X168073144Y-97492433D01*
X168143740Y-97406412D01*
X168204669Y-97332169D01*
X168293575Y-97259207D01*
X168364933Y-97200644D01*
X168547777Y-97102912D01*
X168746174Y-97042729D01*
X168869874Y-97030546D01*
X168900798Y-97027500D01*
X169099202Y-97027500D01*
X169130126Y-97030546D01*
X169130126Y-97030546D01*
G37*
G36*
X140366448Y-97176873D02*
X140436232Y-97183746D01*
X140491937Y-97200644D01*
X140615309Y-97238068D01*
X140780347Y-97326283D01*
X140925001Y-97444999D01*
X141043717Y-97589653D01*
X141131932Y-97754691D01*
X141150629Y-97816329D01*
X141186254Y-97933768D01*
X141204596Y-98120000D01*
X141188215Y-98286326D01*
X141186254Y-98306231D01*
X141131932Y-98485309D01*
X141043717Y-98650347D01*
X140925001Y-98795001D01*
X140780347Y-98913717D01*
X140615309Y-99001932D01*
X140525770Y-99029093D01*
X140436232Y-99056254D01*
X140296666Y-99070000D01*
X140203334Y-99070000D01*
X140133552Y-99063127D01*
X140063768Y-99056254D01*
X139974230Y-99029093D01*
X139884691Y-99001932D01*
X139719653Y-98913717D01*
X139574999Y-98795001D01*
X139456283Y-98650347D01*
X139368068Y-98485309D01*
X139313746Y-98306231D01*
X139311786Y-98286326D01*
X139295404Y-98120000D01*
X139313746Y-97933768D01*
X139349371Y-97816329D01*
X139368068Y-97754691D01*
X139456283Y-97589653D01*
X139574999Y-97444999D01*
X139719653Y-97326283D01*
X139884691Y-97238068D01*
X140008063Y-97200644D01*
X140063768Y-97183746D01*
X140203334Y-97170000D01*
X140296666Y-97170000D01*
X140366448Y-97176873D01*
X140366448Y-97176873D01*
G37*
G36*
X160143779Y-97754916D02*
X160185870Y-97767685D01*
X160224666Y-97788422D01*
X160258671Y-97816329D01*
X160286578Y-97850334D01*
X160307315Y-97889130D01*
X160320084Y-97931221D01*
X160325000Y-97981140D01*
X160325000Y-98768860D01*
X160320084Y-98818779D01*
X160307315Y-98860870D01*
X160286578Y-98899666D01*
X160258671Y-98933671D01*
X160224666Y-98961578D01*
X160185870Y-98982315D01*
X160143779Y-98995084D01*
X160093860Y-99000000D01*
X159406140Y-99000000D01*
X159356221Y-98995084D01*
X159314130Y-98982315D01*
X159275334Y-98961578D01*
X159241329Y-98933671D01*
X159213422Y-98899666D01*
X159192685Y-98860870D01*
X159179916Y-98818779D01*
X159175000Y-98768860D01*
X159175000Y-97981140D01*
X159179916Y-97931221D01*
X159192685Y-97889130D01*
X159213422Y-97850334D01*
X159241329Y-97816329D01*
X159275334Y-97788422D01*
X159314130Y-97767685D01*
X159356221Y-97754916D01*
X159406140Y-97750000D01*
X160093860Y-97750000D01*
X160143779Y-97754916D01*
X160143779Y-97754916D01*
G37*
G36*
X161893779Y-97754916D02*
X161935870Y-97767685D01*
X161974666Y-97788422D01*
X162008671Y-97816329D01*
X162036578Y-97850334D01*
X162057315Y-97889130D01*
X162070084Y-97931221D01*
X162075000Y-97981140D01*
X162075000Y-98768860D01*
X162070084Y-98818779D01*
X162057315Y-98860870D01*
X162036578Y-98899666D01*
X162008671Y-98933671D01*
X161974666Y-98961578D01*
X161935870Y-98982315D01*
X161893779Y-98995084D01*
X161843860Y-99000000D01*
X161156140Y-99000000D01*
X161106221Y-98995084D01*
X161064130Y-98982315D01*
X161025334Y-98961578D01*
X160991329Y-98933671D01*
X160963422Y-98899666D01*
X160942685Y-98860870D01*
X160929916Y-98818779D01*
X160925000Y-98768860D01*
X160925000Y-97981140D01*
X160929916Y-97931221D01*
X160942685Y-97889130D01*
X160963422Y-97850334D01*
X160991329Y-97816329D01*
X161025334Y-97788422D01*
X161064130Y-97767685D01*
X161106221Y-97754916D01*
X161156140Y-97750000D01*
X161843860Y-97750000D01*
X161893779Y-97754916D01*
X161893779Y-97754916D01*
G37*
G36*
X164120527Y-97604874D02*
X164162216Y-97617521D01*
X164200630Y-97638053D01*
X164234308Y-97665692D01*
X164261947Y-97699370D01*
X164282479Y-97737784D01*
X164295126Y-97779473D01*
X164300000Y-97828964D01*
X164300000Y-98721036D01*
X164295126Y-98770527D01*
X164282479Y-98812216D01*
X164261947Y-98850630D01*
X164234308Y-98884308D01*
X164200630Y-98911947D01*
X164162216Y-98932479D01*
X164120527Y-98945126D01*
X164071036Y-98950000D01*
X162928964Y-98950000D01*
X162879473Y-98945126D01*
X162837784Y-98932479D01*
X162799370Y-98911947D01*
X162765692Y-98884308D01*
X162738053Y-98850630D01*
X162717521Y-98812216D01*
X162704874Y-98770527D01*
X162700000Y-98721036D01*
X162700000Y-97828964D01*
X162704874Y-97779473D01*
X162717521Y-97737784D01*
X162738053Y-97699370D01*
X162765692Y-97665692D01*
X162799370Y-97638053D01*
X162837784Y-97617521D01*
X162879473Y-97604874D01*
X162928964Y-97600000D01*
X164071036Y-97600000D01*
X164120527Y-97604874D01*
X164120527Y-97604874D01*
G37*
G36*
X165893779Y-97629917D02*
X165935870Y-97642686D01*
X165974666Y-97663423D01*
X166008671Y-97691330D01*
X166036578Y-97725335D01*
X166057315Y-97764131D01*
X166070084Y-97806222D01*
X166075000Y-97856141D01*
X166075000Y-98643861D01*
X166070084Y-98693780D01*
X166057315Y-98735871D01*
X166036578Y-98774667D01*
X166008671Y-98808672D01*
X165974666Y-98836579D01*
X165935870Y-98857316D01*
X165893779Y-98870085D01*
X165843860Y-98875001D01*
X165156140Y-98875001D01*
X165106221Y-98870085D01*
X165064130Y-98857316D01*
X165025334Y-98836579D01*
X164991329Y-98808672D01*
X164963422Y-98774667D01*
X164942685Y-98735871D01*
X164929916Y-98693780D01*
X164925000Y-98643861D01*
X164925000Y-97856141D01*
X164929916Y-97806222D01*
X164942685Y-97764131D01*
X164963422Y-97725335D01*
X164991329Y-97691330D01*
X165025334Y-97663423D01*
X165064130Y-97642686D01*
X165106221Y-97629917D01*
X165156140Y-97625001D01*
X165843860Y-97625001D01*
X165893779Y-97629917D01*
X165893779Y-97629917D01*
G37*
G36*
X144568779Y-97179916D02*
X144610870Y-97192685D01*
X144649666Y-97213422D01*
X144683671Y-97241329D01*
X144711578Y-97275334D01*
X144732315Y-97314130D01*
X144745084Y-97356221D01*
X144750000Y-97406140D01*
X144750000Y-98093860D01*
X144745084Y-98143779D01*
X144732315Y-98185870D01*
X144711578Y-98224666D01*
X144683671Y-98258671D01*
X144649666Y-98286578D01*
X144610870Y-98307315D01*
X144568779Y-98320084D01*
X144518860Y-98325000D01*
X143731140Y-98325000D01*
X143681221Y-98320084D01*
X143639130Y-98307315D01*
X143600334Y-98286578D01*
X143566329Y-98258671D01*
X143538422Y-98224666D01*
X143517685Y-98185870D01*
X143504916Y-98143779D01*
X143500000Y-98093860D01*
X143500000Y-97406140D01*
X143504916Y-97356221D01*
X143517685Y-97314130D01*
X143538422Y-97275334D01*
X143566329Y-97241329D01*
X143600334Y-97213422D01*
X143639130Y-97192685D01*
X143681221Y-97179916D01*
X143731140Y-97175000D01*
X144518860Y-97175000D01*
X144568779Y-97179916D01*
X144568779Y-97179916D01*
G37*
G36*
X146318779Y-97179916D02*
X146360870Y-97192685D01*
X146399666Y-97213422D01*
X146433671Y-97241329D01*
X146461578Y-97275334D01*
X146482315Y-97314130D01*
X146495084Y-97356221D01*
X146500000Y-97406140D01*
X146500000Y-98093860D01*
X146495084Y-98143779D01*
X146482315Y-98185870D01*
X146461578Y-98224666D01*
X146433671Y-98258671D01*
X146399666Y-98286578D01*
X146360870Y-98307315D01*
X146318779Y-98320084D01*
X146268860Y-98325000D01*
X145481140Y-98325000D01*
X145431221Y-98320084D01*
X145389130Y-98307315D01*
X145350334Y-98286578D01*
X145316329Y-98258671D01*
X145288422Y-98224666D01*
X145267685Y-98185870D01*
X145254916Y-98143779D01*
X145250000Y-98093860D01*
X145250000Y-97406140D01*
X145254916Y-97356221D01*
X145267685Y-97314130D01*
X145288422Y-97275334D01*
X145316329Y-97241329D01*
X145350334Y-97213422D01*
X145389130Y-97192685D01*
X145431221Y-97179916D01*
X145481140Y-97175000D01*
X146268860Y-97175000D01*
X146318779Y-97179916D01*
X146318779Y-97179916D01*
G37*
G36*
X161893779Y-96004916D02*
X161935870Y-96017685D01*
X161974666Y-96038422D01*
X162008671Y-96066329D01*
X162036578Y-96100334D01*
X162057315Y-96139130D01*
X162070084Y-96181221D01*
X162075000Y-96231140D01*
X162075000Y-97018860D01*
X162070084Y-97068779D01*
X162057315Y-97110870D01*
X162036578Y-97149666D01*
X162008671Y-97183671D01*
X161974666Y-97211578D01*
X161935870Y-97232315D01*
X161893779Y-97245084D01*
X161843860Y-97250000D01*
X161156140Y-97250000D01*
X161106221Y-97245084D01*
X161064130Y-97232315D01*
X161025334Y-97211578D01*
X160991329Y-97183671D01*
X160963422Y-97149666D01*
X160942685Y-97110870D01*
X160929916Y-97068779D01*
X160925000Y-97018860D01*
X160925000Y-96231140D01*
X160929916Y-96181221D01*
X160942685Y-96139130D01*
X160963422Y-96100334D01*
X160991329Y-96066329D01*
X161025334Y-96038422D01*
X161064130Y-96017685D01*
X161106221Y-96004916D01*
X161156140Y-96000000D01*
X161843860Y-96000000D01*
X161893779Y-96004916D01*
X161893779Y-96004916D01*
G37*
G36*
X160143779Y-96004916D02*
X160185870Y-96017685D01*
X160224666Y-96038422D01*
X160258671Y-96066329D01*
X160286578Y-96100334D01*
X160307315Y-96139130D01*
X160320084Y-96181221D01*
X160325000Y-96231140D01*
X160325000Y-97018860D01*
X160320084Y-97068779D01*
X160307315Y-97110870D01*
X160286578Y-97149666D01*
X160258671Y-97183671D01*
X160224666Y-97211578D01*
X160185870Y-97232315D01*
X160143779Y-97245084D01*
X160093860Y-97250000D01*
X159406140Y-97250000D01*
X159356221Y-97245084D01*
X159314130Y-97232315D01*
X159275334Y-97211578D01*
X159241329Y-97183671D01*
X159213422Y-97149666D01*
X159192685Y-97110870D01*
X159179916Y-97068779D01*
X159175000Y-97018860D01*
X159175000Y-96231140D01*
X159179916Y-96181221D01*
X159192685Y-96139130D01*
X159213422Y-96100334D01*
X159241329Y-96066329D01*
X159275334Y-96038422D01*
X159314130Y-96017685D01*
X159356221Y-96004916D01*
X159406140Y-96000000D01*
X160093860Y-96000000D01*
X160143779Y-96004916D01*
X160143779Y-96004916D01*
G37*
G36*
X165893779Y-95879917D02*
X165935870Y-95892686D01*
X165974666Y-95913423D01*
X166008671Y-95941330D01*
X166036578Y-95975335D01*
X166057315Y-96014131D01*
X166070084Y-96056222D01*
X166075000Y-96106141D01*
X166075000Y-96893861D01*
X166070084Y-96943780D01*
X166057315Y-96985871D01*
X166036578Y-97024667D01*
X166008671Y-97058672D01*
X165974666Y-97086579D01*
X165935870Y-97107316D01*
X165893779Y-97120085D01*
X165843860Y-97125001D01*
X165156140Y-97125001D01*
X165106221Y-97120085D01*
X165064130Y-97107316D01*
X165025334Y-97086579D01*
X164991329Y-97058672D01*
X164963422Y-97024667D01*
X164942685Y-96985871D01*
X164929916Y-96943780D01*
X164925000Y-96893861D01*
X164925000Y-96106141D01*
X164929916Y-96056222D01*
X164942685Y-96014131D01*
X164963422Y-95975335D01*
X164991329Y-95941330D01*
X165025334Y-95913423D01*
X165064130Y-95892686D01*
X165106221Y-95879917D01*
X165156140Y-95875001D01*
X165843860Y-95875001D01*
X165893779Y-95879917D01*
X165893779Y-95879917D01*
G37*
G36*
X164120527Y-95554874D02*
X164162216Y-95567521D01*
X164200630Y-95588053D01*
X164234308Y-95615692D01*
X164261947Y-95649370D01*
X164282479Y-95687784D01*
X164295126Y-95729473D01*
X164300000Y-95778964D01*
X164300000Y-96671036D01*
X164295126Y-96720527D01*
X164282479Y-96762216D01*
X164261947Y-96800630D01*
X164234308Y-96834308D01*
X164200630Y-96861947D01*
X164162216Y-96882479D01*
X164120527Y-96895126D01*
X164071036Y-96900000D01*
X162928964Y-96900000D01*
X162879473Y-96895126D01*
X162837784Y-96882479D01*
X162799370Y-96861947D01*
X162765692Y-96834308D01*
X162738053Y-96800630D01*
X162717521Y-96762216D01*
X162704874Y-96720527D01*
X162700000Y-96671036D01*
X162700000Y-95778964D01*
X162704874Y-95729473D01*
X162717521Y-95687784D01*
X162738053Y-95649370D01*
X162765692Y-95615692D01*
X162799370Y-95588053D01*
X162837784Y-95567521D01*
X162879473Y-95554874D01*
X162928964Y-95550000D01*
X164071036Y-95550000D01*
X164120527Y-95554874D01*
X164120527Y-95554874D01*
G37*
G36*
X148143779Y-95504916D02*
X148185870Y-95517685D01*
X148224666Y-95538422D01*
X148258671Y-95566329D01*
X148286578Y-95600334D01*
X148307315Y-95639130D01*
X148320084Y-95681221D01*
X148325000Y-95731140D01*
X148325000Y-96518860D01*
X148320084Y-96568779D01*
X148307315Y-96610870D01*
X148286578Y-96649666D01*
X148258671Y-96683671D01*
X148224666Y-96711578D01*
X148185870Y-96732315D01*
X148143779Y-96745084D01*
X148093860Y-96750000D01*
X147406140Y-96750000D01*
X147356221Y-96745084D01*
X147314130Y-96732315D01*
X147275334Y-96711578D01*
X147241329Y-96683671D01*
X147213422Y-96649666D01*
X147192685Y-96610870D01*
X147179916Y-96568779D01*
X147175000Y-96518860D01*
X147175000Y-95731140D01*
X147179916Y-95681221D01*
X147192685Y-95639130D01*
X147213422Y-95600334D01*
X147241329Y-95566329D01*
X147275334Y-95538422D01*
X147314130Y-95517685D01*
X147356221Y-95504916D01*
X147406140Y-95500000D01*
X148093860Y-95500000D01*
X148143779Y-95504916D01*
X148143779Y-95504916D01*
G37*
G36*
X169130126Y-94490546D02*
X169253826Y-94502729D01*
X169452223Y-94562912D01*
X169635067Y-94660644D01*
X169698253Y-94712500D01*
X169795331Y-94792169D01*
X169861031Y-94872226D01*
X169926856Y-94952433D01*
X170024588Y-95135277D01*
X170084771Y-95333674D01*
X170105092Y-95540000D01*
X170084771Y-95746326D01*
X170024588Y-95944723D01*
X169926856Y-96127567D01*
X169864500Y-96203548D01*
X169795331Y-96287831D01*
X169727058Y-96343860D01*
X169635067Y-96419356D01*
X169452223Y-96517088D01*
X169253826Y-96577271D01*
X169130126Y-96589454D01*
X169099202Y-96592500D01*
X168900798Y-96592500D01*
X168869874Y-96589454D01*
X168746174Y-96577271D01*
X168547777Y-96517088D01*
X168364933Y-96419356D01*
X168272942Y-96343860D01*
X168204669Y-96287831D01*
X168135500Y-96203548D01*
X168073144Y-96127567D01*
X167975412Y-95944723D01*
X167915229Y-95746326D01*
X167894908Y-95540000D01*
X167915229Y-95333674D01*
X167975412Y-95135277D01*
X168073144Y-94952433D01*
X168138969Y-94872226D01*
X168204669Y-94792169D01*
X168301747Y-94712500D01*
X168364933Y-94660644D01*
X168547777Y-94562912D01*
X168746174Y-94502729D01*
X168869874Y-94490546D01*
X168900798Y-94487500D01*
X169099202Y-94487500D01*
X169130126Y-94490546D01*
X169130126Y-94490546D01*
G37*
G36*
X144568779Y-95429916D02*
X144610870Y-95442685D01*
X144649666Y-95463422D01*
X144683671Y-95491329D01*
X144711578Y-95525334D01*
X144732315Y-95564130D01*
X144745084Y-95606221D01*
X144750000Y-95656140D01*
X144750000Y-96343860D01*
X144745084Y-96393779D01*
X144732315Y-96435870D01*
X144711578Y-96474666D01*
X144683671Y-96508671D01*
X144649666Y-96536578D01*
X144610870Y-96557315D01*
X144568779Y-96570084D01*
X144518860Y-96575000D01*
X143731140Y-96575000D01*
X143681221Y-96570084D01*
X143639130Y-96557315D01*
X143600334Y-96536578D01*
X143566329Y-96508671D01*
X143538422Y-96474666D01*
X143517685Y-96435870D01*
X143504916Y-96393779D01*
X143500000Y-96343860D01*
X143500000Y-95656140D01*
X143504916Y-95606221D01*
X143517685Y-95564130D01*
X143538422Y-95525334D01*
X143566329Y-95491329D01*
X143600334Y-95463422D01*
X143639130Y-95442685D01*
X143681221Y-95429916D01*
X143731140Y-95425000D01*
X144518860Y-95425000D01*
X144568779Y-95429916D01*
X144568779Y-95429916D01*
G37*
G36*
X146318779Y-95429916D02*
X146360870Y-95442685D01*
X146399666Y-95463422D01*
X146433671Y-95491329D01*
X146461578Y-95525334D01*
X146482315Y-95564130D01*
X146495084Y-95606221D01*
X146500000Y-95656140D01*
X146500000Y-96343860D01*
X146495084Y-96393779D01*
X146482315Y-96435870D01*
X146461578Y-96474666D01*
X146433671Y-96508671D01*
X146399666Y-96536578D01*
X146360870Y-96557315D01*
X146318779Y-96570084D01*
X146268860Y-96575000D01*
X145481140Y-96575000D01*
X145431221Y-96570084D01*
X145389130Y-96557315D01*
X145350334Y-96536578D01*
X145316329Y-96508671D01*
X145288422Y-96474666D01*
X145267685Y-96435870D01*
X145254916Y-96393779D01*
X145250000Y-96343860D01*
X145250000Y-95656140D01*
X145254916Y-95606221D01*
X145267685Y-95564130D01*
X145288422Y-95525334D01*
X145316329Y-95491329D01*
X145350334Y-95463422D01*
X145389130Y-95442685D01*
X145431221Y-95429916D01*
X145481140Y-95425000D01*
X146268860Y-95425000D01*
X146318779Y-95429916D01*
X146318779Y-95429916D01*
G37*
G36*
X140366448Y-94636873D02*
X140436232Y-94643746D01*
X140491937Y-94660644D01*
X140615309Y-94698068D01*
X140780347Y-94786283D01*
X140925001Y-94904999D01*
X141043717Y-95049653D01*
X141131932Y-95214691D01*
X141131932Y-95214692D01*
X141186254Y-95393768D01*
X141204596Y-95580000D01*
X141188215Y-95746326D01*
X141186254Y-95766231D01*
X141131932Y-95945309D01*
X141043717Y-96110347D01*
X140925001Y-96255001D01*
X140780347Y-96373717D01*
X140615309Y-96461932D01*
X140573330Y-96474666D01*
X140436232Y-96516254D01*
X140366448Y-96523127D01*
X140296666Y-96530000D01*
X140203334Y-96530000D01*
X140133552Y-96523127D01*
X140063768Y-96516254D01*
X139926670Y-96474666D01*
X139884691Y-96461932D01*
X139719653Y-96373717D01*
X139574999Y-96255001D01*
X139456283Y-96110347D01*
X139368068Y-95945309D01*
X139313746Y-95766231D01*
X139311786Y-95746326D01*
X139295404Y-95580000D01*
X139313746Y-95393768D01*
X139368068Y-95214692D01*
X139368068Y-95214691D01*
X139456283Y-95049653D01*
X139574999Y-94904999D01*
X139719653Y-94786283D01*
X139884691Y-94698068D01*
X140008063Y-94660644D01*
X140063768Y-94643746D01*
X140133552Y-94636873D01*
X140203334Y-94630000D01*
X140296666Y-94630000D01*
X140366448Y-94636873D01*
X140366448Y-94636873D01*
G37*
G36*
X160068779Y-94179916D02*
X160110870Y-94192685D01*
X160149666Y-94213422D01*
X160183671Y-94241329D01*
X160211578Y-94275334D01*
X160232315Y-94314130D01*
X160245084Y-94356221D01*
X160250000Y-94406140D01*
X160250000Y-95093860D01*
X160245084Y-95143779D01*
X160232315Y-95185870D01*
X160211578Y-95224666D01*
X160183671Y-95258671D01*
X160149666Y-95286578D01*
X160110870Y-95307315D01*
X160068779Y-95320084D01*
X160018860Y-95325000D01*
X159231140Y-95325000D01*
X159181221Y-95320084D01*
X159139130Y-95307315D01*
X159100334Y-95286578D01*
X159066329Y-95258671D01*
X159038422Y-95224666D01*
X159017685Y-95185870D01*
X159004916Y-95143779D01*
X159000000Y-95093860D01*
X159000000Y-94406140D01*
X159004916Y-94356221D01*
X159017685Y-94314130D01*
X159038422Y-94275334D01*
X159066329Y-94241329D01*
X159100334Y-94213422D01*
X159139130Y-94192685D01*
X159181221Y-94179916D01*
X159231140Y-94175000D01*
X160018860Y-94175000D01*
X160068779Y-94179916D01*
X160068779Y-94179916D01*
G37*
G36*
X161818779Y-94179916D02*
X161860870Y-94192685D01*
X161899666Y-94213422D01*
X161933671Y-94241329D01*
X161961578Y-94275334D01*
X161982315Y-94314130D01*
X161995084Y-94356221D01*
X162000000Y-94406140D01*
X162000000Y-95093860D01*
X161995084Y-95143779D01*
X161982315Y-95185870D01*
X161961578Y-95224666D01*
X161933671Y-95258671D01*
X161899666Y-95286578D01*
X161860870Y-95307315D01*
X161818779Y-95320084D01*
X161768860Y-95325000D01*
X160981140Y-95325000D01*
X160931221Y-95320084D01*
X160889130Y-95307315D01*
X160850334Y-95286578D01*
X160816329Y-95258671D01*
X160788422Y-95224666D01*
X160767685Y-95185870D01*
X160754916Y-95143779D01*
X160750000Y-95093860D01*
X160750000Y-94406140D01*
X160754916Y-94356221D01*
X160767685Y-94314130D01*
X160788422Y-94275334D01*
X160816329Y-94241329D01*
X160850334Y-94213422D01*
X160889130Y-94192685D01*
X160931221Y-94179916D01*
X160981140Y-94175000D01*
X161768860Y-94175000D01*
X161818779Y-94179916D01*
X161818779Y-94179916D01*
G37*
G36*
X148143779Y-93754916D02*
X148185870Y-93767685D01*
X148224666Y-93788422D01*
X148258671Y-93816329D01*
X148286578Y-93850334D01*
X148307315Y-93889130D01*
X148320084Y-93931221D01*
X148325000Y-93981140D01*
X148325000Y-94768860D01*
X148320084Y-94818779D01*
X148307315Y-94860870D01*
X148286578Y-94899666D01*
X148258671Y-94933671D01*
X148224666Y-94961578D01*
X148185870Y-94982315D01*
X148143779Y-94995084D01*
X148093860Y-95000000D01*
X147406140Y-95000000D01*
X147356221Y-94995084D01*
X147314130Y-94982315D01*
X147275334Y-94961578D01*
X147241329Y-94933671D01*
X147213422Y-94899666D01*
X147192685Y-94860870D01*
X147179916Y-94818779D01*
X147175000Y-94768860D01*
X147175000Y-93981140D01*
X147179916Y-93931221D01*
X147192685Y-93889130D01*
X147213422Y-93850334D01*
X147241329Y-93816329D01*
X147275334Y-93788422D01*
X147314130Y-93767685D01*
X147356221Y-93754916D01*
X147406140Y-93750000D01*
X148093860Y-93750000D01*
X148143779Y-93754916D01*
X148143779Y-93754916D01*
G37*
G36*
X146318779Y-93679916D02*
X146360870Y-93692685D01*
X146399666Y-93713422D01*
X146433671Y-93741329D01*
X146461578Y-93775334D01*
X146482315Y-93814130D01*
X146495084Y-93856221D01*
X146500000Y-93906140D01*
X146500000Y-94593860D01*
X146495084Y-94643779D01*
X146482315Y-94685870D01*
X146461578Y-94724666D01*
X146433671Y-94758671D01*
X146399666Y-94786578D01*
X146360870Y-94807315D01*
X146318779Y-94820084D01*
X146268860Y-94825000D01*
X145481140Y-94825000D01*
X145431221Y-94820084D01*
X145389130Y-94807315D01*
X145350334Y-94786578D01*
X145316329Y-94758671D01*
X145288422Y-94724666D01*
X145267685Y-94685870D01*
X145254916Y-94643779D01*
X145250000Y-94593860D01*
X145250000Y-93906140D01*
X145254916Y-93856221D01*
X145267685Y-93814130D01*
X145288422Y-93775334D01*
X145316329Y-93741329D01*
X145350334Y-93713422D01*
X145389130Y-93692685D01*
X145431221Y-93679916D01*
X145481140Y-93675000D01*
X146268860Y-93675000D01*
X146318779Y-93679916D01*
X146318779Y-93679916D01*
G37*
G36*
X144568779Y-93679916D02*
X144610870Y-93692685D01*
X144649666Y-93713422D01*
X144683671Y-93741329D01*
X144711578Y-93775334D01*
X144732315Y-93814130D01*
X144745084Y-93856221D01*
X144750000Y-93906140D01*
X144750000Y-94593860D01*
X144745084Y-94643779D01*
X144732315Y-94685870D01*
X144711578Y-94724666D01*
X144683671Y-94758671D01*
X144649666Y-94786578D01*
X144610870Y-94807315D01*
X144568779Y-94820084D01*
X144518860Y-94825000D01*
X143731140Y-94825000D01*
X143681221Y-94820084D01*
X143639130Y-94807315D01*
X143600334Y-94786578D01*
X143566329Y-94758671D01*
X143538422Y-94724666D01*
X143517685Y-94685870D01*
X143504916Y-94643779D01*
X143500000Y-94593860D01*
X143500000Y-93906140D01*
X143504916Y-93856221D01*
X143517685Y-93814130D01*
X143538422Y-93775334D01*
X143566329Y-93741329D01*
X143600334Y-93713422D01*
X143639130Y-93692685D01*
X143681221Y-93679916D01*
X143731140Y-93675000D01*
X144518860Y-93675000D01*
X144568779Y-93679916D01*
X144568779Y-93679916D01*
G37*
G36*
X170100000Y-94052500D02*
X167900000Y-94052500D01*
X167900000Y-91947500D01*
X170100000Y-91947500D01*
X170100000Y-94052500D01*
X170100000Y-94052500D01*
G37*
G36*
X140366448Y-92096873D02*
X140436232Y-92103746D01*
X140525770Y-92130907D01*
X140615309Y-92158068D01*
X140780347Y-92246283D01*
X140925001Y-92364999D01*
X141043717Y-92509653D01*
X141131932Y-92674691D01*
X141186254Y-92853769D01*
X141204596Y-93040000D01*
X141186254Y-93226231D01*
X141131932Y-93405309D01*
X141043717Y-93570347D01*
X140925001Y-93715001D01*
X140780347Y-93833717D01*
X140615309Y-93921932D01*
X140525770Y-93949093D01*
X140436232Y-93976254D01*
X140386623Y-93981140D01*
X140296666Y-93990000D01*
X140203334Y-93990000D01*
X140113377Y-93981140D01*
X140063768Y-93976254D01*
X139974230Y-93949093D01*
X139884691Y-93921932D01*
X139719653Y-93833717D01*
X139574999Y-93715001D01*
X139456283Y-93570347D01*
X139368068Y-93405309D01*
X139313746Y-93226231D01*
X139295404Y-93040000D01*
X139313746Y-92853769D01*
X139368068Y-92674691D01*
X139456283Y-92509653D01*
X139574999Y-92364999D01*
X139719653Y-92246283D01*
X139884691Y-92158068D01*
X139974230Y-92130907D01*
X140063768Y-92103746D01*
X140133552Y-92096873D01*
X140203334Y-92090000D01*
X140296666Y-92090000D01*
X140366448Y-92096873D01*
X140366448Y-92096873D01*
G37*
G36*
X174143779Y-92254916D02*
X174185870Y-92267685D01*
X174224666Y-92288422D01*
X174258671Y-92316329D01*
X174286578Y-92350334D01*
X174307315Y-92389130D01*
X174320084Y-92431221D01*
X174325000Y-92481140D01*
X174325000Y-93268860D01*
X174320084Y-93318779D01*
X174307315Y-93360870D01*
X174286578Y-93399666D01*
X174258671Y-93433671D01*
X174224666Y-93461578D01*
X174185870Y-93482315D01*
X174143779Y-93495084D01*
X174093860Y-93500000D01*
X173406140Y-93500000D01*
X173356221Y-93495084D01*
X173314130Y-93482315D01*
X173275334Y-93461578D01*
X173241329Y-93433671D01*
X173213422Y-93399666D01*
X173192685Y-93360870D01*
X173179916Y-93318779D01*
X173175000Y-93268860D01*
X173175000Y-92481140D01*
X173179916Y-92431221D01*
X173192685Y-92389130D01*
X173213422Y-92350334D01*
X173241329Y-92316329D01*
X173275334Y-92288422D01*
X173314130Y-92267685D01*
X173356221Y-92254916D01*
X173406140Y-92250000D01*
X174093860Y-92250000D01*
X174143779Y-92254916D01*
X174143779Y-92254916D01*
G37*
G36*
X144568779Y-91929916D02*
X144610870Y-91942685D01*
X144649666Y-91963422D01*
X144683671Y-91991329D01*
X144711578Y-92025334D01*
X144732315Y-92064130D01*
X144745084Y-92106221D01*
X144750000Y-92156140D01*
X144750000Y-92843860D01*
X144745084Y-92893779D01*
X144732315Y-92935870D01*
X144711578Y-92974666D01*
X144683671Y-93008671D01*
X144649666Y-93036578D01*
X144610870Y-93057315D01*
X144568779Y-93070084D01*
X144518860Y-93075000D01*
X143731140Y-93075000D01*
X143681221Y-93070084D01*
X143639130Y-93057315D01*
X143600334Y-93036578D01*
X143566329Y-93008671D01*
X143538422Y-92974666D01*
X143517685Y-92935870D01*
X143504916Y-92893779D01*
X143500000Y-92843860D01*
X143500000Y-92156140D01*
X143504916Y-92106221D01*
X143517685Y-92064130D01*
X143538422Y-92025334D01*
X143566329Y-91991329D01*
X143600334Y-91963422D01*
X143639130Y-91942685D01*
X143681221Y-91929916D01*
X143731140Y-91925000D01*
X144518860Y-91925000D01*
X144568779Y-91929916D01*
X144568779Y-91929916D01*
G37*
G36*
X146318779Y-91929916D02*
X146360870Y-91942685D01*
X146399666Y-91963422D01*
X146433671Y-91991329D01*
X146461578Y-92025334D01*
X146482315Y-92064130D01*
X146495084Y-92106221D01*
X146500000Y-92156140D01*
X146500000Y-92843860D01*
X146495084Y-92893779D01*
X146482315Y-92935870D01*
X146461578Y-92974666D01*
X146433671Y-93008671D01*
X146399666Y-93036578D01*
X146360870Y-93057315D01*
X146318779Y-93070084D01*
X146268860Y-93075000D01*
X145481140Y-93075000D01*
X145431221Y-93070084D01*
X145389130Y-93057315D01*
X145350334Y-93036578D01*
X145316329Y-93008671D01*
X145288422Y-92974666D01*
X145267685Y-92935870D01*
X145254916Y-92893779D01*
X145250000Y-92843860D01*
X145250000Y-92156140D01*
X145254916Y-92106221D01*
X145267685Y-92064130D01*
X145288422Y-92025334D01*
X145316329Y-91991329D01*
X145350334Y-91963422D01*
X145389130Y-91942685D01*
X145431221Y-91929916D01*
X145481140Y-91925000D01*
X146268860Y-91925000D01*
X146318779Y-91929916D01*
X146318779Y-91929916D01*
G37*
G36*
X174143779Y-90504916D02*
X174185870Y-90517685D01*
X174224666Y-90538422D01*
X174258671Y-90566329D01*
X174286578Y-90600334D01*
X174307315Y-90639130D01*
X174320084Y-90681221D01*
X174325000Y-90731140D01*
X174325000Y-91518860D01*
X174320084Y-91568779D01*
X174307315Y-91610870D01*
X174286578Y-91649666D01*
X174258671Y-91683671D01*
X174224666Y-91711578D01*
X174185870Y-91732315D01*
X174143779Y-91745084D01*
X174093860Y-91750000D01*
X173406140Y-91750000D01*
X173356221Y-91745084D01*
X173314130Y-91732315D01*
X173275334Y-91711578D01*
X173241329Y-91683671D01*
X173213422Y-91649666D01*
X173192685Y-91610870D01*
X173179916Y-91568779D01*
X173175000Y-91518860D01*
X173175000Y-90731140D01*
X173179916Y-90681221D01*
X173192685Y-90639130D01*
X173213422Y-90600334D01*
X173241329Y-90566329D01*
X173275334Y-90538422D01*
X173314130Y-90517685D01*
X173356221Y-90504916D01*
X173406140Y-90500000D01*
X174093860Y-90500000D01*
X174143779Y-90504916D01*
X174143779Y-90504916D01*
G37*
G36*
X144456448Y-89556873D02*
X144526232Y-89563746D01*
X144615770Y-89590907D01*
X144705309Y-89618068D01*
X144870347Y-89706283D01*
X145015001Y-89824999D01*
X145133717Y-89969653D01*
X145221932Y-90134691D01*
X145221932Y-90134692D01*
X145276254Y-90313768D01*
X145294596Y-90500000D01*
X145276748Y-90681221D01*
X145276254Y-90686231D01*
X145221932Y-90865309D01*
X145133717Y-91030347D01*
X145015001Y-91175001D01*
X144870347Y-91293717D01*
X144705309Y-91381932D01*
X144615770Y-91409093D01*
X144526232Y-91436254D01*
X144386666Y-91450000D01*
X144293334Y-91450000D01*
X144153768Y-91436254D01*
X144064230Y-91409093D01*
X143974691Y-91381932D01*
X143809653Y-91293717D01*
X143664999Y-91175001D01*
X143546283Y-91030347D01*
X143458068Y-90865309D01*
X143403746Y-90686231D01*
X143403253Y-90681221D01*
X143385404Y-90500000D01*
X143403746Y-90313768D01*
X143458068Y-90134692D01*
X143458068Y-90134691D01*
X143546283Y-89969653D01*
X143664999Y-89824999D01*
X143809653Y-89706283D01*
X143974691Y-89618068D01*
X144064230Y-89590907D01*
X144153768Y-89563746D01*
X144223552Y-89556873D01*
X144293334Y-89550000D01*
X144386666Y-89550000D01*
X144456448Y-89556873D01*
X144456448Y-89556873D01*
G37*
G36*
X155450000Y-91450000D02*
X153550000Y-91450000D01*
X153550000Y-89550000D01*
X155450000Y-89550000D01*
X155450000Y-91450000D01*
X155450000Y-91450000D01*
G37*
G36*
X152076448Y-89556873D02*
X152146232Y-89563746D01*
X152235770Y-89590907D01*
X152325309Y-89618068D01*
X152490347Y-89706283D01*
X152635001Y-89824999D01*
X152753717Y-89969653D01*
X152841932Y-90134691D01*
X152841932Y-90134692D01*
X152896254Y-90313768D01*
X152914596Y-90500000D01*
X152896748Y-90681221D01*
X152896254Y-90686231D01*
X152841932Y-90865309D01*
X152753717Y-91030347D01*
X152635001Y-91175001D01*
X152490347Y-91293717D01*
X152325309Y-91381932D01*
X152235770Y-91409093D01*
X152146232Y-91436254D01*
X152076448Y-91443127D01*
X152006666Y-91450000D01*
X151913334Y-91450000D01*
X151773768Y-91436254D01*
X151684230Y-91409093D01*
X151594691Y-91381932D01*
X151429653Y-91293717D01*
X151284999Y-91175001D01*
X151166283Y-91030347D01*
X151078068Y-90865309D01*
X151023746Y-90686231D01*
X151023253Y-90681221D01*
X151005404Y-90500000D01*
X151023746Y-90313768D01*
X151078068Y-90134692D01*
X151078068Y-90134691D01*
X151166283Y-89969653D01*
X151284999Y-89824999D01*
X151429653Y-89706283D01*
X151594691Y-89618068D01*
X151684230Y-89590907D01*
X151773768Y-89563746D01*
X151843552Y-89556873D01*
X151913334Y-89550000D01*
X152006666Y-89550000D01*
X152076448Y-89556873D01*
X152076448Y-89556873D01*
G37*
G36*
X149536448Y-89556873D02*
X149606232Y-89563746D01*
X149695770Y-89590907D01*
X149785309Y-89618068D01*
X149950347Y-89706283D01*
X150095001Y-89824999D01*
X150213717Y-89969653D01*
X150301932Y-90134691D01*
X150301932Y-90134692D01*
X150356254Y-90313768D01*
X150374596Y-90500000D01*
X150356748Y-90681221D01*
X150356254Y-90686231D01*
X150301932Y-90865309D01*
X150213717Y-91030347D01*
X150095001Y-91175001D01*
X149950347Y-91293717D01*
X149785309Y-91381932D01*
X149695770Y-91409093D01*
X149606232Y-91436254D01*
X149536448Y-91443127D01*
X149466666Y-91450000D01*
X149373334Y-91450000D01*
X149233768Y-91436254D01*
X149144230Y-91409093D01*
X149054691Y-91381932D01*
X148889653Y-91293717D01*
X148744999Y-91175001D01*
X148626283Y-91030347D01*
X148538068Y-90865309D01*
X148483746Y-90686231D01*
X148483253Y-90681221D01*
X148465404Y-90500000D01*
X148483746Y-90313768D01*
X148538068Y-90134692D01*
X148538068Y-90134691D01*
X148626283Y-89969653D01*
X148744999Y-89824999D01*
X148889653Y-89706283D01*
X149054691Y-89618068D01*
X149144230Y-89590907D01*
X149233768Y-89563746D01*
X149303552Y-89556873D01*
X149373334Y-89550000D01*
X149466666Y-89550000D01*
X149536448Y-89556873D01*
X149536448Y-89556873D01*
G37*
G36*
X141200000Y-91450000D02*
X139300000Y-91450000D01*
X139300000Y-89550000D01*
X141200000Y-89550000D01*
X141200000Y-91450000D01*
X141200000Y-91450000D01*
G37*
G36*
X146996448Y-89556873D02*
X147066232Y-89563746D01*
X147155770Y-89590907D01*
X147245309Y-89618068D01*
X147410347Y-89706283D01*
X147555001Y-89824999D01*
X147673717Y-89969653D01*
X147761932Y-90134691D01*
X147761932Y-90134692D01*
X147816254Y-90313768D01*
X147834596Y-90500000D01*
X147816748Y-90681221D01*
X147816254Y-90686231D01*
X147761932Y-90865309D01*
X147673717Y-91030347D01*
X147555001Y-91175001D01*
X147410347Y-91293717D01*
X147245309Y-91381932D01*
X147155770Y-91409093D01*
X147066232Y-91436254D01*
X146996448Y-91443127D01*
X146926666Y-91450000D01*
X146833334Y-91450000D01*
X146693768Y-91436254D01*
X146604230Y-91409093D01*
X146514691Y-91381932D01*
X146349653Y-91293717D01*
X146204999Y-91175001D01*
X146086283Y-91030347D01*
X145998068Y-90865309D01*
X145943746Y-90686231D01*
X145943253Y-90681221D01*
X145925404Y-90500000D01*
X145943746Y-90313768D01*
X145998068Y-90134692D01*
X145998068Y-90134691D01*
X146086283Y-89969653D01*
X146204999Y-89824999D01*
X146349653Y-89706283D01*
X146514691Y-89618068D01*
X146604230Y-89590907D01*
X146693768Y-89563746D01*
X146763552Y-89556873D01*
X146833334Y-89550000D01*
X146926666Y-89550000D01*
X146996448Y-89556873D01*
X146996448Y-89556873D01*
G37*
G36*
X149273127Y-79376901D02*
X149408365Y-79403801D01*
X149663149Y-79509336D01*
X149889397Y-79660511D01*
X149892451Y-79662551D01*
X150087449Y-79857549D01*
X150087451Y-79857552D01*
X150240664Y-80086851D01*
X150292710Y-80212500D01*
X150346199Y-80341636D01*
X150400000Y-80612111D01*
X150400000Y-80887889D01*
X150346199Y-81158364D01*
X150240665Y-81413147D01*
X150087449Y-81642451D01*
X149892451Y-81837449D01*
X149892448Y-81837451D01*
X149663149Y-81990664D01*
X149408365Y-82096199D01*
X149273127Y-82123099D01*
X149137889Y-82150000D01*
X148862111Y-82150000D01*
X148726874Y-82123100D01*
X148591635Y-82096199D01*
X148336851Y-81990664D01*
X148107552Y-81837451D01*
X148107549Y-81837449D01*
X147912551Y-81642451D01*
X147759335Y-81413147D01*
X147653801Y-81158364D01*
X147600000Y-80887889D01*
X147600000Y-80612111D01*
X147653801Y-80341636D01*
X147707291Y-80212500D01*
X147759336Y-80086851D01*
X147912549Y-79857552D01*
X147912551Y-79857549D01*
X148107549Y-79662551D01*
X148110603Y-79660511D01*
X148336851Y-79509336D01*
X148591635Y-79403801D01*
X148726874Y-79376900D01*
X148862111Y-79350000D01*
X149137889Y-79350000D01*
X149273127Y-79376901D01*
X149273127Y-79376901D01*
G37*
G36*
X158523127Y-79376901D02*
X158658365Y-79403801D01*
X158913149Y-79509336D01*
X159139397Y-79660511D01*
X159142451Y-79662551D01*
X159337449Y-79857549D01*
X159337451Y-79857552D01*
X159490664Y-80086851D01*
X159542710Y-80212500D01*
X159596199Y-80341636D01*
X159650000Y-80612111D01*
X159650000Y-80887889D01*
X159596199Y-81158364D01*
X159490665Y-81413147D01*
X159337449Y-81642451D01*
X159142451Y-81837449D01*
X159142448Y-81837451D01*
X158913149Y-81990664D01*
X158658365Y-82096199D01*
X158523127Y-82123099D01*
X158387889Y-82150000D01*
X158112111Y-82150000D01*
X157976874Y-82123100D01*
X157841635Y-82096199D01*
X157586851Y-81990664D01*
X157357552Y-81837451D01*
X157357549Y-81837449D01*
X157162551Y-81642451D01*
X157009335Y-81413147D01*
X156903801Y-81158364D01*
X156850000Y-80887889D01*
X156850000Y-80612111D01*
X156903801Y-80341636D01*
X156957291Y-80212500D01*
X157009336Y-80086851D01*
X157162549Y-79857552D01*
X157162551Y-79857549D01*
X157357549Y-79662551D01*
X157360603Y-79660511D01*
X157586851Y-79509336D01*
X157841635Y-79403801D01*
X157976874Y-79376900D01*
X158112111Y-79350000D01*
X158387889Y-79350000D01*
X158523127Y-79376901D01*
X158523127Y-79376901D01*
G37*
G36*
X170568779Y-79929916D02*
X170610870Y-79942685D01*
X170649666Y-79963422D01*
X170683671Y-79991329D01*
X170711578Y-80025334D01*
X170732315Y-80064130D01*
X170745084Y-80106221D01*
X170750000Y-80156140D01*
X170750000Y-80843860D01*
X170745084Y-80893779D01*
X170732315Y-80935870D01*
X170711578Y-80974666D01*
X170683671Y-81008671D01*
X170649666Y-81036578D01*
X170610870Y-81057315D01*
X170568779Y-81070084D01*
X170518860Y-81075000D01*
X169731140Y-81075000D01*
X169681221Y-81070084D01*
X169639130Y-81057315D01*
X169600334Y-81036578D01*
X169566329Y-81008671D01*
X169538422Y-80974666D01*
X169517685Y-80935870D01*
X169504916Y-80893779D01*
X169500000Y-80843860D01*
X169500000Y-80156140D01*
X169504916Y-80106221D01*
X169517685Y-80064130D01*
X169538422Y-80025334D01*
X169566329Y-79991329D01*
X169600334Y-79963422D01*
X169639130Y-79942685D01*
X169681221Y-79929916D01*
X169731140Y-79925000D01*
X170518860Y-79925000D01*
X170568779Y-79929916D01*
X170568779Y-79929916D01*
G37*
G36*
X168818779Y-79929916D02*
X168860870Y-79942685D01*
X168899666Y-79963422D01*
X168933671Y-79991329D01*
X168961578Y-80025334D01*
X168982315Y-80064130D01*
X168995084Y-80106221D01*
X169000000Y-80156140D01*
X169000000Y-80843860D01*
X168995084Y-80893779D01*
X168982315Y-80935870D01*
X168961578Y-80974666D01*
X168933671Y-81008671D01*
X168899666Y-81036578D01*
X168860870Y-81057315D01*
X168818779Y-81070084D01*
X168768860Y-81075000D01*
X167981140Y-81075000D01*
X167931221Y-81070084D01*
X167889130Y-81057315D01*
X167850334Y-81036578D01*
X167816329Y-81008671D01*
X167788422Y-80974666D01*
X167767685Y-80935870D01*
X167754916Y-80893779D01*
X167750000Y-80843860D01*
X167750000Y-80156140D01*
X167754916Y-80106221D01*
X167767685Y-80064130D01*
X167788422Y-80025334D01*
X167816329Y-79991329D01*
X167850334Y-79963422D01*
X167889130Y-79942685D01*
X167931221Y-79929916D01*
X167981140Y-79925000D01*
X168768860Y-79925000D01*
X168818779Y-79929916D01*
X168818779Y-79929916D01*
G37*
G36*
X170568779Y-78179916D02*
X170610870Y-78192685D01*
X170649666Y-78213422D01*
X170683671Y-78241329D01*
X170711578Y-78275334D01*
X170732315Y-78314130D01*
X170745084Y-78356221D01*
X170750000Y-78406140D01*
X170750000Y-79093860D01*
X170745084Y-79143779D01*
X170732315Y-79185870D01*
X170711578Y-79224666D01*
X170683671Y-79258671D01*
X170649666Y-79286578D01*
X170610870Y-79307315D01*
X170568779Y-79320084D01*
X170518860Y-79325000D01*
X169731140Y-79325000D01*
X169681221Y-79320084D01*
X169639130Y-79307315D01*
X169600334Y-79286578D01*
X169566329Y-79258671D01*
X169538422Y-79224666D01*
X169517685Y-79185870D01*
X169504916Y-79143779D01*
X169500000Y-79093860D01*
X169500000Y-78406140D01*
X169504916Y-78356221D01*
X169517685Y-78314130D01*
X169538422Y-78275334D01*
X169566329Y-78241329D01*
X169600334Y-78213422D01*
X169639130Y-78192685D01*
X169681221Y-78179916D01*
X169731140Y-78175000D01*
X170518860Y-78175000D01*
X170568779Y-78179916D01*
X170568779Y-78179916D01*
G37*
G36*
X168818779Y-78179916D02*
X168860870Y-78192685D01*
X168899666Y-78213422D01*
X168933671Y-78241329D01*
X168961578Y-78275334D01*
X168982315Y-78314130D01*
X168995084Y-78356221D01*
X169000000Y-78406140D01*
X169000000Y-79093860D01*
X168995084Y-79143779D01*
X168982315Y-79185870D01*
X168961578Y-79224666D01*
X168933671Y-79258671D01*
X168899666Y-79286578D01*
X168860870Y-79307315D01*
X168818779Y-79320084D01*
X168768860Y-79325000D01*
X167981140Y-79325000D01*
X167931221Y-79320084D01*
X167889130Y-79307315D01*
X167850334Y-79286578D01*
X167816329Y-79258671D01*
X167788422Y-79224666D01*
X167767685Y-79185870D01*
X167754916Y-79143779D01*
X167750000Y-79093860D01*
X167750000Y-78406140D01*
X167754916Y-78356221D01*
X167767685Y-78314130D01*
X167788422Y-78275334D01*
X167816329Y-78241329D01*
X167850334Y-78213422D01*
X167889130Y-78192685D01*
X167931221Y-78179916D01*
X167981140Y-78175000D01*
X168768860Y-78175000D01*
X168818779Y-78179916D01*
X168818779Y-78179916D01*
G37*
G36*
X139436232Y-74973746D02*
X139525770Y-75000907D01*
X139615309Y-75028068D01*
X139780347Y-75116283D01*
X139925001Y-75234999D01*
X140043717Y-75379653D01*
X140131932Y-75544691D01*
X140186254Y-75723769D01*
X140204596Y-75910000D01*
X140186254Y-76096231D01*
X140131932Y-76275309D01*
X140043717Y-76440347D01*
X139925001Y-76585001D01*
X139780347Y-76703717D01*
X139615309Y-76791932D01*
X139525770Y-76819093D01*
X139436232Y-76846254D01*
X139366448Y-76853127D01*
X139296666Y-76860000D01*
X139203334Y-76860000D01*
X139133552Y-76853127D01*
X139063768Y-76846254D01*
X138974230Y-76819093D01*
X138884691Y-76791932D01*
X138719653Y-76703717D01*
X138574999Y-76585001D01*
X138456283Y-76440347D01*
X138368068Y-76275309D01*
X138313746Y-76096231D01*
X138295404Y-75910000D01*
X138313746Y-75723769D01*
X138368068Y-75544691D01*
X138456283Y-75379653D01*
X138574999Y-75234999D01*
X138719653Y-75116283D01*
X138884691Y-75028068D01*
X138974230Y-75000907D01*
X139063768Y-74973746D01*
X139203334Y-74960000D01*
X139296666Y-74960000D01*
X139436232Y-74973746D01*
X139436232Y-74973746D01*
G37*
G36*
X169130126Y-73280546D02*
X169253826Y-73292729D01*
X169452223Y-73352912D01*
X169635067Y-73450644D01*
X169711048Y-73513000D01*
X169795331Y-73582169D01*
X169864500Y-73666452D01*
X169926856Y-73742433D01*
X170024588Y-73925277D01*
X170084771Y-74123674D01*
X170105092Y-74330000D01*
X170084771Y-74536326D01*
X170024588Y-74734723D01*
X169926856Y-74917567D01*
X169864500Y-74993548D01*
X169795331Y-75077831D01*
X169711048Y-75147000D01*
X169635067Y-75209356D01*
X169452223Y-75307088D01*
X169253826Y-75367271D01*
X169130126Y-75379454D01*
X169099202Y-75382500D01*
X168900798Y-75382500D01*
X168869874Y-75379454D01*
X168746174Y-75367271D01*
X168547777Y-75307088D01*
X168364933Y-75209356D01*
X168288952Y-75147000D01*
X168204669Y-75077831D01*
X168135500Y-74993548D01*
X168073144Y-74917567D01*
X167975412Y-74734723D01*
X167915229Y-74536326D01*
X167894908Y-74330000D01*
X167915229Y-74123674D01*
X167975412Y-73925277D01*
X168073144Y-73742433D01*
X168135500Y-73666452D01*
X168204669Y-73582169D01*
X168288952Y-73513000D01*
X168364933Y-73450644D01*
X168547777Y-73352912D01*
X168746174Y-73292729D01*
X168869874Y-73280546D01*
X168900798Y-73277500D01*
X169099202Y-73277500D01*
X169130126Y-73280546D01*
X169130126Y-73280546D01*
G37*
G36*
X162393779Y-74004916D02*
X162435870Y-74017685D01*
X162474666Y-74038422D01*
X162508671Y-74066329D01*
X162536578Y-74100334D01*
X162557315Y-74139130D01*
X162570084Y-74181221D01*
X162575000Y-74231140D01*
X162575000Y-75018860D01*
X162570084Y-75068779D01*
X162557315Y-75110870D01*
X162536578Y-75149666D01*
X162508671Y-75183671D01*
X162474666Y-75211578D01*
X162435870Y-75232315D01*
X162393779Y-75245084D01*
X162343860Y-75250000D01*
X161656140Y-75250000D01*
X161606221Y-75245084D01*
X161564130Y-75232315D01*
X161525334Y-75211578D01*
X161491329Y-75183671D01*
X161463422Y-75149666D01*
X161442685Y-75110870D01*
X161429916Y-75068779D01*
X161425000Y-75018860D01*
X161425000Y-74231140D01*
X161429916Y-74181221D01*
X161442685Y-74139130D01*
X161463422Y-74100334D01*
X161491329Y-74066329D01*
X161525334Y-74038422D01*
X161564130Y-74017685D01*
X161606221Y-74004916D01*
X161656140Y-74000000D01*
X162343860Y-74000000D01*
X162393779Y-74004916D01*
X162393779Y-74004916D01*
G37*
G36*
X160643779Y-74004916D02*
X160685870Y-74017685D01*
X160724666Y-74038422D01*
X160758671Y-74066329D01*
X160786578Y-74100334D01*
X160807315Y-74139130D01*
X160820084Y-74181221D01*
X160825000Y-74231140D01*
X160825000Y-75018860D01*
X160820084Y-75068779D01*
X160807315Y-75110870D01*
X160786578Y-75149666D01*
X160758671Y-75183671D01*
X160724666Y-75211578D01*
X160685870Y-75232315D01*
X160643779Y-75245084D01*
X160593860Y-75250000D01*
X159906140Y-75250000D01*
X159856221Y-75245084D01*
X159814130Y-75232315D01*
X159775334Y-75211578D01*
X159741329Y-75183671D01*
X159713422Y-75149666D01*
X159692685Y-75110870D01*
X159679916Y-75068779D01*
X159675000Y-75018860D01*
X159675000Y-74231140D01*
X159679916Y-74181221D01*
X159692685Y-74139130D01*
X159713422Y-74100334D01*
X159741329Y-74066329D01*
X159775334Y-74038422D01*
X159814130Y-74017685D01*
X159856221Y-74004916D01*
X159906140Y-74000000D01*
X160593860Y-74000000D01*
X160643779Y-74004916D01*
X160643779Y-74004916D01*
G37*
G36*
X166393779Y-74004916D02*
X166435870Y-74017685D01*
X166474666Y-74038422D01*
X166508671Y-74066329D01*
X166536578Y-74100334D01*
X166557315Y-74139130D01*
X166570084Y-74181221D01*
X166575000Y-74231140D01*
X166575000Y-75018860D01*
X166570084Y-75068779D01*
X166557315Y-75110870D01*
X166536578Y-75149666D01*
X166508671Y-75183671D01*
X166474666Y-75211578D01*
X166435870Y-75232315D01*
X166393779Y-75245084D01*
X166343860Y-75250000D01*
X165656140Y-75250000D01*
X165606221Y-75245084D01*
X165564130Y-75232315D01*
X165525334Y-75211578D01*
X165491329Y-75183671D01*
X165463422Y-75149666D01*
X165442685Y-75110870D01*
X165429916Y-75068779D01*
X165425000Y-75018860D01*
X165425000Y-74231140D01*
X165429916Y-74181221D01*
X165442685Y-74139130D01*
X165463422Y-74100334D01*
X165491329Y-74066329D01*
X165525334Y-74038422D01*
X165564130Y-74017685D01*
X165606221Y-74004916D01*
X165656140Y-74000000D01*
X166343860Y-74000000D01*
X166393779Y-74004916D01*
X166393779Y-74004916D01*
G37*
G36*
X157016600Y-75225000D02*
X155766600Y-75225000D01*
X155766600Y-70025000D01*
X157016600Y-70025000D01*
X157016600Y-75225000D01*
X157016600Y-75225000D01*
G37*
G36*
X151466600Y-75225000D02*
X150216600Y-75225000D01*
X150216600Y-70025000D01*
X151466600Y-70025000D01*
X151466600Y-75225000D01*
X151466600Y-75225000D01*
G37*
G36*
X155416600Y-75225000D02*
X151816600Y-75225000D01*
X151816600Y-70025000D01*
X155416600Y-70025000D01*
X155416600Y-75225000D01*
X155416600Y-75225000D01*
G37*
G36*
X164620527Y-73854874D02*
X164662216Y-73867521D01*
X164700630Y-73888053D01*
X164734308Y-73915692D01*
X164761947Y-73949370D01*
X164782479Y-73987784D01*
X164795126Y-74029473D01*
X164800000Y-74078964D01*
X164800000Y-74971036D01*
X164795126Y-75020527D01*
X164782479Y-75062216D01*
X164761947Y-75100630D01*
X164734308Y-75134308D01*
X164700630Y-75161947D01*
X164662216Y-75182479D01*
X164620527Y-75195126D01*
X164571036Y-75200000D01*
X163428964Y-75200000D01*
X163379473Y-75195126D01*
X163337784Y-75182479D01*
X163299370Y-75161947D01*
X163265692Y-75134308D01*
X163238053Y-75100630D01*
X163217521Y-75062216D01*
X163204874Y-75020527D01*
X163200000Y-74971036D01*
X163200000Y-74078964D01*
X163204874Y-74029473D01*
X163217521Y-73987784D01*
X163238053Y-73949370D01*
X163265692Y-73915692D01*
X163299370Y-73888053D01*
X163337784Y-73867521D01*
X163379473Y-73854874D01*
X163428964Y-73850000D01*
X164571036Y-73850000D01*
X164620527Y-73854874D01*
X164620527Y-73854874D01*
G37*
G36*
X143568779Y-73179916D02*
X143610870Y-73192685D01*
X143649666Y-73213422D01*
X143683671Y-73241329D01*
X143711578Y-73275334D01*
X143732315Y-73314130D01*
X143745084Y-73356221D01*
X143750000Y-73406140D01*
X143750000Y-74093860D01*
X143745084Y-74143779D01*
X143732315Y-74185870D01*
X143711578Y-74224666D01*
X143683671Y-74258671D01*
X143649666Y-74286578D01*
X143610870Y-74307315D01*
X143568779Y-74320084D01*
X143518860Y-74325000D01*
X142731140Y-74325000D01*
X142681221Y-74320084D01*
X142639130Y-74307315D01*
X142600334Y-74286578D01*
X142566329Y-74258671D01*
X142538422Y-74224666D01*
X142517685Y-74185870D01*
X142504916Y-74143779D01*
X142500000Y-74093860D01*
X142500000Y-73406140D01*
X142504916Y-73356221D01*
X142517685Y-73314130D01*
X142538422Y-73275334D01*
X142566329Y-73241329D01*
X142600334Y-73213422D01*
X142639130Y-73192685D01*
X142681221Y-73179916D01*
X142731140Y-73175000D01*
X143518860Y-73175000D01*
X143568779Y-73179916D01*
X143568779Y-73179916D01*
G37*
G36*
X145318779Y-73179916D02*
X145360870Y-73192685D01*
X145399666Y-73213422D01*
X145433671Y-73241329D01*
X145461578Y-73275334D01*
X145482315Y-73314130D01*
X145495084Y-73356221D01*
X145500000Y-73406140D01*
X145500000Y-74093860D01*
X145495084Y-74143779D01*
X145482315Y-74185870D01*
X145461578Y-74224666D01*
X145433671Y-74258671D01*
X145399666Y-74286578D01*
X145360870Y-74307315D01*
X145318779Y-74320084D01*
X145268860Y-74325000D01*
X144481140Y-74325000D01*
X144431221Y-74320084D01*
X144389130Y-74307315D01*
X144350334Y-74286578D01*
X144316329Y-74258671D01*
X144288422Y-74224666D01*
X144267685Y-74185870D01*
X144254916Y-74143779D01*
X144250000Y-74093860D01*
X144250000Y-73406140D01*
X144254916Y-73356221D01*
X144267685Y-73314130D01*
X144288422Y-73275334D01*
X144316329Y-73241329D01*
X144350334Y-73213422D01*
X144389130Y-73192685D01*
X144431221Y-73179916D01*
X144481140Y-73175000D01*
X145268860Y-73175000D01*
X145318779Y-73179916D01*
X145318779Y-73179916D01*
G37*
G36*
X139436232Y-72433746D02*
X139494917Y-72451548D01*
X139615309Y-72488068D01*
X139780347Y-72576283D01*
X139925001Y-72694999D01*
X140043717Y-72839653D01*
X140131932Y-73004691D01*
X140136445Y-73019570D01*
X140185086Y-73179916D01*
X140186254Y-73183769D01*
X140204596Y-73370000D01*
X140186254Y-73556231D01*
X140131932Y-73735309D01*
X140043717Y-73900347D01*
X139925001Y-74045001D01*
X139780347Y-74163717D01*
X139615309Y-74251932D01*
X139534160Y-74276548D01*
X139436232Y-74306254D01*
X139425459Y-74307315D01*
X139296666Y-74320000D01*
X139203334Y-74320000D01*
X139074541Y-74307315D01*
X139063768Y-74306254D01*
X138965840Y-74276548D01*
X138884691Y-74251932D01*
X138719653Y-74163717D01*
X138574999Y-74045001D01*
X138456283Y-73900347D01*
X138368068Y-73735309D01*
X138313746Y-73556231D01*
X138295404Y-73370000D01*
X138313746Y-73183769D01*
X138314915Y-73179916D01*
X138363555Y-73019570D01*
X138368068Y-73004691D01*
X138456283Y-72839653D01*
X138574999Y-72694999D01*
X138719653Y-72576283D01*
X138884691Y-72488068D01*
X139005083Y-72451548D01*
X139063768Y-72433746D01*
X139203334Y-72420000D01*
X139296666Y-72420000D01*
X139436232Y-72433746D01*
X139436232Y-72433746D01*
G37*
G36*
X166393779Y-72254916D02*
X166435870Y-72267685D01*
X166474666Y-72288422D01*
X166508671Y-72316329D01*
X166536578Y-72350334D01*
X166557315Y-72389130D01*
X166570084Y-72431221D01*
X166575000Y-72481140D01*
X166575000Y-73268860D01*
X166570084Y-73318779D01*
X166557315Y-73360870D01*
X166536578Y-73399666D01*
X166508671Y-73433671D01*
X166474666Y-73461578D01*
X166435870Y-73482315D01*
X166393779Y-73495084D01*
X166343860Y-73500000D01*
X165656140Y-73500000D01*
X165606221Y-73495084D01*
X165564130Y-73482315D01*
X165525334Y-73461578D01*
X165491329Y-73433671D01*
X165463422Y-73399666D01*
X165442685Y-73360870D01*
X165429916Y-73318779D01*
X165425000Y-73268860D01*
X165425000Y-72481140D01*
X165429916Y-72431221D01*
X165442685Y-72389130D01*
X165463422Y-72350334D01*
X165491329Y-72316329D01*
X165525334Y-72288422D01*
X165564130Y-72267685D01*
X165606221Y-72254916D01*
X165656140Y-72250000D01*
X166343860Y-72250000D01*
X166393779Y-72254916D01*
X166393779Y-72254916D01*
G37*
G36*
X162393779Y-72254916D02*
X162435870Y-72267685D01*
X162474666Y-72288422D01*
X162508671Y-72316329D01*
X162536578Y-72350334D01*
X162557315Y-72389130D01*
X162570084Y-72431221D01*
X162575000Y-72481140D01*
X162575000Y-73268860D01*
X162570084Y-73318779D01*
X162557315Y-73360870D01*
X162536578Y-73399666D01*
X162508671Y-73433671D01*
X162474666Y-73461578D01*
X162435870Y-73482315D01*
X162393779Y-73495084D01*
X162343860Y-73500000D01*
X161656140Y-73500000D01*
X161606221Y-73495084D01*
X161564130Y-73482315D01*
X161525334Y-73461578D01*
X161491329Y-73433671D01*
X161463422Y-73399666D01*
X161442685Y-73360870D01*
X161429916Y-73318779D01*
X161425000Y-73268860D01*
X161425000Y-72481140D01*
X161429916Y-72431221D01*
X161442685Y-72389130D01*
X161463422Y-72350334D01*
X161491329Y-72316329D01*
X161525334Y-72288422D01*
X161564130Y-72267685D01*
X161606221Y-72254916D01*
X161656140Y-72250000D01*
X162343860Y-72250000D01*
X162393779Y-72254916D01*
X162393779Y-72254916D01*
G37*
G36*
X160643779Y-72254916D02*
X160685870Y-72267685D01*
X160724666Y-72288422D01*
X160758671Y-72316329D01*
X160786578Y-72350334D01*
X160807315Y-72389130D01*
X160820084Y-72431221D01*
X160825000Y-72481140D01*
X160825000Y-73268860D01*
X160820084Y-73318779D01*
X160807315Y-73360870D01*
X160786578Y-73399666D01*
X160758671Y-73433671D01*
X160724666Y-73461578D01*
X160685870Y-73482315D01*
X160643779Y-73495084D01*
X160593860Y-73500000D01*
X159906140Y-73500000D01*
X159856221Y-73495084D01*
X159814130Y-73482315D01*
X159775334Y-73461578D01*
X159741329Y-73433671D01*
X159713422Y-73399666D01*
X159692685Y-73360870D01*
X159679916Y-73318779D01*
X159675000Y-73268860D01*
X159675000Y-72481140D01*
X159679916Y-72431221D01*
X159692685Y-72389130D01*
X159713422Y-72350334D01*
X159741329Y-72316329D01*
X159775334Y-72288422D01*
X159814130Y-72267685D01*
X159856221Y-72254916D01*
X159906140Y-72250000D01*
X160593860Y-72250000D01*
X160643779Y-72254916D01*
X160643779Y-72254916D01*
G37*
G36*
X164620527Y-71804874D02*
X164662216Y-71817521D01*
X164700630Y-71838053D01*
X164734308Y-71865692D01*
X164761947Y-71899370D01*
X164782479Y-71937784D01*
X164795126Y-71979473D01*
X164800000Y-72028964D01*
X164800000Y-72921036D01*
X164795126Y-72970527D01*
X164782479Y-73012216D01*
X164761947Y-73050630D01*
X164734308Y-73084308D01*
X164700630Y-73111947D01*
X164662216Y-73132479D01*
X164620527Y-73145126D01*
X164571036Y-73150000D01*
X163428964Y-73150000D01*
X163379473Y-73145126D01*
X163337784Y-73132479D01*
X163299370Y-73111947D01*
X163265692Y-73084308D01*
X163238053Y-73050630D01*
X163217521Y-73012216D01*
X163204874Y-72970527D01*
X163200000Y-72921036D01*
X163200000Y-72028964D01*
X163204874Y-71979473D01*
X163217521Y-71937784D01*
X163238053Y-71899370D01*
X163265692Y-71865692D01*
X163299370Y-71838053D01*
X163337784Y-71817521D01*
X163379473Y-71804874D01*
X163428964Y-71800000D01*
X164571036Y-71800000D01*
X164620527Y-71804874D01*
X164620527Y-71804874D01*
G37*
G36*
X169130126Y-70740546D02*
X169253826Y-70752729D01*
X169452223Y-70812912D01*
X169635067Y-70910644D01*
X169711048Y-70973000D01*
X169795331Y-71042169D01*
X169864500Y-71126452D01*
X169926856Y-71202433D01*
X170024588Y-71385277D01*
X170084771Y-71583674D01*
X170105092Y-71790000D01*
X170084771Y-71996326D01*
X170024588Y-72194723D01*
X169926856Y-72377567D01*
X169879007Y-72435870D01*
X169795331Y-72537831D01*
X169711048Y-72607000D01*
X169635067Y-72669356D01*
X169452223Y-72767088D01*
X169253826Y-72827271D01*
X169130126Y-72839454D01*
X169099202Y-72842500D01*
X168900798Y-72842500D01*
X168869874Y-72839454D01*
X168746174Y-72827271D01*
X168547777Y-72767088D01*
X168364933Y-72669356D01*
X168288952Y-72607000D01*
X168204669Y-72537831D01*
X168120993Y-72435870D01*
X168073144Y-72377567D01*
X167975412Y-72194723D01*
X167915229Y-71996326D01*
X167894908Y-71790000D01*
X167915229Y-71583674D01*
X167975412Y-71385277D01*
X168073144Y-71202433D01*
X168135500Y-71126452D01*
X168204669Y-71042169D01*
X168288952Y-70973000D01*
X168364933Y-70910644D01*
X168547777Y-70812912D01*
X168746174Y-70752729D01*
X168869874Y-70740546D01*
X168900798Y-70737500D01*
X169099202Y-70737500D01*
X169130126Y-70740546D01*
X169130126Y-70740546D01*
G37*
G36*
X145318779Y-71429916D02*
X145360870Y-71442685D01*
X145399666Y-71463422D01*
X145433671Y-71491329D01*
X145461578Y-71525334D01*
X145482315Y-71564130D01*
X145495084Y-71606221D01*
X145500000Y-71656140D01*
X145500000Y-72343860D01*
X145495084Y-72393779D01*
X145482315Y-72435870D01*
X145461578Y-72474666D01*
X145433671Y-72508671D01*
X145399666Y-72536578D01*
X145360870Y-72557315D01*
X145318779Y-72570084D01*
X145268860Y-72575000D01*
X144481140Y-72575000D01*
X144431221Y-72570084D01*
X144389130Y-72557315D01*
X144350334Y-72536578D01*
X144316329Y-72508671D01*
X144288422Y-72474666D01*
X144267685Y-72435870D01*
X144254916Y-72393779D01*
X144250000Y-72343860D01*
X144250000Y-71656140D01*
X144254916Y-71606221D01*
X144267685Y-71564130D01*
X144288422Y-71525334D01*
X144316329Y-71491329D01*
X144350334Y-71463422D01*
X144389130Y-71442685D01*
X144431221Y-71429916D01*
X144481140Y-71425000D01*
X145268860Y-71425000D01*
X145318779Y-71429916D01*
X145318779Y-71429916D01*
G37*
G36*
X143568779Y-71429916D02*
X143610870Y-71442685D01*
X143649666Y-71463422D01*
X143683671Y-71491329D01*
X143711578Y-71525334D01*
X143732315Y-71564130D01*
X143745084Y-71606221D01*
X143750000Y-71656140D01*
X143750000Y-72343860D01*
X143745084Y-72393779D01*
X143732315Y-72435870D01*
X143711578Y-72474666D01*
X143683671Y-72508671D01*
X143649666Y-72536578D01*
X143610870Y-72557315D01*
X143568779Y-72570084D01*
X143518860Y-72575000D01*
X142731140Y-72575000D01*
X142681221Y-72570084D01*
X142639130Y-72557315D01*
X142600334Y-72536578D01*
X142566329Y-72508671D01*
X142538422Y-72474666D01*
X142517685Y-72435870D01*
X142504916Y-72393779D01*
X142500000Y-72343860D01*
X142500000Y-71656140D01*
X142504916Y-71606221D01*
X142517685Y-71564130D01*
X142538422Y-71525334D01*
X142566329Y-71491329D01*
X142600334Y-71463422D01*
X142639130Y-71442685D01*
X142681221Y-71429916D01*
X142731140Y-71425000D01*
X143518860Y-71425000D01*
X143568779Y-71429916D01*
X143568779Y-71429916D01*
G37*
G36*
X147143779Y-71254916D02*
X147185870Y-71267685D01*
X147224666Y-71288422D01*
X147258671Y-71316329D01*
X147286578Y-71350334D01*
X147307315Y-71389130D01*
X147320084Y-71431221D01*
X147325000Y-71481140D01*
X147325000Y-72268860D01*
X147320084Y-72318779D01*
X147307315Y-72360870D01*
X147286578Y-72399666D01*
X147258671Y-72433671D01*
X147224666Y-72461578D01*
X147185870Y-72482315D01*
X147143779Y-72495084D01*
X147093860Y-72500000D01*
X146406140Y-72500000D01*
X146356221Y-72495084D01*
X146314130Y-72482315D01*
X146275334Y-72461578D01*
X146241329Y-72433671D01*
X146213422Y-72399666D01*
X146192685Y-72360870D01*
X146179916Y-72318779D01*
X146175000Y-72268860D01*
X146175000Y-71481140D01*
X146179916Y-71431221D01*
X146192685Y-71389130D01*
X146213422Y-71350334D01*
X146241329Y-71316329D01*
X146275334Y-71288422D01*
X146314130Y-71267685D01*
X146356221Y-71254916D01*
X146406140Y-71250000D01*
X147093860Y-71250000D01*
X147143779Y-71254916D01*
X147143779Y-71254916D01*
G37*
G36*
X139366448Y-69886873D02*
X139436232Y-69893746D01*
X139477986Y-69906412D01*
X139615309Y-69948068D01*
X139780347Y-70036283D01*
X139925001Y-70154999D01*
X140043717Y-70299653D01*
X140131932Y-70464691D01*
X140148281Y-70518588D01*
X140186254Y-70643768D01*
X140200319Y-70786578D01*
X140204596Y-70830000D01*
X140186254Y-71016231D01*
X140131932Y-71195309D01*
X140043717Y-71360347D01*
X139925001Y-71505001D01*
X139780347Y-71623717D01*
X139615309Y-71711932D01*
X139525770Y-71739093D01*
X139436232Y-71766254D01*
X139366448Y-71773127D01*
X139296666Y-71780000D01*
X139203334Y-71780000D01*
X139133552Y-71773127D01*
X139063768Y-71766254D01*
X138974230Y-71739093D01*
X138884691Y-71711932D01*
X138719653Y-71623717D01*
X138574999Y-71505001D01*
X138456283Y-71360347D01*
X138368068Y-71195309D01*
X138313746Y-71016231D01*
X138295404Y-70830000D01*
X138299681Y-70786578D01*
X138313746Y-70643768D01*
X138351719Y-70518588D01*
X138368068Y-70464691D01*
X138456283Y-70299653D01*
X138574999Y-70154999D01*
X138719653Y-70036283D01*
X138884691Y-69948068D01*
X139022014Y-69906412D01*
X139063768Y-69893746D01*
X139133552Y-69886873D01*
X139203334Y-69880000D01*
X139296666Y-69880000D01*
X139366448Y-69886873D01*
X139366448Y-69886873D01*
G37*
G36*
X162568779Y-70429916D02*
X162610870Y-70442685D01*
X162649666Y-70463422D01*
X162683671Y-70491329D01*
X162711578Y-70525334D01*
X162732315Y-70564130D01*
X162745084Y-70606221D01*
X162750000Y-70656140D01*
X162750000Y-71343860D01*
X162745084Y-71393779D01*
X162732315Y-71435870D01*
X162711578Y-71474666D01*
X162683671Y-71508671D01*
X162649666Y-71536578D01*
X162610870Y-71557315D01*
X162568779Y-71570084D01*
X162518860Y-71575000D01*
X161731140Y-71575000D01*
X161681221Y-71570084D01*
X161639130Y-71557315D01*
X161600334Y-71536578D01*
X161566329Y-71508671D01*
X161538422Y-71474666D01*
X161517685Y-71435870D01*
X161504916Y-71393779D01*
X161500000Y-71343860D01*
X161500000Y-70656140D01*
X161504916Y-70606221D01*
X161517685Y-70564130D01*
X161538422Y-70525334D01*
X161566329Y-70491329D01*
X161600334Y-70463422D01*
X161639130Y-70442685D01*
X161681221Y-70429916D01*
X161731140Y-70425000D01*
X162518860Y-70425000D01*
X162568779Y-70429916D01*
X162568779Y-70429916D01*
G37*
G36*
X160818779Y-70429916D02*
X160860870Y-70442685D01*
X160899666Y-70463422D01*
X160933671Y-70491329D01*
X160961578Y-70525334D01*
X160982315Y-70564130D01*
X160995084Y-70606221D01*
X161000000Y-70656140D01*
X161000000Y-71343860D01*
X160995084Y-71393779D01*
X160982315Y-71435870D01*
X160961578Y-71474666D01*
X160933671Y-71508671D01*
X160899666Y-71536578D01*
X160860870Y-71557315D01*
X160818779Y-71570084D01*
X160768860Y-71575000D01*
X159981140Y-71575000D01*
X159931221Y-71570084D01*
X159889130Y-71557315D01*
X159850334Y-71536578D01*
X159816329Y-71508671D01*
X159788422Y-71474666D01*
X159767685Y-71435870D01*
X159754916Y-71393779D01*
X159750000Y-71343860D01*
X159750000Y-70656140D01*
X159754916Y-70606221D01*
X159767685Y-70564130D01*
X159788422Y-70525334D01*
X159816329Y-70491329D01*
X159850334Y-70463422D01*
X159889130Y-70442685D01*
X159931221Y-70429916D01*
X159981140Y-70425000D01*
X160768860Y-70425000D01*
X160818779Y-70429916D01*
X160818779Y-70429916D01*
G37*
G36*
X145318779Y-69679916D02*
X145360870Y-69692685D01*
X145399666Y-69713422D01*
X145433671Y-69741329D01*
X145461578Y-69775334D01*
X145482315Y-69814130D01*
X145495084Y-69856221D01*
X145500000Y-69906140D01*
X145500000Y-70593860D01*
X145495084Y-70643779D01*
X145482315Y-70685870D01*
X145461578Y-70724666D01*
X145433671Y-70758671D01*
X145399666Y-70786578D01*
X145360870Y-70807315D01*
X145318779Y-70820084D01*
X145268860Y-70825000D01*
X144481140Y-70825000D01*
X144431221Y-70820084D01*
X144389130Y-70807315D01*
X144350334Y-70786578D01*
X144316329Y-70758671D01*
X144288422Y-70724666D01*
X144267685Y-70685870D01*
X144254916Y-70643779D01*
X144250000Y-70593860D01*
X144250000Y-69906140D01*
X144254916Y-69856221D01*
X144267685Y-69814130D01*
X144288422Y-69775334D01*
X144316329Y-69741329D01*
X144350334Y-69713422D01*
X144389130Y-69692685D01*
X144431221Y-69679916D01*
X144481140Y-69675000D01*
X145268860Y-69675000D01*
X145318779Y-69679916D01*
X145318779Y-69679916D01*
G37*
G36*
X143568779Y-69679916D02*
X143610870Y-69692685D01*
X143649666Y-69713422D01*
X143683671Y-69741329D01*
X143711578Y-69775334D01*
X143732315Y-69814130D01*
X143745084Y-69856221D01*
X143750000Y-69906140D01*
X143750000Y-70593860D01*
X143745084Y-70643779D01*
X143732315Y-70685870D01*
X143711578Y-70724666D01*
X143683671Y-70758671D01*
X143649666Y-70786578D01*
X143610870Y-70807315D01*
X143568779Y-70820084D01*
X143518860Y-70825000D01*
X142731140Y-70825000D01*
X142681221Y-70820084D01*
X142639130Y-70807315D01*
X142600334Y-70786578D01*
X142566329Y-70758671D01*
X142538422Y-70724666D01*
X142517685Y-70685870D01*
X142504916Y-70643779D01*
X142500000Y-70593860D01*
X142500000Y-69906140D01*
X142504916Y-69856221D01*
X142517685Y-69814130D01*
X142538422Y-69775334D01*
X142566329Y-69741329D01*
X142600334Y-69713422D01*
X142639130Y-69692685D01*
X142681221Y-69679916D01*
X142731140Y-69675000D01*
X143518860Y-69675000D01*
X143568779Y-69679916D01*
X143568779Y-69679916D01*
G37*
G36*
X147143779Y-69504916D02*
X147185870Y-69517685D01*
X147224666Y-69538422D01*
X147258671Y-69566329D01*
X147286578Y-69600334D01*
X147307315Y-69639130D01*
X147320084Y-69681221D01*
X147325000Y-69731140D01*
X147325000Y-70518860D01*
X147320084Y-70568779D01*
X147307315Y-70610870D01*
X147286578Y-70649666D01*
X147258671Y-70683671D01*
X147224666Y-70711578D01*
X147185870Y-70732315D01*
X147143779Y-70745084D01*
X147093860Y-70750000D01*
X146406140Y-70750000D01*
X146356221Y-70745084D01*
X146314130Y-70732315D01*
X146275334Y-70711578D01*
X146241329Y-70683671D01*
X146213422Y-70649666D01*
X146192685Y-70610870D01*
X146179916Y-70568779D01*
X146175000Y-70518860D01*
X146175000Y-69731140D01*
X146179916Y-69681221D01*
X146192685Y-69639130D01*
X146213422Y-69600334D01*
X146241329Y-69566329D01*
X146275334Y-69538422D01*
X146314130Y-69517685D01*
X146356221Y-69504916D01*
X146406140Y-69500000D01*
X147093860Y-69500000D01*
X147143779Y-69504916D01*
X147143779Y-69504916D01*
G37*
G36*
X170100000Y-70302500D02*
X167900000Y-70302500D01*
X167900000Y-68197500D01*
X170100000Y-68197500D01*
X170100000Y-70302500D01*
X170100000Y-70302500D01*
G37*
G36*
X174143779Y-68504916D02*
X174185870Y-68517685D01*
X174224666Y-68538422D01*
X174258671Y-68566329D01*
X174286578Y-68600334D01*
X174307315Y-68639130D01*
X174320084Y-68681221D01*
X174325000Y-68731140D01*
X174325000Y-69518860D01*
X174320084Y-69568779D01*
X174307315Y-69610870D01*
X174286578Y-69649666D01*
X174258671Y-69683671D01*
X174224666Y-69711578D01*
X174185870Y-69732315D01*
X174143779Y-69745084D01*
X174093860Y-69750000D01*
X173406140Y-69750000D01*
X173356221Y-69745084D01*
X173314130Y-69732315D01*
X173275334Y-69711578D01*
X173241329Y-69683671D01*
X173213422Y-69649666D01*
X173192685Y-69610870D01*
X173179916Y-69568779D01*
X173175000Y-69518860D01*
X173175000Y-68731140D01*
X173179916Y-68681221D01*
X173192685Y-68639130D01*
X173213422Y-68600334D01*
X173241329Y-68566329D01*
X173275334Y-68538422D01*
X173314130Y-68517685D01*
X173356221Y-68504916D01*
X173406140Y-68500000D01*
X174093860Y-68500000D01*
X174143779Y-68504916D01*
X174143779Y-68504916D01*
G37*
G36*
X139366448Y-67346873D02*
X139436232Y-67353746D01*
X139525770Y-67380907D01*
X139615309Y-67408068D01*
X139780347Y-67496283D01*
X139925001Y-67614999D01*
X140043717Y-67759653D01*
X140131932Y-67924691D01*
X140133517Y-67929916D01*
X140186254Y-68103768D01*
X140191412Y-68156140D01*
X140204596Y-68290000D01*
X140186254Y-68476231D01*
X140131932Y-68655309D01*
X140043717Y-68820347D01*
X139925001Y-68965001D01*
X139780347Y-69083717D01*
X139615309Y-69171932D01*
X139525770Y-69199093D01*
X139436232Y-69226254D01*
X139296666Y-69240000D01*
X139203334Y-69240000D01*
X139063768Y-69226254D01*
X138974230Y-69199093D01*
X138884691Y-69171932D01*
X138719653Y-69083717D01*
X138574999Y-68965001D01*
X138456283Y-68820347D01*
X138368068Y-68655309D01*
X138313746Y-68476231D01*
X138295404Y-68290000D01*
X138308588Y-68156140D01*
X138313746Y-68103768D01*
X138366483Y-67929916D01*
X138368068Y-67924691D01*
X138456283Y-67759653D01*
X138574999Y-67614999D01*
X138719653Y-67496283D01*
X138884691Y-67408068D01*
X138974230Y-67380907D01*
X139063768Y-67353746D01*
X139133552Y-67346873D01*
X139203334Y-67340000D01*
X139296666Y-67340000D01*
X139366448Y-67346873D01*
X139366448Y-67346873D01*
G37*
G36*
X143568779Y-67929916D02*
X143610870Y-67942685D01*
X143649666Y-67963422D01*
X143683671Y-67991329D01*
X143711578Y-68025334D01*
X143732315Y-68064130D01*
X143745084Y-68106221D01*
X143750000Y-68156140D01*
X143750000Y-68843860D01*
X143745084Y-68893779D01*
X143732315Y-68935870D01*
X143711578Y-68974666D01*
X143683671Y-69008671D01*
X143649666Y-69036578D01*
X143610870Y-69057315D01*
X143568779Y-69070084D01*
X143518860Y-69075000D01*
X142731140Y-69075000D01*
X142681221Y-69070084D01*
X142639130Y-69057315D01*
X142600334Y-69036578D01*
X142566329Y-69008671D01*
X142538422Y-68974666D01*
X142517685Y-68935870D01*
X142504916Y-68893779D01*
X142500000Y-68843860D01*
X142500000Y-68156140D01*
X142504916Y-68106221D01*
X142517685Y-68064130D01*
X142538422Y-68025334D01*
X142566329Y-67991329D01*
X142600334Y-67963422D01*
X142639130Y-67942685D01*
X142681221Y-67929916D01*
X142731140Y-67925000D01*
X143518860Y-67925000D01*
X143568779Y-67929916D01*
X143568779Y-67929916D01*
G37*
G36*
X145318779Y-67929916D02*
X145360870Y-67942685D01*
X145399666Y-67963422D01*
X145433671Y-67991329D01*
X145461578Y-68025334D01*
X145482315Y-68064130D01*
X145495084Y-68106221D01*
X145500000Y-68156140D01*
X145500000Y-68843860D01*
X145495084Y-68893779D01*
X145482315Y-68935870D01*
X145461578Y-68974666D01*
X145433671Y-69008671D01*
X145399666Y-69036578D01*
X145360870Y-69057315D01*
X145318779Y-69070084D01*
X145268860Y-69075000D01*
X144481140Y-69075000D01*
X144431221Y-69070084D01*
X144389130Y-69057315D01*
X144350334Y-69036578D01*
X144316329Y-69008671D01*
X144288422Y-68974666D01*
X144267685Y-68935870D01*
X144254916Y-68893779D01*
X144250000Y-68843860D01*
X144250000Y-68156140D01*
X144254916Y-68106221D01*
X144267685Y-68064130D01*
X144288422Y-68025334D01*
X144316329Y-67991329D01*
X144350334Y-67963422D01*
X144389130Y-67942685D01*
X144431221Y-67929916D01*
X144481140Y-67925000D01*
X145268860Y-67925000D01*
X145318779Y-67929916D01*
X145318779Y-67929916D01*
G37*
G36*
X174143779Y-66754916D02*
X174185870Y-66767685D01*
X174224666Y-66788422D01*
X174258671Y-66816329D01*
X174286578Y-66850334D01*
X174307315Y-66889130D01*
X174320084Y-66931221D01*
X174325000Y-66981140D01*
X174325000Y-67768860D01*
X174320084Y-67818779D01*
X174307315Y-67860870D01*
X174286578Y-67899666D01*
X174258671Y-67933671D01*
X174224666Y-67961578D01*
X174185870Y-67982315D01*
X174143779Y-67995084D01*
X174093860Y-68000000D01*
X173406140Y-68000000D01*
X173356221Y-67995084D01*
X173314130Y-67982315D01*
X173275334Y-67961578D01*
X173241329Y-67933671D01*
X173213422Y-67899666D01*
X173192685Y-67860870D01*
X173179916Y-67818779D01*
X173175000Y-67768860D01*
X173175000Y-66981140D01*
X173179916Y-66931221D01*
X173192685Y-66889130D01*
X173213422Y-66850334D01*
X173241329Y-66816329D01*
X173275334Y-66788422D01*
X173314130Y-66767685D01*
X173356221Y-66754916D01*
X173406140Y-66750000D01*
X174093860Y-66750000D01*
X174143779Y-66754916D01*
X174143779Y-66754916D01*
G37*
G36*
X151326448Y-64806873D02*
X151396232Y-64813746D01*
X151485770Y-64840907D01*
X151575309Y-64868068D01*
X151740347Y-64956283D01*
X151885001Y-65074999D01*
X152003717Y-65219653D01*
X152091932Y-65384691D01*
X152146254Y-65563769D01*
X152164596Y-65750000D01*
X152146254Y-65936231D01*
X152091932Y-66115309D01*
X152003717Y-66280347D01*
X151885001Y-66425001D01*
X151740347Y-66543717D01*
X151575309Y-66631932D01*
X151485770Y-66659093D01*
X151396232Y-66686254D01*
X151256666Y-66700000D01*
X151163334Y-66700000D01*
X151023768Y-66686254D01*
X150934230Y-66659093D01*
X150844691Y-66631932D01*
X150679653Y-66543717D01*
X150534999Y-66425001D01*
X150416283Y-66280347D01*
X150328068Y-66115309D01*
X150273746Y-65936231D01*
X150255404Y-65750000D01*
X150273746Y-65563769D01*
X150328068Y-65384691D01*
X150416283Y-65219653D01*
X150534999Y-65074999D01*
X150679653Y-64956283D01*
X150844691Y-64868068D01*
X150934230Y-64840907D01*
X151023768Y-64813746D01*
X151093552Y-64806873D01*
X151163334Y-64800000D01*
X151256666Y-64800000D01*
X151326448Y-64806873D01*
X151326448Y-64806873D01*
G37*
G36*
X143706448Y-64806873D02*
X143776232Y-64813746D01*
X143865770Y-64840907D01*
X143955309Y-64868068D01*
X144120347Y-64956283D01*
X144265001Y-65074999D01*
X144383717Y-65219653D01*
X144471932Y-65384691D01*
X144526254Y-65563769D01*
X144544596Y-65750000D01*
X144526254Y-65936231D01*
X144471932Y-66115309D01*
X144383717Y-66280347D01*
X144265001Y-66425001D01*
X144120347Y-66543717D01*
X143955309Y-66631932D01*
X143865770Y-66659093D01*
X143776232Y-66686254D01*
X143636666Y-66700000D01*
X143543334Y-66700000D01*
X143403768Y-66686254D01*
X143314230Y-66659093D01*
X143224691Y-66631932D01*
X143059653Y-66543717D01*
X142914999Y-66425001D01*
X142796283Y-66280347D01*
X142708068Y-66115309D01*
X142653746Y-65936231D01*
X142635404Y-65750000D01*
X142653746Y-65563769D01*
X142708068Y-65384691D01*
X142796283Y-65219653D01*
X142914999Y-65074999D01*
X143059653Y-64956283D01*
X143224691Y-64868068D01*
X143314230Y-64840907D01*
X143403768Y-64813746D01*
X143473552Y-64806873D01*
X143543334Y-64800000D01*
X143636666Y-64800000D01*
X143706448Y-64806873D01*
X143706448Y-64806873D01*
G37*
G36*
X146246448Y-64806873D02*
X146316232Y-64813746D01*
X146405770Y-64840907D01*
X146495309Y-64868068D01*
X146660347Y-64956283D01*
X146805001Y-65074999D01*
X146923717Y-65219653D01*
X147011932Y-65384691D01*
X147066254Y-65563769D01*
X147084596Y-65750000D01*
X147066254Y-65936231D01*
X147011932Y-66115309D01*
X146923717Y-66280347D01*
X146805001Y-66425001D01*
X146660347Y-66543717D01*
X146495309Y-66631932D01*
X146405770Y-66659093D01*
X146316232Y-66686254D01*
X146176666Y-66700000D01*
X146083334Y-66700000D01*
X145943768Y-66686254D01*
X145854230Y-66659093D01*
X145764691Y-66631932D01*
X145599653Y-66543717D01*
X145454999Y-66425001D01*
X145336283Y-66280347D01*
X145248068Y-66115309D01*
X145193746Y-65936231D01*
X145175404Y-65750000D01*
X145193746Y-65563769D01*
X145248068Y-65384691D01*
X145336283Y-65219653D01*
X145454999Y-65074999D01*
X145599653Y-64956283D01*
X145764691Y-64868068D01*
X145854230Y-64840907D01*
X145943768Y-64813746D01*
X146013552Y-64806873D01*
X146083334Y-64800000D01*
X146176666Y-64800000D01*
X146246448Y-64806873D01*
X146246448Y-64806873D01*
G37*
G36*
X154700000Y-66700000D02*
X152800000Y-66700000D01*
X152800000Y-64800000D01*
X154700000Y-64800000D01*
X154700000Y-66700000D01*
X154700000Y-66700000D01*
G37*
G36*
X140200000Y-66700000D02*
X138300000Y-66700000D01*
X138300000Y-64800000D01*
X140200000Y-64800000D01*
X140200000Y-66700000D01*
X140200000Y-66700000D01*
G37*
G36*
X148786448Y-64806873D02*
X148856232Y-64813746D01*
X148945770Y-64840907D01*
X149035309Y-64868068D01*
X149200347Y-64956283D01*
X149345001Y-65074999D01*
X149463717Y-65219653D01*
X149551932Y-65384691D01*
X149606254Y-65563769D01*
X149624596Y-65750000D01*
X149606254Y-65936231D01*
X149551932Y-66115309D01*
X149463717Y-66280347D01*
X149345001Y-66425001D01*
X149200347Y-66543717D01*
X149035309Y-66631932D01*
X148945770Y-66659093D01*
X148856232Y-66686254D01*
X148716666Y-66700000D01*
X148623334Y-66700000D01*
X148483768Y-66686254D01*
X148394230Y-66659093D01*
X148304691Y-66631932D01*
X148139653Y-66543717D01*
X147994999Y-66425001D01*
X147876283Y-66280347D01*
X147788068Y-66115309D01*
X147733746Y-65936231D01*
X147715404Y-65750000D01*
X147733746Y-65563769D01*
X147788068Y-65384691D01*
X147876283Y-65219653D01*
X147994999Y-65074999D01*
X148139653Y-64956283D01*
X148304691Y-64868068D01*
X148394230Y-64840907D01*
X148483768Y-64813746D01*
X148553552Y-64806873D01*
X148623334Y-64800000D01*
X148716666Y-64800000D01*
X148786448Y-64806873D01*
X148786448Y-64806873D01*
G37*
G36*
X158773127Y-56376901D02*
X158908365Y-56403801D01*
X159163149Y-56509336D01*
X159389397Y-56660511D01*
X159392451Y-56662551D01*
X159587449Y-56857549D01*
X159587451Y-56857552D01*
X159619917Y-56906140D01*
X159740665Y-57086853D01*
X159846199Y-57341636D01*
X159900000Y-57612111D01*
X159900000Y-57887889D01*
X159846199Y-58158364D01*
X159740665Y-58413147D01*
X159587449Y-58642451D01*
X159392451Y-58837449D01*
X159392448Y-58837451D01*
X159163149Y-58990664D01*
X158908365Y-59096199D01*
X158773126Y-59123100D01*
X158637889Y-59150000D01*
X158362111Y-59150000D01*
X158226874Y-59123100D01*
X158091635Y-59096199D01*
X157836851Y-58990664D01*
X157607552Y-58837451D01*
X157607549Y-58837449D01*
X157412551Y-58642451D01*
X157259335Y-58413147D01*
X157153801Y-58158364D01*
X157100000Y-57887889D01*
X157100000Y-57612111D01*
X157153801Y-57341636D01*
X157259335Y-57086853D01*
X157380084Y-56906140D01*
X157412549Y-56857552D01*
X157412551Y-56857549D01*
X157607549Y-56662551D01*
X157610603Y-56660511D01*
X157836851Y-56509336D01*
X158091635Y-56403801D01*
X158226873Y-56376901D01*
X158362111Y-56350000D01*
X158637889Y-56350000D01*
X158773127Y-56376901D01*
X158773127Y-56376901D01*
G37*
G36*
X148773127Y-56376901D02*
X148908365Y-56403801D01*
X149163149Y-56509336D01*
X149389397Y-56660511D01*
X149392451Y-56662551D01*
X149587449Y-56857549D01*
X149587451Y-56857552D01*
X149619917Y-56906140D01*
X149740665Y-57086853D01*
X149846199Y-57341636D01*
X149900000Y-57612111D01*
X149900000Y-57887889D01*
X149846199Y-58158364D01*
X149740665Y-58413147D01*
X149587449Y-58642451D01*
X149392451Y-58837449D01*
X149392448Y-58837451D01*
X149163149Y-58990664D01*
X148908365Y-59096199D01*
X148773126Y-59123100D01*
X148637889Y-59150000D01*
X148362111Y-59150000D01*
X148226874Y-59123100D01*
X148091635Y-59096199D01*
X147836851Y-58990664D01*
X147607552Y-58837451D01*
X147607549Y-58837449D01*
X147412551Y-58642451D01*
X147259335Y-58413147D01*
X147153801Y-58158364D01*
X147100000Y-57887889D01*
X147100000Y-57612111D01*
X147153801Y-57341636D01*
X147259335Y-57086853D01*
X147380084Y-56906140D01*
X147412549Y-56857552D01*
X147412551Y-56857549D01*
X147607549Y-56662551D01*
X147610603Y-56660511D01*
X147836851Y-56509336D01*
X148091635Y-56403801D01*
X148226873Y-56376901D01*
X148362111Y-56350000D01*
X148637889Y-56350000D01*
X148773127Y-56376901D01*
X148773127Y-56376901D01*
G37*
G36*
X171318779Y-56679916D02*
X171360870Y-56692685D01*
X171399666Y-56713422D01*
X171433671Y-56741329D01*
X171461578Y-56775334D01*
X171482315Y-56814130D01*
X171495084Y-56856221D01*
X171500000Y-56906140D01*
X171500000Y-57593860D01*
X171495084Y-57643779D01*
X171482315Y-57685870D01*
X171461578Y-57724666D01*
X171433671Y-57758671D01*
X171399666Y-57786578D01*
X171360870Y-57807315D01*
X171318779Y-57820084D01*
X171268860Y-57825000D01*
X170481140Y-57825000D01*
X170431221Y-57820084D01*
X170389130Y-57807315D01*
X170350334Y-57786578D01*
X170316329Y-57758671D01*
X170288422Y-57724666D01*
X170267685Y-57685870D01*
X170254916Y-57643779D01*
X170250000Y-57593860D01*
X170250000Y-56906140D01*
X170254916Y-56856221D01*
X170267685Y-56814130D01*
X170288422Y-56775334D01*
X170316329Y-56741329D01*
X170350334Y-56713422D01*
X170389130Y-56692685D01*
X170431221Y-56679916D01*
X170481140Y-56675000D01*
X171268860Y-56675000D01*
X171318779Y-56679916D01*
X171318779Y-56679916D01*
G37*
G36*
X169568779Y-56679916D02*
X169610870Y-56692685D01*
X169649666Y-56713422D01*
X169683671Y-56741329D01*
X169711578Y-56775334D01*
X169732315Y-56814130D01*
X169745084Y-56856221D01*
X169750000Y-56906140D01*
X169750000Y-57593860D01*
X169745084Y-57643779D01*
X169732315Y-57685870D01*
X169711578Y-57724666D01*
X169683671Y-57758671D01*
X169649666Y-57786578D01*
X169610870Y-57807315D01*
X169568779Y-57820084D01*
X169518860Y-57825000D01*
X168731140Y-57825000D01*
X168681221Y-57820084D01*
X168639130Y-57807315D01*
X168600334Y-57786578D01*
X168566329Y-57758671D01*
X168538422Y-57724666D01*
X168517685Y-57685870D01*
X168504916Y-57643779D01*
X168500000Y-57593860D01*
X168500000Y-56906140D01*
X168504916Y-56856221D01*
X168517685Y-56814130D01*
X168538422Y-56775334D01*
X168566329Y-56741329D01*
X168600334Y-56713422D01*
X168639130Y-56692685D01*
X168681221Y-56679916D01*
X168731140Y-56675000D01*
X169518860Y-56675000D01*
X169568779Y-56679916D01*
X169568779Y-56679916D01*
G37*
G36*
X171318779Y-54679916D02*
X171360870Y-54692685D01*
X171399666Y-54713422D01*
X171433671Y-54741329D01*
X171461578Y-54775334D01*
X171482315Y-54814130D01*
X171495084Y-54856221D01*
X171500000Y-54906140D01*
X171500000Y-55593860D01*
X171495084Y-55643779D01*
X171482315Y-55685870D01*
X171461578Y-55724666D01*
X171433671Y-55758671D01*
X171399666Y-55786578D01*
X171360870Y-55807315D01*
X171318779Y-55820084D01*
X171268860Y-55825000D01*
X170481140Y-55825000D01*
X170431221Y-55820084D01*
X170389130Y-55807315D01*
X170350334Y-55786578D01*
X170316329Y-55758671D01*
X170288422Y-55724666D01*
X170267685Y-55685870D01*
X170254916Y-55643779D01*
X170250000Y-55593860D01*
X170250000Y-54906140D01*
X170254916Y-54856221D01*
X170267685Y-54814130D01*
X170288422Y-54775334D01*
X170316329Y-54741329D01*
X170350334Y-54713422D01*
X170389130Y-54692685D01*
X170431221Y-54679916D01*
X170481140Y-54675000D01*
X171268860Y-54675000D01*
X171318779Y-54679916D01*
X171318779Y-54679916D01*
G37*
G36*
X169568779Y-54679916D02*
X169610870Y-54692685D01*
X169649666Y-54713422D01*
X169683671Y-54741329D01*
X169711578Y-54775334D01*
X169732315Y-54814130D01*
X169745084Y-54856221D01*
X169750000Y-54906140D01*
X169750000Y-55593860D01*
X169745084Y-55643779D01*
X169732315Y-55685870D01*
X169711578Y-55724666D01*
X169683671Y-55758671D01*
X169649666Y-55786578D01*
X169610870Y-55807315D01*
X169568779Y-55820084D01*
X169518860Y-55825000D01*
X168731140Y-55825000D01*
X168681221Y-55820084D01*
X168639130Y-55807315D01*
X168600334Y-55786578D01*
X168566329Y-55758671D01*
X168538422Y-55724666D01*
X168517685Y-55685870D01*
X168504916Y-55643779D01*
X168500000Y-55593860D01*
X168500000Y-54906140D01*
X168504916Y-54856221D01*
X168517685Y-54814130D01*
X168538422Y-54775334D01*
X168566329Y-54741329D01*
X168600334Y-54713422D01*
X168639130Y-54692685D01*
X168681221Y-54679916D01*
X168731140Y-54675000D01*
X169518860Y-54675000D01*
X169568779Y-54679916D01*
X169568779Y-54679916D01*
G37*
G36*
X138866448Y-52716873D02*
X138936232Y-52723746D01*
X139025770Y-52750907D01*
X139115309Y-52778068D01*
X139280347Y-52866283D01*
X139425001Y-52984999D01*
X139543717Y-53129653D01*
X139631932Y-53294691D01*
X139686254Y-53473769D01*
X139704596Y-53660000D01*
X139686254Y-53846231D01*
X139631932Y-54025309D01*
X139543717Y-54190347D01*
X139425001Y-54335001D01*
X139280347Y-54453717D01*
X139115309Y-54541932D01*
X139025770Y-54569093D01*
X138936232Y-54596254D01*
X138796666Y-54610000D01*
X138703334Y-54610000D01*
X138563768Y-54596254D01*
X138474230Y-54569093D01*
X138384691Y-54541932D01*
X138219653Y-54453717D01*
X138074999Y-54335001D01*
X137956283Y-54190347D01*
X137868068Y-54025309D01*
X137813746Y-53846231D01*
X137795404Y-53660000D01*
X137813746Y-53473769D01*
X137868068Y-53294691D01*
X137956283Y-53129653D01*
X138074999Y-52984999D01*
X138219653Y-52866283D01*
X138384691Y-52778068D01*
X138474230Y-52750907D01*
X138563768Y-52723746D01*
X138633552Y-52716873D01*
X138703334Y-52710000D01*
X138796666Y-52710000D01*
X138866448Y-52716873D01*
X138866448Y-52716873D01*
G37*
G36*
X169880126Y-50280546D02*
X170003826Y-50292729D01*
X170202223Y-50352912D01*
X170385067Y-50450644D01*
X170434641Y-50491329D01*
X170545331Y-50582169D01*
X170606260Y-50656412D01*
X170676856Y-50742433D01*
X170774588Y-50925277D01*
X170834771Y-51123674D01*
X170855092Y-51330000D01*
X170834771Y-51536326D01*
X170774588Y-51734723D01*
X170676856Y-51917567D01*
X170627165Y-51978115D01*
X170545331Y-52077831D01*
X170461048Y-52147000D01*
X170385067Y-52209356D01*
X170202223Y-52307088D01*
X170003826Y-52367271D01*
X169880126Y-52379454D01*
X169849202Y-52382500D01*
X169650798Y-52382500D01*
X169619874Y-52379454D01*
X169496174Y-52367271D01*
X169297777Y-52307088D01*
X169114933Y-52209356D01*
X169038952Y-52147000D01*
X168954669Y-52077831D01*
X168872835Y-51978115D01*
X168823144Y-51917567D01*
X168725412Y-51734723D01*
X168665229Y-51536326D01*
X168644908Y-51330000D01*
X168665229Y-51123674D01*
X168725412Y-50925277D01*
X168823144Y-50742433D01*
X168893740Y-50656412D01*
X168954669Y-50582169D01*
X169065359Y-50491329D01*
X169114933Y-50450644D01*
X169297777Y-50352912D01*
X169496174Y-50292729D01*
X169619874Y-50280546D01*
X169650798Y-50277500D01*
X169849202Y-50277500D01*
X169880126Y-50280546D01*
X169880126Y-50280546D01*
G37*
G36*
X151350000Y-52350000D02*
X150100000Y-52350000D01*
X150100000Y-47150000D01*
X151350000Y-47150000D01*
X151350000Y-52350000D01*
X151350000Y-52350000D01*
G37*
G36*
X156900000Y-52350000D02*
X155650000Y-52350000D01*
X155650000Y-47150000D01*
X156900000Y-47150000D01*
X156900000Y-52350000D01*
X156900000Y-52350000D01*
G37*
G36*
X155300000Y-52350000D02*
X151700000Y-52350000D01*
X151700000Y-47150000D01*
X155300000Y-47150000D01*
X155300000Y-52350000D01*
X155300000Y-52350000D01*
G37*
G36*
X138866448Y-50176873D02*
X138936232Y-50183746D01*
X138994917Y-50201548D01*
X139115309Y-50238068D01*
X139280347Y-50326283D01*
X139425001Y-50444999D01*
X139543717Y-50589653D01*
X139631932Y-50754691D01*
X139650629Y-50816329D01*
X139683678Y-50925275D01*
X139686254Y-50933769D01*
X139704596Y-51120000D01*
X139686254Y-51306231D01*
X139631932Y-51485309D01*
X139543717Y-51650347D01*
X139425001Y-51795001D01*
X139280347Y-51913717D01*
X139115309Y-52001932D01*
X139025770Y-52029093D01*
X138936232Y-52056254D01*
X138796666Y-52070000D01*
X138703334Y-52070000D01*
X138633552Y-52063127D01*
X138563768Y-52056254D01*
X138474230Y-52029093D01*
X138384691Y-52001932D01*
X138219653Y-51913717D01*
X138074999Y-51795001D01*
X137956283Y-51650347D01*
X137868068Y-51485309D01*
X137813746Y-51306231D01*
X137795404Y-51120000D01*
X137813746Y-50933769D01*
X137816323Y-50925275D01*
X137849371Y-50816329D01*
X137868068Y-50754691D01*
X137956283Y-50589653D01*
X138074999Y-50444999D01*
X138219653Y-50326283D01*
X138384691Y-50238068D01*
X138505083Y-50201548D01*
X138563768Y-50183746D01*
X138703334Y-50170000D01*
X138796666Y-50170000D01*
X138866448Y-50176873D01*
X138866448Y-50176873D01*
G37*
G36*
X166393779Y-50754916D02*
X166435870Y-50767685D01*
X166474666Y-50788422D01*
X166508671Y-50816329D01*
X166536578Y-50850334D01*
X166557315Y-50889130D01*
X166570084Y-50931221D01*
X166575000Y-50981140D01*
X166575000Y-51768860D01*
X166570084Y-51818779D01*
X166557315Y-51860870D01*
X166536578Y-51899666D01*
X166508671Y-51933671D01*
X166474666Y-51961578D01*
X166435870Y-51982315D01*
X166393779Y-51995084D01*
X166343860Y-52000000D01*
X165656140Y-52000000D01*
X165606221Y-51995084D01*
X165564130Y-51982315D01*
X165525334Y-51961578D01*
X165491329Y-51933671D01*
X165463422Y-51899666D01*
X165442685Y-51860870D01*
X165429916Y-51818779D01*
X165425000Y-51768860D01*
X165425000Y-50981140D01*
X165429916Y-50931221D01*
X165442685Y-50889130D01*
X165463422Y-50850334D01*
X165491329Y-50816329D01*
X165525334Y-50788422D01*
X165564130Y-50767685D01*
X165606221Y-50754916D01*
X165656140Y-50750000D01*
X166343860Y-50750000D01*
X166393779Y-50754916D01*
X166393779Y-50754916D01*
G37*
G36*
X162143779Y-50754916D02*
X162185870Y-50767685D01*
X162224666Y-50788422D01*
X162258671Y-50816329D01*
X162286578Y-50850334D01*
X162307315Y-50889130D01*
X162320084Y-50931221D01*
X162325000Y-50981140D01*
X162325000Y-51768860D01*
X162320084Y-51818779D01*
X162307315Y-51860870D01*
X162286578Y-51899666D01*
X162258671Y-51933671D01*
X162224666Y-51961578D01*
X162185870Y-51982315D01*
X162143779Y-51995084D01*
X162093860Y-52000000D01*
X161406140Y-52000000D01*
X161356221Y-51995084D01*
X161314130Y-51982315D01*
X161275334Y-51961578D01*
X161241329Y-51933671D01*
X161213422Y-51899666D01*
X161192685Y-51860870D01*
X161179916Y-51818779D01*
X161175000Y-51768860D01*
X161175000Y-50981140D01*
X161179916Y-50931221D01*
X161192685Y-50889130D01*
X161213422Y-50850334D01*
X161241329Y-50816329D01*
X161275334Y-50788422D01*
X161314130Y-50767685D01*
X161356221Y-50754916D01*
X161406140Y-50750000D01*
X162093860Y-50750000D01*
X162143779Y-50754916D01*
X162143779Y-50754916D01*
G37*
G36*
X160393779Y-50754916D02*
X160435870Y-50767685D01*
X160474666Y-50788422D01*
X160508671Y-50816329D01*
X160536578Y-50850334D01*
X160557315Y-50889130D01*
X160570084Y-50931221D01*
X160575000Y-50981140D01*
X160575000Y-51768860D01*
X160570084Y-51818779D01*
X160557315Y-51860870D01*
X160536578Y-51899666D01*
X160508671Y-51933671D01*
X160474666Y-51961578D01*
X160435870Y-51982315D01*
X160393779Y-51995084D01*
X160343860Y-52000000D01*
X159656140Y-52000000D01*
X159606221Y-51995084D01*
X159564130Y-51982315D01*
X159525334Y-51961578D01*
X159491329Y-51933671D01*
X159463422Y-51899666D01*
X159442685Y-51860870D01*
X159429916Y-51818779D01*
X159425000Y-51768860D01*
X159425000Y-50981140D01*
X159429916Y-50931221D01*
X159442685Y-50889130D01*
X159463422Y-50850334D01*
X159491329Y-50816329D01*
X159525334Y-50788422D01*
X159564130Y-50767685D01*
X159606221Y-50754916D01*
X159656140Y-50750000D01*
X160343860Y-50750000D01*
X160393779Y-50754916D01*
X160393779Y-50754916D01*
G37*
G36*
X164370527Y-50604874D02*
X164412216Y-50617521D01*
X164450630Y-50638053D01*
X164484308Y-50665692D01*
X164511947Y-50699370D01*
X164532479Y-50737784D01*
X164545126Y-50779473D01*
X164550000Y-50828964D01*
X164550000Y-51721036D01*
X164545126Y-51770527D01*
X164532479Y-51812216D01*
X164511947Y-51850630D01*
X164484308Y-51884308D01*
X164450630Y-51911947D01*
X164412216Y-51932479D01*
X164370527Y-51945126D01*
X164321036Y-51950000D01*
X163178964Y-51950000D01*
X163129473Y-51945126D01*
X163087784Y-51932479D01*
X163049370Y-51911947D01*
X163015692Y-51884308D01*
X162988053Y-51850630D01*
X162967521Y-51812216D01*
X162954874Y-51770527D01*
X162950000Y-51721036D01*
X162950000Y-50828964D01*
X162954874Y-50779473D01*
X162967521Y-50737784D01*
X162988053Y-50699370D01*
X163015692Y-50665692D01*
X163049370Y-50638053D01*
X163087784Y-50617521D01*
X163129473Y-50604874D01*
X163178964Y-50600000D01*
X164321036Y-50600000D01*
X164370527Y-50604874D01*
X164370527Y-50604874D01*
G37*
G36*
X143818779Y-50429916D02*
X143860870Y-50442685D01*
X143899666Y-50463422D01*
X143933671Y-50491329D01*
X143961578Y-50525334D01*
X143982315Y-50564130D01*
X143995084Y-50606221D01*
X144000000Y-50656140D01*
X144000000Y-51343860D01*
X143995084Y-51393779D01*
X143982315Y-51435870D01*
X143961578Y-51474666D01*
X143933671Y-51508671D01*
X143899666Y-51536578D01*
X143860870Y-51557315D01*
X143818779Y-51570084D01*
X143768860Y-51575000D01*
X142981140Y-51575000D01*
X142931221Y-51570084D01*
X142889130Y-51557315D01*
X142850334Y-51536578D01*
X142816329Y-51508671D01*
X142788422Y-51474666D01*
X142767685Y-51435870D01*
X142754916Y-51393779D01*
X142750000Y-51343860D01*
X142750000Y-50656140D01*
X142754916Y-50606221D01*
X142767685Y-50564130D01*
X142788422Y-50525334D01*
X142816329Y-50491329D01*
X142850334Y-50463422D01*
X142889130Y-50442685D01*
X142931221Y-50429916D01*
X142981140Y-50425000D01*
X143768860Y-50425000D01*
X143818779Y-50429916D01*
X143818779Y-50429916D01*
G37*
G36*
X145568779Y-50429916D02*
X145610870Y-50442685D01*
X145649666Y-50463422D01*
X145683671Y-50491329D01*
X145711578Y-50525334D01*
X145732315Y-50564130D01*
X145745084Y-50606221D01*
X145750000Y-50656140D01*
X145750000Y-51343860D01*
X145745084Y-51393779D01*
X145732315Y-51435870D01*
X145711578Y-51474666D01*
X145683671Y-51508671D01*
X145649666Y-51536578D01*
X145610870Y-51557315D01*
X145568779Y-51570084D01*
X145518860Y-51575000D01*
X144731140Y-51575000D01*
X144681221Y-51570084D01*
X144639130Y-51557315D01*
X144600334Y-51536578D01*
X144566329Y-51508671D01*
X144538422Y-51474666D01*
X144517685Y-51435870D01*
X144504916Y-51393779D01*
X144500000Y-51343860D01*
X144500000Y-50656140D01*
X144504916Y-50606221D01*
X144517685Y-50564130D01*
X144538422Y-50525334D01*
X144566329Y-50491329D01*
X144600334Y-50463422D01*
X144639130Y-50442685D01*
X144681221Y-50429916D01*
X144731140Y-50425000D01*
X145518860Y-50425000D01*
X145568779Y-50429916D01*
X145568779Y-50429916D01*
G37*
G36*
X166393779Y-49004916D02*
X166435870Y-49017685D01*
X166474666Y-49038422D01*
X166508671Y-49066329D01*
X166536578Y-49100334D01*
X166557315Y-49139130D01*
X166570084Y-49181221D01*
X166575000Y-49231140D01*
X166575000Y-50018860D01*
X166570084Y-50068779D01*
X166557315Y-50110870D01*
X166536578Y-50149666D01*
X166508671Y-50183671D01*
X166474666Y-50211578D01*
X166435870Y-50232315D01*
X166393779Y-50245084D01*
X166343860Y-50250000D01*
X165656140Y-50250000D01*
X165606221Y-50245084D01*
X165564130Y-50232315D01*
X165525334Y-50211578D01*
X165491329Y-50183671D01*
X165463422Y-50149666D01*
X165442685Y-50110870D01*
X165429916Y-50068779D01*
X165425000Y-50018860D01*
X165425000Y-49231140D01*
X165429916Y-49181221D01*
X165442685Y-49139130D01*
X165463422Y-49100334D01*
X165491329Y-49066329D01*
X165525334Y-49038422D01*
X165564130Y-49017685D01*
X165606221Y-49004916D01*
X165656140Y-49000000D01*
X166343860Y-49000000D01*
X166393779Y-49004916D01*
X166393779Y-49004916D01*
G37*
G36*
X160393779Y-49004916D02*
X160435870Y-49017685D01*
X160474666Y-49038422D01*
X160508671Y-49066329D01*
X160536578Y-49100334D01*
X160557315Y-49139130D01*
X160570084Y-49181221D01*
X160575000Y-49231140D01*
X160575000Y-50018860D01*
X160570084Y-50068779D01*
X160557315Y-50110870D01*
X160536578Y-50149666D01*
X160508671Y-50183671D01*
X160474666Y-50211578D01*
X160435870Y-50232315D01*
X160393779Y-50245084D01*
X160343860Y-50250000D01*
X159656140Y-50250000D01*
X159606221Y-50245084D01*
X159564130Y-50232315D01*
X159525334Y-50211578D01*
X159491329Y-50183671D01*
X159463422Y-50149666D01*
X159442685Y-50110870D01*
X159429916Y-50068779D01*
X159425000Y-50018860D01*
X159425000Y-49231140D01*
X159429916Y-49181221D01*
X159442685Y-49139130D01*
X159463422Y-49100334D01*
X159491329Y-49066329D01*
X159525334Y-49038422D01*
X159564130Y-49017685D01*
X159606221Y-49004916D01*
X159656140Y-49000000D01*
X160343860Y-49000000D01*
X160393779Y-49004916D01*
X160393779Y-49004916D01*
G37*
G36*
X162143779Y-49004916D02*
X162185870Y-49017685D01*
X162224666Y-49038422D01*
X162258671Y-49066329D01*
X162286578Y-49100334D01*
X162307315Y-49139130D01*
X162320084Y-49181221D01*
X162325000Y-49231140D01*
X162325000Y-50018860D01*
X162320084Y-50068779D01*
X162307315Y-50110870D01*
X162286578Y-50149666D01*
X162258671Y-50183671D01*
X162224666Y-50211578D01*
X162185870Y-50232315D01*
X162143779Y-50245084D01*
X162093860Y-50250000D01*
X161406140Y-50250000D01*
X161356221Y-50245084D01*
X161314130Y-50232315D01*
X161275334Y-50211578D01*
X161241329Y-50183671D01*
X161213422Y-50149666D01*
X161192685Y-50110870D01*
X161179916Y-50068779D01*
X161175000Y-50018860D01*
X161175000Y-49231140D01*
X161179916Y-49181221D01*
X161192685Y-49139130D01*
X161213422Y-49100334D01*
X161241329Y-49066329D01*
X161275334Y-49038422D01*
X161314130Y-49017685D01*
X161356221Y-49004916D01*
X161406140Y-49000000D01*
X162093860Y-49000000D01*
X162143779Y-49004916D01*
X162143779Y-49004916D01*
G37*
G36*
X164370527Y-48554874D02*
X164412216Y-48567521D01*
X164450630Y-48588053D01*
X164484308Y-48615692D01*
X164511947Y-48649370D01*
X164532479Y-48687784D01*
X164545126Y-48729473D01*
X164550000Y-48778964D01*
X164550000Y-49671036D01*
X164545126Y-49720527D01*
X164532479Y-49762216D01*
X164511947Y-49800630D01*
X164484308Y-49834308D01*
X164450630Y-49861947D01*
X164412216Y-49882479D01*
X164370527Y-49895126D01*
X164321036Y-49900000D01*
X163178964Y-49900000D01*
X163129473Y-49895126D01*
X163087784Y-49882479D01*
X163049370Y-49861947D01*
X163015692Y-49834308D01*
X162988053Y-49800630D01*
X162967521Y-49762216D01*
X162954874Y-49720527D01*
X162950000Y-49671036D01*
X162950000Y-48778964D01*
X162954874Y-48729473D01*
X162967521Y-48687784D01*
X162988053Y-48649370D01*
X163015692Y-48615692D01*
X163049370Y-48588053D01*
X163087784Y-48567521D01*
X163129473Y-48554874D01*
X163178964Y-48550000D01*
X164321036Y-48550000D01*
X164370527Y-48554874D01*
X164370527Y-48554874D01*
G37*
G36*
X169880126Y-47740546D02*
X170003826Y-47752729D01*
X170202223Y-47812912D01*
X170385067Y-47910644D01*
X170461048Y-47973000D01*
X170545331Y-48042169D01*
X170614500Y-48126452D01*
X170676856Y-48202433D01*
X170774588Y-48385277D01*
X170834771Y-48583674D01*
X170855092Y-48790000D01*
X170834771Y-48996326D01*
X170774588Y-49194723D01*
X170676856Y-49377567D01*
X170614500Y-49453548D01*
X170545331Y-49537831D01*
X170477058Y-49593860D01*
X170385067Y-49669356D01*
X170202223Y-49767088D01*
X170003826Y-49827271D01*
X169880126Y-49839454D01*
X169849202Y-49842500D01*
X169650798Y-49842500D01*
X169619874Y-49839454D01*
X169496174Y-49827271D01*
X169297777Y-49767088D01*
X169114933Y-49669356D01*
X169022942Y-49593860D01*
X168954669Y-49537831D01*
X168885500Y-49453548D01*
X168823144Y-49377567D01*
X168725412Y-49194723D01*
X168665229Y-48996326D01*
X168644908Y-48790000D01*
X168665229Y-48583674D01*
X168725412Y-48385277D01*
X168823144Y-48202433D01*
X168885500Y-48126452D01*
X168954669Y-48042169D01*
X169038952Y-47973000D01*
X169114933Y-47910644D01*
X169297777Y-47812912D01*
X169496174Y-47752729D01*
X169619874Y-47740546D01*
X169650798Y-47737500D01*
X169849202Y-47737500D01*
X169880126Y-47740546D01*
X169880126Y-47740546D01*
G37*
G36*
X145568779Y-48679916D02*
X145610870Y-48692685D01*
X145649666Y-48713422D01*
X145683671Y-48741329D01*
X145711578Y-48775334D01*
X145732315Y-48814130D01*
X145745084Y-48856221D01*
X145750000Y-48906140D01*
X145750000Y-49593860D01*
X145745084Y-49643779D01*
X145732315Y-49685870D01*
X145711578Y-49724666D01*
X145683671Y-49758671D01*
X145649666Y-49786578D01*
X145610870Y-49807315D01*
X145568779Y-49820084D01*
X145518860Y-49825000D01*
X144731140Y-49825000D01*
X144681221Y-49820084D01*
X144639130Y-49807315D01*
X144600334Y-49786578D01*
X144566329Y-49758671D01*
X144538422Y-49724666D01*
X144517685Y-49685870D01*
X144504916Y-49643779D01*
X144500000Y-49593860D01*
X144500000Y-48906140D01*
X144504916Y-48856221D01*
X144517685Y-48814130D01*
X144538422Y-48775334D01*
X144566329Y-48741329D01*
X144600334Y-48713422D01*
X144639130Y-48692685D01*
X144681221Y-48679916D01*
X144731140Y-48675000D01*
X145518860Y-48675000D01*
X145568779Y-48679916D01*
X145568779Y-48679916D01*
G37*
G36*
X143818779Y-48679916D02*
X143860870Y-48692685D01*
X143899666Y-48713422D01*
X143933671Y-48741329D01*
X143961578Y-48775334D01*
X143982315Y-48814130D01*
X143995084Y-48856221D01*
X144000000Y-48906140D01*
X144000000Y-49593860D01*
X143995084Y-49643779D01*
X143982315Y-49685870D01*
X143961578Y-49724666D01*
X143933671Y-49758671D01*
X143899666Y-49786578D01*
X143860870Y-49807315D01*
X143818779Y-49820084D01*
X143768860Y-49825000D01*
X142981140Y-49825000D01*
X142931221Y-49820084D01*
X142889130Y-49807315D01*
X142850334Y-49786578D01*
X142816329Y-49758671D01*
X142788422Y-49724666D01*
X142767685Y-49685870D01*
X142754916Y-49643779D01*
X142750000Y-49593860D01*
X142750000Y-48906140D01*
X142754916Y-48856221D01*
X142767685Y-48814130D01*
X142788422Y-48775334D01*
X142816329Y-48741329D01*
X142850334Y-48713422D01*
X142889130Y-48692685D01*
X142931221Y-48679916D01*
X142981140Y-48675000D01*
X143768860Y-48675000D01*
X143818779Y-48679916D01*
X143818779Y-48679916D01*
G37*
G36*
X147393779Y-48504916D02*
X147435870Y-48517685D01*
X147474666Y-48538422D01*
X147508671Y-48566329D01*
X147536578Y-48600334D01*
X147557315Y-48639130D01*
X147570084Y-48681221D01*
X147575000Y-48731140D01*
X147575000Y-49518860D01*
X147570084Y-49568779D01*
X147557315Y-49610870D01*
X147536578Y-49649666D01*
X147508671Y-49683671D01*
X147474666Y-49711578D01*
X147435870Y-49732315D01*
X147393779Y-49745084D01*
X147343860Y-49750000D01*
X146656140Y-49750000D01*
X146606221Y-49745084D01*
X146564130Y-49732315D01*
X146525334Y-49711578D01*
X146491329Y-49683671D01*
X146463422Y-49649666D01*
X146442685Y-49610870D01*
X146429916Y-49568779D01*
X146425000Y-49518860D01*
X146425000Y-48731140D01*
X146429916Y-48681221D01*
X146442685Y-48639130D01*
X146463422Y-48600334D01*
X146491329Y-48566329D01*
X146525334Y-48538422D01*
X146564130Y-48517685D01*
X146606221Y-48504916D01*
X146656140Y-48500000D01*
X147343860Y-48500000D01*
X147393779Y-48504916D01*
X147393779Y-48504916D01*
G37*
G36*
X138936232Y-47643746D02*
X139025770Y-47670907D01*
X139115309Y-47698068D01*
X139280347Y-47786283D01*
X139425001Y-47904999D01*
X139543717Y-48049653D01*
X139631932Y-48214691D01*
X139631932Y-48214692D01*
X139683678Y-48385275D01*
X139686254Y-48393769D01*
X139704596Y-48580000D01*
X139686254Y-48766231D01*
X139631932Y-48945309D01*
X139543717Y-49110347D01*
X139425001Y-49255001D01*
X139280347Y-49373717D01*
X139115309Y-49461932D01*
X139025770Y-49489093D01*
X138936232Y-49516254D01*
X138866448Y-49523127D01*
X138796666Y-49530000D01*
X138703334Y-49530000D01*
X138633552Y-49523127D01*
X138563768Y-49516254D01*
X138474230Y-49489093D01*
X138384691Y-49461932D01*
X138219653Y-49373717D01*
X138074999Y-49255001D01*
X137956283Y-49110347D01*
X137868068Y-48945309D01*
X137813746Y-48766231D01*
X137795404Y-48580000D01*
X137813746Y-48393769D01*
X137816323Y-48385275D01*
X137868068Y-48214692D01*
X137868068Y-48214691D01*
X137956283Y-48049653D01*
X138074999Y-47904999D01*
X138219653Y-47786283D01*
X138384691Y-47698068D01*
X138474230Y-47670907D01*
X138563768Y-47643746D01*
X138633552Y-47636873D01*
X138703334Y-47630000D01*
X138796666Y-47630000D01*
X138936232Y-47643746D01*
X138936232Y-47643746D01*
G37*
G36*
X161568779Y-46929916D02*
X161610870Y-46942685D01*
X161649666Y-46963422D01*
X161683671Y-46991329D01*
X161711578Y-47025334D01*
X161732315Y-47064130D01*
X161745084Y-47106221D01*
X161750000Y-47156140D01*
X161750000Y-47843860D01*
X161745084Y-47893779D01*
X161732315Y-47935870D01*
X161711578Y-47974666D01*
X161683671Y-48008671D01*
X161649666Y-48036578D01*
X161610870Y-48057315D01*
X161568779Y-48070084D01*
X161518860Y-48075000D01*
X160731140Y-48075000D01*
X160681221Y-48070084D01*
X160639130Y-48057315D01*
X160600334Y-48036578D01*
X160566329Y-48008671D01*
X160538422Y-47974666D01*
X160517685Y-47935870D01*
X160504916Y-47893779D01*
X160500000Y-47843860D01*
X160500000Y-47156140D01*
X160504916Y-47106221D01*
X160517685Y-47064130D01*
X160538422Y-47025334D01*
X160566329Y-46991329D01*
X160600334Y-46963422D01*
X160639130Y-46942685D01*
X160681221Y-46929916D01*
X160731140Y-46925000D01*
X161518860Y-46925000D01*
X161568779Y-46929916D01*
X161568779Y-46929916D01*
G37*
G36*
X145568779Y-46929916D02*
X145610870Y-46942685D01*
X145649666Y-46963422D01*
X145683671Y-46991329D01*
X145711578Y-47025334D01*
X145732315Y-47064130D01*
X145745084Y-47106221D01*
X145750000Y-47156140D01*
X145750000Y-47843860D01*
X145745084Y-47893779D01*
X145732315Y-47935870D01*
X145711578Y-47974666D01*
X145683671Y-48008671D01*
X145649666Y-48036578D01*
X145610870Y-48057315D01*
X145568779Y-48070084D01*
X145518860Y-48075000D01*
X144731140Y-48075000D01*
X144681221Y-48070084D01*
X144639130Y-48057315D01*
X144600334Y-48036578D01*
X144566329Y-48008671D01*
X144538422Y-47974666D01*
X144517685Y-47935870D01*
X144504916Y-47893779D01*
X144500000Y-47843860D01*
X144500000Y-47156140D01*
X144504916Y-47106221D01*
X144517685Y-47064130D01*
X144538422Y-47025334D01*
X144566329Y-46991329D01*
X144600334Y-46963422D01*
X144639130Y-46942685D01*
X144681221Y-46929916D01*
X144731140Y-46925000D01*
X145518860Y-46925000D01*
X145568779Y-46929916D01*
X145568779Y-46929916D01*
G37*
G36*
X163318779Y-46929916D02*
X163360870Y-46942685D01*
X163399666Y-46963422D01*
X163433671Y-46991329D01*
X163461578Y-47025334D01*
X163482315Y-47064130D01*
X163495084Y-47106221D01*
X163500000Y-47156140D01*
X163500000Y-47843860D01*
X163495084Y-47893779D01*
X163482315Y-47935870D01*
X163461578Y-47974666D01*
X163433671Y-48008671D01*
X163399666Y-48036578D01*
X163360870Y-48057315D01*
X163318779Y-48070084D01*
X163268860Y-48075000D01*
X162481140Y-48075000D01*
X162431221Y-48070084D01*
X162389130Y-48057315D01*
X162350334Y-48036578D01*
X162316329Y-48008671D01*
X162288422Y-47974666D01*
X162267685Y-47935870D01*
X162254916Y-47893779D01*
X162250000Y-47843860D01*
X162250000Y-47156140D01*
X162254916Y-47106221D01*
X162267685Y-47064130D01*
X162288422Y-47025334D01*
X162316329Y-46991329D01*
X162350334Y-46963422D01*
X162389130Y-46942685D01*
X162431221Y-46929916D01*
X162481140Y-46925000D01*
X163268860Y-46925000D01*
X163318779Y-46929916D01*
X163318779Y-46929916D01*
G37*
G36*
X143818779Y-46929916D02*
X143860870Y-46942685D01*
X143899666Y-46963422D01*
X143933671Y-46991329D01*
X143961578Y-47025334D01*
X143982315Y-47064130D01*
X143995084Y-47106221D01*
X144000000Y-47156140D01*
X144000000Y-47843860D01*
X143995084Y-47893779D01*
X143982315Y-47935870D01*
X143961578Y-47974666D01*
X143933671Y-48008671D01*
X143899666Y-48036578D01*
X143860870Y-48057315D01*
X143818779Y-48070084D01*
X143768860Y-48075000D01*
X142981140Y-48075000D01*
X142931221Y-48070084D01*
X142889130Y-48057315D01*
X142850334Y-48036578D01*
X142816329Y-48008671D01*
X142788422Y-47974666D01*
X142767685Y-47935870D01*
X142754916Y-47893779D01*
X142750000Y-47843860D01*
X142750000Y-47156140D01*
X142754916Y-47106221D01*
X142767685Y-47064130D01*
X142788422Y-47025334D01*
X142816329Y-46991329D01*
X142850334Y-46963422D01*
X142889130Y-46942685D01*
X142931221Y-46929916D01*
X142981140Y-46925000D01*
X143768860Y-46925000D01*
X143818779Y-46929916D01*
X143818779Y-46929916D01*
G37*
G36*
X147393779Y-46754916D02*
X147435870Y-46767685D01*
X147474666Y-46788422D01*
X147508671Y-46816329D01*
X147536578Y-46850334D01*
X147557315Y-46889130D01*
X147570084Y-46931221D01*
X147575000Y-46981140D01*
X147575000Y-47768860D01*
X147570084Y-47818779D01*
X147557315Y-47860870D01*
X147536578Y-47899666D01*
X147508671Y-47933671D01*
X147474666Y-47961578D01*
X147435870Y-47982315D01*
X147393779Y-47995084D01*
X147343860Y-48000000D01*
X146656140Y-48000000D01*
X146606221Y-47995084D01*
X146564130Y-47982315D01*
X146525334Y-47961578D01*
X146491329Y-47933671D01*
X146463422Y-47899666D01*
X146442685Y-47860870D01*
X146429916Y-47818779D01*
X146425000Y-47768860D01*
X146425000Y-46981140D01*
X146429916Y-46931221D01*
X146442685Y-46889130D01*
X146463422Y-46850334D01*
X146491329Y-46816329D01*
X146525334Y-46788422D01*
X146564130Y-46767685D01*
X146606221Y-46754916D01*
X146656140Y-46750000D01*
X147343860Y-46750000D01*
X147393779Y-46754916D01*
X147393779Y-46754916D01*
G37*
G36*
X170850000Y-47302500D02*
X168650000Y-47302500D01*
X168650000Y-45197500D01*
X170850000Y-45197500D01*
X170850000Y-47302500D01*
X170850000Y-47302500D01*
G37*
G36*
X138936232Y-45103746D02*
X139025770Y-45130907D01*
X139115309Y-45158068D01*
X139280347Y-45246283D01*
X139425001Y-45364999D01*
X139543717Y-45509653D01*
X139631932Y-45674691D01*
X139686254Y-45853769D01*
X139704596Y-46040000D01*
X139686254Y-46226231D01*
X139631932Y-46405309D01*
X139543717Y-46570347D01*
X139425001Y-46715001D01*
X139280347Y-46833717D01*
X139115309Y-46921932D01*
X139033049Y-46946885D01*
X138936232Y-46976254D01*
X138886623Y-46981140D01*
X138796666Y-46990000D01*
X138703334Y-46990000D01*
X138613377Y-46981140D01*
X138563768Y-46976254D01*
X138466951Y-46946885D01*
X138384691Y-46921932D01*
X138219653Y-46833717D01*
X138074999Y-46715001D01*
X137956283Y-46570347D01*
X137868068Y-46405309D01*
X137813746Y-46226231D01*
X137795404Y-46040000D01*
X137813746Y-45853769D01*
X137868068Y-45674691D01*
X137956283Y-45509653D01*
X138074999Y-45364999D01*
X138219653Y-45246283D01*
X138384691Y-45158068D01*
X138474230Y-45130907D01*
X138563768Y-45103746D01*
X138703334Y-45090000D01*
X138796666Y-45090000D01*
X138936232Y-45103746D01*
X138936232Y-45103746D01*
G37*
G36*
X174643779Y-45504916D02*
X174685870Y-45517685D01*
X174724666Y-45538422D01*
X174758671Y-45566329D01*
X174786578Y-45600334D01*
X174807315Y-45639130D01*
X174820084Y-45681221D01*
X174825000Y-45731140D01*
X174825000Y-46518860D01*
X174820084Y-46568779D01*
X174807315Y-46610870D01*
X174786578Y-46649666D01*
X174758671Y-46683671D01*
X174724666Y-46711578D01*
X174685870Y-46732315D01*
X174643779Y-46745084D01*
X174593860Y-46750000D01*
X173906140Y-46750000D01*
X173856221Y-46745084D01*
X173814130Y-46732315D01*
X173775334Y-46711578D01*
X173741329Y-46683671D01*
X173713422Y-46649666D01*
X173692685Y-46610870D01*
X173679916Y-46568779D01*
X173675000Y-46518860D01*
X173675000Y-45731140D01*
X173679916Y-45681221D01*
X173692685Y-45639130D01*
X173713422Y-45600334D01*
X173741329Y-45566329D01*
X173775334Y-45538422D01*
X173814130Y-45517685D01*
X173856221Y-45504916D01*
X173906140Y-45500000D01*
X174593860Y-45500000D01*
X174643779Y-45504916D01*
X174643779Y-45504916D01*
G37*
G36*
X145568779Y-45179916D02*
X145610870Y-45192685D01*
X145649666Y-45213422D01*
X145683671Y-45241329D01*
X145711578Y-45275334D01*
X145732315Y-45314130D01*
X145745084Y-45356221D01*
X145750000Y-45406140D01*
X145750000Y-46093860D01*
X145745084Y-46143779D01*
X145732315Y-46185870D01*
X145711578Y-46224666D01*
X145683671Y-46258671D01*
X145649666Y-46286578D01*
X145610870Y-46307315D01*
X145568779Y-46320084D01*
X145518860Y-46325000D01*
X144731140Y-46325000D01*
X144681221Y-46320084D01*
X144639130Y-46307315D01*
X144600334Y-46286578D01*
X144566329Y-46258671D01*
X144538422Y-46224666D01*
X144517685Y-46185870D01*
X144504916Y-46143779D01*
X144500000Y-46093860D01*
X144500000Y-45406140D01*
X144504916Y-45356221D01*
X144517685Y-45314130D01*
X144538422Y-45275334D01*
X144566329Y-45241329D01*
X144600334Y-45213422D01*
X144639130Y-45192685D01*
X144681221Y-45179916D01*
X144731140Y-45175000D01*
X145518860Y-45175000D01*
X145568779Y-45179916D01*
X145568779Y-45179916D01*
G37*
G36*
X143818779Y-45179916D02*
X143860870Y-45192685D01*
X143899666Y-45213422D01*
X143933671Y-45241329D01*
X143961578Y-45275334D01*
X143982315Y-45314130D01*
X143995084Y-45356221D01*
X144000000Y-45406140D01*
X144000000Y-46093860D01*
X143995084Y-46143779D01*
X143982315Y-46185870D01*
X143961578Y-46224666D01*
X143933671Y-46258671D01*
X143899666Y-46286578D01*
X143860870Y-46307315D01*
X143818779Y-46320084D01*
X143768860Y-46325000D01*
X142981140Y-46325000D01*
X142931221Y-46320084D01*
X142889130Y-46307315D01*
X142850334Y-46286578D01*
X142816329Y-46258671D01*
X142788422Y-46224666D01*
X142767685Y-46185870D01*
X142754916Y-46143779D01*
X142750000Y-46093860D01*
X142750000Y-45406140D01*
X142754916Y-45356221D01*
X142767685Y-45314130D01*
X142788422Y-45275334D01*
X142816329Y-45241329D01*
X142850334Y-45213422D01*
X142889130Y-45192685D01*
X142931221Y-45179916D01*
X142981140Y-45175000D01*
X143768860Y-45175000D01*
X143818779Y-45179916D01*
X143818779Y-45179916D01*
G37*
G36*
X174643779Y-43754916D02*
X174685870Y-43767685D01*
X174724666Y-43788422D01*
X174758671Y-43816329D01*
X174786578Y-43850334D01*
X174807315Y-43889130D01*
X174820084Y-43931221D01*
X174825000Y-43981140D01*
X174825000Y-44768860D01*
X174820084Y-44818779D01*
X174807315Y-44860870D01*
X174786578Y-44899666D01*
X174758671Y-44933671D01*
X174724666Y-44961578D01*
X174685870Y-44982315D01*
X174643779Y-44995084D01*
X174593860Y-45000000D01*
X173906140Y-45000000D01*
X173856221Y-44995084D01*
X173814130Y-44982315D01*
X173775334Y-44961578D01*
X173741329Y-44933671D01*
X173713422Y-44899666D01*
X173692685Y-44860870D01*
X173679916Y-44818779D01*
X173675000Y-44768860D01*
X173675000Y-43981140D01*
X173679916Y-43931221D01*
X173692685Y-43889130D01*
X173713422Y-43850334D01*
X173741329Y-43816329D01*
X173775334Y-43788422D01*
X173814130Y-43767685D01*
X173856221Y-43754916D01*
X173906140Y-43750000D01*
X174593860Y-43750000D01*
X174643779Y-43754916D01*
X174643779Y-43754916D01*
G37*
G36*
X139700000Y-44450000D02*
X137800000Y-44450000D01*
X137800000Y-42550000D01*
X139700000Y-42550000D01*
X139700000Y-44450000D01*
X139700000Y-44450000D01*
G37*
G36*
X154950000Y-44450000D02*
X153050000Y-44450000D01*
X153050000Y-42550000D01*
X154950000Y-42550000D01*
X154950000Y-44450000D01*
X154950000Y-44450000D01*
G37*
G36*
X144026232Y-42563746D02*
X144115770Y-42590907D01*
X144205309Y-42618068D01*
X144370347Y-42706283D01*
X144515001Y-42824999D01*
X144633717Y-42969653D01*
X144721932Y-43134691D01*
X144721932Y-43134692D01*
X144776254Y-43313768D01*
X144794596Y-43500000D01*
X144776254Y-43686232D01*
X144751546Y-43767685D01*
X144721932Y-43865309D01*
X144633717Y-44030347D01*
X144515001Y-44175001D01*
X144370347Y-44293717D01*
X144205309Y-44381932D01*
X144115770Y-44409093D01*
X144026232Y-44436254D01*
X143886666Y-44450000D01*
X143793334Y-44450000D01*
X143653768Y-44436254D01*
X143564230Y-44409093D01*
X143474691Y-44381932D01*
X143309653Y-44293717D01*
X143164999Y-44175001D01*
X143046283Y-44030347D01*
X142958068Y-43865309D01*
X142928454Y-43767685D01*
X142903746Y-43686232D01*
X142885404Y-43500000D01*
X142903746Y-43313768D01*
X142958068Y-43134692D01*
X142958068Y-43134691D01*
X143046283Y-42969653D01*
X143164999Y-42824999D01*
X143309653Y-42706283D01*
X143474691Y-42618068D01*
X143564230Y-42590907D01*
X143653768Y-42563746D01*
X143723552Y-42556873D01*
X143793334Y-42550000D01*
X143886666Y-42550000D01*
X144026232Y-42563746D01*
X144026232Y-42563746D01*
G37*
G36*
X146566232Y-42563746D02*
X146655770Y-42590907D01*
X146745309Y-42618068D01*
X146910347Y-42706283D01*
X147055001Y-42824999D01*
X147173717Y-42969653D01*
X147261932Y-43134691D01*
X147261932Y-43134692D01*
X147316254Y-43313768D01*
X147334596Y-43500000D01*
X147316254Y-43686232D01*
X147291546Y-43767685D01*
X147261932Y-43865309D01*
X147173717Y-44030347D01*
X147055001Y-44175001D01*
X146910347Y-44293717D01*
X146745309Y-44381932D01*
X146655770Y-44409093D01*
X146566232Y-44436254D01*
X146426666Y-44450000D01*
X146333334Y-44450000D01*
X146193768Y-44436254D01*
X146104230Y-44409093D01*
X146014691Y-44381932D01*
X145849653Y-44293717D01*
X145704999Y-44175001D01*
X145586283Y-44030347D01*
X145498068Y-43865309D01*
X145468454Y-43767685D01*
X145443746Y-43686232D01*
X145425404Y-43500000D01*
X145443746Y-43313768D01*
X145498068Y-43134692D01*
X145498068Y-43134691D01*
X145586283Y-42969653D01*
X145704999Y-42824999D01*
X145849653Y-42706283D01*
X146014691Y-42618068D01*
X146104230Y-42590907D01*
X146193768Y-42563746D01*
X146263552Y-42556873D01*
X146333334Y-42550000D01*
X146426666Y-42550000D01*
X146566232Y-42563746D01*
X146566232Y-42563746D01*
G37*
G36*
X149106232Y-42563746D02*
X149195770Y-42590907D01*
X149285309Y-42618068D01*
X149450347Y-42706283D01*
X149595001Y-42824999D01*
X149713717Y-42969653D01*
X149801932Y-43134691D01*
X149801932Y-43134692D01*
X149856254Y-43313768D01*
X149874596Y-43500000D01*
X149856254Y-43686232D01*
X149831546Y-43767685D01*
X149801932Y-43865309D01*
X149713717Y-44030347D01*
X149595001Y-44175001D01*
X149450347Y-44293717D01*
X149285309Y-44381932D01*
X149195770Y-44409093D01*
X149106232Y-44436254D01*
X148966666Y-44450000D01*
X148873334Y-44450000D01*
X148733768Y-44436254D01*
X148644230Y-44409093D01*
X148554691Y-44381932D01*
X148389653Y-44293717D01*
X148244999Y-44175001D01*
X148126283Y-44030347D01*
X148038068Y-43865309D01*
X148008454Y-43767685D01*
X147983746Y-43686232D01*
X147965404Y-43500000D01*
X147983746Y-43313768D01*
X148038068Y-43134692D01*
X148038068Y-43134691D01*
X148126283Y-42969653D01*
X148244999Y-42824999D01*
X148389653Y-42706283D01*
X148554691Y-42618068D01*
X148644230Y-42590907D01*
X148733768Y-42563746D01*
X148803552Y-42556873D01*
X148873334Y-42550000D01*
X148966666Y-42550000D01*
X149106232Y-42563746D01*
X149106232Y-42563746D01*
G37*
G36*
X151646232Y-42563746D02*
X151735770Y-42590907D01*
X151825309Y-42618068D01*
X151990347Y-42706283D01*
X152135001Y-42824999D01*
X152253717Y-42969653D01*
X152341932Y-43134691D01*
X152341932Y-43134692D01*
X152396254Y-43313768D01*
X152414596Y-43500000D01*
X152396254Y-43686232D01*
X152371546Y-43767685D01*
X152341932Y-43865309D01*
X152253717Y-44030347D01*
X152135001Y-44175001D01*
X151990347Y-44293717D01*
X151825309Y-44381932D01*
X151735770Y-44409093D01*
X151646232Y-44436254D01*
X151506666Y-44450000D01*
X151413334Y-44450000D01*
X151273768Y-44436254D01*
X151184230Y-44409093D01*
X151094691Y-44381932D01*
X150929653Y-44293717D01*
X150784999Y-44175001D01*
X150666283Y-44030347D01*
X150578068Y-43865309D01*
X150548454Y-43767685D01*
X150523746Y-43686232D01*
X150505404Y-43500000D01*
X150523746Y-43313768D01*
X150578068Y-43134692D01*
X150578068Y-43134691D01*
X150666283Y-42969653D01*
X150784999Y-42824999D01*
X150929653Y-42706283D01*
X151094691Y-42618068D01*
X151184230Y-42590907D01*
X151273768Y-42563746D01*
X151343552Y-42556873D01*
X151413334Y-42550000D01*
X151506666Y-42550000D01*
X151646232Y-42563746D01*
X151646232Y-42563746D01*
G37*
G36*
X172850000Y-39100000D02*
X169150000Y-39100000D01*
X169150000Y-36400000D01*
X172850000Y-36400000D01*
X172850000Y-39100000D01*
X172850000Y-39100000D01*
G37*
G36*
X166350000Y-39100000D02*
X162650000Y-39100000D01*
X162650000Y-36400000D01*
X166350000Y-36400000D01*
X166350000Y-39100000D01*
X166350000Y-39100000D01*
G37*
G36*
X139450000Y-36950000D02*
X137550000Y-36950000D01*
X137550000Y-35050000D01*
X139450000Y-35050000D01*
X139450000Y-36950000D01*
X139450000Y-36950000D01*
G37*
G36*
X138686232Y-32523746D02*
X138775770Y-32550907D01*
X138865309Y-32578068D01*
X139030347Y-32666283D01*
X139175001Y-32784999D01*
X139293717Y-32929653D01*
X139381932Y-33094691D01*
X139436254Y-33273769D01*
X139454596Y-33460000D01*
X139436254Y-33646231D01*
X139381932Y-33825309D01*
X139293717Y-33990347D01*
X139175001Y-34135001D01*
X139030347Y-34253717D01*
X138865309Y-34341932D01*
X138775770Y-34369093D01*
X138686232Y-34396254D01*
X138546666Y-34410000D01*
X138453334Y-34410000D01*
X138313768Y-34396254D01*
X138224230Y-34369093D01*
X138134691Y-34341932D01*
X137969653Y-34253717D01*
X137824999Y-34135001D01*
X137706283Y-33990347D01*
X137618068Y-33825309D01*
X137563746Y-33646231D01*
X137545404Y-33460000D01*
X137563746Y-33273769D01*
X137618068Y-33094691D01*
X137706283Y-32929653D01*
X137824999Y-32784999D01*
X137969653Y-32666283D01*
X138134691Y-32578068D01*
X138224230Y-32550907D01*
X138313768Y-32523746D01*
X138453334Y-32510000D01*
X138546666Y-32510000D01*
X138686232Y-32523746D01*
X138686232Y-32523746D01*
G37*
G36*
X147350440Y-32100440D02*
X142649560Y-32100440D01*
X142649560Y-27399560D01*
X147350440Y-27399560D01*
X147350440Y-32100440D01*
X147350440Y-32100440D01*
G37*
G36*
X158350000Y-31100000D02*
X154150000Y-31100000D01*
X154150000Y-22900000D01*
X158350000Y-22900000D01*
X158350000Y-31100000D01*
X158350000Y-31100000D01*
G37*
G36*
X179350000Y-31100000D02*
X175150000Y-31100000D01*
X175150000Y-22900000D01*
X179350000Y-22900000D01*
X179350000Y-31100000D01*
X179350000Y-31100000D01*
G37*
G36*
X168850000Y-31100000D02*
X164650000Y-31100000D01*
X164650000Y-22900000D01*
X168850000Y-22900000D01*
X168850000Y-31100000D01*
X168850000Y-31100000D01*
G37*
G36*
X145685597Y-21139885D02*
X146113350Y-21317066D01*
X146498321Y-21574296D01*
X146825704Y-21901679D01*
X147082934Y-22286650D01*
X147260115Y-22714403D01*
X147350440Y-23168500D01*
X147350440Y-23631500D01*
X147260115Y-24085597D01*
X147082934Y-24513350D01*
X146825704Y-24898321D01*
X146498321Y-25225704D01*
X146113350Y-25482934D01*
X145685597Y-25660115D01*
X145231500Y-25750440D01*
X144768500Y-25750440D01*
X144314403Y-25660115D01*
X143886650Y-25482934D01*
X143501679Y-25225704D01*
X143174296Y-24898321D01*
X142917066Y-24513350D01*
X142739885Y-24085597D01*
X142649560Y-23631500D01*
X142649560Y-23168500D01*
X142739885Y-22714403D01*
X142917066Y-22286650D01*
X143174296Y-21901679D01*
X143501679Y-21574296D01*
X143886650Y-21317066D01*
X144314403Y-21139885D01*
X144768500Y-21049560D01*
X145231500Y-21049560D01*
X145685597Y-21139885D01*
X145685597Y-21139885D01*
G37*
G36*
X139172947Y-21105722D02*
X139436833Y-21215027D01*
X139674324Y-21373713D01*
X139876287Y-21575676D01*
X140034973Y-21813167D01*
X140144278Y-22077053D01*
X140200000Y-22357186D01*
X140200000Y-22642814D01*
X140144278Y-22922947D01*
X140034973Y-23186833D01*
X139876287Y-23424324D01*
X139674324Y-23626287D01*
X139436833Y-23784973D01*
X139172947Y-23894278D01*
X138892814Y-23950000D01*
X138607186Y-23950000D01*
X138327053Y-23894278D01*
X138063167Y-23784973D01*
X137825676Y-23626287D01*
X137623713Y-23424324D01*
X137465027Y-23186833D01*
X137355722Y-22922947D01*
X137300000Y-22642814D01*
X137300000Y-22357186D01*
X137355722Y-22077053D01*
X137465027Y-21813167D01*
X137623713Y-21575676D01*
X137825676Y-21373713D01*
X138063167Y-21215027D01*
X138327053Y-21105722D01*
X138607186Y-21050000D01*
X138892814Y-21050000D01*
X139172947Y-21105722D01*
X139172947Y-21105722D01*
G37*
M02*
