%FSLAX45Y45*%
G04 Gerber Fmt 4.5, Leading zero omitted, Abs format (unit mm)*
G04 Created by KiCad (PCBNEW (5.0.1)-3) date 08.04.2021 14:22:42*
%MOMM*%
%LPD*%
G01*
G04 APERTURE LIST*
%ADD10C,0.150000*%
%ADD11C,0.200000*%
%ADD12C,0.300000*%
G04 APERTURE END LIST*
D10*
X13475000Y-11025000D02*
X13475000Y-1850000D01*
X18200000Y-11025000D02*
X13475000Y-11025000D01*
X18200000Y-1850000D02*
X18200000Y-11025000D01*
X13475000Y-1850000D02*
X18200000Y-1850000D01*
D11*
X17615000Y-10490000D02*
X17885000Y-10760000D01*
X17885000Y-10490000D02*
X17615000Y-10760000D01*
X13740000Y-2115000D02*
X14010000Y-2385000D01*
X14010000Y-2115000D02*
X13740000Y-2385000D01*
D12*
X13753928Y-11498214D02*
X13753928Y-11198214D01*
X13825357Y-11198214D01*
X13868214Y-11212500D01*
X13896786Y-11241071D01*
X13911071Y-11269643D01*
X13925357Y-11326786D01*
X13925357Y-11369643D01*
X13911071Y-11426786D01*
X13896786Y-11455357D01*
X13868214Y-11483929D01*
X13825357Y-11498214D01*
X13753928Y-11498214D01*
X14053928Y-11498214D02*
X14053928Y-11298214D01*
X14053928Y-11355357D02*
X14068214Y-11326786D01*
X14082500Y-11312500D01*
X14111071Y-11298214D01*
X14139643Y-11298214D01*
X14239643Y-11498214D02*
X14239643Y-11298214D01*
X14239643Y-11198214D02*
X14225357Y-11212500D01*
X14239643Y-11226786D01*
X14253928Y-11212500D01*
X14239643Y-11198214D01*
X14239643Y-11226786D01*
X14425357Y-11498214D02*
X14396786Y-11483929D01*
X14382500Y-11455357D01*
X14382500Y-11198214D01*
X14582500Y-11498214D02*
X14553928Y-11483929D01*
X14539643Y-11455357D01*
X14539643Y-11198214D01*
X14925357Y-11498214D02*
X14925357Y-11198214D01*
X15025357Y-11412500D01*
X15125357Y-11198214D01*
X15125357Y-11498214D01*
X15396786Y-11498214D02*
X15396786Y-11341071D01*
X15382500Y-11312500D01*
X15353928Y-11298214D01*
X15296786Y-11298214D01*
X15268214Y-11312500D01*
X15396786Y-11483929D02*
X15368214Y-11498214D01*
X15296786Y-11498214D01*
X15268214Y-11483929D01*
X15253928Y-11455357D01*
X15253928Y-11426786D01*
X15268214Y-11398214D01*
X15296786Y-11383929D01*
X15368214Y-11383929D01*
X15396786Y-11369643D01*
X15539643Y-11298214D02*
X15539643Y-11598214D01*
X15539643Y-11312500D02*
X15568214Y-11298214D01*
X15625357Y-11298214D01*
X15653928Y-11312500D01*
X15668214Y-11326786D01*
X15682500Y-11355357D01*
X15682500Y-11441071D01*
X15668214Y-11469643D01*
X15653928Y-11483929D01*
X15625357Y-11498214D01*
X15568214Y-11498214D01*
X15539643Y-11483929D01*
X15811071Y-11469643D02*
X15825357Y-11483929D01*
X15811071Y-11498214D01*
X15796786Y-11483929D01*
X15811071Y-11469643D01*
X15811071Y-11498214D01*
X15811071Y-11312500D02*
X15825357Y-11326786D01*
X15811071Y-11341071D01*
X15796786Y-11326786D01*
X15811071Y-11312500D01*
X15811071Y-11341071D01*
X13197500Y-11857500D02*
X13467500Y-12127500D01*
X13467500Y-11857500D02*
X13197500Y-12127500D01*
X13739643Y-11856786D02*
X13753928Y-11842500D01*
X13782500Y-11828214D01*
X13853928Y-11828214D01*
X13882500Y-11842500D01*
X13896786Y-11856786D01*
X13911071Y-11885357D01*
X13911071Y-11913929D01*
X13896786Y-11956786D01*
X13725357Y-12128214D01*
X13911071Y-12128214D01*
X14039643Y-12099643D02*
X14053928Y-12113929D01*
X14039643Y-12128214D01*
X14025357Y-12113929D01*
X14039643Y-12099643D01*
X14039643Y-12128214D01*
X14153928Y-11828214D02*
X14353928Y-11828214D01*
X14225357Y-12128214D01*
X14525357Y-11828214D02*
X14553928Y-11828214D01*
X14582500Y-11842500D01*
X14596786Y-11856786D01*
X14611071Y-11885357D01*
X14625357Y-11942500D01*
X14625357Y-12013929D01*
X14611071Y-12071071D01*
X14596786Y-12099643D01*
X14582500Y-12113929D01*
X14553928Y-12128214D01*
X14525357Y-12128214D01*
X14496786Y-12113929D01*
X14482500Y-12099643D01*
X14468214Y-12071071D01*
X14453928Y-12013929D01*
X14453928Y-11942500D01*
X14468214Y-11885357D01*
X14482500Y-11856786D01*
X14496786Y-11842500D01*
X14525357Y-11828214D01*
X14753928Y-12128214D02*
X14753928Y-11928214D01*
X14753928Y-11956786D02*
X14768214Y-11942500D01*
X14796786Y-11928214D01*
X14839643Y-11928214D01*
X14868214Y-11942500D01*
X14882500Y-11971071D01*
X14882500Y-12128214D01*
X14882500Y-11971071D02*
X14896786Y-11942500D01*
X14925357Y-11928214D01*
X14968214Y-11928214D01*
X14996786Y-11942500D01*
X15011071Y-11971071D01*
X15011071Y-12128214D01*
X15153928Y-12128214D02*
X15153928Y-11928214D01*
X15153928Y-11956786D02*
X15168214Y-11942500D01*
X15196786Y-11928214D01*
X15239643Y-11928214D01*
X15268214Y-11942500D01*
X15282500Y-11971071D01*
X15282500Y-12128214D01*
X15282500Y-11971071D02*
X15296786Y-11942500D01*
X15325357Y-11928214D01*
X15368214Y-11928214D01*
X15396786Y-11942500D01*
X15411071Y-11971071D01*
X15411071Y-12128214D01*
X15996786Y-11813929D02*
X15739643Y-12199643D01*
X16382500Y-11828214D02*
X16411071Y-11828214D01*
X16439643Y-11842500D01*
X16453928Y-11856786D01*
X16468214Y-11885357D01*
X16482500Y-11942500D01*
X16482500Y-12013929D01*
X16468214Y-12071071D01*
X16453928Y-12099643D01*
X16439643Y-12113929D01*
X16411071Y-12128214D01*
X16382500Y-12128214D01*
X16353928Y-12113929D01*
X16339643Y-12099643D01*
X16325357Y-12071071D01*
X16311071Y-12013929D01*
X16311071Y-11942500D01*
X16325357Y-11885357D01*
X16339643Y-11856786D01*
X16353928Y-11842500D01*
X16382500Y-11828214D01*
X16611071Y-12099643D02*
X16625357Y-12113929D01*
X16611071Y-12128214D01*
X16596786Y-12113929D01*
X16611071Y-12099643D01*
X16611071Y-12128214D01*
X16911071Y-12128214D02*
X16739643Y-12128214D01*
X16825357Y-12128214D02*
X16825357Y-11828214D01*
X16796786Y-11871071D01*
X16768214Y-11899643D01*
X16739643Y-11913929D01*
X17096786Y-11828214D02*
X17125357Y-11828214D01*
X17153928Y-11842500D01*
X17168214Y-11856786D01*
X17182500Y-11885357D01*
X17196786Y-11942500D01*
X17196786Y-12013929D01*
X17182500Y-12071071D01*
X17168214Y-12099643D01*
X17153928Y-12113929D01*
X17125357Y-12128214D01*
X17096786Y-12128214D01*
X17068214Y-12113929D01*
X17053928Y-12099643D01*
X17039643Y-12071071D01*
X17025357Y-12013929D01*
X17025357Y-11942500D01*
X17039643Y-11885357D01*
X17053928Y-11856786D01*
X17068214Y-11842500D01*
X17096786Y-11828214D01*
X17453928Y-11828214D02*
X17396786Y-11828214D01*
X17368214Y-11842500D01*
X17353928Y-11856786D01*
X17325357Y-11899643D01*
X17311071Y-11956786D01*
X17311071Y-12071071D01*
X17325357Y-12099643D01*
X17339643Y-12113929D01*
X17368214Y-12128214D01*
X17425357Y-12128214D01*
X17453928Y-12113929D01*
X17468214Y-12099643D01*
X17482500Y-12071071D01*
X17482500Y-11999643D01*
X17468214Y-11971071D01*
X17453928Y-11956786D01*
X17425357Y-11942500D01*
X17368214Y-11942500D01*
X17339643Y-11956786D01*
X17325357Y-11971071D01*
X17311071Y-11999643D01*
X17596786Y-11828214D02*
X17596786Y-11885357D01*
X17711071Y-11828214D02*
X17711071Y-11885357D01*
X18153928Y-12242500D02*
X18139643Y-12228214D01*
X18111071Y-12185357D01*
X18096786Y-12156786D01*
X18082500Y-12113929D01*
X18068214Y-12042500D01*
X18068214Y-11985357D01*
X18082500Y-11913929D01*
X18096786Y-11871071D01*
X18111071Y-11842500D01*
X18139643Y-11799643D01*
X18153928Y-11785357D01*
X18253928Y-11856786D02*
X18268214Y-11842500D01*
X18296786Y-11828214D01*
X18368214Y-11828214D01*
X18396786Y-11842500D01*
X18411071Y-11856786D01*
X18425357Y-11885357D01*
X18425357Y-11913929D01*
X18411071Y-11956786D01*
X18239643Y-12128214D01*
X18425357Y-12128214D01*
X18782500Y-12128214D02*
X18782500Y-11828214D01*
X18911071Y-12128214D02*
X18911071Y-11971071D01*
X18896786Y-11942500D01*
X18868214Y-11928214D01*
X18825357Y-11928214D01*
X18796786Y-11942500D01*
X18782500Y-11956786D01*
X19096786Y-12128214D02*
X19068214Y-12113929D01*
X19053928Y-12099643D01*
X19039643Y-12071071D01*
X19039643Y-11985357D01*
X19053928Y-11956786D01*
X19068214Y-11942500D01*
X19096786Y-11928214D01*
X19139643Y-11928214D01*
X19168214Y-11942500D01*
X19182500Y-11956786D01*
X19196786Y-11985357D01*
X19196786Y-12071071D01*
X19182500Y-12099643D01*
X19168214Y-12113929D01*
X19139643Y-12128214D01*
X19096786Y-12128214D01*
X19368214Y-12128214D02*
X19339643Y-12113929D01*
X19325357Y-12085357D01*
X19325357Y-11828214D01*
X19596786Y-12113929D02*
X19568214Y-12128214D01*
X19511071Y-12128214D01*
X19482500Y-12113929D01*
X19468214Y-12085357D01*
X19468214Y-11971071D01*
X19482500Y-11942500D01*
X19511071Y-11928214D01*
X19568214Y-11928214D01*
X19596786Y-11942500D01*
X19611071Y-11971071D01*
X19611071Y-11999643D01*
X19468214Y-12028214D01*
X19725357Y-12113929D02*
X19753928Y-12128214D01*
X19811071Y-12128214D01*
X19839643Y-12113929D01*
X19853928Y-12085357D01*
X19853928Y-12071071D01*
X19839643Y-12042500D01*
X19811071Y-12028214D01*
X19768214Y-12028214D01*
X19739643Y-12013929D01*
X19725357Y-11985357D01*
X19725357Y-11971071D01*
X19739643Y-11942500D01*
X19768214Y-11928214D01*
X19811071Y-11928214D01*
X19839643Y-11942500D01*
X19953928Y-12242500D02*
X19968214Y-12228214D01*
X19996786Y-12185357D01*
X20011071Y-12156786D01*
X20025357Y-12113929D01*
X20039643Y-12042500D01*
X20039643Y-11985357D01*
X20025357Y-11913929D01*
X20011071Y-11871071D01*
X19996786Y-11842500D01*
X19968214Y-11799643D01*
X19953928Y-11785357D01*
X20496786Y-12242500D02*
X20482500Y-12228214D01*
X20453928Y-12185357D01*
X20439643Y-12156786D01*
X20425357Y-12113929D01*
X20411071Y-12042500D01*
X20411071Y-11985357D01*
X20425357Y-11913929D01*
X20439643Y-11871071D01*
X20453928Y-11842500D01*
X20482500Y-11799643D01*
X20496786Y-11785357D01*
X20611071Y-11928214D02*
X20611071Y-12128214D01*
X20611071Y-11956786D02*
X20625357Y-11942500D01*
X20653928Y-11928214D01*
X20696786Y-11928214D01*
X20725357Y-11942500D01*
X20739643Y-11971071D01*
X20739643Y-12128214D01*
X20925357Y-12128214D02*
X20896786Y-12113929D01*
X20882500Y-12099643D01*
X20868214Y-12071071D01*
X20868214Y-11985357D01*
X20882500Y-11956786D01*
X20896786Y-11942500D01*
X20925357Y-11928214D01*
X20968214Y-11928214D01*
X20996786Y-11942500D01*
X21011071Y-11956786D01*
X21025357Y-11985357D01*
X21025357Y-12071071D01*
X21011071Y-12099643D01*
X20996786Y-12113929D01*
X20968214Y-12128214D01*
X20925357Y-12128214D01*
X21111071Y-11928214D02*
X21225357Y-11928214D01*
X21153928Y-11828214D02*
X21153928Y-12085357D01*
X21168214Y-12113929D01*
X21196786Y-12128214D01*
X21225357Y-12128214D01*
X21553928Y-11928214D02*
X21553928Y-12228214D01*
X21553928Y-11942500D02*
X21582500Y-11928214D01*
X21639643Y-11928214D01*
X21668214Y-11942500D01*
X21682500Y-11956786D01*
X21696786Y-11985357D01*
X21696786Y-12071071D01*
X21682500Y-12099643D01*
X21668214Y-12113929D01*
X21639643Y-12128214D01*
X21582500Y-12128214D01*
X21553928Y-12113929D01*
X21868214Y-12128214D02*
X21839643Y-12113929D01*
X21825357Y-12085357D01*
X21825357Y-11828214D01*
X22111071Y-12128214D02*
X22111071Y-11971071D01*
X22096786Y-11942500D01*
X22068214Y-11928214D01*
X22011071Y-11928214D01*
X21982500Y-11942500D01*
X22111071Y-12113929D02*
X22082500Y-12128214D01*
X22011071Y-12128214D01*
X21982500Y-12113929D01*
X21968214Y-12085357D01*
X21968214Y-12056786D01*
X21982500Y-12028214D01*
X22011071Y-12013929D01*
X22082500Y-12013929D01*
X22111071Y-11999643D01*
X22211071Y-11928214D02*
X22325357Y-11928214D01*
X22253928Y-11828214D02*
X22253928Y-12085357D01*
X22268214Y-12113929D01*
X22296786Y-12128214D01*
X22325357Y-12128214D01*
X22539643Y-12113929D02*
X22511071Y-12128214D01*
X22453928Y-12128214D01*
X22425357Y-12113929D01*
X22411071Y-12085357D01*
X22411071Y-11971071D01*
X22425357Y-11942500D01*
X22453928Y-11928214D01*
X22511071Y-11928214D01*
X22539643Y-11942500D01*
X22553928Y-11971071D01*
X22553928Y-11999643D01*
X22411071Y-12028214D01*
X22811071Y-12128214D02*
X22811071Y-11828214D01*
X22811071Y-12113929D02*
X22782500Y-12128214D01*
X22725357Y-12128214D01*
X22696786Y-12113929D01*
X22682500Y-12099643D01*
X22668214Y-12071071D01*
X22668214Y-11985357D01*
X22682500Y-11956786D01*
X22696786Y-11942500D01*
X22725357Y-11928214D01*
X22782500Y-11928214D01*
X22811071Y-11942500D01*
X22925357Y-12242500D02*
X22939643Y-12228214D01*
X22968214Y-12185357D01*
X22982500Y-12156786D01*
X22996786Y-12113929D01*
X23011071Y-12042500D01*
X23011071Y-11985357D01*
X22996786Y-11913929D01*
X22982500Y-11871071D01*
X22968214Y-11842500D01*
X22939643Y-11799643D01*
X22925357Y-11785357D01*
M02*
