G04 #@! TF.GenerationSoftware,KiCad,Pcbnew,(5.0.1)-3*
G04 #@! TF.CreationDate,2021-04-08T14:22:07+02:00*
G04 #@! TF.ProjectId,MAN_Motor_Drivers,4D414E5F4D6F746F725F447269766572,rev?*
G04 #@! TF.SameCoordinates,Original*
G04 #@! TF.FileFunction,Paste,Top*
G04 #@! TF.FilePolarity,Positive*
%FSLAX46Y46*%
G04 Gerber Fmt 4.6, Leading zero omitted, Abs format (unit mm)*
G04 Created by KiCad (PCBNEW (5.0.1)-3) date 08.04.2021 14:22:07*
%MOMM*%
%LPD*%
G01*
G04 APERTURE LIST*
%ADD10C,0.100000*%
%ADD11C,0.950000*%
%ADD12C,1.150000*%
%ADD13R,1.050000X0.450000*%
%ADD14R,0.880000X1.050000*%
%ADD15R,3.500000X2.500000*%
G04 APERTURE END LIST*
D10*
G04 #@! TO.C,C1*
G36*
X161435779Y-47026144D02*
X161458834Y-47029563D01*
X161481443Y-47035227D01*
X161503387Y-47043079D01*
X161524457Y-47053044D01*
X161544448Y-47065026D01*
X161563168Y-47078910D01*
X161580438Y-47094562D01*
X161596090Y-47111832D01*
X161609974Y-47130552D01*
X161621956Y-47150543D01*
X161631921Y-47171613D01*
X161639773Y-47193557D01*
X161645437Y-47216166D01*
X161648856Y-47239221D01*
X161650000Y-47262500D01*
X161650000Y-47737500D01*
X161648856Y-47760779D01*
X161645437Y-47783834D01*
X161639773Y-47806443D01*
X161631921Y-47828387D01*
X161621956Y-47849457D01*
X161609974Y-47869448D01*
X161596090Y-47888168D01*
X161580438Y-47905438D01*
X161563168Y-47921090D01*
X161544448Y-47934974D01*
X161524457Y-47946956D01*
X161503387Y-47956921D01*
X161481443Y-47964773D01*
X161458834Y-47970437D01*
X161435779Y-47973856D01*
X161412500Y-47975000D01*
X160837500Y-47975000D01*
X160814221Y-47973856D01*
X160791166Y-47970437D01*
X160768557Y-47964773D01*
X160746613Y-47956921D01*
X160725543Y-47946956D01*
X160705552Y-47934974D01*
X160686832Y-47921090D01*
X160669562Y-47905438D01*
X160653910Y-47888168D01*
X160640026Y-47869448D01*
X160628044Y-47849457D01*
X160618079Y-47828387D01*
X160610227Y-47806443D01*
X160604563Y-47783834D01*
X160601144Y-47760779D01*
X160600000Y-47737500D01*
X160600000Y-47262500D01*
X160601144Y-47239221D01*
X160604563Y-47216166D01*
X160610227Y-47193557D01*
X160618079Y-47171613D01*
X160628044Y-47150543D01*
X160640026Y-47130552D01*
X160653910Y-47111832D01*
X160669562Y-47094562D01*
X160686832Y-47078910D01*
X160705552Y-47065026D01*
X160725543Y-47053044D01*
X160746613Y-47043079D01*
X160768557Y-47035227D01*
X160791166Y-47029563D01*
X160814221Y-47026144D01*
X160837500Y-47025000D01*
X161412500Y-47025000D01*
X161435779Y-47026144D01*
X161435779Y-47026144D01*
G37*
D11*
X161125000Y-47500000D03*
D10*
G36*
X163185779Y-47026144D02*
X163208834Y-47029563D01*
X163231443Y-47035227D01*
X163253387Y-47043079D01*
X163274457Y-47053044D01*
X163294448Y-47065026D01*
X163313168Y-47078910D01*
X163330438Y-47094562D01*
X163346090Y-47111832D01*
X163359974Y-47130552D01*
X163371956Y-47150543D01*
X163381921Y-47171613D01*
X163389773Y-47193557D01*
X163395437Y-47216166D01*
X163398856Y-47239221D01*
X163400000Y-47262500D01*
X163400000Y-47737500D01*
X163398856Y-47760779D01*
X163395437Y-47783834D01*
X163389773Y-47806443D01*
X163381921Y-47828387D01*
X163371956Y-47849457D01*
X163359974Y-47869448D01*
X163346090Y-47888168D01*
X163330438Y-47905438D01*
X163313168Y-47921090D01*
X163294448Y-47934974D01*
X163274457Y-47946956D01*
X163253387Y-47956921D01*
X163231443Y-47964773D01*
X163208834Y-47970437D01*
X163185779Y-47973856D01*
X163162500Y-47975000D01*
X162587500Y-47975000D01*
X162564221Y-47973856D01*
X162541166Y-47970437D01*
X162518557Y-47964773D01*
X162496613Y-47956921D01*
X162475543Y-47946956D01*
X162455552Y-47934974D01*
X162436832Y-47921090D01*
X162419562Y-47905438D01*
X162403910Y-47888168D01*
X162390026Y-47869448D01*
X162378044Y-47849457D01*
X162368079Y-47828387D01*
X162360227Y-47806443D01*
X162354563Y-47783834D01*
X162351144Y-47760779D01*
X162350000Y-47737500D01*
X162350000Y-47262500D01*
X162351144Y-47239221D01*
X162354563Y-47216166D01*
X162360227Y-47193557D01*
X162368079Y-47171613D01*
X162378044Y-47150543D01*
X162390026Y-47130552D01*
X162403910Y-47111832D01*
X162419562Y-47094562D01*
X162436832Y-47078910D01*
X162455552Y-47065026D01*
X162475543Y-47053044D01*
X162496613Y-47043079D01*
X162518557Y-47035227D01*
X162541166Y-47029563D01*
X162564221Y-47026144D01*
X162587500Y-47025000D01*
X163162500Y-47025000D01*
X163185779Y-47026144D01*
X163185779Y-47026144D01*
G37*
D11*
X162875000Y-47500000D03*
G04 #@! TD*
D10*
G04 #@! TO.C,C2*
G36*
X160260779Y-49101144D02*
X160283834Y-49104563D01*
X160306443Y-49110227D01*
X160328387Y-49118079D01*
X160349457Y-49128044D01*
X160369448Y-49140026D01*
X160388168Y-49153910D01*
X160405438Y-49169562D01*
X160421090Y-49186832D01*
X160434974Y-49205552D01*
X160446956Y-49225543D01*
X160456921Y-49246613D01*
X160464773Y-49268557D01*
X160470437Y-49291166D01*
X160473856Y-49314221D01*
X160475000Y-49337500D01*
X160475000Y-49912500D01*
X160473856Y-49935779D01*
X160470437Y-49958834D01*
X160464773Y-49981443D01*
X160456921Y-50003387D01*
X160446956Y-50024457D01*
X160434974Y-50044448D01*
X160421090Y-50063168D01*
X160405438Y-50080438D01*
X160388168Y-50096090D01*
X160369448Y-50109974D01*
X160349457Y-50121956D01*
X160328387Y-50131921D01*
X160306443Y-50139773D01*
X160283834Y-50145437D01*
X160260779Y-50148856D01*
X160237500Y-50150000D01*
X159762500Y-50150000D01*
X159739221Y-50148856D01*
X159716166Y-50145437D01*
X159693557Y-50139773D01*
X159671613Y-50131921D01*
X159650543Y-50121956D01*
X159630552Y-50109974D01*
X159611832Y-50096090D01*
X159594562Y-50080438D01*
X159578910Y-50063168D01*
X159565026Y-50044448D01*
X159553044Y-50024457D01*
X159543079Y-50003387D01*
X159535227Y-49981443D01*
X159529563Y-49958834D01*
X159526144Y-49935779D01*
X159525000Y-49912500D01*
X159525000Y-49337500D01*
X159526144Y-49314221D01*
X159529563Y-49291166D01*
X159535227Y-49268557D01*
X159543079Y-49246613D01*
X159553044Y-49225543D01*
X159565026Y-49205552D01*
X159578910Y-49186832D01*
X159594562Y-49169562D01*
X159611832Y-49153910D01*
X159630552Y-49140026D01*
X159650543Y-49128044D01*
X159671613Y-49118079D01*
X159693557Y-49110227D01*
X159716166Y-49104563D01*
X159739221Y-49101144D01*
X159762500Y-49100000D01*
X160237500Y-49100000D01*
X160260779Y-49101144D01*
X160260779Y-49101144D01*
G37*
D11*
X160000000Y-49625000D03*
D10*
G36*
X160260779Y-50851144D02*
X160283834Y-50854563D01*
X160306443Y-50860227D01*
X160328387Y-50868079D01*
X160349457Y-50878044D01*
X160369448Y-50890026D01*
X160388168Y-50903910D01*
X160405438Y-50919562D01*
X160421090Y-50936832D01*
X160434974Y-50955552D01*
X160446956Y-50975543D01*
X160456921Y-50996613D01*
X160464773Y-51018557D01*
X160470437Y-51041166D01*
X160473856Y-51064221D01*
X160475000Y-51087500D01*
X160475000Y-51662500D01*
X160473856Y-51685779D01*
X160470437Y-51708834D01*
X160464773Y-51731443D01*
X160456921Y-51753387D01*
X160446956Y-51774457D01*
X160434974Y-51794448D01*
X160421090Y-51813168D01*
X160405438Y-51830438D01*
X160388168Y-51846090D01*
X160369448Y-51859974D01*
X160349457Y-51871956D01*
X160328387Y-51881921D01*
X160306443Y-51889773D01*
X160283834Y-51895437D01*
X160260779Y-51898856D01*
X160237500Y-51900000D01*
X159762500Y-51900000D01*
X159739221Y-51898856D01*
X159716166Y-51895437D01*
X159693557Y-51889773D01*
X159671613Y-51881921D01*
X159650543Y-51871956D01*
X159630552Y-51859974D01*
X159611832Y-51846090D01*
X159594562Y-51830438D01*
X159578910Y-51813168D01*
X159565026Y-51794448D01*
X159553044Y-51774457D01*
X159543079Y-51753387D01*
X159535227Y-51731443D01*
X159529563Y-51708834D01*
X159526144Y-51685779D01*
X159525000Y-51662500D01*
X159525000Y-51087500D01*
X159526144Y-51064221D01*
X159529563Y-51041166D01*
X159535227Y-51018557D01*
X159543079Y-50996613D01*
X159553044Y-50975543D01*
X159565026Y-50955552D01*
X159578910Y-50936832D01*
X159594562Y-50919562D01*
X159611832Y-50903910D01*
X159630552Y-50890026D01*
X159650543Y-50878044D01*
X159671613Y-50868079D01*
X159693557Y-50860227D01*
X159716166Y-50854563D01*
X159739221Y-50851144D01*
X159762500Y-50850000D01*
X160237500Y-50850000D01*
X160260779Y-50851144D01*
X160260779Y-50851144D01*
G37*
D11*
X160000000Y-51375000D03*
G04 #@! TD*
D10*
G04 #@! TO.C,C3*
G36*
X159935779Y-94276144D02*
X159958834Y-94279563D01*
X159981443Y-94285227D01*
X160003387Y-94293079D01*
X160024457Y-94303044D01*
X160044448Y-94315026D01*
X160063168Y-94328910D01*
X160080438Y-94344562D01*
X160096090Y-94361832D01*
X160109974Y-94380552D01*
X160121956Y-94400543D01*
X160131921Y-94421613D01*
X160139773Y-94443557D01*
X160145437Y-94466166D01*
X160148856Y-94489221D01*
X160150000Y-94512500D01*
X160150000Y-94987500D01*
X160148856Y-95010779D01*
X160145437Y-95033834D01*
X160139773Y-95056443D01*
X160131921Y-95078387D01*
X160121956Y-95099457D01*
X160109974Y-95119448D01*
X160096090Y-95138168D01*
X160080438Y-95155438D01*
X160063168Y-95171090D01*
X160044448Y-95184974D01*
X160024457Y-95196956D01*
X160003387Y-95206921D01*
X159981443Y-95214773D01*
X159958834Y-95220437D01*
X159935779Y-95223856D01*
X159912500Y-95225000D01*
X159337500Y-95225000D01*
X159314221Y-95223856D01*
X159291166Y-95220437D01*
X159268557Y-95214773D01*
X159246613Y-95206921D01*
X159225543Y-95196956D01*
X159205552Y-95184974D01*
X159186832Y-95171090D01*
X159169562Y-95155438D01*
X159153910Y-95138168D01*
X159140026Y-95119448D01*
X159128044Y-95099457D01*
X159118079Y-95078387D01*
X159110227Y-95056443D01*
X159104563Y-95033834D01*
X159101144Y-95010779D01*
X159100000Y-94987500D01*
X159100000Y-94512500D01*
X159101144Y-94489221D01*
X159104563Y-94466166D01*
X159110227Y-94443557D01*
X159118079Y-94421613D01*
X159128044Y-94400543D01*
X159140026Y-94380552D01*
X159153910Y-94361832D01*
X159169562Y-94344562D01*
X159186832Y-94328910D01*
X159205552Y-94315026D01*
X159225543Y-94303044D01*
X159246613Y-94293079D01*
X159268557Y-94285227D01*
X159291166Y-94279563D01*
X159314221Y-94276144D01*
X159337500Y-94275000D01*
X159912500Y-94275000D01*
X159935779Y-94276144D01*
X159935779Y-94276144D01*
G37*
D11*
X159625000Y-94750000D03*
D10*
G36*
X161685779Y-94276144D02*
X161708834Y-94279563D01*
X161731443Y-94285227D01*
X161753387Y-94293079D01*
X161774457Y-94303044D01*
X161794448Y-94315026D01*
X161813168Y-94328910D01*
X161830438Y-94344562D01*
X161846090Y-94361832D01*
X161859974Y-94380552D01*
X161871956Y-94400543D01*
X161881921Y-94421613D01*
X161889773Y-94443557D01*
X161895437Y-94466166D01*
X161898856Y-94489221D01*
X161900000Y-94512500D01*
X161900000Y-94987500D01*
X161898856Y-95010779D01*
X161895437Y-95033834D01*
X161889773Y-95056443D01*
X161881921Y-95078387D01*
X161871956Y-95099457D01*
X161859974Y-95119448D01*
X161846090Y-95138168D01*
X161830438Y-95155438D01*
X161813168Y-95171090D01*
X161794448Y-95184974D01*
X161774457Y-95196956D01*
X161753387Y-95206921D01*
X161731443Y-95214773D01*
X161708834Y-95220437D01*
X161685779Y-95223856D01*
X161662500Y-95225000D01*
X161087500Y-95225000D01*
X161064221Y-95223856D01*
X161041166Y-95220437D01*
X161018557Y-95214773D01*
X160996613Y-95206921D01*
X160975543Y-95196956D01*
X160955552Y-95184974D01*
X160936832Y-95171090D01*
X160919562Y-95155438D01*
X160903910Y-95138168D01*
X160890026Y-95119448D01*
X160878044Y-95099457D01*
X160868079Y-95078387D01*
X160860227Y-95056443D01*
X160854563Y-95033834D01*
X160851144Y-95010779D01*
X160850000Y-94987500D01*
X160850000Y-94512500D01*
X160851144Y-94489221D01*
X160854563Y-94466166D01*
X160860227Y-94443557D01*
X160868079Y-94421613D01*
X160878044Y-94400543D01*
X160890026Y-94380552D01*
X160903910Y-94361832D01*
X160919562Y-94344562D01*
X160936832Y-94328910D01*
X160955552Y-94315026D01*
X160975543Y-94303044D01*
X160996613Y-94293079D01*
X161018557Y-94285227D01*
X161041166Y-94279563D01*
X161064221Y-94276144D01*
X161087500Y-94275000D01*
X161662500Y-94275000D01*
X161685779Y-94276144D01*
X161685779Y-94276144D01*
G37*
D11*
X161375000Y-94750000D03*
G04 #@! TD*
D10*
G04 #@! TO.C,C4*
G36*
X160010779Y-96101144D02*
X160033834Y-96104563D01*
X160056443Y-96110227D01*
X160078387Y-96118079D01*
X160099457Y-96128044D01*
X160119448Y-96140026D01*
X160138168Y-96153910D01*
X160155438Y-96169562D01*
X160171090Y-96186832D01*
X160184974Y-96205552D01*
X160196956Y-96225543D01*
X160206921Y-96246613D01*
X160214773Y-96268557D01*
X160220437Y-96291166D01*
X160223856Y-96314221D01*
X160225000Y-96337500D01*
X160225000Y-96912500D01*
X160223856Y-96935779D01*
X160220437Y-96958834D01*
X160214773Y-96981443D01*
X160206921Y-97003387D01*
X160196956Y-97024457D01*
X160184974Y-97044448D01*
X160171090Y-97063168D01*
X160155438Y-97080438D01*
X160138168Y-97096090D01*
X160119448Y-97109974D01*
X160099457Y-97121956D01*
X160078387Y-97131921D01*
X160056443Y-97139773D01*
X160033834Y-97145437D01*
X160010779Y-97148856D01*
X159987500Y-97150000D01*
X159512500Y-97150000D01*
X159489221Y-97148856D01*
X159466166Y-97145437D01*
X159443557Y-97139773D01*
X159421613Y-97131921D01*
X159400543Y-97121956D01*
X159380552Y-97109974D01*
X159361832Y-97096090D01*
X159344562Y-97080438D01*
X159328910Y-97063168D01*
X159315026Y-97044448D01*
X159303044Y-97024457D01*
X159293079Y-97003387D01*
X159285227Y-96981443D01*
X159279563Y-96958834D01*
X159276144Y-96935779D01*
X159275000Y-96912500D01*
X159275000Y-96337500D01*
X159276144Y-96314221D01*
X159279563Y-96291166D01*
X159285227Y-96268557D01*
X159293079Y-96246613D01*
X159303044Y-96225543D01*
X159315026Y-96205552D01*
X159328910Y-96186832D01*
X159344562Y-96169562D01*
X159361832Y-96153910D01*
X159380552Y-96140026D01*
X159400543Y-96128044D01*
X159421613Y-96118079D01*
X159443557Y-96110227D01*
X159466166Y-96104563D01*
X159489221Y-96101144D01*
X159512500Y-96100000D01*
X159987500Y-96100000D01*
X160010779Y-96101144D01*
X160010779Y-96101144D01*
G37*
D11*
X159750000Y-96625000D03*
D10*
G36*
X160010779Y-97851144D02*
X160033834Y-97854563D01*
X160056443Y-97860227D01*
X160078387Y-97868079D01*
X160099457Y-97878044D01*
X160119448Y-97890026D01*
X160138168Y-97903910D01*
X160155438Y-97919562D01*
X160171090Y-97936832D01*
X160184974Y-97955552D01*
X160196956Y-97975543D01*
X160206921Y-97996613D01*
X160214773Y-98018557D01*
X160220437Y-98041166D01*
X160223856Y-98064221D01*
X160225000Y-98087500D01*
X160225000Y-98662500D01*
X160223856Y-98685779D01*
X160220437Y-98708834D01*
X160214773Y-98731443D01*
X160206921Y-98753387D01*
X160196956Y-98774457D01*
X160184974Y-98794448D01*
X160171090Y-98813168D01*
X160155438Y-98830438D01*
X160138168Y-98846090D01*
X160119448Y-98859974D01*
X160099457Y-98871956D01*
X160078387Y-98881921D01*
X160056443Y-98889773D01*
X160033834Y-98895437D01*
X160010779Y-98898856D01*
X159987500Y-98900000D01*
X159512500Y-98900000D01*
X159489221Y-98898856D01*
X159466166Y-98895437D01*
X159443557Y-98889773D01*
X159421613Y-98881921D01*
X159400543Y-98871956D01*
X159380552Y-98859974D01*
X159361832Y-98846090D01*
X159344562Y-98830438D01*
X159328910Y-98813168D01*
X159315026Y-98794448D01*
X159303044Y-98774457D01*
X159293079Y-98753387D01*
X159285227Y-98731443D01*
X159279563Y-98708834D01*
X159276144Y-98685779D01*
X159275000Y-98662500D01*
X159275000Y-98087500D01*
X159276144Y-98064221D01*
X159279563Y-98041166D01*
X159285227Y-98018557D01*
X159293079Y-97996613D01*
X159303044Y-97975543D01*
X159315026Y-97955552D01*
X159328910Y-97936832D01*
X159344562Y-97919562D01*
X159361832Y-97903910D01*
X159380552Y-97890026D01*
X159400543Y-97878044D01*
X159421613Y-97868079D01*
X159443557Y-97860227D01*
X159466166Y-97854563D01*
X159489221Y-97851144D01*
X159512500Y-97850000D01*
X159987500Y-97850000D01*
X160010779Y-97851144D01*
X160010779Y-97851144D01*
G37*
D11*
X159750000Y-98375000D03*
G04 #@! TD*
D10*
G04 #@! TO.C,C5*
G36*
X162435779Y-70526144D02*
X162458834Y-70529563D01*
X162481443Y-70535227D01*
X162503387Y-70543079D01*
X162524457Y-70553044D01*
X162544448Y-70565026D01*
X162563168Y-70578910D01*
X162580438Y-70594562D01*
X162596090Y-70611832D01*
X162609974Y-70630552D01*
X162621956Y-70650543D01*
X162631921Y-70671613D01*
X162639773Y-70693557D01*
X162645437Y-70716166D01*
X162648856Y-70739221D01*
X162650000Y-70762500D01*
X162650000Y-71237500D01*
X162648856Y-71260779D01*
X162645437Y-71283834D01*
X162639773Y-71306443D01*
X162631921Y-71328387D01*
X162621956Y-71349457D01*
X162609974Y-71369448D01*
X162596090Y-71388168D01*
X162580438Y-71405438D01*
X162563168Y-71421090D01*
X162544448Y-71434974D01*
X162524457Y-71446956D01*
X162503387Y-71456921D01*
X162481443Y-71464773D01*
X162458834Y-71470437D01*
X162435779Y-71473856D01*
X162412500Y-71475000D01*
X161837500Y-71475000D01*
X161814221Y-71473856D01*
X161791166Y-71470437D01*
X161768557Y-71464773D01*
X161746613Y-71456921D01*
X161725543Y-71446956D01*
X161705552Y-71434974D01*
X161686832Y-71421090D01*
X161669562Y-71405438D01*
X161653910Y-71388168D01*
X161640026Y-71369448D01*
X161628044Y-71349457D01*
X161618079Y-71328387D01*
X161610227Y-71306443D01*
X161604563Y-71283834D01*
X161601144Y-71260779D01*
X161600000Y-71237500D01*
X161600000Y-70762500D01*
X161601144Y-70739221D01*
X161604563Y-70716166D01*
X161610227Y-70693557D01*
X161618079Y-70671613D01*
X161628044Y-70650543D01*
X161640026Y-70630552D01*
X161653910Y-70611832D01*
X161669562Y-70594562D01*
X161686832Y-70578910D01*
X161705552Y-70565026D01*
X161725543Y-70553044D01*
X161746613Y-70543079D01*
X161768557Y-70535227D01*
X161791166Y-70529563D01*
X161814221Y-70526144D01*
X161837500Y-70525000D01*
X162412500Y-70525000D01*
X162435779Y-70526144D01*
X162435779Y-70526144D01*
G37*
D11*
X162125000Y-71000000D03*
D10*
G36*
X160685779Y-70526144D02*
X160708834Y-70529563D01*
X160731443Y-70535227D01*
X160753387Y-70543079D01*
X160774457Y-70553044D01*
X160794448Y-70565026D01*
X160813168Y-70578910D01*
X160830438Y-70594562D01*
X160846090Y-70611832D01*
X160859974Y-70630552D01*
X160871956Y-70650543D01*
X160881921Y-70671613D01*
X160889773Y-70693557D01*
X160895437Y-70716166D01*
X160898856Y-70739221D01*
X160900000Y-70762500D01*
X160900000Y-71237500D01*
X160898856Y-71260779D01*
X160895437Y-71283834D01*
X160889773Y-71306443D01*
X160881921Y-71328387D01*
X160871956Y-71349457D01*
X160859974Y-71369448D01*
X160846090Y-71388168D01*
X160830438Y-71405438D01*
X160813168Y-71421090D01*
X160794448Y-71434974D01*
X160774457Y-71446956D01*
X160753387Y-71456921D01*
X160731443Y-71464773D01*
X160708834Y-71470437D01*
X160685779Y-71473856D01*
X160662500Y-71475000D01*
X160087500Y-71475000D01*
X160064221Y-71473856D01*
X160041166Y-71470437D01*
X160018557Y-71464773D01*
X159996613Y-71456921D01*
X159975543Y-71446956D01*
X159955552Y-71434974D01*
X159936832Y-71421090D01*
X159919562Y-71405438D01*
X159903910Y-71388168D01*
X159890026Y-71369448D01*
X159878044Y-71349457D01*
X159868079Y-71328387D01*
X159860227Y-71306443D01*
X159854563Y-71283834D01*
X159851144Y-71260779D01*
X159850000Y-71237500D01*
X159850000Y-70762500D01*
X159851144Y-70739221D01*
X159854563Y-70716166D01*
X159860227Y-70693557D01*
X159868079Y-70671613D01*
X159878044Y-70650543D01*
X159890026Y-70630552D01*
X159903910Y-70611832D01*
X159919562Y-70594562D01*
X159936832Y-70578910D01*
X159955552Y-70565026D01*
X159975543Y-70553044D01*
X159996613Y-70543079D01*
X160018557Y-70535227D01*
X160041166Y-70529563D01*
X160064221Y-70526144D01*
X160087500Y-70525000D01*
X160662500Y-70525000D01*
X160685779Y-70526144D01*
X160685779Y-70526144D01*
G37*
D11*
X160375000Y-71000000D03*
G04 #@! TD*
D10*
G04 #@! TO.C,C6*
G36*
X160510779Y-74101144D02*
X160533834Y-74104563D01*
X160556443Y-74110227D01*
X160578387Y-74118079D01*
X160599457Y-74128044D01*
X160619448Y-74140026D01*
X160638168Y-74153910D01*
X160655438Y-74169562D01*
X160671090Y-74186832D01*
X160684974Y-74205552D01*
X160696956Y-74225543D01*
X160706921Y-74246613D01*
X160714773Y-74268557D01*
X160720437Y-74291166D01*
X160723856Y-74314221D01*
X160725000Y-74337500D01*
X160725000Y-74912500D01*
X160723856Y-74935779D01*
X160720437Y-74958834D01*
X160714773Y-74981443D01*
X160706921Y-75003387D01*
X160696956Y-75024457D01*
X160684974Y-75044448D01*
X160671090Y-75063168D01*
X160655438Y-75080438D01*
X160638168Y-75096090D01*
X160619448Y-75109974D01*
X160599457Y-75121956D01*
X160578387Y-75131921D01*
X160556443Y-75139773D01*
X160533834Y-75145437D01*
X160510779Y-75148856D01*
X160487500Y-75150000D01*
X160012500Y-75150000D01*
X159989221Y-75148856D01*
X159966166Y-75145437D01*
X159943557Y-75139773D01*
X159921613Y-75131921D01*
X159900543Y-75121956D01*
X159880552Y-75109974D01*
X159861832Y-75096090D01*
X159844562Y-75080438D01*
X159828910Y-75063168D01*
X159815026Y-75044448D01*
X159803044Y-75024457D01*
X159793079Y-75003387D01*
X159785227Y-74981443D01*
X159779563Y-74958834D01*
X159776144Y-74935779D01*
X159775000Y-74912500D01*
X159775000Y-74337500D01*
X159776144Y-74314221D01*
X159779563Y-74291166D01*
X159785227Y-74268557D01*
X159793079Y-74246613D01*
X159803044Y-74225543D01*
X159815026Y-74205552D01*
X159828910Y-74186832D01*
X159844562Y-74169562D01*
X159861832Y-74153910D01*
X159880552Y-74140026D01*
X159900543Y-74128044D01*
X159921613Y-74118079D01*
X159943557Y-74110227D01*
X159966166Y-74104563D01*
X159989221Y-74101144D01*
X160012500Y-74100000D01*
X160487500Y-74100000D01*
X160510779Y-74101144D01*
X160510779Y-74101144D01*
G37*
D11*
X160250000Y-74625000D03*
D10*
G36*
X160510779Y-72351144D02*
X160533834Y-72354563D01*
X160556443Y-72360227D01*
X160578387Y-72368079D01*
X160599457Y-72378044D01*
X160619448Y-72390026D01*
X160638168Y-72403910D01*
X160655438Y-72419562D01*
X160671090Y-72436832D01*
X160684974Y-72455552D01*
X160696956Y-72475543D01*
X160706921Y-72496613D01*
X160714773Y-72518557D01*
X160720437Y-72541166D01*
X160723856Y-72564221D01*
X160725000Y-72587500D01*
X160725000Y-73162500D01*
X160723856Y-73185779D01*
X160720437Y-73208834D01*
X160714773Y-73231443D01*
X160706921Y-73253387D01*
X160696956Y-73274457D01*
X160684974Y-73294448D01*
X160671090Y-73313168D01*
X160655438Y-73330438D01*
X160638168Y-73346090D01*
X160619448Y-73359974D01*
X160599457Y-73371956D01*
X160578387Y-73381921D01*
X160556443Y-73389773D01*
X160533834Y-73395437D01*
X160510779Y-73398856D01*
X160487500Y-73400000D01*
X160012500Y-73400000D01*
X159989221Y-73398856D01*
X159966166Y-73395437D01*
X159943557Y-73389773D01*
X159921613Y-73381921D01*
X159900543Y-73371956D01*
X159880552Y-73359974D01*
X159861832Y-73346090D01*
X159844562Y-73330438D01*
X159828910Y-73313168D01*
X159815026Y-73294448D01*
X159803044Y-73274457D01*
X159793079Y-73253387D01*
X159785227Y-73231443D01*
X159779563Y-73208834D01*
X159776144Y-73185779D01*
X159775000Y-73162500D01*
X159775000Y-72587500D01*
X159776144Y-72564221D01*
X159779563Y-72541166D01*
X159785227Y-72518557D01*
X159793079Y-72496613D01*
X159803044Y-72475543D01*
X159815026Y-72455552D01*
X159828910Y-72436832D01*
X159844562Y-72419562D01*
X159861832Y-72403910D01*
X159880552Y-72390026D01*
X159900543Y-72378044D01*
X159921613Y-72368079D01*
X159943557Y-72360227D01*
X159966166Y-72354563D01*
X159989221Y-72351144D01*
X160012500Y-72350000D01*
X160487500Y-72350000D01*
X160510779Y-72351144D01*
X160510779Y-72351144D01*
G37*
D11*
X160250000Y-72875000D03*
G04 #@! TD*
D10*
G04 #@! TO.C,C7*
G36*
X162010779Y-50851144D02*
X162033834Y-50854563D01*
X162056443Y-50860227D01*
X162078387Y-50868079D01*
X162099457Y-50878044D01*
X162119448Y-50890026D01*
X162138168Y-50903910D01*
X162155438Y-50919562D01*
X162171090Y-50936832D01*
X162184974Y-50955552D01*
X162196956Y-50975543D01*
X162206921Y-50996613D01*
X162214773Y-51018557D01*
X162220437Y-51041166D01*
X162223856Y-51064221D01*
X162225000Y-51087500D01*
X162225000Y-51662500D01*
X162223856Y-51685779D01*
X162220437Y-51708834D01*
X162214773Y-51731443D01*
X162206921Y-51753387D01*
X162196956Y-51774457D01*
X162184974Y-51794448D01*
X162171090Y-51813168D01*
X162155438Y-51830438D01*
X162138168Y-51846090D01*
X162119448Y-51859974D01*
X162099457Y-51871956D01*
X162078387Y-51881921D01*
X162056443Y-51889773D01*
X162033834Y-51895437D01*
X162010779Y-51898856D01*
X161987500Y-51900000D01*
X161512500Y-51900000D01*
X161489221Y-51898856D01*
X161466166Y-51895437D01*
X161443557Y-51889773D01*
X161421613Y-51881921D01*
X161400543Y-51871956D01*
X161380552Y-51859974D01*
X161361832Y-51846090D01*
X161344562Y-51830438D01*
X161328910Y-51813168D01*
X161315026Y-51794448D01*
X161303044Y-51774457D01*
X161293079Y-51753387D01*
X161285227Y-51731443D01*
X161279563Y-51708834D01*
X161276144Y-51685779D01*
X161275000Y-51662500D01*
X161275000Y-51087500D01*
X161276144Y-51064221D01*
X161279563Y-51041166D01*
X161285227Y-51018557D01*
X161293079Y-50996613D01*
X161303044Y-50975543D01*
X161315026Y-50955552D01*
X161328910Y-50936832D01*
X161344562Y-50919562D01*
X161361832Y-50903910D01*
X161380552Y-50890026D01*
X161400543Y-50878044D01*
X161421613Y-50868079D01*
X161443557Y-50860227D01*
X161466166Y-50854563D01*
X161489221Y-50851144D01*
X161512500Y-50850000D01*
X161987500Y-50850000D01*
X162010779Y-50851144D01*
X162010779Y-50851144D01*
G37*
D11*
X161750000Y-51375000D03*
D10*
G36*
X162010779Y-49101144D02*
X162033834Y-49104563D01*
X162056443Y-49110227D01*
X162078387Y-49118079D01*
X162099457Y-49128044D01*
X162119448Y-49140026D01*
X162138168Y-49153910D01*
X162155438Y-49169562D01*
X162171090Y-49186832D01*
X162184974Y-49205552D01*
X162196956Y-49225543D01*
X162206921Y-49246613D01*
X162214773Y-49268557D01*
X162220437Y-49291166D01*
X162223856Y-49314221D01*
X162225000Y-49337500D01*
X162225000Y-49912500D01*
X162223856Y-49935779D01*
X162220437Y-49958834D01*
X162214773Y-49981443D01*
X162206921Y-50003387D01*
X162196956Y-50024457D01*
X162184974Y-50044448D01*
X162171090Y-50063168D01*
X162155438Y-50080438D01*
X162138168Y-50096090D01*
X162119448Y-50109974D01*
X162099457Y-50121956D01*
X162078387Y-50131921D01*
X162056443Y-50139773D01*
X162033834Y-50145437D01*
X162010779Y-50148856D01*
X161987500Y-50150000D01*
X161512500Y-50150000D01*
X161489221Y-50148856D01*
X161466166Y-50145437D01*
X161443557Y-50139773D01*
X161421613Y-50131921D01*
X161400543Y-50121956D01*
X161380552Y-50109974D01*
X161361832Y-50096090D01*
X161344562Y-50080438D01*
X161328910Y-50063168D01*
X161315026Y-50044448D01*
X161303044Y-50024457D01*
X161293079Y-50003387D01*
X161285227Y-49981443D01*
X161279563Y-49958834D01*
X161276144Y-49935779D01*
X161275000Y-49912500D01*
X161275000Y-49337500D01*
X161276144Y-49314221D01*
X161279563Y-49291166D01*
X161285227Y-49268557D01*
X161293079Y-49246613D01*
X161303044Y-49225543D01*
X161315026Y-49205552D01*
X161328910Y-49186832D01*
X161344562Y-49169562D01*
X161361832Y-49153910D01*
X161380552Y-49140026D01*
X161400543Y-49128044D01*
X161421613Y-49118079D01*
X161443557Y-49110227D01*
X161466166Y-49104563D01*
X161489221Y-49101144D01*
X161512500Y-49100000D01*
X161987500Y-49100000D01*
X162010779Y-49101144D01*
X162010779Y-49101144D01*
G37*
D11*
X161750000Y-49625000D03*
G04 #@! TD*
D10*
G04 #@! TO.C,C8*
G36*
X161760779Y-96101144D02*
X161783834Y-96104563D01*
X161806443Y-96110227D01*
X161828387Y-96118079D01*
X161849457Y-96128044D01*
X161869448Y-96140026D01*
X161888168Y-96153910D01*
X161905438Y-96169562D01*
X161921090Y-96186832D01*
X161934974Y-96205552D01*
X161946956Y-96225543D01*
X161956921Y-96246613D01*
X161964773Y-96268557D01*
X161970437Y-96291166D01*
X161973856Y-96314221D01*
X161975000Y-96337500D01*
X161975000Y-96912500D01*
X161973856Y-96935779D01*
X161970437Y-96958834D01*
X161964773Y-96981443D01*
X161956921Y-97003387D01*
X161946956Y-97024457D01*
X161934974Y-97044448D01*
X161921090Y-97063168D01*
X161905438Y-97080438D01*
X161888168Y-97096090D01*
X161869448Y-97109974D01*
X161849457Y-97121956D01*
X161828387Y-97131921D01*
X161806443Y-97139773D01*
X161783834Y-97145437D01*
X161760779Y-97148856D01*
X161737500Y-97150000D01*
X161262500Y-97150000D01*
X161239221Y-97148856D01*
X161216166Y-97145437D01*
X161193557Y-97139773D01*
X161171613Y-97131921D01*
X161150543Y-97121956D01*
X161130552Y-97109974D01*
X161111832Y-97096090D01*
X161094562Y-97080438D01*
X161078910Y-97063168D01*
X161065026Y-97044448D01*
X161053044Y-97024457D01*
X161043079Y-97003387D01*
X161035227Y-96981443D01*
X161029563Y-96958834D01*
X161026144Y-96935779D01*
X161025000Y-96912500D01*
X161025000Y-96337500D01*
X161026144Y-96314221D01*
X161029563Y-96291166D01*
X161035227Y-96268557D01*
X161043079Y-96246613D01*
X161053044Y-96225543D01*
X161065026Y-96205552D01*
X161078910Y-96186832D01*
X161094562Y-96169562D01*
X161111832Y-96153910D01*
X161130552Y-96140026D01*
X161150543Y-96128044D01*
X161171613Y-96118079D01*
X161193557Y-96110227D01*
X161216166Y-96104563D01*
X161239221Y-96101144D01*
X161262500Y-96100000D01*
X161737500Y-96100000D01*
X161760779Y-96101144D01*
X161760779Y-96101144D01*
G37*
D11*
X161500000Y-96625000D03*
D10*
G36*
X161760779Y-97851144D02*
X161783834Y-97854563D01*
X161806443Y-97860227D01*
X161828387Y-97868079D01*
X161849457Y-97878044D01*
X161869448Y-97890026D01*
X161888168Y-97903910D01*
X161905438Y-97919562D01*
X161921090Y-97936832D01*
X161934974Y-97955552D01*
X161946956Y-97975543D01*
X161956921Y-97996613D01*
X161964773Y-98018557D01*
X161970437Y-98041166D01*
X161973856Y-98064221D01*
X161975000Y-98087500D01*
X161975000Y-98662500D01*
X161973856Y-98685779D01*
X161970437Y-98708834D01*
X161964773Y-98731443D01*
X161956921Y-98753387D01*
X161946956Y-98774457D01*
X161934974Y-98794448D01*
X161921090Y-98813168D01*
X161905438Y-98830438D01*
X161888168Y-98846090D01*
X161869448Y-98859974D01*
X161849457Y-98871956D01*
X161828387Y-98881921D01*
X161806443Y-98889773D01*
X161783834Y-98895437D01*
X161760779Y-98898856D01*
X161737500Y-98900000D01*
X161262500Y-98900000D01*
X161239221Y-98898856D01*
X161216166Y-98895437D01*
X161193557Y-98889773D01*
X161171613Y-98881921D01*
X161150543Y-98871956D01*
X161130552Y-98859974D01*
X161111832Y-98846090D01*
X161094562Y-98830438D01*
X161078910Y-98813168D01*
X161065026Y-98794448D01*
X161053044Y-98774457D01*
X161043079Y-98753387D01*
X161035227Y-98731443D01*
X161029563Y-98708834D01*
X161026144Y-98685779D01*
X161025000Y-98662500D01*
X161025000Y-98087500D01*
X161026144Y-98064221D01*
X161029563Y-98041166D01*
X161035227Y-98018557D01*
X161043079Y-97996613D01*
X161053044Y-97975543D01*
X161065026Y-97955552D01*
X161078910Y-97936832D01*
X161094562Y-97919562D01*
X161111832Y-97903910D01*
X161130552Y-97890026D01*
X161150543Y-97878044D01*
X161171613Y-97868079D01*
X161193557Y-97860227D01*
X161216166Y-97854563D01*
X161239221Y-97851144D01*
X161262500Y-97850000D01*
X161737500Y-97850000D01*
X161760779Y-97851144D01*
X161760779Y-97851144D01*
G37*
D11*
X161500000Y-98375000D03*
G04 #@! TD*
D10*
G04 #@! TO.C,C9*
G36*
X162260779Y-74101144D02*
X162283834Y-74104563D01*
X162306443Y-74110227D01*
X162328387Y-74118079D01*
X162349457Y-74128044D01*
X162369448Y-74140026D01*
X162388168Y-74153910D01*
X162405438Y-74169562D01*
X162421090Y-74186832D01*
X162434974Y-74205552D01*
X162446956Y-74225543D01*
X162456921Y-74246613D01*
X162464773Y-74268557D01*
X162470437Y-74291166D01*
X162473856Y-74314221D01*
X162475000Y-74337500D01*
X162475000Y-74912500D01*
X162473856Y-74935779D01*
X162470437Y-74958834D01*
X162464773Y-74981443D01*
X162456921Y-75003387D01*
X162446956Y-75024457D01*
X162434974Y-75044448D01*
X162421090Y-75063168D01*
X162405438Y-75080438D01*
X162388168Y-75096090D01*
X162369448Y-75109974D01*
X162349457Y-75121956D01*
X162328387Y-75131921D01*
X162306443Y-75139773D01*
X162283834Y-75145437D01*
X162260779Y-75148856D01*
X162237500Y-75150000D01*
X161762500Y-75150000D01*
X161739221Y-75148856D01*
X161716166Y-75145437D01*
X161693557Y-75139773D01*
X161671613Y-75131921D01*
X161650543Y-75121956D01*
X161630552Y-75109974D01*
X161611832Y-75096090D01*
X161594562Y-75080438D01*
X161578910Y-75063168D01*
X161565026Y-75044448D01*
X161553044Y-75024457D01*
X161543079Y-75003387D01*
X161535227Y-74981443D01*
X161529563Y-74958834D01*
X161526144Y-74935779D01*
X161525000Y-74912500D01*
X161525000Y-74337500D01*
X161526144Y-74314221D01*
X161529563Y-74291166D01*
X161535227Y-74268557D01*
X161543079Y-74246613D01*
X161553044Y-74225543D01*
X161565026Y-74205552D01*
X161578910Y-74186832D01*
X161594562Y-74169562D01*
X161611832Y-74153910D01*
X161630552Y-74140026D01*
X161650543Y-74128044D01*
X161671613Y-74118079D01*
X161693557Y-74110227D01*
X161716166Y-74104563D01*
X161739221Y-74101144D01*
X161762500Y-74100000D01*
X162237500Y-74100000D01*
X162260779Y-74101144D01*
X162260779Y-74101144D01*
G37*
D11*
X162000000Y-74625000D03*
D10*
G36*
X162260779Y-72351144D02*
X162283834Y-72354563D01*
X162306443Y-72360227D01*
X162328387Y-72368079D01*
X162349457Y-72378044D01*
X162369448Y-72390026D01*
X162388168Y-72403910D01*
X162405438Y-72419562D01*
X162421090Y-72436832D01*
X162434974Y-72455552D01*
X162446956Y-72475543D01*
X162456921Y-72496613D01*
X162464773Y-72518557D01*
X162470437Y-72541166D01*
X162473856Y-72564221D01*
X162475000Y-72587500D01*
X162475000Y-73162500D01*
X162473856Y-73185779D01*
X162470437Y-73208834D01*
X162464773Y-73231443D01*
X162456921Y-73253387D01*
X162446956Y-73274457D01*
X162434974Y-73294448D01*
X162421090Y-73313168D01*
X162405438Y-73330438D01*
X162388168Y-73346090D01*
X162369448Y-73359974D01*
X162349457Y-73371956D01*
X162328387Y-73381921D01*
X162306443Y-73389773D01*
X162283834Y-73395437D01*
X162260779Y-73398856D01*
X162237500Y-73400000D01*
X161762500Y-73400000D01*
X161739221Y-73398856D01*
X161716166Y-73395437D01*
X161693557Y-73389773D01*
X161671613Y-73381921D01*
X161650543Y-73371956D01*
X161630552Y-73359974D01*
X161611832Y-73346090D01*
X161594562Y-73330438D01*
X161578910Y-73313168D01*
X161565026Y-73294448D01*
X161553044Y-73274457D01*
X161543079Y-73253387D01*
X161535227Y-73231443D01*
X161529563Y-73208834D01*
X161526144Y-73185779D01*
X161525000Y-73162500D01*
X161525000Y-72587500D01*
X161526144Y-72564221D01*
X161529563Y-72541166D01*
X161535227Y-72518557D01*
X161543079Y-72496613D01*
X161553044Y-72475543D01*
X161565026Y-72455552D01*
X161578910Y-72436832D01*
X161594562Y-72419562D01*
X161611832Y-72403910D01*
X161630552Y-72390026D01*
X161650543Y-72378044D01*
X161671613Y-72368079D01*
X161693557Y-72360227D01*
X161716166Y-72354563D01*
X161739221Y-72351144D01*
X161762500Y-72350000D01*
X162237500Y-72350000D01*
X162260779Y-72351144D01*
X162260779Y-72351144D01*
G37*
D11*
X162000000Y-72875000D03*
G04 #@! TD*
D10*
G04 #@! TO.C,C10*
G36*
X164224505Y-50701204D02*
X164248773Y-50704804D01*
X164272572Y-50710765D01*
X164295671Y-50719030D01*
X164317850Y-50729520D01*
X164338893Y-50742132D01*
X164358599Y-50756747D01*
X164376777Y-50773223D01*
X164393253Y-50791401D01*
X164407868Y-50811107D01*
X164420480Y-50832150D01*
X164430970Y-50854329D01*
X164439235Y-50877428D01*
X164445196Y-50901227D01*
X164448796Y-50925495D01*
X164450000Y-50949999D01*
X164450000Y-51600001D01*
X164448796Y-51624505D01*
X164445196Y-51648773D01*
X164439235Y-51672572D01*
X164430970Y-51695671D01*
X164420480Y-51717850D01*
X164407868Y-51738893D01*
X164393253Y-51758599D01*
X164376777Y-51776777D01*
X164358599Y-51793253D01*
X164338893Y-51807868D01*
X164317850Y-51820480D01*
X164295671Y-51830970D01*
X164272572Y-51839235D01*
X164248773Y-51845196D01*
X164224505Y-51848796D01*
X164200001Y-51850000D01*
X163299999Y-51850000D01*
X163275495Y-51848796D01*
X163251227Y-51845196D01*
X163227428Y-51839235D01*
X163204329Y-51830970D01*
X163182150Y-51820480D01*
X163161107Y-51807868D01*
X163141401Y-51793253D01*
X163123223Y-51776777D01*
X163106747Y-51758599D01*
X163092132Y-51738893D01*
X163079520Y-51717850D01*
X163069030Y-51695671D01*
X163060765Y-51672572D01*
X163054804Y-51648773D01*
X163051204Y-51624505D01*
X163050000Y-51600001D01*
X163050000Y-50949999D01*
X163051204Y-50925495D01*
X163054804Y-50901227D01*
X163060765Y-50877428D01*
X163069030Y-50854329D01*
X163079520Y-50832150D01*
X163092132Y-50811107D01*
X163106747Y-50791401D01*
X163123223Y-50773223D01*
X163141401Y-50756747D01*
X163161107Y-50742132D01*
X163182150Y-50729520D01*
X163204329Y-50719030D01*
X163227428Y-50710765D01*
X163251227Y-50704804D01*
X163275495Y-50701204D01*
X163299999Y-50700000D01*
X164200001Y-50700000D01*
X164224505Y-50701204D01*
X164224505Y-50701204D01*
G37*
D12*
X163750000Y-51275000D03*
D10*
G36*
X164224505Y-48651204D02*
X164248773Y-48654804D01*
X164272572Y-48660765D01*
X164295671Y-48669030D01*
X164317850Y-48679520D01*
X164338893Y-48692132D01*
X164358599Y-48706747D01*
X164376777Y-48723223D01*
X164393253Y-48741401D01*
X164407868Y-48761107D01*
X164420480Y-48782150D01*
X164430970Y-48804329D01*
X164439235Y-48827428D01*
X164445196Y-48851227D01*
X164448796Y-48875495D01*
X164450000Y-48899999D01*
X164450000Y-49550001D01*
X164448796Y-49574505D01*
X164445196Y-49598773D01*
X164439235Y-49622572D01*
X164430970Y-49645671D01*
X164420480Y-49667850D01*
X164407868Y-49688893D01*
X164393253Y-49708599D01*
X164376777Y-49726777D01*
X164358599Y-49743253D01*
X164338893Y-49757868D01*
X164317850Y-49770480D01*
X164295671Y-49780970D01*
X164272572Y-49789235D01*
X164248773Y-49795196D01*
X164224505Y-49798796D01*
X164200001Y-49800000D01*
X163299999Y-49800000D01*
X163275495Y-49798796D01*
X163251227Y-49795196D01*
X163227428Y-49789235D01*
X163204329Y-49780970D01*
X163182150Y-49770480D01*
X163161107Y-49757868D01*
X163141401Y-49743253D01*
X163123223Y-49726777D01*
X163106747Y-49708599D01*
X163092132Y-49688893D01*
X163079520Y-49667850D01*
X163069030Y-49645671D01*
X163060765Y-49622572D01*
X163054804Y-49598773D01*
X163051204Y-49574505D01*
X163050000Y-49550001D01*
X163050000Y-48899999D01*
X163051204Y-48875495D01*
X163054804Y-48851227D01*
X163060765Y-48827428D01*
X163069030Y-48804329D01*
X163079520Y-48782150D01*
X163092132Y-48761107D01*
X163106747Y-48741401D01*
X163123223Y-48723223D01*
X163141401Y-48706747D01*
X163161107Y-48692132D01*
X163182150Y-48679520D01*
X163204329Y-48669030D01*
X163227428Y-48660765D01*
X163251227Y-48654804D01*
X163275495Y-48651204D01*
X163299999Y-48650000D01*
X164200001Y-48650000D01*
X164224505Y-48651204D01*
X164224505Y-48651204D01*
G37*
D12*
X163750000Y-49225000D03*
G04 #@! TD*
D10*
G04 #@! TO.C,C11*
G36*
X163974505Y-97701204D02*
X163998773Y-97704804D01*
X164022572Y-97710765D01*
X164045671Y-97719030D01*
X164067850Y-97729520D01*
X164088893Y-97742132D01*
X164108599Y-97756747D01*
X164126777Y-97773223D01*
X164143253Y-97791401D01*
X164157868Y-97811107D01*
X164170480Y-97832150D01*
X164180970Y-97854329D01*
X164189235Y-97877428D01*
X164195196Y-97901227D01*
X164198796Y-97925495D01*
X164200000Y-97949999D01*
X164200000Y-98600001D01*
X164198796Y-98624505D01*
X164195196Y-98648773D01*
X164189235Y-98672572D01*
X164180970Y-98695671D01*
X164170480Y-98717850D01*
X164157868Y-98738893D01*
X164143253Y-98758599D01*
X164126777Y-98776777D01*
X164108599Y-98793253D01*
X164088893Y-98807868D01*
X164067850Y-98820480D01*
X164045671Y-98830970D01*
X164022572Y-98839235D01*
X163998773Y-98845196D01*
X163974505Y-98848796D01*
X163950001Y-98850000D01*
X163049999Y-98850000D01*
X163025495Y-98848796D01*
X163001227Y-98845196D01*
X162977428Y-98839235D01*
X162954329Y-98830970D01*
X162932150Y-98820480D01*
X162911107Y-98807868D01*
X162891401Y-98793253D01*
X162873223Y-98776777D01*
X162856747Y-98758599D01*
X162842132Y-98738893D01*
X162829520Y-98717850D01*
X162819030Y-98695671D01*
X162810765Y-98672572D01*
X162804804Y-98648773D01*
X162801204Y-98624505D01*
X162800000Y-98600001D01*
X162800000Y-97949999D01*
X162801204Y-97925495D01*
X162804804Y-97901227D01*
X162810765Y-97877428D01*
X162819030Y-97854329D01*
X162829520Y-97832150D01*
X162842132Y-97811107D01*
X162856747Y-97791401D01*
X162873223Y-97773223D01*
X162891401Y-97756747D01*
X162911107Y-97742132D01*
X162932150Y-97729520D01*
X162954329Y-97719030D01*
X162977428Y-97710765D01*
X163001227Y-97704804D01*
X163025495Y-97701204D01*
X163049999Y-97700000D01*
X163950001Y-97700000D01*
X163974505Y-97701204D01*
X163974505Y-97701204D01*
G37*
D12*
X163500000Y-98275000D03*
D10*
G36*
X163974505Y-95651204D02*
X163998773Y-95654804D01*
X164022572Y-95660765D01*
X164045671Y-95669030D01*
X164067850Y-95679520D01*
X164088893Y-95692132D01*
X164108599Y-95706747D01*
X164126777Y-95723223D01*
X164143253Y-95741401D01*
X164157868Y-95761107D01*
X164170480Y-95782150D01*
X164180970Y-95804329D01*
X164189235Y-95827428D01*
X164195196Y-95851227D01*
X164198796Y-95875495D01*
X164200000Y-95899999D01*
X164200000Y-96550001D01*
X164198796Y-96574505D01*
X164195196Y-96598773D01*
X164189235Y-96622572D01*
X164180970Y-96645671D01*
X164170480Y-96667850D01*
X164157868Y-96688893D01*
X164143253Y-96708599D01*
X164126777Y-96726777D01*
X164108599Y-96743253D01*
X164088893Y-96757868D01*
X164067850Y-96770480D01*
X164045671Y-96780970D01*
X164022572Y-96789235D01*
X163998773Y-96795196D01*
X163974505Y-96798796D01*
X163950001Y-96800000D01*
X163049999Y-96800000D01*
X163025495Y-96798796D01*
X163001227Y-96795196D01*
X162977428Y-96789235D01*
X162954329Y-96780970D01*
X162932150Y-96770480D01*
X162911107Y-96757868D01*
X162891401Y-96743253D01*
X162873223Y-96726777D01*
X162856747Y-96708599D01*
X162842132Y-96688893D01*
X162829520Y-96667850D01*
X162819030Y-96645671D01*
X162810765Y-96622572D01*
X162804804Y-96598773D01*
X162801204Y-96574505D01*
X162800000Y-96550001D01*
X162800000Y-95899999D01*
X162801204Y-95875495D01*
X162804804Y-95851227D01*
X162810765Y-95827428D01*
X162819030Y-95804329D01*
X162829520Y-95782150D01*
X162842132Y-95761107D01*
X162856747Y-95741401D01*
X162873223Y-95723223D01*
X162891401Y-95706747D01*
X162911107Y-95692132D01*
X162932150Y-95679520D01*
X162954329Y-95669030D01*
X162977428Y-95660765D01*
X163001227Y-95654804D01*
X163025495Y-95651204D01*
X163049999Y-95650000D01*
X163950001Y-95650000D01*
X163974505Y-95651204D01*
X163974505Y-95651204D01*
G37*
D12*
X163500000Y-96225000D03*
G04 #@! TD*
D10*
G04 #@! TO.C,C12*
G36*
X164474505Y-71901204D02*
X164498773Y-71904804D01*
X164522572Y-71910765D01*
X164545671Y-71919030D01*
X164567850Y-71929520D01*
X164588893Y-71942132D01*
X164608599Y-71956747D01*
X164626777Y-71973223D01*
X164643253Y-71991401D01*
X164657868Y-72011107D01*
X164670480Y-72032150D01*
X164680970Y-72054329D01*
X164689235Y-72077428D01*
X164695196Y-72101227D01*
X164698796Y-72125495D01*
X164700000Y-72149999D01*
X164700000Y-72800001D01*
X164698796Y-72824505D01*
X164695196Y-72848773D01*
X164689235Y-72872572D01*
X164680970Y-72895671D01*
X164670480Y-72917850D01*
X164657868Y-72938893D01*
X164643253Y-72958599D01*
X164626777Y-72976777D01*
X164608599Y-72993253D01*
X164588893Y-73007868D01*
X164567850Y-73020480D01*
X164545671Y-73030970D01*
X164522572Y-73039235D01*
X164498773Y-73045196D01*
X164474505Y-73048796D01*
X164450001Y-73050000D01*
X163549999Y-73050000D01*
X163525495Y-73048796D01*
X163501227Y-73045196D01*
X163477428Y-73039235D01*
X163454329Y-73030970D01*
X163432150Y-73020480D01*
X163411107Y-73007868D01*
X163391401Y-72993253D01*
X163373223Y-72976777D01*
X163356747Y-72958599D01*
X163342132Y-72938893D01*
X163329520Y-72917850D01*
X163319030Y-72895671D01*
X163310765Y-72872572D01*
X163304804Y-72848773D01*
X163301204Y-72824505D01*
X163300000Y-72800001D01*
X163300000Y-72149999D01*
X163301204Y-72125495D01*
X163304804Y-72101227D01*
X163310765Y-72077428D01*
X163319030Y-72054329D01*
X163329520Y-72032150D01*
X163342132Y-72011107D01*
X163356747Y-71991401D01*
X163373223Y-71973223D01*
X163391401Y-71956747D01*
X163411107Y-71942132D01*
X163432150Y-71929520D01*
X163454329Y-71919030D01*
X163477428Y-71910765D01*
X163501227Y-71904804D01*
X163525495Y-71901204D01*
X163549999Y-71900000D01*
X164450001Y-71900000D01*
X164474505Y-71901204D01*
X164474505Y-71901204D01*
G37*
D12*
X164000000Y-72475000D03*
D10*
G36*
X164474505Y-73951204D02*
X164498773Y-73954804D01*
X164522572Y-73960765D01*
X164545671Y-73969030D01*
X164567850Y-73979520D01*
X164588893Y-73992132D01*
X164608599Y-74006747D01*
X164626777Y-74023223D01*
X164643253Y-74041401D01*
X164657868Y-74061107D01*
X164670480Y-74082150D01*
X164680970Y-74104329D01*
X164689235Y-74127428D01*
X164695196Y-74151227D01*
X164698796Y-74175495D01*
X164700000Y-74199999D01*
X164700000Y-74850001D01*
X164698796Y-74874505D01*
X164695196Y-74898773D01*
X164689235Y-74922572D01*
X164680970Y-74945671D01*
X164670480Y-74967850D01*
X164657868Y-74988893D01*
X164643253Y-75008599D01*
X164626777Y-75026777D01*
X164608599Y-75043253D01*
X164588893Y-75057868D01*
X164567850Y-75070480D01*
X164545671Y-75080970D01*
X164522572Y-75089235D01*
X164498773Y-75095196D01*
X164474505Y-75098796D01*
X164450001Y-75100000D01*
X163549999Y-75100000D01*
X163525495Y-75098796D01*
X163501227Y-75095196D01*
X163477428Y-75089235D01*
X163454329Y-75080970D01*
X163432150Y-75070480D01*
X163411107Y-75057868D01*
X163391401Y-75043253D01*
X163373223Y-75026777D01*
X163356747Y-75008599D01*
X163342132Y-74988893D01*
X163329520Y-74967850D01*
X163319030Y-74945671D01*
X163310765Y-74922572D01*
X163304804Y-74898773D01*
X163301204Y-74874505D01*
X163300000Y-74850001D01*
X163300000Y-74199999D01*
X163301204Y-74175495D01*
X163304804Y-74151227D01*
X163310765Y-74127428D01*
X163319030Y-74104329D01*
X163329520Y-74082150D01*
X163342132Y-74061107D01*
X163356747Y-74041401D01*
X163373223Y-74023223D01*
X163391401Y-74006747D01*
X163411107Y-73992132D01*
X163432150Y-73979520D01*
X163454329Y-73969030D01*
X163477428Y-73960765D01*
X163501227Y-73954804D01*
X163525495Y-73951204D01*
X163549999Y-73950000D01*
X164450001Y-73950000D01*
X164474505Y-73951204D01*
X164474505Y-73951204D01*
G37*
D12*
X164000000Y-74525000D03*
G04 #@! TD*
D10*
G04 #@! TO.C,C13*
G36*
X174510779Y-45601144D02*
X174533834Y-45604563D01*
X174556443Y-45610227D01*
X174578387Y-45618079D01*
X174599457Y-45628044D01*
X174619448Y-45640026D01*
X174638168Y-45653910D01*
X174655438Y-45669562D01*
X174671090Y-45686832D01*
X174684974Y-45705552D01*
X174696956Y-45725543D01*
X174706921Y-45746613D01*
X174714773Y-45768557D01*
X174720437Y-45791166D01*
X174723856Y-45814221D01*
X174725000Y-45837500D01*
X174725000Y-46412500D01*
X174723856Y-46435779D01*
X174720437Y-46458834D01*
X174714773Y-46481443D01*
X174706921Y-46503387D01*
X174696956Y-46524457D01*
X174684974Y-46544448D01*
X174671090Y-46563168D01*
X174655438Y-46580438D01*
X174638168Y-46596090D01*
X174619448Y-46609974D01*
X174599457Y-46621956D01*
X174578387Y-46631921D01*
X174556443Y-46639773D01*
X174533834Y-46645437D01*
X174510779Y-46648856D01*
X174487500Y-46650000D01*
X174012500Y-46650000D01*
X173989221Y-46648856D01*
X173966166Y-46645437D01*
X173943557Y-46639773D01*
X173921613Y-46631921D01*
X173900543Y-46621956D01*
X173880552Y-46609974D01*
X173861832Y-46596090D01*
X173844562Y-46580438D01*
X173828910Y-46563168D01*
X173815026Y-46544448D01*
X173803044Y-46524457D01*
X173793079Y-46503387D01*
X173785227Y-46481443D01*
X173779563Y-46458834D01*
X173776144Y-46435779D01*
X173775000Y-46412500D01*
X173775000Y-45837500D01*
X173776144Y-45814221D01*
X173779563Y-45791166D01*
X173785227Y-45768557D01*
X173793079Y-45746613D01*
X173803044Y-45725543D01*
X173815026Y-45705552D01*
X173828910Y-45686832D01*
X173844562Y-45669562D01*
X173861832Y-45653910D01*
X173880552Y-45640026D01*
X173900543Y-45628044D01*
X173921613Y-45618079D01*
X173943557Y-45610227D01*
X173966166Y-45604563D01*
X173989221Y-45601144D01*
X174012500Y-45600000D01*
X174487500Y-45600000D01*
X174510779Y-45601144D01*
X174510779Y-45601144D01*
G37*
D11*
X174250000Y-46125000D03*
D10*
G36*
X174510779Y-43851144D02*
X174533834Y-43854563D01*
X174556443Y-43860227D01*
X174578387Y-43868079D01*
X174599457Y-43878044D01*
X174619448Y-43890026D01*
X174638168Y-43903910D01*
X174655438Y-43919562D01*
X174671090Y-43936832D01*
X174684974Y-43955552D01*
X174696956Y-43975543D01*
X174706921Y-43996613D01*
X174714773Y-44018557D01*
X174720437Y-44041166D01*
X174723856Y-44064221D01*
X174725000Y-44087500D01*
X174725000Y-44662500D01*
X174723856Y-44685779D01*
X174720437Y-44708834D01*
X174714773Y-44731443D01*
X174706921Y-44753387D01*
X174696956Y-44774457D01*
X174684974Y-44794448D01*
X174671090Y-44813168D01*
X174655438Y-44830438D01*
X174638168Y-44846090D01*
X174619448Y-44859974D01*
X174599457Y-44871956D01*
X174578387Y-44881921D01*
X174556443Y-44889773D01*
X174533834Y-44895437D01*
X174510779Y-44898856D01*
X174487500Y-44900000D01*
X174012500Y-44900000D01*
X173989221Y-44898856D01*
X173966166Y-44895437D01*
X173943557Y-44889773D01*
X173921613Y-44881921D01*
X173900543Y-44871956D01*
X173880552Y-44859974D01*
X173861832Y-44846090D01*
X173844562Y-44830438D01*
X173828910Y-44813168D01*
X173815026Y-44794448D01*
X173803044Y-44774457D01*
X173793079Y-44753387D01*
X173785227Y-44731443D01*
X173779563Y-44708834D01*
X173776144Y-44685779D01*
X173775000Y-44662500D01*
X173775000Y-44087500D01*
X173776144Y-44064221D01*
X173779563Y-44041166D01*
X173785227Y-44018557D01*
X173793079Y-43996613D01*
X173803044Y-43975543D01*
X173815026Y-43955552D01*
X173828910Y-43936832D01*
X173844562Y-43919562D01*
X173861832Y-43903910D01*
X173880552Y-43890026D01*
X173900543Y-43878044D01*
X173921613Y-43868079D01*
X173943557Y-43860227D01*
X173966166Y-43854563D01*
X173989221Y-43851144D01*
X174012500Y-43850000D01*
X174487500Y-43850000D01*
X174510779Y-43851144D01*
X174510779Y-43851144D01*
G37*
D11*
X174250000Y-44375000D03*
G04 #@! TD*
D10*
G04 #@! TO.C,C14*
G36*
X174010779Y-68601144D02*
X174033834Y-68604563D01*
X174056443Y-68610227D01*
X174078387Y-68618079D01*
X174099457Y-68628044D01*
X174119448Y-68640026D01*
X174138168Y-68653910D01*
X174155438Y-68669562D01*
X174171090Y-68686832D01*
X174184974Y-68705552D01*
X174196956Y-68725543D01*
X174206921Y-68746613D01*
X174214773Y-68768557D01*
X174220437Y-68791166D01*
X174223856Y-68814221D01*
X174225000Y-68837500D01*
X174225000Y-69412500D01*
X174223856Y-69435779D01*
X174220437Y-69458834D01*
X174214773Y-69481443D01*
X174206921Y-69503387D01*
X174196956Y-69524457D01*
X174184974Y-69544448D01*
X174171090Y-69563168D01*
X174155438Y-69580438D01*
X174138168Y-69596090D01*
X174119448Y-69609974D01*
X174099457Y-69621956D01*
X174078387Y-69631921D01*
X174056443Y-69639773D01*
X174033834Y-69645437D01*
X174010779Y-69648856D01*
X173987500Y-69650000D01*
X173512500Y-69650000D01*
X173489221Y-69648856D01*
X173466166Y-69645437D01*
X173443557Y-69639773D01*
X173421613Y-69631921D01*
X173400543Y-69621956D01*
X173380552Y-69609974D01*
X173361832Y-69596090D01*
X173344562Y-69580438D01*
X173328910Y-69563168D01*
X173315026Y-69544448D01*
X173303044Y-69524457D01*
X173293079Y-69503387D01*
X173285227Y-69481443D01*
X173279563Y-69458834D01*
X173276144Y-69435779D01*
X173275000Y-69412500D01*
X173275000Y-68837500D01*
X173276144Y-68814221D01*
X173279563Y-68791166D01*
X173285227Y-68768557D01*
X173293079Y-68746613D01*
X173303044Y-68725543D01*
X173315026Y-68705552D01*
X173328910Y-68686832D01*
X173344562Y-68669562D01*
X173361832Y-68653910D01*
X173380552Y-68640026D01*
X173400543Y-68628044D01*
X173421613Y-68618079D01*
X173443557Y-68610227D01*
X173466166Y-68604563D01*
X173489221Y-68601144D01*
X173512500Y-68600000D01*
X173987500Y-68600000D01*
X174010779Y-68601144D01*
X174010779Y-68601144D01*
G37*
D11*
X173750000Y-69125000D03*
D10*
G36*
X174010779Y-66851144D02*
X174033834Y-66854563D01*
X174056443Y-66860227D01*
X174078387Y-66868079D01*
X174099457Y-66878044D01*
X174119448Y-66890026D01*
X174138168Y-66903910D01*
X174155438Y-66919562D01*
X174171090Y-66936832D01*
X174184974Y-66955552D01*
X174196956Y-66975543D01*
X174206921Y-66996613D01*
X174214773Y-67018557D01*
X174220437Y-67041166D01*
X174223856Y-67064221D01*
X174225000Y-67087500D01*
X174225000Y-67662500D01*
X174223856Y-67685779D01*
X174220437Y-67708834D01*
X174214773Y-67731443D01*
X174206921Y-67753387D01*
X174196956Y-67774457D01*
X174184974Y-67794448D01*
X174171090Y-67813168D01*
X174155438Y-67830438D01*
X174138168Y-67846090D01*
X174119448Y-67859974D01*
X174099457Y-67871956D01*
X174078387Y-67881921D01*
X174056443Y-67889773D01*
X174033834Y-67895437D01*
X174010779Y-67898856D01*
X173987500Y-67900000D01*
X173512500Y-67900000D01*
X173489221Y-67898856D01*
X173466166Y-67895437D01*
X173443557Y-67889773D01*
X173421613Y-67881921D01*
X173400543Y-67871956D01*
X173380552Y-67859974D01*
X173361832Y-67846090D01*
X173344562Y-67830438D01*
X173328910Y-67813168D01*
X173315026Y-67794448D01*
X173303044Y-67774457D01*
X173293079Y-67753387D01*
X173285227Y-67731443D01*
X173279563Y-67708834D01*
X173276144Y-67685779D01*
X173275000Y-67662500D01*
X173275000Y-67087500D01*
X173276144Y-67064221D01*
X173279563Y-67041166D01*
X173285227Y-67018557D01*
X173293079Y-66996613D01*
X173303044Y-66975543D01*
X173315026Y-66955552D01*
X173328910Y-66936832D01*
X173344562Y-66919562D01*
X173361832Y-66903910D01*
X173380552Y-66890026D01*
X173400543Y-66878044D01*
X173421613Y-66868079D01*
X173443557Y-66860227D01*
X173466166Y-66854563D01*
X173489221Y-66851144D01*
X173512500Y-66850000D01*
X173987500Y-66850000D01*
X174010779Y-66851144D01*
X174010779Y-66851144D01*
G37*
D11*
X173750000Y-67375000D03*
G04 #@! TD*
D10*
G04 #@! TO.C,C15*
G36*
X174010779Y-90601144D02*
X174033834Y-90604563D01*
X174056443Y-90610227D01*
X174078387Y-90618079D01*
X174099457Y-90628044D01*
X174119448Y-90640026D01*
X174138168Y-90653910D01*
X174155438Y-90669562D01*
X174171090Y-90686832D01*
X174184974Y-90705552D01*
X174196956Y-90725543D01*
X174206921Y-90746613D01*
X174214773Y-90768557D01*
X174220437Y-90791166D01*
X174223856Y-90814221D01*
X174225000Y-90837500D01*
X174225000Y-91412500D01*
X174223856Y-91435779D01*
X174220437Y-91458834D01*
X174214773Y-91481443D01*
X174206921Y-91503387D01*
X174196956Y-91524457D01*
X174184974Y-91544448D01*
X174171090Y-91563168D01*
X174155438Y-91580438D01*
X174138168Y-91596090D01*
X174119448Y-91609974D01*
X174099457Y-91621956D01*
X174078387Y-91631921D01*
X174056443Y-91639773D01*
X174033834Y-91645437D01*
X174010779Y-91648856D01*
X173987500Y-91650000D01*
X173512500Y-91650000D01*
X173489221Y-91648856D01*
X173466166Y-91645437D01*
X173443557Y-91639773D01*
X173421613Y-91631921D01*
X173400543Y-91621956D01*
X173380552Y-91609974D01*
X173361832Y-91596090D01*
X173344562Y-91580438D01*
X173328910Y-91563168D01*
X173315026Y-91544448D01*
X173303044Y-91524457D01*
X173293079Y-91503387D01*
X173285227Y-91481443D01*
X173279563Y-91458834D01*
X173276144Y-91435779D01*
X173275000Y-91412500D01*
X173275000Y-90837500D01*
X173276144Y-90814221D01*
X173279563Y-90791166D01*
X173285227Y-90768557D01*
X173293079Y-90746613D01*
X173303044Y-90725543D01*
X173315026Y-90705552D01*
X173328910Y-90686832D01*
X173344562Y-90669562D01*
X173361832Y-90653910D01*
X173380552Y-90640026D01*
X173400543Y-90628044D01*
X173421613Y-90618079D01*
X173443557Y-90610227D01*
X173466166Y-90604563D01*
X173489221Y-90601144D01*
X173512500Y-90600000D01*
X173987500Y-90600000D01*
X174010779Y-90601144D01*
X174010779Y-90601144D01*
G37*
D11*
X173750000Y-91125000D03*
D10*
G36*
X174010779Y-92351144D02*
X174033834Y-92354563D01*
X174056443Y-92360227D01*
X174078387Y-92368079D01*
X174099457Y-92378044D01*
X174119448Y-92390026D01*
X174138168Y-92403910D01*
X174155438Y-92419562D01*
X174171090Y-92436832D01*
X174184974Y-92455552D01*
X174196956Y-92475543D01*
X174206921Y-92496613D01*
X174214773Y-92518557D01*
X174220437Y-92541166D01*
X174223856Y-92564221D01*
X174225000Y-92587500D01*
X174225000Y-93162500D01*
X174223856Y-93185779D01*
X174220437Y-93208834D01*
X174214773Y-93231443D01*
X174206921Y-93253387D01*
X174196956Y-93274457D01*
X174184974Y-93294448D01*
X174171090Y-93313168D01*
X174155438Y-93330438D01*
X174138168Y-93346090D01*
X174119448Y-93359974D01*
X174099457Y-93371956D01*
X174078387Y-93381921D01*
X174056443Y-93389773D01*
X174033834Y-93395437D01*
X174010779Y-93398856D01*
X173987500Y-93400000D01*
X173512500Y-93400000D01*
X173489221Y-93398856D01*
X173466166Y-93395437D01*
X173443557Y-93389773D01*
X173421613Y-93381921D01*
X173400543Y-93371956D01*
X173380552Y-93359974D01*
X173361832Y-93346090D01*
X173344562Y-93330438D01*
X173328910Y-93313168D01*
X173315026Y-93294448D01*
X173303044Y-93274457D01*
X173293079Y-93253387D01*
X173285227Y-93231443D01*
X173279563Y-93208834D01*
X173276144Y-93185779D01*
X173275000Y-93162500D01*
X173275000Y-92587500D01*
X173276144Y-92564221D01*
X173279563Y-92541166D01*
X173285227Y-92518557D01*
X173293079Y-92496613D01*
X173303044Y-92475543D01*
X173315026Y-92455552D01*
X173328910Y-92436832D01*
X173344562Y-92419562D01*
X173361832Y-92403910D01*
X173380552Y-92390026D01*
X173400543Y-92378044D01*
X173421613Y-92368079D01*
X173443557Y-92360227D01*
X173466166Y-92354563D01*
X173489221Y-92351144D01*
X173512500Y-92350000D01*
X173987500Y-92350000D01*
X174010779Y-92351144D01*
X174010779Y-92351144D01*
G37*
D11*
X173750000Y-92875000D03*
G04 #@! TD*
D10*
G04 #@! TO.C,C16*
G36*
X166260779Y-50851144D02*
X166283834Y-50854563D01*
X166306443Y-50860227D01*
X166328387Y-50868079D01*
X166349457Y-50878044D01*
X166369448Y-50890026D01*
X166388168Y-50903910D01*
X166405438Y-50919562D01*
X166421090Y-50936832D01*
X166434974Y-50955552D01*
X166446956Y-50975543D01*
X166456921Y-50996613D01*
X166464773Y-51018557D01*
X166470437Y-51041166D01*
X166473856Y-51064221D01*
X166475000Y-51087500D01*
X166475000Y-51662500D01*
X166473856Y-51685779D01*
X166470437Y-51708834D01*
X166464773Y-51731443D01*
X166456921Y-51753387D01*
X166446956Y-51774457D01*
X166434974Y-51794448D01*
X166421090Y-51813168D01*
X166405438Y-51830438D01*
X166388168Y-51846090D01*
X166369448Y-51859974D01*
X166349457Y-51871956D01*
X166328387Y-51881921D01*
X166306443Y-51889773D01*
X166283834Y-51895437D01*
X166260779Y-51898856D01*
X166237500Y-51900000D01*
X165762500Y-51900000D01*
X165739221Y-51898856D01*
X165716166Y-51895437D01*
X165693557Y-51889773D01*
X165671613Y-51881921D01*
X165650543Y-51871956D01*
X165630552Y-51859974D01*
X165611832Y-51846090D01*
X165594562Y-51830438D01*
X165578910Y-51813168D01*
X165565026Y-51794448D01*
X165553044Y-51774457D01*
X165543079Y-51753387D01*
X165535227Y-51731443D01*
X165529563Y-51708834D01*
X165526144Y-51685779D01*
X165525000Y-51662500D01*
X165525000Y-51087500D01*
X165526144Y-51064221D01*
X165529563Y-51041166D01*
X165535227Y-51018557D01*
X165543079Y-50996613D01*
X165553044Y-50975543D01*
X165565026Y-50955552D01*
X165578910Y-50936832D01*
X165594562Y-50919562D01*
X165611832Y-50903910D01*
X165630552Y-50890026D01*
X165650543Y-50878044D01*
X165671613Y-50868079D01*
X165693557Y-50860227D01*
X165716166Y-50854563D01*
X165739221Y-50851144D01*
X165762500Y-50850000D01*
X166237500Y-50850000D01*
X166260779Y-50851144D01*
X166260779Y-50851144D01*
G37*
D11*
X166000000Y-51375000D03*
D10*
G36*
X166260779Y-49101144D02*
X166283834Y-49104563D01*
X166306443Y-49110227D01*
X166328387Y-49118079D01*
X166349457Y-49128044D01*
X166369448Y-49140026D01*
X166388168Y-49153910D01*
X166405438Y-49169562D01*
X166421090Y-49186832D01*
X166434974Y-49205552D01*
X166446956Y-49225543D01*
X166456921Y-49246613D01*
X166464773Y-49268557D01*
X166470437Y-49291166D01*
X166473856Y-49314221D01*
X166475000Y-49337500D01*
X166475000Y-49912500D01*
X166473856Y-49935779D01*
X166470437Y-49958834D01*
X166464773Y-49981443D01*
X166456921Y-50003387D01*
X166446956Y-50024457D01*
X166434974Y-50044448D01*
X166421090Y-50063168D01*
X166405438Y-50080438D01*
X166388168Y-50096090D01*
X166369448Y-50109974D01*
X166349457Y-50121956D01*
X166328387Y-50131921D01*
X166306443Y-50139773D01*
X166283834Y-50145437D01*
X166260779Y-50148856D01*
X166237500Y-50150000D01*
X165762500Y-50150000D01*
X165739221Y-50148856D01*
X165716166Y-50145437D01*
X165693557Y-50139773D01*
X165671613Y-50131921D01*
X165650543Y-50121956D01*
X165630552Y-50109974D01*
X165611832Y-50096090D01*
X165594562Y-50080438D01*
X165578910Y-50063168D01*
X165565026Y-50044448D01*
X165553044Y-50024457D01*
X165543079Y-50003387D01*
X165535227Y-49981443D01*
X165529563Y-49958834D01*
X165526144Y-49935779D01*
X165525000Y-49912500D01*
X165525000Y-49337500D01*
X165526144Y-49314221D01*
X165529563Y-49291166D01*
X165535227Y-49268557D01*
X165543079Y-49246613D01*
X165553044Y-49225543D01*
X165565026Y-49205552D01*
X165578910Y-49186832D01*
X165594562Y-49169562D01*
X165611832Y-49153910D01*
X165630552Y-49140026D01*
X165650543Y-49128044D01*
X165671613Y-49118079D01*
X165693557Y-49110227D01*
X165716166Y-49104563D01*
X165739221Y-49101144D01*
X165762500Y-49100000D01*
X166237500Y-49100000D01*
X166260779Y-49101144D01*
X166260779Y-49101144D01*
G37*
D11*
X166000000Y-49625000D03*
G04 #@! TD*
D10*
G04 #@! TO.C,C17*
G36*
X166260779Y-74101144D02*
X166283834Y-74104563D01*
X166306443Y-74110227D01*
X166328387Y-74118079D01*
X166349457Y-74128044D01*
X166369448Y-74140026D01*
X166388168Y-74153910D01*
X166405438Y-74169562D01*
X166421090Y-74186832D01*
X166434974Y-74205552D01*
X166446956Y-74225543D01*
X166456921Y-74246613D01*
X166464773Y-74268557D01*
X166470437Y-74291166D01*
X166473856Y-74314221D01*
X166475000Y-74337500D01*
X166475000Y-74912500D01*
X166473856Y-74935779D01*
X166470437Y-74958834D01*
X166464773Y-74981443D01*
X166456921Y-75003387D01*
X166446956Y-75024457D01*
X166434974Y-75044448D01*
X166421090Y-75063168D01*
X166405438Y-75080438D01*
X166388168Y-75096090D01*
X166369448Y-75109974D01*
X166349457Y-75121956D01*
X166328387Y-75131921D01*
X166306443Y-75139773D01*
X166283834Y-75145437D01*
X166260779Y-75148856D01*
X166237500Y-75150000D01*
X165762500Y-75150000D01*
X165739221Y-75148856D01*
X165716166Y-75145437D01*
X165693557Y-75139773D01*
X165671613Y-75131921D01*
X165650543Y-75121956D01*
X165630552Y-75109974D01*
X165611832Y-75096090D01*
X165594562Y-75080438D01*
X165578910Y-75063168D01*
X165565026Y-75044448D01*
X165553044Y-75024457D01*
X165543079Y-75003387D01*
X165535227Y-74981443D01*
X165529563Y-74958834D01*
X165526144Y-74935779D01*
X165525000Y-74912500D01*
X165525000Y-74337500D01*
X165526144Y-74314221D01*
X165529563Y-74291166D01*
X165535227Y-74268557D01*
X165543079Y-74246613D01*
X165553044Y-74225543D01*
X165565026Y-74205552D01*
X165578910Y-74186832D01*
X165594562Y-74169562D01*
X165611832Y-74153910D01*
X165630552Y-74140026D01*
X165650543Y-74128044D01*
X165671613Y-74118079D01*
X165693557Y-74110227D01*
X165716166Y-74104563D01*
X165739221Y-74101144D01*
X165762500Y-74100000D01*
X166237500Y-74100000D01*
X166260779Y-74101144D01*
X166260779Y-74101144D01*
G37*
D11*
X166000000Y-74625000D03*
D10*
G36*
X166260779Y-72351144D02*
X166283834Y-72354563D01*
X166306443Y-72360227D01*
X166328387Y-72368079D01*
X166349457Y-72378044D01*
X166369448Y-72390026D01*
X166388168Y-72403910D01*
X166405438Y-72419562D01*
X166421090Y-72436832D01*
X166434974Y-72455552D01*
X166446956Y-72475543D01*
X166456921Y-72496613D01*
X166464773Y-72518557D01*
X166470437Y-72541166D01*
X166473856Y-72564221D01*
X166475000Y-72587500D01*
X166475000Y-73162500D01*
X166473856Y-73185779D01*
X166470437Y-73208834D01*
X166464773Y-73231443D01*
X166456921Y-73253387D01*
X166446956Y-73274457D01*
X166434974Y-73294448D01*
X166421090Y-73313168D01*
X166405438Y-73330438D01*
X166388168Y-73346090D01*
X166369448Y-73359974D01*
X166349457Y-73371956D01*
X166328387Y-73381921D01*
X166306443Y-73389773D01*
X166283834Y-73395437D01*
X166260779Y-73398856D01*
X166237500Y-73400000D01*
X165762500Y-73400000D01*
X165739221Y-73398856D01*
X165716166Y-73395437D01*
X165693557Y-73389773D01*
X165671613Y-73381921D01*
X165650543Y-73371956D01*
X165630552Y-73359974D01*
X165611832Y-73346090D01*
X165594562Y-73330438D01*
X165578910Y-73313168D01*
X165565026Y-73294448D01*
X165553044Y-73274457D01*
X165543079Y-73253387D01*
X165535227Y-73231443D01*
X165529563Y-73208834D01*
X165526144Y-73185779D01*
X165525000Y-73162500D01*
X165525000Y-72587500D01*
X165526144Y-72564221D01*
X165529563Y-72541166D01*
X165535227Y-72518557D01*
X165543079Y-72496613D01*
X165553044Y-72475543D01*
X165565026Y-72455552D01*
X165578910Y-72436832D01*
X165594562Y-72419562D01*
X165611832Y-72403910D01*
X165630552Y-72390026D01*
X165650543Y-72378044D01*
X165671613Y-72368079D01*
X165693557Y-72360227D01*
X165716166Y-72354563D01*
X165739221Y-72351144D01*
X165762500Y-72350000D01*
X166237500Y-72350000D01*
X166260779Y-72351144D01*
X166260779Y-72351144D01*
G37*
D11*
X166000000Y-72875000D03*
G04 #@! TD*
D10*
G04 #@! TO.C,C18*
G36*
X165760779Y-95976145D02*
X165783834Y-95979564D01*
X165806443Y-95985228D01*
X165828387Y-95993080D01*
X165849457Y-96003045D01*
X165869448Y-96015027D01*
X165888168Y-96028911D01*
X165905438Y-96044563D01*
X165921090Y-96061833D01*
X165934974Y-96080553D01*
X165946956Y-96100544D01*
X165956921Y-96121614D01*
X165964773Y-96143558D01*
X165970437Y-96166167D01*
X165973856Y-96189222D01*
X165975000Y-96212501D01*
X165975000Y-96787501D01*
X165973856Y-96810780D01*
X165970437Y-96833835D01*
X165964773Y-96856444D01*
X165956921Y-96878388D01*
X165946956Y-96899458D01*
X165934974Y-96919449D01*
X165921090Y-96938169D01*
X165905438Y-96955439D01*
X165888168Y-96971091D01*
X165869448Y-96984975D01*
X165849457Y-96996957D01*
X165828387Y-97006922D01*
X165806443Y-97014774D01*
X165783834Y-97020438D01*
X165760779Y-97023857D01*
X165737500Y-97025001D01*
X165262500Y-97025001D01*
X165239221Y-97023857D01*
X165216166Y-97020438D01*
X165193557Y-97014774D01*
X165171613Y-97006922D01*
X165150543Y-96996957D01*
X165130552Y-96984975D01*
X165111832Y-96971091D01*
X165094562Y-96955439D01*
X165078910Y-96938169D01*
X165065026Y-96919449D01*
X165053044Y-96899458D01*
X165043079Y-96878388D01*
X165035227Y-96856444D01*
X165029563Y-96833835D01*
X165026144Y-96810780D01*
X165025000Y-96787501D01*
X165025000Y-96212501D01*
X165026144Y-96189222D01*
X165029563Y-96166167D01*
X165035227Y-96143558D01*
X165043079Y-96121614D01*
X165053044Y-96100544D01*
X165065026Y-96080553D01*
X165078910Y-96061833D01*
X165094562Y-96044563D01*
X165111832Y-96028911D01*
X165130552Y-96015027D01*
X165150543Y-96003045D01*
X165171613Y-95993080D01*
X165193557Y-95985228D01*
X165216166Y-95979564D01*
X165239221Y-95976145D01*
X165262500Y-95975001D01*
X165737500Y-95975001D01*
X165760779Y-95976145D01*
X165760779Y-95976145D01*
G37*
D11*
X165500000Y-96500001D03*
D10*
G36*
X165760779Y-97726145D02*
X165783834Y-97729564D01*
X165806443Y-97735228D01*
X165828387Y-97743080D01*
X165849457Y-97753045D01*
X165869448Y-97765027D01*
X165888168Y-97778911D01*
X165905438Y-97794563D01*
X165921090Y-97811833D01*
X165934974Y-97830553D01*
X165946956Y-97850544D01*
X165956921Y-97871614D01*
X165964773Y-97893558D01*
X165970437Y-97916167D01*
X165973856Y-97939222D01*
X165975000Y-97962501D01*
X165975000Y-98537501D01*
X165973856Y-98560780D01*
X165970437Y-98583835D01*
X165964773Y-98606444D01*
X165956921Y-98628388D01*
X165946956Y-98649458D01*
X165934974Y-98669449D01*
X165921090Y-98688169D01*
X165905438Y-98705439D01*
X165888168Y-98721091D01*
X165869448Y-98734975D01*
X165849457Y-98746957D01*
X165828387Y-98756922D01*
X165806443Y-98764774D01*
X165783834Y-98770438D01*
X165760779Y-98773857D01*
X165737500Y-98775001D01*
X165262500Y-98775001D01*
X165239221Y-98773857D01*
X165216166Y-98770438D01*
X165193557Y-98764774D01*
X165171613Y-98756922D01*
X165150543Y-98746957D01*
X165130552Y-98734975D01*
X165111832Y-98721091D01*
X165094562Y-98705439D01*
X165078910Y-98688169D01*
X165065026Y-98669449D01*
X165053044Y-98649458D01*
X165043079Y-98628388D01*
X165035227Y-98606444D01*
X165029563Y-98583835D01*
X165026144Y-98560780D01*
X165025000Y-98537501D01*
X165025000Y-97962501D01*
X165026144Y-97939222D01*
X165029563Y-97916167D01*
X165035227Y-97893558D01*
X165043079Y-97871614D01*
X165053044Y-97850544D01*
X165065026Y-97830553D01*
X165078910Y-97811833D01*
X165094562Y-97794563D01*
X165111832Y-97778911D01*
X165130552Y-97765027D01*
X165150543Y-97753045D01*
X165171613Y-97743080D01*
X165193557Y-97735228D01*
X165216166Y-97729564D01*
X165239221Y-97726145D01*
X165262500Y-97725001D01*
X165737500Y-97725001D01*
X165760779Y-97726145D01*
X165760779Y-97726145D01*
G37*
D11*
X165500000Y-98250001D03*
G04 #@! TD*
D10*
G04 #@! TO.C,R1*
G36*
X147260779Y-48601144D02*
X147283834Y-48604563D01*
X147306443Y-48610227D01*
X147328387Y-48618079D01*
X147349457Y-48628044D01*
X147369448Y-48640026D01*
X147388168Y-48653910D01*
X147405438Y-48669562D01*
X147421090Y-48686832D01*
X147434974Y-48705552D01*
X147446956Y-48725543D01*
X147456921Y-48746613D01*
X147464773Y-48768557D01*
X147470437Y-48791166D01*
X147473856Y-48814221D01*
X147475000Y-48837500D01*
X147475000Y-49412500D01*
X147473856Y-49435779D01*
X147470437Y-49458834D01*
X147464773Y-49481443D01*
X147456921Y-49503387D01*
X147446956Y-49524457D01*
X147434974Y-49544448D01*
X147421090Y-49563168D01*
X147405438Y-49580438D01*
X147388168Y-49596090D01*
X147369448Y-49609974D01*
X147349457Y-49621956D01*
X147328387Y-49631921D01*
X147306443Y-49639773D01*
X147283834Y-49645437D01*
X147260779Y-49648856D01*
X147237500Y-49650000D01*
X146762500Y-49650000D01*
X146739221Y-49648856D01*
X146716166Y-49645437D01*
X146693557Y-49639773D01*
X146671613Y-49631921D01*
X146650543Y-49621956D01*
X146630552Y-49609974D01*
X146611832Y-49596090D01*
X146594562Y-49580438D01*
X146578910Y-49563168D01*
X146565026Y-49544448D01*
X146553044Y-49524457D01*
X146543079Y-49503387D01*
X146535227Y-49481443D01*
X146529563Y-49458834D01*
X146526144Y-49435779D01*
X146525000Y-49412500D01*
X146525000Y-48837500D01*
X146526144Y-48814221D01*
X146529563Y-48791166D01*
X146535227Y-48768557D01*
X146543079Y-48746613D01*
X146553044Y-48725543D01*
X146565026Y-48705552D01*
X146578910Y-48686832D01*
X146594562Y-48669562D01*
X146611832Y-48653910D01*
X146630552Y-48640026D01*
X146650543Y-48628044D01*
X146671613Y-48618079D01*
X146693557Y-48610227D01*
X146716166Y-48604563D01*
X146739221Y-48601144D01*
X146762500Y-48600000D01*
X147237500Y-48600000D01*
X147260779Y-48601144D01*
X147260779Y-48601144D01*
G37*
D11*
X147000000Y-49125000D03*
D10*
G36*
X147260779Y-46851144D02*
X147283834Y-46854563D01*
X147306443Y-46860227D01*
X147328387Y-46868079D01*
X147349457Y-46878044D01*
X147369448Y-46890026D01*
X147388168Y-46903910D01*
X147405438Y-46919562D01*
X147421090Y-46936832D01*
X147434974Y-46955552D01*
X147446956Y-46975543D01*
X147456921Y-46996613D01*
X147464773Y-47018557D01*
X147470437Y-47041166D01*
X147473856Y-47064221D01*
X147475000Y-47087500D01*
X147475000Y-47662500D01*
X147473856Y-47685779D01*
X147470437Y-47708834D01*
X147464773Y-47731443D01*
X147456921Y-47753387D01*
X147446956Y-47774457D01*
X147434974Y-47794448D01*
X147421090Y-47813168D01*
X147405438Y-47830438D01*
X147388168Y-47846090D01*
X147369448Y-47859974D01*
X147349457Y-47871956D01*
X147328387Y-47881921D01*
X147306443Y-47889773D01*
X147283834Y-47895437D01*
X147260779Y-47898856D01*
X147237500Y-47900000D01*
X146762500Y-47900000D01*
X146739221Y-47898856D01*
X146716166Y-47895437D01*
X146693557Y-47889773D01*
X146671613Y-47881921D01*
X146650543Y-47871956D01*
X146630552Y-47859974D01*
X146611832Y-47846090D01*
X146594562Y-47830438D01*
X146578910Y-47813168D01*
X146565026Y-47794448D01*
X146553044Y-47774457D01*
X146543079Y-47753387D01*
X146535227Y-47731443D01*
X146529563Y-47708834D01*
X146526144Y-47685779D01*
X146525000Y-47662500D01*
X146525000Y-47087500D01*
X146526144Y-47064221D01*
X146529563Y-47041166D01*
X146535227Y-47018557D01*
X146543079Y-46996613D01*
X146553044Y-46975543D01*
X146565026Y-46955552D01*
X146578910Y-46936832D01*
X146594562Y-46919562D01*
X146611832Y-46903910D01*
X146630552Y-46890026D01*
X146650543Y-46878044D01*
X146671613Y-46868079D01*
X146693557Y-46860227D01*
X146716166Y-46854563D01*
X146739221Y-46851144D01*
X146762500Y-46850000D01*
X147237500Y-46850000D01*
X147260779Y-46851144D01*
X147260779Y-46851144D01*
G37*
D11*
X147000000Y-47375000D03*
G04 #@! TD*
D10*
G04 #@! TO.C,R2*
G36*
X148010779Y-95601144D02*
X148033834Y-95604563D01*
X148056443Y-95610227D01*
X148078387Y-95618079D01*
X148099457Y-95628044D01*
X148119448Y-95640026D01*
X148138168Y-95653910D01*
X148155438Y-95669562D01*
X148171090Y-95686832D01*
X148184974Y-95705552D01*
X148196956Y-95725543D01*
X148206921Y-95746613D01*
X148214773Y-95768557D01*
X148220437Y-95791166D01*
X148223856Y-95814221D01*
X148225000Y-95837500D01*
X148225000Y-96412500D01*
X148223856Y-96435779D01*
X148220437Y-96458834D01*
X148214773Y-96481443D01*
X148206921Y-96503387D01*
X148196956Y-96524457D01*
X148184974Y-96544448D01*
X148171090Y-96563168D01*
X148155438Y-96580438D01*
X148138168Y-96596090D01*
X148119448Y-96609974D01*
X148099457Y-96621956D01*
X148078387Y-96631921D01*
X148056443Y-96639773D01*
X148033834Y-96645437D01*
X148010779Y-96648856D01*
X147987500Y-96650000D01*
X147512500Y-96650000D01*
X147489221Y-96648856D01*
X147466166Y-96645437D01*
X147443557Y-96639773D01*
X147421613Y-96631921D01*
X147400543Y-96621956D01*
X147380552Y-96609974D01*
X147361832Y-96596090D01*
X147344562Y-96580438D01*
X147328910Y-96563168D01*
X147315026Y-96544448D01*
X147303044Y-96524457D01*
X147293079Y-96503387D01*
X147285227Y-96481443D01*
X147279563Y-96458834D01*
X147276144Y-96435779D01*
X147275000Y-96412500D01*
X147275000Y-95837500D01*
X147276144Y-95814221D01*
X147279563Y-95791166D01*
X147285227Y-95768557D01*
X147293079Y-95746613D01*
X147303044Y-95725543D01*
X147315026Y-95705552D01*
X147328910Y-95686832D01*
X147344562Y-95669562D01*
X147361832Y-95653910D01*
X147380552Y-95640026D01*
X147400543Y-95628044D01*
X147421613Y-95618079D01*
X147443557Y-95610227D01*
X147466166Y-95604563D01*
X147489221Y-95601144D01*
X147512500Y-95600000D01*
X147987500Y-95600000D01*
X148010779Y-95601144D01*
X148010779Y-95601144D01*
G37*
D11*
X147750000Y-96125000D03*
D10*
G36*
X148010779Y-93851144D02*
X148033834Y-93854563D01*
X148056443Y-93860227D01*
X148078387Y-93868079D01*
X148099457Y-93878044D01*
X148119448Y-93890026D01*
X148138168Y-93903910D01*
X148155438Y-93919562D01*
X148171090Y-93936832D01*
X148184974Y-93955552D01*
X148196956Y-93975543D01*
X148206921Y-93996613D01*
X148214773Y-94018557D01*
X148220437Y-94041166D01*
X148223856Y-94064221D01*
X148225000Y-94087500D01*
X148225000Y-94662500D01*
X148223856Y-94685779D01*
X148220437Y-94708834D01*
X148214773Y-94731443D01*
X148206921Y-94753387D01*
X148196956Y-94774457D01*
X148184974Y-94794448D01*
X148171090Y-94813168D01*
X148155438Y-94830438D01*
X148138168Y-94846090D01*
X148119448Y-94859974D01*
X148099457Y-94871956D01*
X148078387Y-94881921D01*
X148056443Y-94889773D01*
X148033834Y-94895437D01*
X148010779Y-94898856D01*
X147987500Y-94900000D01*
X147512500Y-94900000D01*
X147489221Y-94898856D01*
X147466166Y-94895437D01*
X147443557Y-94889773D01*
X147421613Y-94881921D01*
X147400543Y-94871956D01*
X147380552Y-94859974D01*
X147361832Y-94846090D01*
X147344562Y-94830438D01*
X147328910Y-94813168D01*
X147315026Y-94794448D01*
X147303044Y-94774457D01*
X147293079Y-94753387D01*
X147285227Y-94731443D01*
X147279563Y-94708834D01*
X147276144Y-94685779D01*
X147275000Y-94662500D01*
X147275000Y-94087500D01*
X147276144Y-94064221D01*
X147279563Y-94041166D01*
X147285227Y-94018557D01*
X147293079Y-93996613D01*
X147303044Y-93975543D01*
X147315026Y-93955552D01*
X147328910Y-93936832D01*
X147344562Y-93919562D01*
X147361832Y-93903910D01*
X147380552Y-93890026D01*
X147400543Y-93878044D01*
X147421613Y-93868079D01*
X147443557Y-93860227D01*
X147466166Y-93854563D01*
X147489221Y-93851144D01*
X147512500Y-93850000D01*
X147987500Y-93850000D01*
X148010779Y-93851144D01*
X148010779Y-93851144D01*
G37*
D11*
X147750000Y-94375000D03*
G04 #@! TD*
D10*
G04 #@! TO.C,R3*
G36*
X145435779Y-50526144D02*
X145458834Y-50529563D01*
X145481443Y-50535227D01*
X145503387Y-50543079D01*
X145524457Y-50553044D01*
X145544448Y-50565026D01*
X145563168Y-50578910D01*
X145580438Y-50594562D01*
X145596090Y-50611832D01*
X145609974Y-50630552D01*
X145621956Y-50650543D01*
X145631921Y-50671613D01*
X145639773Y-50693557D01*
X145645437Y-50716166D01*
X145648856Y-50739221D01*
X145650000Y-50762500D01*
X145650000Y-51237500D01*
X145648856Y-51260779D01*
X145645437Y-51283834D01*
X145639773Y-51306443D01*
X145631921Y-51328387D01*
X145621956Y-51349457D01*
X145609974Y-51369448D01*
X145596090Y-51388168D01*
X145580438Y-51405438D01*
X145563168Y-51421090D01*
X145544448Y-51434974D01*
X145524457Y-51446956D01*
X145503387Y-51456921D01*
X145481443Y-51464773D01*
X145458834Y-51470437D01*
X145435779Y-51473856D01*
X145412500Y-51475000D01*
X144837500Y-51475000D01*
X144814221Y-51473856D01*
X144791166Y-51470437D01*
X144768557Y-51464773D01*
X144746613Y-51456921D01*
X144725543Y-51446956D01*
X144705552Y-51434974D01*
X144686832Y-51421090D01*
X144669562Y-51405438D01*
X144653910Y-51388168D01*
X144640026Y-51369448D01*
X144628044Y-51349457D01*
X144618079Y-51328387D01*
X144610227Y-51306443D01*
X144604563Y-51283834D01*
X144601144Y-51260779D01*
X144600000Y-51237500D01*
X144600000Y-50762500D01*
X144601144Y-50739221D01*
X144604563Y-50716166D01*
X144610227Y-50693557D01*
X144618079Y-50671613D01*
X144628044Y-50650543D01*
X144640026Y-50630552D01*
X144653910Y-50611832D01*
X144669562Y-50594562D01*
X144686832Y-50578910D01*
X144705552Y-50565026D01*
X144725543Y-50553044D01*
X144746613Y-50543079D01*
X144768557Y-50535227D01*
X144791166Y-50529563D01*
X144814221Y-50526144D01*
X144837500Y-50525000D01*
X145412500Y-50525000D01*
X145435779Y-50526144D01*
X145435779Y-50526144D01*
G37*
D11*
X145125000Y-51000000D03*
D10*
G36*
X143685779Y-50526144D02*
X143708834Y-50529563D01*
X143731443Y-50535227D01*
X143753387Y-50543079D01*
X143774457Y-50553044D01*
X143794448Y-50565026D01*
X143813168Y-50578910D01*
X143830438Y-50594562D01*
X143846090Y-50611832D01*
X143859974Y-50630552D01*
X143871956Y-50650543D01*
X143881921Y-50671613D01*
X143889773Y-50693557D01*
X143895437Y-50716166D01*
X143898856Y-50739221D01*
X143900000Y-50762500D01*
X143900000Y-51237500D01*
X143898856Y-51260779D01*
X143895437Y-51283834D01*
X143889773Y-51306443D01*
X143881921Y-51328387D01*
X143871956Y-51349457D01*
X143859974Y-51369448D01*
X143846090Y-51388168D01*
X143830438Y-51405438D01*
X143813168Y-51421090D01*
X143794448Y-51434974D01*
X143774457Y-51446956D01*
X143753387Y-51456921D01*
X143731443Y-51464773D01*
X143708834Y-51470437D01*
X143685779Y-51473856D01*
X143662500Y-51475000D01*
X143087500Y-51475000D01*
X143064221Y-51473856D01*
X143041166Y-51470437D01*
X143018557Y-51464773D01*
X142996613Y-51456921D01*
X142975543Y-51446956D01*
X142955552Y-51434974D01*
X142936832Y-51421090D01*
X142919562Y-51405438D01*
X142903910Y-51388168D01*
X142890026Y-51369448D01*
X142878044Y-51349457D01*
X142868079Y-51328387D01*
X142860227Y-51306443D01*
X142854563Y-51283834D01*
X142851144Y-51260779D01*
X142850000Y-51237500D01*
X142850000Y-50762500D01*
X142851144Y-50739221D01*
X142854563Y-50716166D01*
X142860227Y-50693557D01*
X142868079Y-50671613D01*
X142878044Y-50650543D01*
X142890026Y-50630552D01*
X142903910Y-50611832D01*
X142919562Y-50594562D01*
X142936832Y-50578910D01*
X142955552Y-50565026D01*
X142975543Y-50553044D01*
X142996613Y-50543079D01*
X143018557Y-50535227D01*
X143041166Y-50529563D01*
X143064221Y-50526144D01*
X143087500Y-50525000D01*
X143662500Y-50525000D01*
X143685779Y-50526144D01*
X143685779Y-50526144D01*
G37*
D11*
X143375000Y-51000000D03*
G04 #@! TD*
D10*
G04 #@! TO.C,R4*
G36*
X147010779Y-71351144D02*
X147033834Y-71354563D01*
X147056443Y-71360227D01*
X147078387Y-71368079D01*
X147099457Y-71378044D01*
X147119448Y-71390026D01*
X147138168Y-71403910D01*
X147155438Y-71419562D01*
X147171090Y-71436832D01*
X147184974Y-71455552D01*
X147196956Y-71475543D01*
X147206921Y-71496613D01*
X147214773Y-71518557D01*
X147220437Y-71541166D01*
X147223856Y-71564221D01*
X147225000Y-71587500D01*
X147225000Y-72162500D01*
X147223856Y-72185779D01*
X147220437Y-72208834D01*
X147214773Y-72231443D01*
X147206921Y-72253387D01*
X147196956Y-72274457D01*
X147184974Y-72294448D01*
X147171090Y-72313168D01*
X147155438Y-72330438D01*
X147138168Y-72346090D01*
X147119448Y-72359974D01*
X147099457Y-72371956D01*
X147078387Y-72381921D01*
X147056443Y-72389773D01*
X147033834Y-72395437D01*
X147010779Y-72398856D01*
X146987500Y-72400000D01*
X146512500Y-72400000D01*
X146489221Y-72398856D01*
X146466166Y-72395437D01*
X146443557Y-72389773D01*
X146421613Y-72381921D01*
X146400543Y-72371956D01*
X146380552Y-72359974D01*
X146361832Y-72346090D01*
X146344562Y-72330438D01*
X146328910Y-72313168D01*
X146315026Y-72294448D01*
X146303044Y-72274457D01*
X146293079Y-72253387D01*
X146285227Y-72231443D01*
X146279563Y-72208834D01*
X146276144Y-72185779D01*
X146275000Y-72162500D01*
X146275000Y-71587500D01*
X146276144Y-71564221D01*
X146279563Y-71541166D01*
X146285227Y-71518557D01*
X146293079Y-71496613D01*
X146303044Y-71475543D01*
X146315026Y-71455552D01*
X146328910Y-71436832D01*
X146344562Y-71419562D01*
X146361832Y-71403910D01*
X146380552Y-71390026D01*
X146400543Y-71378044D01*
X146421613Y-71368079D01*
X146443557Y-71360227D01*
X146466166Y-71354563D01*
X146489221Y-71351144D01*
X146512500Y-71350000D01*
X146987500Y-71350000D01*
X147010779Y-71351144D01*
X147010779Y-71351144D01*
G37*
D11*
X146750000Y-71875000D03*
D10*
G36*
X147010779Y-69601144D02*
X147033834Y-69604563D01*
X147056443Y-69610227D01*
X147078387Y-69618079D01*
X147099457Y-69628044D01*
X147119448Y-69640026D01*
X147138168Y-69653910D01*
X147155438Y-69669562D01*
X147171090Y-69686832D01*
X147184974Y-69705552D01*
X147196956Y-69725543D01*
X147206921Y-69746613D01*
X147214773Y-69768557D01*
X147220437Y-69791166D01*
X147223856Y-69814221D01*
X147225000Y-69837500D01*
X147225000Y-70412500D01*
X147223856Y-70435779D01*
X147220437Y-70458834D01*
X147214773Y-70481443D01*
X147206921Y-70503387D01*
X147196956Y-70524457D01*
X147184974Y-70544448D01*
X147171090Y-70563168D01*
X147155438Y-70580438D01*
X147138168Y-70596090D01*
X147119448Y-70609974D01*
X147099457Y-70621956D01*
X147078387Y-70631921D01*
X147056443Y-70639773D01*
X147033834Y-70645437D01*
X147010779Y-70648856D01*
X146987500Y-70650000D01*
X146512500Y-70650000D01*
X146489221Y-70648856D01*
X146466166Y-70645437D01*
X146443557Y-70639773D01*
X146421613Y-70631921D01*
X146400543Y-70621956D01*
X146380552Y-70609974D01*
X146361832Y-70596090D01*
X146344562Y-70580438D01*
X146328910Y-70563168D01*
X146315026Y-70544448D01*
X146303044Y-70524457D01*
X146293079Y-70503387D01*
X146285227Y-70481443D01*
X146279563Y-70458834D01*
X146276144Y-70435779D01*
X146275000Y-70412500D01*
X146275000Y-69837500D01*
X146276144Y-69814221D01*
X146279563Y-69791166D01*
X146285227Y-69768557D01*
X146293079Y-69746613D01*
X146303044Y-69725543D01*
X146315026Y-69705552D01*
X146328910Y-69686832D01*
X146344562Y-69669562D01*
X146361832Y-69653910D01*
X146380552Y-69640026D01*
X146400543Y-69628044D01*
X146421613Y-69618079D01*
X146443557Y-69610227D01*
X146466166Y-69604563D01*
X146489221Y-69601144D01*
X146512500Y-69600000D01*
X146987500Y-69600000D01*
X147010779Y-69601144D01*
X147010779Y-69601144D01*
G37*
D11*
X146750000Y-70125000D03*
G04 #@! TD*
D10*
G04 #@! TO.C,R5*
G36*
X146185779Y-97276144D02*
X146208834Y-97279563D01*
X146231443Y-97285227D01*
X146253387Y-97293079D01*
X146274457Y-97303044D01*
X146294448Y-97315026D01*
X146313168Y-97328910D01*
X146330438Y-97344562D01*
X146346090Y-97361832D01*
X146359974Y-97380552D01*
X146371956Y-97400543D01*
X146381921Y-97421613D01*
X146389773Y-97443557D01*
X146395437Y-97466166D01*
X146398856Y-97489221D01*
X146400000Y-97512500D01*
X146400000Y-97987500D01*
X146398856Y-98010779D01*
X146395437Y-98033834D01*
X146389773Y-98056443D01*
X146381921Y-98078387D01*
X146371956Y-98099457D01*
X146359974Y-98119448D01*
X146346090Y-98138168D01*
X146330438Y-98155438D01*
X146313168Y-98171090D01*
X146294448Y-98184974D01*
X146274457Y-98196956D01*
X146253387Y-98206921D01*
X146231443Y-98214773D01*
X146208834Y-98220437D01*
X146185779Y-98223856D01*
X146162500Y-98225000D01*
X145587500Y-98225000D01*
X145564221Y-98223856D01*
X145541166Y-98220437D01*
X145518557Y-98214773D01*
X145496613Y-98206921D01*
X145475543Y-98196956D01*
X145455552Y-98184974D01*
X145436832Y-98171090D01*
X145419562Y-98155438D01*
X145403910Y-98138168D01*
X145390026Y-98119448D01*
X145378044Y-98099457D01*
X145368079Y-98078387D01*
X145360227Y-98056443D01*
X145354563Y-98033834D01*
X145351144Y-98010779D01*
X145350000Y-97987500D01*
X145350000Y-97512500D01*
X145351144Y-97489221D01*
X145354563Y-97466166D01*
X145360227Y-97443557D01*
X145368079Y-97421613D01*
X145378044Y-97400543D01*
X145390026Y-97380552D01*
X145403910Y-97361832D01*
X145419562Y-97344562D01*
X145436832Y-97328910D01*
X145455552Y-97315026D01*
X145475543Y-97303044D01*
X145496613Y-97293079D01*
X145518557Y-97285227D01*
X145541166Y-97279563D01*
X145564221Y-97276144D01*
X145587500Y-97275000D01*
X146162500Y-97275000D01*
X146185779Y-97276144D01*
X146185779Y-97276144D01*
G37*
D11*
X145875000Y-97750000D03*
D10*
G36*
X144435779Y-97276144D02*
X144458834Y-97279563D01*
X144481443Y-97285227D01*
X144503387Y-97293079D01*
X144524457Y-97303044D01*
X144544448Y-97315026D01*
X144563168Y-97328910D01*
X144580438Y-97344562D01*
X144596090Y-97361832D01*
X144609974Y-97380552D01*
X144621956Y-97400543D01*
X144631921Y-97421613D01*
X144639773Y-97443557D01*
X144645437Y-97466166D01*
X144648856Y-97489221D01*
X144650000Y-97512500D01*
X144650000Y-97987500D01*
X144648856Y-98010779D01*
X144645437Y-98033834D01*
X144639773Y-98056443D01*
X144631921Y-98078387D01*
X144621956Y-98099457D01*
X144609974Y-98119448D01*
X144596090Y-98138168D01*
X144580438Y-98155438D01*
X144563168Y-98171090D01*
X144544448Y-98184974D01*
X144524457Y-98196956D01*
X144503387Y-98206921D01*
X144481443Y-98214773D01*
X144458834Y-98220437D01*
X144435779Y-98223856D01*
X144412500Y-98225000D01*
X143837500Y-98225000D01*
X143814221Y-98223856D01*
X143791166Y-98220437D01*
X143768557Y-98214773D01*
X143746613Y-98206921D01*
X143725543Y-98196956D01*
X143705552Y-98184974D01*
X143686832Y-98171090D01*
X143669562Y-98155438D01*
X143653910Y-98138168D01*
X143640026Y-98119448D01*
X143628044Y-98099457D01*
X143618079Y-98078387D01*
X143610227Y-98056443D01*
X143604563Y-98033834D01*
X143601144Y-98010779D01*
X143600000Y-97987500D01*
X143600000Y-97512500D01*
X143601144Y-97489221D01*
X143604563Y-97466166D01*
X143610227Y-97443557D01*
X143618079Y-97421613D01*
X143628044Y-97400543D01*
X143640026Y-97380552D01*
X143653910Y-97361832D01*
X143669562Y-97344562D01*
X143686832Y-97328910D01*
X143705552Y-97315026D01*
X143725543Y-97303044D01*
X143746613Y-97293079D01*
X143768557Y-97285227D01*
X143791166Y-97279563D01*
X143814221Y-97276144D01*
X143837500Y-97275000D01*
X144412500Y-97275000D01*
X144435779Y-97276144D01*
X144435779Y-97276144D01*
G37*
D11*
X144125000Y-97750000D03*
G04 #@! TD*
D10*
G04 #@! TO.C,R6*
G36*
X143435779Y-73276144D02*
X143458834Y-73279563D01*
X143481443Y-73285227D01*
X143503387Y-73293079D01*
X143524457Y-73303044D01*
X143544448Y-73315026D01*
X143563168Y-73328910D01*
X143580438Y-73344562D01*
X143596090Y-73361832D01*
X143609974Y-73380552D01*
X143621956Y-73400543D01*
X143631921Y-73421613D01*
X143639773Y-73443557D01*
X143645437Y-73466166D01*
X143648856Y-73489221D01*
X143650000Y-73512500D01*
X143650000Y-73987500D01*
X143648856Y-74010779D01*
X143645437Y-74033834D01*
X143639773Y-74056443D01*
X143631921Y-74078387D01*
X143621956Y-74099457D01*
X143609974Y-74119448D01*
X143596090Y-74138168D01*
X143580438Y-74155438D01*
X143563168Y-74171090D01*
X143544448Y-74184974D01*
X143524457Y-74196956D01*
X143503387Y-74206921D01*
X143481443Y-74214773D01*
X143458834Y-74220437D01*
X143435779Y-74223856D01*
X143412500Y-74225000D01*
X142837500Y-74225000D01*
X142814221Y-74223856D01*
X142791166Y-74220437D01*
X142768557Y-74214773D01*
X142746613Y-74206921D01*
X142725543Y-74196956D01*
X142705552Y-74184974D01*
X142686832Y-74171090D01*
X142669562Y-74155438D01*
X142653910Y-74138168D01*
X142640026Y-74119448D01*
X142628044Y-74099457D01*
X142618079Y-74078387D01*
X142610227Y-74056443D01*
X142604563Y-74033834D01*
X142601144Y-74010779D01*
X142600000Y-73987500D01*
X142600000Y-73512500D01*
X142601144Y-73489221D01*
X142604563Y-73466166D01*
X142610227Y-73443557D01*
X142618079Y-73421613D01*
X142628044Y-73400543D01*
X142640026Y-73380552D01*
X142653910Y-73361832D01*
X142669562Y-73344562D01*
X142686832Y-73328910D01*
X142705552Y-73315026D01*
X142725543Y-73303044D01*
X142746613Y-73293079D01*
X142768557Y-73285227D01*
X142791166Y-73279563D01*
X142814221Y-73276144D01*
X142837500Y-73275000D01*
X143412500Y-73275000D01*
X143435779Y-73276144D01*
X143435779Y-73276144D01*
G37*
D11*
X143125000Y-73750000D03*
D10*
G36*
X145185779Y-73276144D02*
X145208834Y-73279563D01*
X145231443Y-73285227D01*
X145253387Y-73293079D01*
X145274457Y-73303044D01*
X145294448Y-73315026D01*
X145313168Y-73328910D01*
X145330438Y-73344562D01*
X145346090Y-73361832D01*
X145359974Y-73380552D01*
X145371956Y-73400543D01*
X145381921Y-73421613D01*
X145389773Y-73443557D01*
X145395437Y-73466166D01*
X145398856Y-73489221D01*
X145400000Y-73512500D01*
X145400000Y-73987500D01*
X145398856Y-74010779D01*
X145395437Y-74033834D01*
X145389773Y-74056443D01*
X145381921Y-74078387D01*
X145371956Y-74099457D01*
X145359974Y-74119448D01*
X145346090Y-74138168D01*
X145330438Y-74155438D01*
X145313168Y-74171090D01*
X145294448Y-74184974D01*
X145274457Y-74196956D01*
X145253387Y-74206921D01*
X145231443Y-74214773D01*
X145208834Y-74220437D01*
X145185779Y-74223856D01*
X145162500Y-74225000D01*
X144587500Y-74225000D01*
X144564221Y-74223856D01*
X144541166Y-74220437D01*
X144518557Y-74214773D01*
X144496613Y-74206921D01*
X144475543Y-74196956D01*
X144455552Y-74184974D01*
X144436832Y-74171090D01*
X144419562Y-74155438D01*
X144403910Y-74138168D01*
X144390026Y-74119448D01*
X144378044Y-74099457D01*
X144368079Y-74078387D01*
X144360227Y-74056443D01*
X144354563Y-74033834D01*
X144351144Y-74010779D01*
X144350000Y-73987500D01*
X144350000Y-73512500D01*
X144351144Y-73489221D01*
X144354563Y-73466166D01*
X144360227Y-73443557D01*
X144368079Y-73421613D01*
X144378044Y-73400543D01*
X144390026Y-73380552D01*
X144403910Y-73361832D01*
X144419562Y-73344562D01*
X144436832Y-73328910D01*
X144455552Y-73315026D01*
X144475543Y-73303044D01*
X144496613Y-73293079D01*
X144518557Y-73285227D01*
X144541166Y-73279563D01*
X144564221Y-73276144D01*
X144587500Y-73275000D01*
X145162500Y-73275000D01*
X145185779Y-73276144D01*
X145185779Y-73276144D01*
G37*
D11*
X144875000Y-73750000D03*
G04 #@! TD*
D10*
G04 #@! TO.C,R7*
G36*
X143685779Y-47026144D02*
X143708834Y-47029563D01*
X143731443Y-47035227D01*
X143753387Y-47043079D01*
X143774457Y-47053044D01*
X143794448Y-47065026D01*
X143813168Y-47078910D01*
X143830438Y-47094562D01*
X143846090Y-47111832D01*
X143859974Y-47130552D01*
X143871956Y-47150543D01*
X143881921Y-47171613D01*
X143889773Y-47193557D01*
X143895437Y-47216166D01*
X143898856Y-47239221D01*
X143900000Y-47262500D01*
X143900000Y-47737500D01*
X143898856Y-47760779D01*
X143895437Y-47783834D01*
X143889773Y-47806443D01*
X143881921Y-47828387D01*
X143871956Y-47849457D01*
X143859974Y-47869448D01*
X143846090Y-47888168D01*
X143830438Y-47905438D01*
X143813168Y-47921090D01*
X143794448Y-47934974D01*
X143774457Y-47946956D01*
X143753387Y-47956921D01*
X143731443Y-47964773D01*
X143708834Y-47970437D01*
X143685779Y-47973856D01*
X143662500Y-47975000D01*
X143087500Y-47975000D01*
X143064221Y-47973856D01*
X143041166Y-47970437D01*
X143018557Y-47964773D01*
X142996613Y-47956921D01*
X142975543Y-47946956D01*
X142955552Y-47934974D01*
X142936832Y-47921090D01*
X142919562Y-47905438D01*
X142903910Y-47888168D01*
X142890026Y-47869448D01*
X142878044Y-47849457D01*
X142868079Y-47828387D01*
X142860227Y-47806443D01*
X142854563Y-47783834D01*
X142851144Y-47760779D01*
X142850000Y-47737500D01*
X142850000Y-47262500D01*
X142851144Y-47239221D01*
X142854563Y-47216166D01*
X142860227Y-47193557D01*
X142868079Y-47171613D01*
X142878044Y-47150543D01*
X142890026Y-47130552D01*
X142903910Y-47111832D01*
X142919562Y-47094562D01*
X142936832Y-47078910D01*
X142955552Y-47065026D01*
X142975543Y-47053044D01*
X142996613Y-47043079D01*
X143018557Y-47035227D01*
X143041166Y-47029563D01*
X143064221Y-47026144D01*
X143087500Y-47025000D01*
X143662500Y-47025000D01*
X143685779Y-47026144D01*
X143685779Y-47026144D01*
G37*
D11*
X143375000Y-47500000D03*
D10*
G36*
X145435779Y-47026144D02*
X145458834Y-47029563D01*
X145481443Y-47035227D01*
X145503387Y-47043079D01*
X145524457Y-47053044D01*
X145544448Y-47065026D01*
X145563168Y-47078910D01*
X145580438Y-47094562D01*
X145596090Y-47111832D01*
X145609974Y-47130552D01*
X145621956Y-47150543D01*
X145631921Y-47171613D01*
X145639773Y-47193557D01*
X145645437Y-47216166D01*
X145648856Y-47239221D01*
X145650000Y-47262500D01*
X145650000Y-47737500D01*
X145648856Y-47760779D01*
X145645437Y-47783834D01*
X145639773Y-47806443D01*
X145631921Y-47828387D01*
X145621956Y-47849457D01*
X145609974Y-47869448D01*
X145596090Y-47888168D01*
X145580438Y-47905438D01*
X145563168Y-47921090D01*
X145544448Y-47934974D01*
X145524457Y-47946956D01*
X145503387Y-47956921D01*
X145481443Y-47964773D01*
X145458834Y-47970437D01*
X145435779Y-47973856D01*
X145412500Y-47975000D01*
X144837500Y-47975000D01*
X144814221Y-47973856D01*
X144791166Y-47970437D01*
X144768557Y-47964773D01*
X144746613Y-47956921D01*
X144725543Y-47946956D01*
X144705552Y-47934974D01*
X144686832Y-47921090D01*
X144669562Y-47905438D01*
X144653910Y-47888168D01*
X144640026Y-47869448D01*
X144628044Y-47849457D01*
X144618079Y-47828387D01*
X144610227Y-47806443D01*
X144604563Y-47783834D01*
X144601144Y-47760779D01*
X144600000Y-47737500D01*
X144600000Y-47262500D01*
X144601144Y-47239221D01*
X144604563Y-47216166D01*
X144610227Y-47193557D01*
X144618079Y-47171613D01*
X144628044Y-47150543D01*
X144640026Y-47130552D01*
X144653910Y-47111832D01*
X144669562Y-47094562D01*
X144686832Y-47078910D01*
X144705552Y-47065026D01*
X144725543Y-47053044D01*
X144746613Y-47043079D01*
X144768557Y-47035227D01*
X144791166Y-47029563D01*
X144814221Y-47026144D01*
X144837500Y-47025000D01*
X145412500Y-47025000D01*
X145435779Y-47026144D01*
X145435779Y-47026144D01*
G37*
D11*
X145125000Y-47500000D03*
G04 #@! TD*
D10*
G04 #@! TO.C,R8*
G36*
X143685779Y-48776144D02*
X143708834Y-48779563D01*
X143731443Y-48785227D01*
X143753387Y-48793079D01*
X143774457Y-48803044D01*
X143794448Y-48815026D01*
X143813168Y-48828910D01*
X143830438Y-48844562D01*
X143846090Y-48861832D01*
X143859974Y-48880552D01*
X143871956Y-48900543D01*
X143881921Y-48921613D01*
X143889773Y-48943557D01*
X143895437Y-48966166D01*
X143898856Y-48989221D01*
X143900000Y-49012500D01*
X143900000Y-49487500D01*
X143898856Y-49510779D01*
X143895437Y-49533834D01*
X143889773Y-49556443D01*
X143881921Y-49578387D01*
X143871956Y-49599457D01*
X143859974Y-49619448D01*
X143846090Y-49638168D01*
X143830438Y-49655438D01*
X143813168Y-49671090D01*
X143794448Y-49684974D01*
X143774457Y-49696956D01*
X143753387Y-49706921D01*
X143731443Y-49714773D01*
X143708834Y-49720437D01*
X143685779Y-49723856D01*
X143662500Y-49725000D01*
X143087500Y-49725000D01*
X143064221Y-49723856D01*
X143041166Y-49720437D01*
X143018557Y-49714773D01*
X142996613Y-49706921D01*
X142975543Y-49696956D01*
X142955552Y-49684974D01*
X142936832Y-49671090D01*
X142919562Y-49655438D01*
X142903910Y-49638168D01*
X142890026Y-49619448D01*
X142878044Y-49599457D01*
X142868079Y-49578387D01*
X142860227Y-49556443D01*
X142854563Y-49533834D01*
X142851144Y-49510779D01*
X142850000Y-49487500D01*
X142850000Y-49012500D01*
X142851144Y-48989221D01*
X142854563Y-48966166D01*
X142860227Y-48943557D01*
X142868079Y-48921613D01*
X142878044Y-48900543D01*
X142890026Y-48880552D01*
X142903910Y-48861832D01*
X142919562Y-48844562D01*
X142936832Y-48828910D01*
X142955552Y-48815026D01*
X142975543Y-48803044D01*
X142996613Y-48793079D01*
X143018557Y-48785227D01*
X143041166Y-48779563D01*
X143064221Y-48776144D01*
X143087500Y-48775000D01*
X143662500Y-48775000D01*
X143685779Y-48776144D01*
X143685779Y-48776144D01*
G37*
D11*
X143375000Y-49250000D03*
D10*
G36*
X145435779Y-48776144D02*
X145458834Y-48779563D01*
X145481443Y-48785227D01*
X145503387Y-48793079D01*
X145524457Y-48803044D01*
X145544448Y-48815026D01*
X145563168Y-48828910D01*
X145580438Y-48844562D01*
X145596090Y-48861832D01*
X145609974Y-48880552D01*
X145621956Y-48900543D01*
X145631921Y-48921613D01*
X145639773Y-48943557D01*
X145645437Y-48966166D01*
X145648856Y-48989221D01*
X145650000Y-49012500D01*
X145650000Y-49487500D01*
X145648856Y-49510779D01*
X145645437Y-49533834D01*
X145639773Y-49556443D01*
X145631921Y-49578387D01*
X145621956Y-49599457D01*
X145609974Y-49619448D01*
X145596090Y-49638168D01*
X145580438Y-49655438D01*
X145563168Y-49671090D01*
X145544448Y-49684974D01*
X145524457Y-49696956D01*
X145503387Y-49706921D01*
X145481443Y-49714773D01*
X145458834Y-49720437D01*
X145435779Y-49723856D01*
X145412500Y-49725000D01*
X144837500Y-49725000D01*
X144814221Y-49723856D01*
X144791166Y-49720437D01*
X144768557Y-49714773D01*
X144746613Y-49706921D01*
X144725543Y-49696956D01*
X144705552Y-49684974D01*
X144686832Y-49671090D01*
X144669562Y-49655438D01*
X144653910Y-49638168D01*
X144640026Y-49619448D01*
X144628044Y-49599457D01*
X144618079Y-49578387D01*
X144610227Y-49556443D01*
X144604563Y-49533834D01*
X144601144Y-49510779D01*
X144600000Y-49487500D01*
X144600000Y-49012500D01*
X144601144Y-48989221D01*
X144604563Y-48966166D01*
X144610227Y-48943557D01*
X144618079Y-48921613D01*
X144628044Y-48900543D01*
X144640026Y-48880552D01*
X144653910Y-48861832D01*
X144669562Y-48844562D01*
X144686832Y-48828910D01*
X144705552Y-48815026D01*
X144725543Y-48803044D01*
X144746613Y-48793079D01*
X144768557Y-48785227D01*
X144791166Y-48779563D01*
X144814221Y-48776144D01*
X144837500Y-48775000D01*
X145412500Y-48775000D01*
X145435779Y-48776144D01*
X145435779Y-48776144D01*
G37*
D11*
X145125000Y-49250000D03*
G04 #@! TD*
D10*
G04 #@! TO.C,R9*
G36*
X143435779Y-69776144D02*
X143458834Y-69779563D01*
X143481443Y-69785227D01*
X143503387Y-69793079D01*
X143524457Y-69803044D01*
X143544448Y-69815026D01*
X143563168Y-69828910D01*
X143580438Y-69844562D01*
X143596090Y-69861832D01*
X143609974Y-69880552D01*
X143621956Y-69900543D01*
X143631921Y-69921613D01*
X143639773Y-69943557D01*
X143645437Y-69966166D01*
X143648856Y-69989221D01*
X143650000Y-70012500D01*
X143650000Y-70487500D01*
X143648856Y-70510779D01*
X143645437Y-70533834D01*
X143639773Y-70556443D01*
X143631921Y-70578387D01*
X143621956Y-70599457D01*
X143609974Y-70619448D01*
X143596090Y-70638168D01*
X143580438Y-70655438D01*
X143563168Y-70671090D01*
X143544448Y-70684974D01*
X143524457Y-70696956D01*
X143503387Y-70706921D01*
X143481443Y-70714773D01*
X143458834Y-70720437D01*
X143435779Y-70723856D01*
X143412500Y-70725000D01*
X142837500Y-70725000D01*
X142814221Y-70723856D01*
X142791166Y-70720437D01*
X142768557Y-70714773D01*
X142746613Y-70706921D01*
X142725543Y-70696956D01*
X142705552Y-70684974D01*
X142686832Y-70671090D01*
X142669562Y-70655438D01*
X142653910Y-70638168D01*
X142640026Y-70619448D01*
X142628044Y-70599457D01*
X142618079Y-70578387D01*
X142610227Y-70556443D01*
X142604563Y-70533834D01*
X142601144Y-70510779D01*
X142600000Y-70487500D01*
X142600000Y-70012500D01*
X142601144Y-69989221D01*
X142604563Y-69966166D01*
X142610227Y-69943557D01*
X142618079Y-69921613D01*
X142628044Y-69900543D01*
X142640026Y-69880552D01*
X142653910Y-69861832D01*
X142669562Y-69844562D01*
X142686832Y-69828910D01*
X142705552Y-69815026D01*
X142725543Y-69803044D01*
X142746613Y-69793079D01*
X142768557Y-69785227D01*
X142791166Y-69779563D01*
X142814221Y-69776144D01*
X142837500Y-69775000D01*
X143412500Y-69775000D01*
X143435779Y-69776144D01*
X143435779Y-69776144D01*
G37*
D11*
X143125000Y-70250000D03*
D10*
G36*
X145185779Y-69776144D02*
X145208834Y-69779563D01*
X145231443Y-69785227D01*
X145253387Y-69793079D01*
X145274457Y-69803044D01*
X145294448Y-69815026D01*
X145313168Y-69828910D01*
X145330438Y-69844562D01*
X145346090Y-69861832D01*
X145359974Y-69880552D01*
X145371956Y-69900543D01*
X145381921Y-69921613D01*
X145389773Y-69943557D01*
X145395437Y-69966166D01*
X145398856Y-69989221D01*
X145400000Y-70012500D01*
X145400000Y-70487500D01*
X145398856Y-70510779D01*
X145395437Y-70533834D01*
X145389773Y-70556443D01*
X145381921Y-70578387D01*
X145371956Y-70599457D01*
X145359974Y-70619448D01*
X145346090Y-70638168D01*
X145330438Y-70655438D01*
X145313168Y-70671090D01*
X145294448Y-70684974D01*
X145274457Y-70696956D01*
X145253387Y-70706921D01*
X145231443Y-70714773D01*
X145208834Y-70720437D01*
X145185779Y-70723856D01*
X145162500Y-70725000D01*
X144587500Y-70725000D01*
X144564221Y-70723856D01*
X144541166Y-70720437D01*
X144518557Y-70714773D01*
X144496613Y-70706921D01*
X144475543Y-70696956D01*
X144455552Y-70684974D01*
X144436832Y-70671090D01*
X144419562Y-70655438D01*
X144403910Y-70638168D01*
X144390026Y-70619448D01*
X144378044Y-70599457D01*
X144368079Y-70578387D01*
X144360227Y-70556443D01*
X144354563Y-70533834D01*
X144351144Y-70510779D01*
X144350000Y-70487500D01*
X144350000Y-70012500D01*
X144351144Y-69989221D01*
X144354563Y-69966166D01*
X144360227Y-69943557D01*
X144368079Y-69921613D01*
X144378044Y-69900543D01*
X144390026Y-69880552D01*
X144403910Y-69861832D01*
X144419562Y-69844562D01*
X144436832Y-69828910D01*
X144455552Y-69815026D01*
X144475543Y-69803044D01*
X144496613Y-69793079D01*
X144518557Y-69785227D01*
X144541166Y-69779563D01*
X144564221Y-69776144D01*
X144587500Y-69775000D01*
X145162500Y-69775000D01*
X145185779Y-69776144D01*
X145185779Y-69776144D01*
G37*
D11*
X144875000Y-70250000D03*
G04 #@! TD*
D10*
G04 #@! TO.C,R10*
G36*
X143435779Y-71526144D02*
X143458834Y-71529563D01*
X143481443Y-71535227D01*
X143503387Y-71543079D01*
X143524457Y-71553044D01*
X143544448Y-71565026D01*
X143563168Y-71578910D01*
X143580438Y-71594562D01*
X143596090Y-71611832D01*
X143609974Y-71630552D01*
X143621956Y-71650543D01*
X143631921Y-71671613D01*
X143639773Y-71693557D01*
X143645437Y-71716166D01*
X143648856Y-71739221D01*
X143650000Y-71762500D01*
X143650000Y-72237500D01*
X143648856Y-72260779D01*
X143645437Y-72283834D01*
X143639773Y-72306443D01*
X143631921Y-72328387D01*
X143621956Y-72349457D01*
X143609974Y-72369448D01*
X143596090Y-72388168D01*
X143580438Y-72405438D01*
X143563168Y-72421090D01*
X143544448Y-72434974D01*
X143524457Y-72446956D01*
X143503387Y-72456921D01*
X143481443Y-72464773D01*
X143458834Y-72470437D01*
X143435779Y-72473856D01*
X143412500Y-72475000D01*
X142837500Y-72475000D01*
X142814221Y-72473856D01*
X142791166Y-72470437D01*
X142768557Y-72464773D01*
X142746613Y-72456921D01*
X142725543Y-72446956D01*
X142705552Y-72434974D01*
X142686832Y-72421090D01*
X142669562Y-72405438D01*
X142653910Y-72388168D01*
X142640026Y-72369448D01*
X142628044Y-72349457D01*
X142618079Y-72328387D01*
X142610227Y-72306443D01*
X142604563Y-72283834D01*
X142601144Y-72260779D01*
X142600000Y-72237500D01*
X142600000Y-71762500D01*
X142601144Y-71739221D01*
X142604563Y-71716166D01*
X142610227Y-71693557D01*
X142618079Y-71671613D01*
X142628044Y-71650543D01*
X142640026Y-71630552D01*
X142653910Y-71611832D01*
X142669562Y-71594562D01*
X142686832Y-71578910D01*
X142705552Y-71565026D01*
X142725543Y-71553044D01*
X142746613Y-71543079D01*
X142768557Y-71535227D01*
X142791166Y-71529563D01*
X142814221Y-71526144D01*
X142837500Y-71525000D01*
X143412500Y-71525000D01*
X143435779Y-71526144D01*
X143435779Y-71526144D01*
G37*
D11*
X143125000Y-72000000D03*
D10*
G36*
X145185779Y-71526144D02*
X145208834Y-71529563D01*
X145231443Y-71535227D01*
X145253387Y-71543079D01*
X145274457Y-71553044D01*
X145294448Y-71565026D01*
X145313168Y-71578910D01*
X145330438Y-71594562D01*
X145346090Y-71611832D01*
X145359974Y-71630552D01*
X145371956Y-71650543D01*
X145381921Y-71671613D01*
X145389773Y-71693557D01*
X145395437Y-71716166D01*
X145398856Y-71739221D01*
X145400000Y-71762500D01*
X145400000Y-72237500D01*
X145398856Y-72260779D01*
X145395437Y-72283834D01*
X145389773Y-72306443D01*
X145381921Y-72328387D01*
X145371956Y-72349457D01*
X145359974Y-72369448D01*
X145346090Y-72388168D01*
X145330438Y-72405438D01*
X145313168Y-72421090D01*
X145294448Y-72434974D01*
X145274457Y-72446956D01*
X145253387Y-72456921D01*
X145231443Y-72464773D01*
X145208834Y-72470437D01*
X145185779Y-72473856D01*
X145162500Y-72475000D01*
X144587500Y-72475000D01*
X144564221Y-72473856D01*
X144541166Y-72470437D01*
X144518557Y-72464773D01*
X144496613Y-72456921D01*
X144475543Y-72446956D01*
X144455552Y-72434974D01*
X144436832Y-72421090D01*
X144419562Y-72405438D01*
X144403910Y-72388168D01*
X144390026Y-72369448D01*
X144378044Y-72349457D01*
X144368079Y-72328387D01*
X144360227Y-72306443D01*
X144354563Y-72283834D01*
X144351144Y-72260779D01*
X144350000Y-72237500D01*
X144350000Y-71762500D01*
X144351144Y-71739221D01*
X144354563Y-71716166D01*
X144360227Y-71693557D01*
X144368079Y-71671613D01*
X144378044Y-71650543D01*
X144390026Y-71630552D01*
X144403910Y-71611832D01*
X144419562Y-71594562D01*
X144436832Y-71578910D01*
X144455552Y-71565026D01*
X144475543Y-71553044D01*
X144496613Y-71543079D01*
X144518557Y-71535227D01*
X144541166Y-71529563D01*
X144564221Y-71526144D01*
X144587500Y-71525000D01*
X145162500Y-71525000D01*
X145185779Y-71526144D01*
X145185779Y-71526144D01*
G37*
D11*
X144875000Y-72000000D03*
G04 #@! TD*
D10*
G04 #@! TO.C,R11*
G36*
X146185779Y-93776144D02*
X146208834Y-93779563D01*
X146231443Y-93785227D01*
X146253387Y-93793079D01*
X146274457Y-93803044D01*
X146294448Y-93815026D01*
X146313168Y-93828910D01*
X146330438Y-93844562D01*
X146346090Y-93861832D01*
X146359974Y-93880552D01*
X146371956Y-93900543D01*
X146381921Y-93921613D01*
X146389773Y-93943557D01*
X146395437Y-93966166D01*
X146398856Y-93989221D01*
X146400000Y-94012500D01*
X146400000Y-94487500D01*
X146398856Y-94510779D01*
X146395437Y-94533834D01*
X146389773Y-94556443D01*
X146381921Y-94578387D01*
X146371956Y-94599457D01*
X146359974Y-94619448D01*
X146346090Y-94638168D01*
X146330438Y-94655438D01*
X146313168Y-94671090D01*
X146294448Y-94684974D01*
X146274457Y-94696956D01*
X146253387Y-94706921D01*
X146231443Y-94714773D01*
X146208834Y-94720437D01*
X146185779Y-94723856D01*
X146162500Y-94725000D01*
X145587500Y-94725000D01*
X145564221Y-94723856D01*
X145541166Y-94720437D01*
X145518557Y-94714773D01*
X145496613Y-94706921D01*
X145475543Y-94696956D01*
X145455552Y-94684974D01*
X145436832Y-94671090D01*
X145419562Y-94655438D01*
X145403910Y-94638168D01*
X145390026Y-94619448D01*
X145378044Y-94599457D01*
X145368079Y-94578387D01*
X145360227Y-94556443D01*
X145354563Y-94533834D01*
X145351144Y-94510779D01*
X145350000Y-94487500D01*
X145350000Y-94012500D01*
X145351144Y-93989221D01*
X145354563Y-93966166D01*
X145360227Y-93943557D01*
X145368079Y-93921613D01*
X145378044Y-93900543D01*
X145390026Y-93880552D01*
X145403910Y-93861832D01*
X145419562Y-93844562D01*
X145436832Y-93828910D01*
X145455552Y-93815026D01*
X145475543Y-93803044D01*
X145496613Y-93793079D01*
X145518557Y-93785227D01*
X145541166Y-93779563D01*
X145564221Y-93776144D01*
X145587500Y-93775000D01*
X146162500Y-93775000D01*
X146185779Y-93776144D01*
X146185779Y-93776144D01*
G37*
D11*
X145875000Y-94250000D03*
D10*
G36*
X144435779Y-93776144D02*
X144458834Y-93779563D01*
X144481443Y-93785227D01*
X144503387Y-93793079D01*
X144524457Y-93803044D01*
X144544448Y-93815026D01*
X144563168Y-93828910D01*
X144580438Y-93844562D01*
X144596090Y-93861832D01*
X144609974Y-93880552D01*
X144621956Y-93900543D01*
X144631921Y-93921613D01*
X144639773Y-93943557D01*
X144645437Y-93966166D01*
X144648856Y-93989221D01*
X144650000Y-94012500D01*
X144650000Y-94487500D01*
X144648856Y-94510779D01*
X144645437Y-94533834D01*
X144639773Y-94556443D01*
X144631921Y-94578387D01*
X144621956Y-94599457D01*
X144609974Y-94619448D01*
X144596090Y-94638168D01*
X144580438Y-94655438D01*
X144563168Y-94671090D01*
X144544448Y-94684974D01*
X144524457Y-94696956D01*
X144503387Y-94706921D01*
X144481443Y-94714773D01*
X144458834Y-94720437D01*
X144435779Y-94723856D01*
X144412500Y-94725000D01*
X143837500Y-94725000D01*
X143814221Y-94723856D01*
X143791166Y-94720437D01*
X143768557Y-94714773D01*
X143746613Y-94706921D01*
X143725543Y-94696956D01*
X143705552Y-94684974D01*
X143686832Y-94671090D01*
X143669562Y-94655438D01*
X143653910Y-94638168D01*
X143640026Y-94619448D01*
X143628044Y-94599457D01*
X143618079Y-94578387D01*
X143610227Y-94556443D01*
X143604563Y-94533834D01*
X143601144Y-94510779D01*
X143600000Y-94487500D01*
X143600000Y-94012500D01*
X143601144Y-93989221D01*
X143604563Y-93966166D01*
X143610227Y-93943557D01*
X143618079Y-93921613D01*
X143628044Y-93900543D01*
X143640026Y-93880552D01*
X143653910Y-93861832D01*
X143669562Y-93844562D01*
X143686832Y-93828910D01*
X143705552Y-93815026D01*
X143725543Y-93803044D01*
X143746613Y-93793079D01*
X143768557Y-93785227D01*
X143791166Y-93779563D01*
X143814221Y-93776144D01*
X143837500Y-93775000D01*
X144412500Y-93775000D01*
X144435779Y-93776144D01*
X144435779Y-93776144D01*
G37*
D11*
X144125000Y-94250000D03*
G04 #@! TD*
D10*
G04 #@! TO.C,R12*
G36*
X144435779Y-95526144D02*
X144458834Y-95529563D01*
X144481443Y-95535227D01*
X144503387Y-95543079D01*
X144524457Y-95553044D01*
X144544448Y-95565026D01*
X144563168Y-95578910D01*
X144580438Y-95594562D01*
X144596090Y-95611832D01*
X144609974Y-95630552D01*
X144621956Y-95650543D01*
X144631921Y-95671613D01*
X144639773Y-95693557D01*
X144645437Y-95716166D01*
X144648856Y-95739221D01*
X144650000Y-95762500D01*
X144650000Y-96237500D01*
X144648856Y-96260779D01*
X144645437Y-96283834D01*
X144639773Y-96306443D01*
X144631921Y-96328387D01*
X144621956Y-96349457D01*
X144609974Y-96369448D01*
X144596090Y-96388168D01*
X144580438Y-96405438D01*
X144563168Y-96421090D01*
X144544448Y-96434974D01*
X144524457Y-96446956D01*
X144503387Y-96456921D01*
X144481443Y-96464773D01*
X144458834Y-96470437D01*
X144435779Y-96473856D01*
X144412500Y-96475000D01*
X143837500Y-96475000D01*
X143814221Y-96473856D01*
X143791166Y-96470437D01*
X143768557Y-96464773D01*
X143746613Y-96456921D01*
X143725543Y-96446956D01*
X143705552Y-96434974D01*
X143686832Y-96421090D01*
X143669562Y-96405438D01*
X143653910Y-96388168D01*
X143640026Y-96369448D01*
X143628044Y-96349457D01*
X143618079Y-96328387D01*
X143610227Y-96306443D01*
X143604563Y-96283834D01*
X143601144Y-96260779D01*
X143600000Y-96237500D01*
X143600000Y-95762500D01*
X143601144Y-95739221D01*
X143604563Y-95716166D01*
X143610227Y-95693557D01*
X143618079Y-95671613D01*
X143628044Y-95650543D01*
X143640026Y-95630552D01*
X143653910Y-95611832D01*
X143669562Y-95594562D01*
X143686832Y-95578910D01*
X143705552Y-95565026D01*
X143725543Y-95553044D01*
X143746613Y-95543079D01*
X143768557Y-95535227D01*
X143791166Y-95529563D01*
X143814221Y-95526144D01*
X143837500Y-95525000D01*
X144412500Y-95525000D01*
X144435779Y-95526144D01*
X144435779Y-95526144D01*
G37*
D11*
X144125000Y-96000000D03*
D10*
G36*
X146185779Y-95526144D02*
X146208834Y-95529563D01*
X146231443Y-95535227D01*
X146253387Y-95543079D01*
X146274457Y-95553044D01*
X146294448Y-95565026D01*
X146313168Y-95578910D01*
X146330438Y-95594562D01*
X146346090Y-95611832D01*
X146359974Y-95630552D01*
X146371956Y-95650543D01*
X146381921Y-95671613D01*
X146389773Y-95693557D01*
X146395437Y-95716166D01*
X146398856Y-95739221D01*
X146400000Y-95762500D01*
X146400000Y-96237500D01*
X146398856Y-96260779D01*
X146395437Y-96283834D01*
X146389773Y-96306443D01*
X146381921Y-96328387D01*
X146371956Y-96349457D01*
X146359974Y-96369448D01*
X146346090Y-96388168D01*
X146330438Y-96405438D01*
X146313168Y-96421090D01*
X146294448Y-96434974D01*
X146274457Y-96446956D01*
X146253387Y-96456921D01*
X146231443Y-96464773D01*
X146208834Y-96470437D01*
X146185779Y-96473856D01*
X146162500Y-96475000D01*
X145587500Y-96475000D01*
X145564221Y-96473856D01*
X145541166Y-96470437D01*
X145518557Y-96464773D01*
X145496613Y-96456921D01*
X145475543Y-96446956D01*
X145455552Y-96434974D01*
X145436832Y-96421090D01*
X145419562Y-96405438D01*
X145403910Y-96388168D01*
X145390026Y-96369448D01*
X145378044Y-96349457D01*
X145368079Y-96328387D01*
X145360227Y-96306443D01*
X145354563Y-96283834D01*
X145351144Y-96260779D01*
X145350000Y-96237500D01*
X145350000Y-95762500D01*
X145351144Y-95739221D01*
X145354563Y-95716166D01*
X145360227Y-95693557D01*
X145368079Y-95671613D01*
X145378044Y-95650543D01*
X145390026Y-95630552D01*
X145403910Y-95611832D01*
X145419562Y-95594562D01*
X145436832Y-95578910D01*
X145455552Y-95565026D01*
X145475543Y-95553044D01*
X145496613Y-95543079D01*
X145518557Y-95535227D01*
X145541166Y-95529563D01*
X145564221Y-95526144D01*
X145587500Y-95525000D01*
X146162500Y-95525000D01*
X146185779Y-95526144D01*
X146185779Y-95526144D01*
G37*
D11*
X145875000Y-96000000D03*
G04 #@! TD*
D13*
G04 #@! TO.C,U1*
X150725000Y-47475000D03*
X150725000Y-48125000D03*
X150725000Y-48775000D03*
X150725000Y-49425000D03*
X150725000Y-50075000D03*
X150725000Y-50725000D03*
X150725000Y-51375000D03*
X150725000Y-52025000D03*
X156275000Y-52025000D03*
X156275000Y-51375000D03*
X156275000Y-50725000D03*
X156275000Y-50075000D03*
X156275000Y-49425000D03*
X156275000Y-48775000D03*
X156275000Y-48125000D03*
X156275000Y-47475000D03*
D14*
X152366600Y-47875000D03*
X153500000Y-47875000D03*
X154633400Y-47875000D03*
X154633400Y-49125000D03*
X153500000Y-49125000D03*
X152366600Y-49125000D03*
X154633400Y-50375000D03*
X153500000Y-50375000D03*
X152366600Y-50375000D03*
X154633400Y-51625000D03*
X153500000Y-51625000D03*
X152366600Y-51625000D03*
G04 #@! TD*
D13*
G04 #@! TO.C,U2*
X150750000Y-94500000D03*
X150750000Y-95150000D03*
X150750000Y-95800000D03*
X150750000Y-96450000D03*
X150750000Y-97100000D03*
X150750000Y-97750000D03*
X150750000Y-98400000D03*
X150750000Y-99050000D03*
X156300000Y-99050000D03*
X156300000Y-98400000D03*
X156300000Y-97750000D03*
X156300000Y-97100000D03*
X156300000Y-96450000D03*
X156300000Y-95800000D03*
X156300000Y-95150000D03*
X156300000Y-94500000D03*
D14*
X152391600Y-94900000D03*
X153525000Y-94900000D03*
X154658400Y-94900000D03*
X154658400Y-96150000D03*
X153525000Y-96150000D03*
X152391600Y-96150000D03*
X154658400Y-97400000D03*
X153525000Y-97400000D03*
X152391600Y-97400000D03*
X154658400Y-98650000D03*
X153525000Y-98650000D03*
X152391600Y-98650000D03*
G04 #@! TD*
G04 #@! TO.C,U3*
X152483200Y-74500000D03*
X153616600Y-74500000D03*
X154750000Y-74500000D03*
X152483200Y-73250000D03*
X153616600Y-73250000D03*
X154750000Y-73250000D03*
X152483200Y-72000000D03*
X153616600Y-72000000D03*
X154750000Y-72000000D03*
X154750000Y-70750000D03*
X153616600Y-70750000D03*
X152483200Y-70750000D03*
D13*
X156391600Y-70350000D03*
X156391600Y-71000000D03*
X156391600Y-71650000D03*
X156391600Y-72300000D03*
X156391600Y-72950000D03*
X156391600Y-73600000D03*
X156391600Y-74250000D03*
X156391600Y-74900000D03*
X150841600Y-74900000D03*
X150841600Y-74250000D03*
X150841600Y-73600000D03*
X150841600Y-72950000D03*
X150841600Y-72300000D03*
X150841600Y-71650000D03*
X150841600Y-71000000D03*
X150841600Y-70350000D03*
G04 #@! TD*
D10*
G04 #@! TO.C,C19*
G36*
X143685779Y-45276144D02*
X143708834Y-45279563D01*
X143731443Y-45285227D01*
X143753387Y-45293079D01*
X143774457Y-45303044D01*
X143794448Y-45315026D01*
X143813168Y-45328910D01*
X143830438Y-45344562D01*
X143846090Y-45361832D01*
X143859974Y-45380552D01*
X143871956Y-45400543D01*
X143881921Y-45421613D01*
X143889773Y-45443557D01*
X143895437Y-45466166D01*
X143898856Y-45489221D01*
X143900000Y-45512500D01*
X143900000Y-45987500D01*
X143898856Y-46010779D01*
X143895437Y-46033834D01*
X143889773Y-46056443D01*
X143881921Y-46078387D01*
X143871956Y-46099457D01*
X143859974Y-46119448D01*
X143846090Y-46138168D01*
X143830438Y-46155438D01*
X143813168Y-46171090D01*
X143794448Y-46184974D01*
X143774457Y-46196956D01*
X143753387Y-46206921D01*
X143731443Y-46214773D01*
X143708834Y-46220437D01*
X143685779Y-46223856D01*
X143662500Y-46225000D01*
X143087500Y-46225000D01*
X143064221Y-46223856D01*
X143041166Y-46220437D01*
X143018557Y-46214773D01*
X142996613Y-46206921D01*
X142975543Y-46196956D01*
X142955552Y-46184974D01*
X142936832Y-46171090D01*
X142919562Y-46155438D01*
X142903910Y-46138168D01*
X142890026Y-46119448D01*
X142878044Y-46099457D01*
X142868079Y-46078387D01*
X142860227Y-46056443D01*
X142854563Y-46033834D01*
X142851144Y-46010779D01*
X142850000Y-45987500D01*
X142850000Y-45512500D01*
X142851144Y-45489221D01*
X142854563Y-45466166D01*
X142860227Y-45443557D01*
X142868079Y-45421613D01*
X142878044Y-45400543D01*
X142890026Y-45380552D01*
X142903910Y-45361832D01*
X142919562Y-45344562D01*
X142936832Y-45328910D01*
X142955552Y-45315026D01*
X142975543Y-45303044D01*
X142996613Y-45293079D01*
X143018557Y-45285227D01*
X143041166Y-45279563D01*
X143064221Y-45276144D01*
X143087500Y-45275000D01*
X143662500Y-45275000D01*
X143685779Y-45276144D01*
X143685779Y-45276144D01*
G37*
D11*
X143375000Y-45750000D03*
D10*
G36*
X145435779Y-45276144D02*
X145458834Y-45279563D01*
X145481443Y-45285227D01*
X145503387Y-45293079D01*
X145524457Y-45303044D01*
X145544448Y-45315026D01*
X145563168Y-45328910D01*
X145580438Y-45344562D01*
X145596090Y-45361832D01*
X145609974Y-45380552D01*
X145621956Y-45400543D01*
X145631921Y-45421613D01*
X145639773Y-45443557D01*
X145645437Y-45466166D01*
X145648856Y-45489221D01*
X145650000Y-45512500D01*
X145650000Y-45987500D01*
X145648856Y-46010779D01*
X145645437Y-46033834D01*
X145639773Y-46056443D01*
X145631921Y-46078387D01*
X145621956Y-46099457D01*
X145609974Y-46119448D01*
X145596090Y-46138168D01*
X145580438Y-46155438D01*
X145563168Y-46171090D01*
X145544448Y-46184974D01*
X145524457Y-46196956D01*
X145503387Y-46206921D01*
X145481443Y-46214773D01*
X145458834Y-46220437D01*
X145435779Y-46223856D01*
X145412500Y-46225000D01*
X144837500Y-46225000D01*
X144814221Y-46223856D01*
X144791166Y-46220437D01*
X144768557Y-46214773D01*
X144746613Y-46206921D01*
X144725543Y-46196956D01*
X144705552Y-46184974D01*
X144686832Y-46171090D01*
X144669562Y-46155438D01*
X144653910Y-46138168D01*
X144640026Y-46119448D01*
X144628044Y-46099457D01*
X144618079Y-46078387D01*
X144610227Y-46056443D01*
X144604563Y-46033834D01*
X144601144Y-46010779D01*
X144600000Y-45987500D01*
X144600000Y-45512500D01*
X144601144Y-45489221D01*
X144604563Y-45466166D01*
X144610227Y-45443557D01*
X144618079Y-45421613D01*
X144628044Y-45400543D01*
X144640026Y-45380552D01*
X144653910Y-45361832D01*
X144669562Y-45344562D01*
X144686832Y-45328910D01*
X144705552Y-45315026D01*
X144725543Y-45303044D01*
X144746613Y-45293079D01*
X144768557Y-45285227D01*
X144791166Y-45279563D01*
X144814221Y-45276144D01*
X144837500Y-45275000D01*
X145412500Y-45275000D01*
X145435779Y-45276144D01*
X145435779Y-45276144D01*
G37*
D11*
X145125000Y-45750000D03*
G04 #@! TD*
D10*
G04 #@! TO.C,C20*
G36*
X146185779Y-92026144D02*
X146208834Y-92029563D01*
X146231443Y-92035227D01*
X146253387Y-92043079D01*
X146274457Y-92053044D01*
X146294448Y-92065026D01*
X146313168Y-92078910D01*
X146330438Y-92094562D01*
X146346090Y-92111832D01*
X146359974Y-92130552D01*
X146371956Y-92150543D01*
X146381921Y-92171613D01*
X146389773Y-92193557D01*
X146395437Y-92216166D01*
X146398856Y-92239221D01*
X146400000Y-92262500D01*
X146400000Y-92737500D01*
X146398856Y-92760779D01*
X146395437Y-92783834D01*
X146389773Y-92806443D01*
X146381921Y-92828387D01*
X146371956Y-92849457D01*
X146359974Y-92869448D01*
X146346090Y-92888168D01*
X146330438Y-92905438D01*
X146313168Y-92921090D01*
X146294448Y-92934974D01*
X146274457Y-92946956D01*
X146253387Y-92956921D01*
X146231443Y-92964773D01*
X146208834Y-92970437D01*
X146185779Y-92973856D01*
X146162500Y-92975000D01*
X145587500Y-92975000D01*
X145564221Y-92973856D01*
X145541166Y-92970437D01*
X145518557Y-92964773D01*
X145496613Y-92956921D01*
X145475543Y-92946956D01*
X145455552Y-92934974D01*
X145436832Y-92921090D01*
X145419562Y-92905438D01*
X145403910Y-92888168D01*
X145390026Y-92869448D01*
X145378044Y-92849457D01*
X145368079Y-92828387D01*
X145360227Y-92806443D01*
X145354563Y-92783834D01*
X145351144Y-92760779D01*
X145350000Y-92737500D01*
X145350000Y-92262500D01*
X145351144Y-92239221D01*
X145354563Y-92216166D01*
X145360227Y-92193557D01*
X145368079Y-92171613D01*
X145378044Y-92150543D01*
X145390026Y-92130552D01*
X145403910Y-92111832D01*
X145419562Y-92094562D01*
X145436832Y-92078910D01*
X145455552Y-92065026D01*
X145475543Y-92053044D01*
X145496613Y-92043079D01*
X145518557Y-92035227D01*
X145541166Y-92029563D01*
X145564221Y-92026144D01*
X145587500Y-92025000D01*
X146162500Y-92025000D01*
X146185779Y-92026144D01*
X146185779Y-92026144D01*
G37*
D11*
X145875000Y-92500000D03*
D10*
G36*
X144435779Y-92026144D02*
X144458834Y-92029563D01*
X144481443Y-92035227D01*
X144503387Y-92043079D01*
X144524457Y-92053044D01*
X144544448Y-92065026D01*
X144563168Y-92078910D01*
X144580438Y-92094562D01*
X144596090Y-92111832D01*
X144609974Y-92130552D01*
X144621956Y-92150543D01*
X144631921Y-92171613D01*
X144639773Y-92193557D01*
X144645437Y-92216166D01*
X144648856Y-92239221D01*
X144650000Y-92262500D01*
X144650000Y-92737500D01*
X144648856Y-92760779D01*
X144645437Y-92783834D01*
X144639773Y-92806443D01*
X144631921Y-92828387D01*
X144621956Y-92849457D01*
X144609974Y-92869448D01*
X144596090Y-92888168D01*
X144580438Y-92905438D01*
X144563168Y-92921090D01*
X144544448Y-92934974D01*
X144524457Y-92946956D01*
X144503387Y-92956921D01*
X144481443Y-92964773D01*
X144458834Y-92970437D01*
X144435779Y-92973856D01*
X144412500Y-92975000D01*
X143837500Y-92975000D01*
X143814221Y-92973856D01*
X143791166Y-92970437D01*
X143768557Y-92964773D01*
X143746613Y-92956921D01*
X143725543Y-92946956D01*
X143705552Y-92934974D01*
X143686832Y-92921090D01*
X143669562Y-92905438D01*
X143653910Y-92888168D01*
X143640026Y-92869448D01*
X143628044Y-92849457D01*
X143618079Y-92828387D01*
X143610227Y-92806443D01*
X143604563Y-92783834D01*
X143601144Y-92760779D01*
X143600000Y-92737500D01*
X143600000Y-92262500D01*
X143601144Y-92239221D01*
X143604563Y-92216166D01*
X143610227Y-92193557D01*
X143618079Y-92171613D01*
X143628044Y-92150543D01*
X143640026Y-92130552D01*
X143653910Y-92111832D01*
X143669562Y-92094562D01*
X143686832Y-92078910D01*
X143705552Y-92065026D01*
X143725543Y-92053044D01*
X143746613Y-92043079D01*
X143768557Y-92035227D01*
X143791166Y-92029563D01*
X143814221Y-92026144D01*
X143837500Y-92025000D01*
X144412500Y-92025000D01*
X144435779Y-92026144D01*
X144435779Y-92026144D01*
G37*
D11*
X144125000Y-92500000D03*
G04 #@! TD*
D10*
G04 #@! TO.C,C21*
G36*
X143435779Y-68026144D02*
X143458834Y-68029563D01*
X143481443Y-68035227D01*
X143503387Y-68043079D01*
X143524457Y-68053044D01*
X143544448Y-68065026D01*
X143563168Y-68078910D01*
X143580438Y-68094562D01*
X143596090Y-68111832D01*
X143609974Y-68130552D01*
X143621956Y-68150543D01*
X143631921Y-68171613D01*
X143639773Y-68193557D01*
X143645437Y-68216166D01*
X143648856Y-68239221D01*
X143650000Y-68262500D01*
X143650000Y-68737500D01*
X143648856Y-68760779D01*
X143645437Y-68783834D01*
X143639773Y-68806443D01*
X143631921Y-68828387D01*
X143621956Y-68849457D01*
X143609974Y-68869448D01*
X143596090Y-68888168D01*
X143580438Y-68905438D01*
X143563168Y-68921090D01*
X143544448Y-68934974D01*
X143524457Y-68946956D01*
X143503387Y-68956921D01*
X143481443Y-68964773D01*
X143458834Y-68970437D01*
X143435779Y-68973856D01*
X143412500Y-68975000D01*
X142837500Y-68975000D01*
X142814221Y-68973856D01*
X142791166Y-68970437D01*
X142768557Y-68964773D01*
X142746613Y-68956921D01*
X142725543Y-68946956D01*
X142705552Y-68934974D01*
X142686832Y-68921090D01*
X142669562Y-68905438D01*
X142653910Y-68888168D01*
X142640026Y-68869448D01*
X142628044Y-68849457D01*
X142618079Y-68828387D01*
X142610227Y-68806443D01*
X142604563Y-68783834D01*
X142601144Y-68760779D01*
X142600000Y-68737500D01*
X142600000Y-68262500D01*
X142601144Y-68239221D01*
X142604563Y-68216166D01*
X142610227Y-68193557D01*
X142618079Y-68171613D01*
X142628044Y-68150543D01*
X142640026Y-68130552D01*
X142653910Y-68111832D01*
X142669562Y-68094562D01*
X142686832Y-68078910D01*
X142705552Y-68065026D01*
X142725543Y-68053044D01*
X142746613Y-68043079D01*
X142768557Y-68035227D01*
X142791166Y-68029563D01*
X142814221Y-68026144D01*
X142837500Y-68025000D01*
X143412500Y-68025000D01*
X143435779Y-68026144D01*
X143435779Y-68026144D01*
G37*
D11*
X143125000Y-68500000D03*
D10*
G36*
X145185779Y-68026144D02*
X145208834Y-68029563D01*
X145231443Y-68035227D01*
X145253387Y-68043079D01*
X145274457Y-68053044D01*
X145294448Y-68065026D01*
X145313168Y-68078910D01*
X145330438Y-68094562D01*
X145346090Y-68111832D01*
X145359974Y-68130552D01*
X145371956Y-68150543D01*
X145381921Y-68171613D01*
X145389773Y-68193557D01*
X145395437Y-68216166D01*
X145398856Y-68239221D01*
X145400000Y-68262500D01*
X145400000Y-68737500D01*
X145398856Y-68760779D01*
X145395437Y-68783834D01*
X145389773Y-68806443D01*
X145381921Y-68828387D01*
X145371956Y-68849457D01*
X145359974Y-68869448D01*
X145346090Y-68888168D01*
X145330438Y-68905438D01*
X145313168Y-68921090D01*
X145294448Y-68934974D01*
X145274457Y-68946956D01*
X145253387Y-68956921D01*
X145231443Y-68964773D01*
X145208834Y-68970437D01*
X145185779Y-68973856D01*
X145162500Y-68975000D01*
X144587500Y-68975000D01*
X144564221Y-68973856D01*
X144541166Y-68970437D01*
X144518557Y-68964773D01*
X144496613Y-68956921D01*
X144475543Y-68946956D01*
X144455552Y-68934974D01*
X144436832Y-68921090D01*
X144419562Y-68905438D01*
X144403910Y-68888168D01*
X144390026Y-68869448D01*
X144378044Y-68849457D01*
X144368079Y-68828387D01*
X144360227Y-68806443D01*
X144354563Y-68783834D01*
X144351144Y-68760779D01*
X144350000Y-68737500D01*
X144350000Y-68262500D01*
X144351144Y-68239221D01*
X144354563Y-68216166D01*
X144360227Y-68193557D01*
X144368079Y-68171613D01*
X144378044Y-68150543D01*
X144390026Y-68130552D01*
X144403910Y-68111832D01*
X144419562Y-68094562D01*
X144436832Y-68078910D01*
X144455552Y-68065026D01*
X144475543Y-68053044D01*
X144496613Y-68043079D01*
X144518557Y-68035227D01*
X144541166Y-68029563D01*
X144564221Y-68026144D01*
X144587500Y-68025000D01*
X145162500Y-68025000D01*
X145185779Y-68026144D01*
X145185779Y-68026144D01*
G37*
D11*
X144875000Y-68500000D03*
G04 #@! TD*
D10*
G04 #@! TO.C,D2*
G36*
X171185779Y-56776144D02*
X171208834Y-56779563D01*
X171231443Y-56785227D01*
X171253387Y-56793079D01*
X171274457Y-56803044D01*
X171294448Y-56815026D01*
X171313168Y-56828910D01*
X171330438Y-56844562D01*
X171346090Y-56861832D01*
X171359974Y-56880552D01*
X171371956Y-56900543D01*
X171381921Y-56921613D01*
X171389773Y-56943557D01*
X171395437Y-56966166D01*
X171398856Y-56989221D01*
X171400000Y-57012500D01*
X171400000Y-57487500D01*
X171398856Y-57510779D01*
X171395437Y-57533834D01*
X171389773Y-57556443D01*
X171381921Y-57578387D01*
X171371956Y-57599457D01*
X171359974Y-57619448D01*
X171346090Y-57638168D01*
X171330438Y-57655438D01*
X171313168Y-57671090D01*
X171294448Y-57684974D01*
X171274457Y-57696956D01*
X171253387Y-57706921D01*
X171231443Y-57714773D01*
X171208834Y-57720437D01*
X171185779Y-57723856D01*
X171162500Y-57725000D01*
X170587500Y-57725000D01*
X170564221Y-57723856D01*
X170541166Y-57720437D01*
X170518557Y-57714773D01*
X170496613Y-57706921D01*
X170475543Y-57696956D01*
X170455552Y-57684974D01*
X170436832Y-57671090D01*
X170419562Y-57655438D01*
X170403910Y-57638168D01*
X170390026Y-57619448D01*
X170378044Y-57599457D01*
X170368079Y-57578387D01*
X170360227Y-57556443D01*
X170354563Y-57533834D01*
X170351144Y-57510779D01*
X170350000Y-57487500D01*
X170350000Y-57012500D01*
X170351144Y-56989221D01*
X170354563Y-56966166D01*
X170360227Y-56943557D01*
X170368079Y-56921613D01*
X170378044Y-56900543D01*
X170390026Y-56880552D01*
X170403910Y-56861832D01*
X170419562Y-56844562D01*
X170436832Y-56828910D01*
X170455552Y-56815026D01*
X170475543Y-56803044D01*
X170496613Y-56793079D01*
X170518557Y-56785227D01*
X170541166Y-56779563D01*
X170564221Y-56776144D01*
X170587500Y-56775000D01*
X171162500Y-56775000D01*
X171185779Y-56776144D01*
X171185779Y-56776144D01*
G37*
D11*
X170875000Y-57250000D03*
D10*
G36*
X169435779Y-56776144D02*
X169458834Y-56779563D01*
X169481443Y-56785227D01*
X169503387Y-56793079D01*
X169524457Y-56803044D01*
X169544448Y-56815026D01*
X169563168Y-56828910D01*
X169580438Y-56844562D01*
X169596090Y-56861832D01*
X169609974Y-56880552D01*
X169621956Y-56900543D01*
X169631921Y-56921613D01*
X169639773Y-56943557D01*
X169645437Y-56966166D01*
X169648856Y-56989221D01*
X169650000Y-57012500D01*
X169650000Y-57487500D01*
X169648856Y-57510779D01*
X169645437Y-57533834D01*
X169639773Y-57556443D01*
X169631921Y-57578387D01*
X169621956Y-57599457D01*
X169609974Y-57619448D01*
X169596090Y-57638168D01*
X169580438Y-57655438D01*
X169563168Y-57671090D01*
X169544448Y-57684974D01*
X169524457Y-57696956D01*
X169503387Y-57706921D01*
X169481443Y-57714773D01*
X169458834Y-57720437D01*
X169435779Y-57723856D01*
X169412500Y-57725000D01*
X168837500Y-57725000D01*
X168814221Y-57723856D01*
X168791166Y-57720437D01*
X168768557Y-57714773D01*
X168746613Y-57706921D01*
X168725543Y-57696956D01*
X168705552Y-57684974D01*
X168686832Y-57671090D01*
X168669562Y-57655438D01*
X168653910Y-57638168D01*
X168640026Y-57619448D01*
X168628044Y-57599457D01*
X168618079Y-57578387D01*
X168610227Y-57556443D01*
X168604563Y-57533834D01*
X168601144Y-57510779D01*
X168600000Y-57487500D01*
X168600000Y-57012500D01*
X168601144Y-56989221D01*
X168604563Y-56966166D01*
X168610227Y-56943557D01*
X168618079Y-56921613D01*
X168628044Y-56900543D01*
X168640026Y-56880552D01*
X168653910Y-56861832D01*
X168669562Y-56844562D01*
X168686832Y-56828910D01*
X168705552Y-56815026D01*
X168725543Y-56803044D01*
X168746613Y-56793079D01*
X168768557Y-56785227D01*
X168791166Y-56779563D01*
X168814221Y-56776144D01*
X168837500Y-56775000D01*
X169412500Y-56775000D01*
X169435779Y-56776144D01*
X169435779Y-56776144D01*
G37*
D11*
X169125000Y-57250000D03*
G04 #@! TD*
D10*
G04 #@! TO.C,D3*
G36*
X170435779Y-80026144D02*
X170458834Y-80029563D01*
X170481443Y-80035227D01*
X170503387Y-80043079D01*
X170524457Y-80053044D01*
X170544448Y-80065026D01*
X170563168Y-80078910D01*
X170580438Y-80094562D01*
X170596090Y-80111832D01*
X170609974Y-80130552D01*
X170621956Y-80150543D01*
X170631921Y-80171613D01*
X170639773Y-80193557D01*
X170645437Y-80216166D01*
X170648856Y-80239221D01*
X170650000Y-80262500D01*
X170650000Y-80737500D01*
X170648856Y-80760779D01*
X170645437Y-80783834D01*
X170639773Y-80806443D01*
X170631921Y-80828387D01*
X170621956Y-80849457D01*
X170609974Y-80869448D01*
X170596090Y-80888168D01*
X170580438Y-80905438D01*
X170563168Y-80921090D01*
X170544448Y-80934974D01*
X170524457Y-80946956D01*
X170503387Y-80956921D01*
X170481443Y-80964773D01*
X170458834Y-80970437D01*
X170435779Y-80973856D01*
X170412500Y-80975000D01*
X169837500Y-80975000D01*
X169814221Y-80973856D01*
X169791166Y-80970437D01*
X169768557Y-80964773D01*
X169746613Y-80956921D01*
X169725543Y-80946956D01*
X169705552Y-80934974D01*
X169686832Y-80921090D01*
X169669562Y-80905438D01*
X169653910Y-80888168D01*
X169640026Y-80869448D01*
X169628044Y-80849457D01*
X169618079Y-80828387D01*
X169610227Y-80806443D01*
X169604563Y-80783834D01*
X169601144Y-80760779D01*
X169600000Y-80737500D01*
X169600000Y-80262500D01*
X169601144Y-80239221D01*
X169604563Y-80216166D01*
X169610227Y-80193557D01*
X169618079Y-80171613D01*
X169628044Y-80150543D01*
X169640026Y-80130552D01*
X169653910Y-80111832D01*
X169669562Y-80094562D01*
X169686832Y-80078910D01*
X169705552Y-80065026D01*
X169725543Y-80053044D01*
X169746613Y-80043079D01*
X169768557Y-80035227D01*
X169791166Y-80029563D01*
X169814221Y-80026144D01*
X169837500Y-80025000D01*
X170412500Y-80025000D01*
X170435779Y-80026144D01*
X170435779Y-80026144D01*
G37*
D11*
X170125000Y-80500000D03*
D10*
G36*
X168685779Y-80026144D02*
X168708834Y-80029563D01*
X168731443Y-80035227D01*
X168753387Y-80043079D01*
X168774457Y-80053044D01*
X168794448Y-80065026D01*
X168813168Y-80078910D01*
X168830438Y-80094562D01*
X168846090Y-80111832D01*
X168859974Y-80130552D01*
X168871956Y-80150543D01*
X168881921Y-80171613D01*
X168889773Y-80193557D01*
X168895437Y-80216166D01*
X168898856Y-80239221D01*
X168900000Y-80262500D01*
X168900000Y-80737500D01*
X168898856Y-80760779D01*
X168895437Y-80783834D01*
X168889773Y-80806443D01*
X168881921Y-80828387D01*
X168871956Y-80849457D01*
X168859974Y-80869448D01*
X168846090Y-80888168D01*
X168830438Y-80905438D01*
X168813168Y-80921090D01*
X168794448Y-80934974D01*
X168774457Y-80946956D01*
X168753387Y-80956921D01*
X168731443Y-80964773D01*
X168708834Y-80970437D01*
X168685779Y-80973856D01*
X168662500Y-80975000D01*
X168087500Y-80975000D01*
X168064221Y-80973856D01*
X168041166Y-80970437D01*
X168018557Y-80964773D01*
X167996613Y-80956921D01*
X167975543Y-80946956D01*
X167955552Y-80934974D01*
X167936832Y-80921090D01*
X167919562Y-80905438D01*
X167903910Y-80888168D01*
X167890026Y-80869448D01*
X167878044Y-80849457D01*
X167868079Y-80828387D01*
X167860227Y-80806443D01*
X167854563Y-80783834D01*
X167851144Y-80760779D01*
X167850000Y-80737500D01*
X167850000Y-80262500D01*
X167851144Y-80239221D01*
X167854563Y-80216166D01*
X167860227Y-80193557D01*
X167868079Y-80171613D01*
X167878044Y-80150543D01*
X167890026Y-80130552D01*
X167903910Y-80111832D01*
X167919562Y-80094562D01*
X167936832Y-80078910D01*
X167955552Y-80065026D01*
X167975543Y-80053044D01*
X167996613Y-80043079D01*
X168018557Y-80035227D01*
X168041166Y-80029563D01*
X168064221Y-80026144D01*
X168087500Y-80025000D01*
X168662500Y-80025000D01*
X168685779Y-80026144D01*
X168685779Y-80026144D01*
G37*
D11*
X168375000Y-80500000D03*
G04 #@! TD*
D10*
G04 #@! TO.C,D4*
G36*
X168685779Y-103526144D02*
X168708834Y-103529563D01*
X168731443Y-103535227D01*
X168753387Y-103543079D01*
X168774457Y-103553044D01*
X168794448Y-103565026D01*
X168813168Y-103578910D01*
X168830438Y-103594562D01*
X168846090Y-103611832D01*
X168859974Y-103630552D01*
X168871956Y-103650543D01*
X168881921Y-103671613D01*
X168889773Y-103693557D01*
X168895437Y-103716166D01*
X168898856Y-103739221D01*
X168900000Y-103762500D01*
X168900000Y-104237500D01*
X168898856Y-104260779D01*
X168895437Y-104283834D01*
X168889773Y-104306443D01*
X168881921Y-104328387D01*
X168871956Y-104349457D01*
X168859974Y-104369448D01*
X168846090Y-104388168D01*
X168830438Y-104405438D01*
X168813168Y-104421090D01*
X168794448Y-104434974D01*
X168774457Y-104446956D01*
X168753387Y-104456921D01*
X168731443Y-104464773D01*
X168708834Y-104470437D01*
X168685779Y-104473856D01*
X168662500Y-104475000D01*
X168087500Y-104475000D01*
X168064221Y-104473856D01*
X168041166Y-104470437D01*
X168018557Y-104464773D01*
X167996613Y-104456921D01*
X167975543Y-104446956D01*
X167955552Y-104434974D01*
X167936832Y-104421090D01*
X167919562Y-104405438D01*
X167903910Y-104388168D01*
X167890026Y-104369448D01*
X167878044Y-104349457D01*
X167868079Y-104328387D01*
X167860227Y-104306443D01*
X167854563Y-104283834D01*
X167851144Y-104260779D01*
X167850000Y-104237500D01*
X167850000Y-103762500D01*
X167851144Y-103739221D01*
X167854563Y-103716166D01*
X167860227Y-103693557D01*
X167868079Y-103671613D01*
X167878044Y-103650543D01*
X167890026Y-103630552D01*
X167903910Y-103611832D01*
X167919562Y-103594562D01*
X167936832Y-103578910D01*
X167955552Y-103565026D01*
X167975543Y-103553044D01*
X167996613Y-103543079D01*
X168018557Y-103535227D01*
X168041166Y-103529563D01*
X168064221Y-103526144D01*
X168087500Y-103525000D01*
X168662500Y-103525000D01*
X168685779Y-103526144D01*
X168685779Y-103526144D01*
G37*
D11*
X168375000Y-104000000D03*
D10*
G36*
X170435779Y-103526144D02*
X170458834Y-103529563D01*
X170481443Y-103535227D01*
X170503387Y-103543079D01*
X170524457Y-103553044D01*
X170544448Y-103565026D01*
X170563168Y-103578910D01*
X170580438Y-103594562D01*
X170596090Y-103611832D01*
X170609974Y-103630552D01*
X170621956Y-103650543D01*
X170631921Y-103671613D01*
X170639773Y-103693557D01*
X170645437Y-103716166D01*
X170648856Y-103739221D01*
X170650000Y-103762500D01*
X170650000Y-104237500D01*
X170648856Y-104260779D01*
X170645437Y-104283834D01*
X170639773Y-104306443D01*
X170631921Y-104328387D01*
X170621956Y-104349457D01*
X170609974Y-104369448D01*
X170596090Y-104388168D01*
X170580438Y-104405438D01*
X170563168Y-104421090D01*
X170544448Y-104434974D01*
X170524457Y-104446956D01*
X170503387Y-104456921D01*
X170481443Y-104464773D01*
X170458834Y-104470437D01*
X170435779Y-104473856D01*
X170412500Y-104475000D01*
X169837500Y-104475000D01*
X169814221Y-104473856D01*
X169791166Y-104470437D01*
X169768557Y-104464773D01*
X169746613Y-104456921D01*
X169725543Y-104446956D01*
X169705552Y-104434974D01*
X169686832Y-104421090D01*
X169669562Y-104405438D01*
X169653910Y-104388168D01*
X169640026Y-104369448D01*
X169628044Y-104349457D01*
X169618079Y-104328387D01*
X169610227Y-104306443D01*
X169604563Y-104283834D01*
X169601144Y-104260779D01*
X169600000Y-104237500D01*
X169600000Y-103762500D01*
X169601144Y-103739221D01*
X169604563Y-103716166D01*
X169610227Y-103693557D01*
X169618079Y-103671613D01*
X169628044Y-103650543D01*
X169640026Y-103630552D01*
X169653910Y-103611832D01*
X169669562Y-103594562D01*
X169686832Y-103578910D01*
X169705552Y-103565026D01*
X169725543Y-103553044D01*
X169746613Y-103543079D01*
X169768557Y-103535227D01*
X169791166Y-103529563D01*
X169814221Y-103526144D01*
X169837500Y-103525000D01*
X170412500Y-103525000D01*
X170435779Y-103526144D01*
X170435779Y-103526144D01*
G37*
D11*
X170125000Y-104000000D03*
G04 #@! TD*
D10*
G04 #@! TO.C,R13*
G36*
X169435779Y-54776144D02*
X169458834Y-54779563D01*
X169481443Y-54785227D01*
X169503387Y-54793079D01*
X169524457Y-54803044D01*
X169544448Y-54815026D01*
X169563168Y-54828910D01*
X169580438Y-54844562D01*
X169596090Y-54861832D01*
X169609974Y-54880552D01*
X169621956Y-54900543D01*
X169631921Y-54921613D01*
X169639773Y-54943557D01*
X169645437Y-54966166D01*
X169648856Y-54989221D01*
X169650000Y-55012500D01*
X169650000Y-55487500D01*
X169648856Y-55510779D01*
X169645437Y-55533834D01*
X169639773Y-55556443D01*
X169631921Y-55578387D01*
X169621956Y-55599457D01*
X169609974Y-55619448D01*
X169596090Y-55638168D01*
X169580438Y-55655438D01*
X169563168Y-55671090D01*
X169544448Y-55684974D01*
X169524457Y-55696956D01*
X169503387Y-55706921D01*
X169481443Y-55714773D01*
X169458834Y-55720437D01*
X169435779Y-55723856D01*
X169412500Y-55725000D01*
X168837500Y-55725000D01*
X168814221Y-55723856D01*
X168791166Y-55720437D01*
X168768557Y-55714773D01*
X168746613Y-55706921D01*
X168725543Y-55696956D01*
X168705552Y-55684974D01*
X168686832Y-55671090D01*
X168669562Y-55655438D01*
X168653910Y-55638168D01*
X168640026Y-55619448D01*
X168628044Y-55599457D01*
X168618079Y-55578387D01*
X168610227Y-55556443D01*
X168604563Y-55533834D01*
X168601144Y-55510779D01*
X168600000Y-55487500D01*
X168600000Y-55012500D01*
X168601144Y-54989221D01*
X168604563Y-54966166D01*
X168610227Y-54943557D01*
X168618079Y-54921613D01*
X168628044Y-54900543D01*
X168640026Y-54880552D01*
X168653910Y-54861832D01*
X168669562Y-54844562D01*
X168686832Y-54828910D01*
X168705552Y-54815026D01*
X168725543Y-54803044D01*
X168746613Y-54793079D01*
X168768557Y-54785227D01*
X168791166Y-54779563D01*
X168814221Y-54776144D01*
X168837500Y-54775000D01*
X169412500Y-54775000D01*
X169435779Y-54776144D01*
X169435779Y-54776144D01*
G37*
D11*
X169125000Y-55250000D03*
D10*
G36*
X171185779Y-54776144D02*
X171208834Y-54779563D01*
X171231443Y-54785227D01*
X171253387Y-54793079D01*
X171274457Y-54803044D01*
X171294448Y-54815026D01*
X171313168Y-54828910D01*
X171330438Y-54844562D01*
X171346090Y-54861832D01*
X171359974Y-54880552D01*
X171371956Y-54900543D01*
X171381921Y-54921613D01*
X171389773Y-54943557D01*
X171395437Y-54966166D01*
X171398856Y-54989221D01*
X171400000Y-55012500D01*
X171400000Y-55487500D01*
X171398856Y-55510779D01*
X171395437Y-55533834D01*
X171389773Y-55556443D01*
X171381921Y-55578387D01*
X171371956Y-55599457D01*
X171359974Y-55619448D01*
X171346090Y-55638168D01*
X171330438Y-55655438D01*
X171313168Y-55671090D01*
X171294448Y-55684974D01*
X171274457Y-55696956D01*
X171253387Y-55706921D01*
X171231443Y-55714773D01*
X171208834Y-55720437D01*
X171185779Y-55723856D01*
X171162500Y-55725000D01*
X170587500Y-55725000D01*
X170564221Y-55723856D01*
X170541166Y-55720437D01*
X170518557Y-55714773D01*
X170496613Y-55706921D01*
X170475543Y-55696956D01*
X170455552Y-55684974D01*
X170436832Y-55671090D01*
X170419562Y-55655438D01*
X170403910Y-55638168D01*
X170390026Y-55619448D01*
X170378044Y-55599457D01*
X170368079Y-55578387D01*
X170360227Y-55556443D01*
X170354563Y-55533834D01*
X170351144Y-55510779D01*
X170350000Y-55487500D01*
X170350000Y-55012500D01*
X170351144Y-54989221D01*
X170354563Y-54966166D01*
X170360227Y-54943557D01*
X170368079Y-54921613D01*
X170378044Y-54900543D01*
X170390026Y-54880552D01*
X170403910Y-54861832D01*
X170419562Y-54844562D01*
X170436832Y-54828910D01*
X170455552Y-54815026D01*
X170475543Y-54803044D01*
X170496613Y-54793079D01*
X170518557Y-54785227D01*
X170541166Y-54779563D01*
X170564221Y-54776144D01*
X170587500Y-54775000D01*
X171162500Y-54775000D01*
X171185779Y-54776144D01*
X171185779Y-54776144D01*
G37*
D11*
X170875000Y-55250000D03*
G04 #@! TD*
D10*
G04 #@! TO.C,R14*
G36*
X170435779Y-78276144D02*
X170458834Y-78279563D01*
X170481443Y-78285227D01*
X170503387Y-78293079D01*
X170524457Y-78303044D01*
X170544448Y-78315026D01*
X170563168Y-78328910D01*
X170580438Y-78344562D01*
X170596090Y-78361832D01*
X170609974Y-78380552D01*
X170621956Y-78400543D01*
X170631921Y-78421613D01*
X170639773Y-78443557D01*
X170645437Y-78466166D01*
X170648856Y-78489221D01*
X170650000Y-78512500D01*
X170650000Y-78987500D01*
X170648856Y-79010779D01*
X170645437Y-79033834D01*
X170639773Y-79056443D01*
X170631921Y-79078387D01*
X170621956Y-79099457D01*
X170609974Y-79119448D01*
X170596090Y-79138168D01*
X170580438Y-79155438D01*
X170563168Y-79171090D01*
X170544448Y-79184974D01*
X170524457Y-79196956D01*
X170503387Y-79206921D01*
X170481443Y-79214773D01*
X170458834Y-79220437D01*
X170435779Y-79223856D01*
X170412500Y-79225000D01*
X169837500Y-79225000D01*
X169814221Y-79223856D01*
X169791166Y-79220437D01*
X169768557Y-79214773D01*
X169746613Y-79206921D01*
X169725543Y-79196956D01*
X169705552Y-79184974D01*
X169686832Y-79171090D01*
X169669562Y-79155438D01*
X169653910Y-79138168D01*
X169640026Y-79119448D01*
X169628044Y-79099457D01*
X169618079Y-79078387D01*
X169610227Y-79056443D01*
X169604563Y-79033834D01*
X169601144Y-79010779D01*
X169600000Y-78987500D01*
X169600000Y-78512500D01*
X169601144Y-78489221D01*
X169604563Y-78466166D01*
X169610227Y-78443557D01*
X169618079Y-78421613D01*
X169628044Y-78400543D01*
X169640026Y-78380552D01*
X169653910Y-78361832D01*
X169669562Y-78344562D01*
X169686832Y-78328910D01*
X169705552Y-78315026D01*
X169725543Y-78303044D01*
X169746613Y-78293079D01*
X169768557Y-78285227D01*
X169791166Y-78279563D01*
X169814221Y-78276144D01*
X169837500Y-78275000D01*
X170412500Y-78275000D01*
X170435779Y-78276144D01*
X170435779Y-78276144D01*
G37*
D11*
X170125000Y-78750000D03*
D10*
G36*
X168685779Y-78276144D02*
X168708834Y-78279563D01*
X168731443Y-78285227D01*
X168753387Y-78293079D01*
X168774457Y-78303044D01*
X168794448Y-78315026D01*
X168813168Y-78328910D01*
X168830438Y-78344562D01*
X168846090Y-78361832D01*
X168859974Y-78380552D01*
X168871956Y-78400543D01*
X168881921Y-78421613D01*
X168889773Y-78443557D01*
X168895437Y-78466166D01*
X168898856Y-78489221D01*
X168900000Y-78512500D01*
X168900000Y-78987500D01*
X168898856Y-79010779D01*
X168895437Y-79033834D01*
X168889773Y-79056443D01*
X168881921Y-79078387D01*
X168871956Y-79099457D01*
X168859974Y-79119448D01*
X168846090Y-79138168D01*
X168830438Y-79155438D01*
X168813168Y-79171090D01*
X168794448Y-79184974D01*
X168774457Y-79196956D01*
X168753387Y-79206921D01*
X168731443Y-79214773D01*
X168708834Y-79220437D01*
X168685779Y-79223856D01*
X168662500Y-79225000D01*
X168087500Y-79225000D01*
X168064221Y-79223856D01*
X168041166Y-79220437D01*
X168018557Y-79214773D01*
X167996613Y-79206921D01*
X167975543Y-79196956D01*
X167955552Y-79184974D01*
X167936832Y-79171090D01*
X167919562Y-79155438D01*
X167903910Y-79138168D01*
X167890026Y-79119448D01*
X167878044Y-79099457D01*
X167868079Y-79078387D01*
X167860227Y-79056443D01*
X167854563Y-79033834D01*
X167851144Y-79010779D01*
X167850000Y-78987500D01*
X167850000Y-78512500D01*
X167851144Y-78489221D01*
X167854563Y-78466166D01*
X167860227Y-78443557D01*
X167868079Y-78421613D01*
X167878044Y-78400543D01*
X167890026Y-78380552D01*
X167903910Y-78361832D01*
X167919562Y-78344562D01*
X167936832Y-78328910D01*
X167955552Y-78315026D01*
X167975543Y-78303044D01*
X167996613Y-78293079D01*
X168018557Y-78285227D01*
X168041166Y-78279563D01*
X168064221Y-78276144D01*
X168087500Y-78275000D01*
X168662500Y-78275000D01*
X168685779Y-78276144D01*
X168685779Y-78276144D01*
G37*
D11*
X168375000Y-78750000D03*
G04 #@! TD*
D10*
G04 #@! TO.C,R15*
G36*
X168685779Y-101776144D02*
X168708834Y-101779563D01*
X168731443Y-101785227D01*
X168753387Y-101793079D01*
X168774457Y-101803044D01*
X168794448Y-101815026D01*
X168813168Y-101828910D01*
X168830438Y-101844562D01*
X168846090Y-101861832D01*
X168859974Y-101880552D01*
X168871956Y-101900543D01*
X168881921Y-101921613D01*
X168889773Y-101943557D01*
X168895437Y-101966166D01*
X168898856Y-101989221D01*
X168900000Y-102012500D01*
X168900000Y-102487500D01*
X168898856Y-102510779D01*
X168895437Y-102533834D01*
X168889773Y-102556443D01*
X168881921Y-102578387D01*
X168871956Y-102599457D01*
X168859974Y-102619448D01*
X168846090Y-102638168D01*
X168830438Y-102655438D01*
X168813168Y-102671090D01*
X168794448Y-102684974D01*
X168774457Y-102696956D01*
X168753387Y-102706921D01*
X168731443Y-102714773D01*
X168708834Y-102720437D01*
X168685779Y-102723856D01*
X168662500Y-102725000D01*
X168087500Y-102725000D01*
X168064221Y-102723856D01*
X168041166Y-102720437D01*
X168018557Y-102714773D01*
X167996613Y-102706921D01*
X167975543Y-102696956D01*
X167955552Y-102684974D01*
X167936832Y-102671090D01*
X167919562Y-102655438D01*
X167903910Y-102638168D01*
X167890026Y-102619448D01*
X167878044Y-102599457D01*
X167868079Y-102578387D01*
X167860227Y-102556443D01*
X167854563Y-102533834D01*
X167851144Y-102510779D01*
X167850000Y-102487500D01*
X167850000Y-102012500D01*
X167851144Y-101989221D01*
X167854563Y-101966166D01*
X167860227Y-101943557D01*
X167868079Y-101921613D01*
X167878044Y-101900543D01*
X167890026Y-101880552D01*
X167903910Y-101861832D01*
X167919562Y-101844562D01*
X167936832Y-101828910D01*
X167955552Y-101815026D01*
X167975543Y-101803044D01*
X167996613Y-101793079D01*
X168018557Y-101785227D01*
X168041166Y-101779563D01*
X168064221Y-101776144D01*
X168087500Y-101775000D01*
X168662500Y-101775000D01*
X168685779Y-101776144D01*
X168685779Y-101776144D01*
G37*
D11*
X168375000Y-102250000D03*
D10*
G36*
X170435779Y-101776144D02*
X170458834Y-101779563D01*
X170481443Y-101785227D01*
X170503387Y-101793079D01*
X170524457Y-101803044D01*
X170544448Y-101815026D01*
X170563168Y-101828910D01*
X170580438Y-101844562D01*
X170596090Y-101861832D01*
X170609974Y-101880552D01*
X170621956Y-101900543D01*
X170631921Y-101921613D01*
X170639773Y-101943557D01*
X170645437Y-101966166D01*
X170648856Y-101989221D01*
X170650000Y-102012500D01*
X170650000Y-102487500D01*
X170648856Y-102510779D01*
X170645437Y-102533834D01*
X170639773Y-102556443D01*
X170631921Y-102578387D01*
X170621956Y-102599457D01*
X170609974Y-102619448D01*
X170596090Y-102638168D01*
X170580438Y-102655438D01*
X170563168Y-102671090D01*
X170544448Y-102684974D01*
X170524457Y-102696956D01*
X170503387Y-102706921D01*
X170481443Y-102714773D01*
X170458834Y-102720437D01*
X170435779Y-102723856D01*
X170412500Y-102725000D01*
X169837500Y-102725000D01*
X169814221Y-102723856D01*
X169791166Y-102720437D01*
X169768557Y-102714773D01*
X169746613Y-102706921D01*
X169725543Y-102696956D01*
X169705552Y-102684974D01*
X169686832Y-102671090D01*
X169669562Y-102655438D01*
X169653910Y-102638168D01*
X169640026Y-102619448D01*
X169628044Y-102599457D01*
X169618079Y-102578387D01*
X169610227Y-102556443D01*
X169604563Y-102533834D01*
X169601144Y-102510779D01*
X169600000Y-102487500D01*
X169600000Y-102012500D01*
X169601144Y-101989221D01*
X169604563Y-101966166D01*
X169610227Y-101943557D01*
X169618079Y-101921613D01*
X169628044Y-101900543D01*
X169640026Y-101880552D01*
X169653910Y-101861832D01*
X169669562Y-101844562D01*
X169686832Y-101828910D01*
X169705552Y-101815026D01*
X169725543Y-101803044D01*
X169746613Y-101793079D01*
X169768557Y-101785227D01*
X169791166Y-101779563D01*
X169814221Y-101776144D01*
X169837500Y-101775000D01*
X170412500Y-101775000D01*
X170435779Y-101776144D01*
X170435779Y-101776144D01*
G37*
D11*
X170125000Y-102250000D03*
G04 #@! TD*
D15*
G04 #@! TO.C,C22*
X171000000Y-37750000D03*
X164500000Y-37750000D03*
G04 #@! TD*
M02*
