M48
;DRILL file {KiCad (5.0.1)-3} date 08.04.2021 14:22:38
;FORMAT={-:-/ absolute / inch / decimal}
FMAT,2
INCH,TZ
T1C0.0157
T2C0.0394
T3C0.0433
T4C0.0512
T5C0.0787
T6C0.0787
%
G90
G05
M72
T1
X5.5807Y-2.6575
X5.6102Y-3.6024
X5.6111Y-1.761
X5.8169Y-1.8209
X5.8169Y-2.7067
X5.8465Y-3.6713
X6.4764Y-3.937
X6.4961Y-2.0768
X6.4961Y-2.9921
T2
X5.6827Y-3.563
X5.7827Y-3.563
X5.8827Y-3.563
X5.9827Y-3.563
X6.0827Y-3.563
X5.4823Y-2.5886
X5.4823Y-2.6886
X5.4823Y-2.7886
X5.4823Y-2.8886
X5.4823Y-2.9886
X5.5217Y-3.563
X5.5217Y-3.663
X5.5217Y-3.763
X5.5217Y-3.863
X5.5217Y-3.963
X5.4528Y-1.3173
X5.4528Y-1.4173
X5.4626Y-1.7126
X5.4626Y-1.8126
X5.4626Y-1.9126
X5.4626Y-2.0126
X5.4626Y-2.1126
X5.663Y-1.7126
X5.763Y-1.7126
X5.863Y-1.7126
X5.963Y-1.7126
X6.063Y-1.7126
X5.6531Y-2.5886
X5.7531Y-2.5886
X5.8531Y-2.5886
X5.9531Y-2.5886
X6.0531Y-2.5886
T3
X6.6535Y-3.6614
X6.6535Y-3.7614
X6.6535Y-3.8614
X6.6535Y-2.7264
X6.6535Y-2.8264
X6.6535Y-2.9264
X6.6831Y-1.8209
X6.6831Y-1.9209
X6.6831Y-2.0209
T4
X6.2303Y-4.1142
X5.8563Y-4.1142
X6.2402Y-2.2736
X6.2303Y-3.1791
X5.8661Y-3.1791
X5.8465Y-2.2736
T5
X5.7087Y-0.9213
X5.7087Y-1.1713
T6
X6.1516Y-0.9646G85X6.1516Y-1.1614
G05
X6.565Y-0.9646G85X6.565Y-1.1614
G05
X6.9783Y-0.9646G85X6.9783Y-1.1614
G05
T0
M30
