G04 #@! TF.GenerationSoftware,KiCad,Pcbnew,(5.0.1)-3*
G04 #@! TF.CreationDate,2021-04-08T14:22:07+02:00*
G04 #@! TF.ProjectId,MAN_Motor_Drivers,4D414E5F4D6F746F725F447269766572,rev?*
G04 #@! TF.SameCoordinates,Original*
G04 #@! TF.FileFunction,Copper,L2,Bot,Signal*
G04 #@! TF.FilePolarity,Positive*
%FSLAX46Y46*%
G04 Gerber Fmt 4.6, Leading zero omitted, Abs format (unit mm)*
G04 Created by KiCad (PCBNEW (5.0.1)-3) date 08.04.2021 14:22:07*
%MOMM*%
%LPD*%
G01*
G04 APERTURE LIST*
G04 #@! TA.AperFunction,ComponentPad*
%ADD10O,1.700000X1.700000*%
G04 #@! TD*
G04 #@! TA.AperFunction,ComponentPad*
%ADD11R,1.700000X1.700000*%
G04 #@! TD*
G04 #@! TA.AperFunction,ComponentPad*
%ADD12C,2.600000*%
G04 #@! TD*
G04 #@! TA.AperFunction,ComponentPad*
%ADD13R,2.000000X1.905000*%
G04 #@! TD*
G04 #@! TA.AperFunction,ComponentPad*
%ADD14O,2.000000X1.905000*%
G04 #@! TD*
G04 #@! TA.AperFunction,ComponentPad*
%ADD15R,4.500880X4.500880*%
G04 #@! TD*
G04 #@! TA.AperFunction,ComponentPad*
%ADD16C,4.500880*%
G04 #@! TD*
G04 #@! TA.AperFunction,ComponentPad*
%ADD17R,4.000000X8.000000*%
G04 #@! TD*
G04 #@! TA.AperFunction,ViaPad*
%ADD18C,0.800000*%
G04 #@! TD*
G04 #@! TA.AperFunction,Conductor*
%ADD19C,0.254000*%
G04 #@! TD*
G04 #@! TA.AperFunction,Conductor*
%ADD20C,0.304800*%
G04 #@! TD*
G04 APERTURE END LIST*
D10*
G04 #@! TO.P,J3,5*
G04 #@! TO.N,N/C*
X144340000Y-90500000D03*
G04 #@! TO.P,J3,4*
G04 #@! TO.N,/nFAULT_C*
X146880000Y-90500000D03*
G04 #@! TO.P,J3,3*
G04 #@! TO.N,/nSLEEP_C*
X149420000Y-90500000D03*
G04 #@! TO.P,J3,2*
G04 #@! TO.N,/PHIN2_C*
X151960000Y-90500000D03*
D11*
G04 #@! TO.P,J3,1*
G04 #@! TO.N,/ENIN1_C*
X154500000Y-90500000D03*
G04 #@! TD*
D12*
G04 #@! TO.P,J4,1*
G04 #@! TO.N,/OUT1_A*
X148500000Y-57750000D03*
G04 #@! TD*
G04 #@! TO.P,J5,1*
G04 #@! TO.N,/OUT1_C*
X148750000Y-104500000D03*
G04 #@! TD*
G04 #@! TO.P,J6,1*
G04 #@! TO.N,/OUT1_B*
X149000000Y-80750000D03*
G04 #@! TD*
G04 #@! TO.P,J7,1*
G04 #@! TO.N,/OUT2_A*
X158500000Y-57750000D03*
G04 #@! TD*
G04 #@! TO.P,J8,1*
G04 #@! TO.N,/OUT2_C*
X158250000Y-104500000D03*
G04 #@! TD*
G04 #@! TO.P,J9,1*
G04 #@! TO.N,/OUT2_B*
X158250000Y-80750000D03*
G04 #@! TD*
D13*
G04 #@! TO.P,U4,1*
G04 #@! TO.N,Net-(C13-Pad1)*
X169750000Y-46250000D03*
D14*
G04 #@! TO.P,U4,2*
G04 #@! TO.N,GND*
X169750000Y-48790000D03*
G04 #@! TO.P,U4,3*
G04 #@! TO.N,+12V*
X169750000Y-51330000D03*
G04 #@! TD*
G04 #@! TO.P,U5,3*
G04 #@! TO.N,+12V*
X169000000Y-74330000D03*
G04 #@! TO.P,U5,2*
G04 #@! TO.N,GND*
X169000000Y-71790000D03*
D13*
G04 #@! TO.P,U5,1*
G04 #@! TO.N,Net-(C13-Pad1)*
X169000000Y-69250000D03*
G04 #@! TD*
G04 #@! TO.P,U6,1*
G04 #@! TO.N,Net-(C13-Pad1)*
X169000000Y-93000000D03*
D14*
G04 #@! TO.P,U6,2*
G04 #@! TO.N,GND*
X169000000Y-95540000D03*
G04 #@! TO.P,U6,3*
G04 #@! TO.N,+12V*
X169000000Y-98080000D03*
G04 #@! TD*
D15*
G04 #@! TO.P,J10,1*
G04 #@! TO.N,/VIN*
X145000000Y-29750000D03*
D16*
G04 #@! TO.P,J10,2*
G04 #@! TO.N,GND*
X145000000Y-23400000D03*
G04 #@! TD*
D11*
G04 #@! TO.P,J1,1*
G04 #@! TO.N,/ENIN1_A*
X154000000Y-43500000D03*
D10*
G04 #@! TO.P,J1,2*
G04 #@! TO.N,/PHIN2_A*
X151460000Y-43500000D03*
G04 #@! TO.P,J1,3*
G04 #@! TO.N,/nSLEEP_A*
X148920000Y-43500000D03*
G04 #@! TO.P,J1,4*
G04 #@! TO.N,/nFAULT_A*
X146380000Y-43500000D03*
G04 #@! TO.P,J1,5*
G04 #@! TO.N,N/C*
X143840000Y-43500000D03*
G04 #@! TD*
D11*
G04 #@! TO.P,J2,1*
G04 #@! TO.N,/IPROPI_A*
X138750000Y-43500000D03*
D10*
G04 #@! TO.P,J2,2*
G04 #@! TO.N,/IMODE_A*
X138750000Y-46040000D03*
G04 #@! TO.P,J2,3*
G04 #@! TO.N,N/C*
X138750000Y-48580000D03*
G04 #@! TO.P,J2,4*
X138750000Y-51120000D03*
G04 #@! TO.P,J2,5*
X138750000Y-53660000D03*
G04 #@! TD*
G04 #@! TO.P,J11,5*
G04 #@! TO.N,N/C*
X140250000Y-100660000D03*
G04 #@! TO.P,J11,4*
X140250000Y-98120000D03*
G04 #@! TO.P,J11,3*
X140250000Y-95580000D03*
G04 #@! TO.P,J11,2*
G04 #@! TO.N,/IMODE_C*
X140250000Y-93040000D03*
D11*
G04 #@! TO.P,J11,1*
G04 #@! TO.N,/IPROPI_C*
X140250000Y-90500000D03*
G04 #@! TD*
D10*
G04 #@! TO.P,J12,5*
G04 #@! TO.N,N/C*
X143590000Y-65750000D03*
G04 #@! TO.P,J12,4*
G04 #@! TO.N,/nFAULT_B*
X146130000Y-65750000D03*
G04 #@! TO.P,J12,3*
G04 #@! TO.N,/nSLEEP_B*
X148670000Y-65750000D03*
G04 #@! TO.P,J12,2*
G04 #@! TO.N,/PHIN2_B*
X151210000Y-65750000D03*
D11*
G04 #@! TO.P,J12,1*
G04 #@! TO.N,/ENIN1_B*
X153750000Y-65750000D03*
G04 #@! TD*
G04 #@! TO.P,J13,1*
G04 #@! TO.N,/IPROP_B*
X139250000Y-65750000D03*
D10*
G04 #@! TO.P,J13,2*
G04 #@! TO.N,/IMODE_B*
X139250000Y-68290000D03*
G04 #@! TO.P,J13,3*
G04 #@! TO.N,N/C*
X139250000Y-70830000D03*
G04 #@! TO.P,J13,4*
X139250000Y-73370000D03*
G04 #@! TO.P,J13,5*
X139250000Y-75910000D03*
G04 #@! TD*
D11*
G04 #@! TO.P,J14,1*
G04 #@! TO.N,+3V3*
X138500000Y-36000000D03*
D10*
G04 #@! TO.P,J14,2*
G04 #@! TO.N,GND*
X138500000Y-33460000D03*
G04 #@! TD*
D17*
G04 #@! TO.P,U7,2*
G04 #@! TO.N,Net-(C13-Pad1)*
X166750000Y-27000000D03*
G04 #@! TO.P,U7,1*
G04 #@! TO.N,/VIN*
X156250000Y-27000000D03*
G04 #@! TO.P,U7,3*
G04 #@! TO.N,N/C*
X177250000Y-27000000D03*
G04 #@! TD*
D18*
G04 #@! TO.N,+12V*
X147750000Y-46250000D03*
X165000000Y-52750000D03*
X147750000Y-68750000D03*
X165000000Y-76000000D03*
X148500000Y-93250000D03*
X164500000Y-100000000D03*
G04 #@! TO.N,+3V3*
X142523157Y-44729307D03*
X141750000Y-67500000D03*
X142500000Y-91500000D03*
G04 #@! TD*
D19*
G04 #@! TO.N,+12V*
X147750000Y-46250000D02*
X147750000Y-52500000D01*
X147750000Y-52500000D02*
X149000000Y-53750000D01*
X149000000Y-53750000D02*
X164000000Y-53750000D01*
X164000000Y-53750000D02*
X165000000Y-52750000D01*
X147750000Y-68750000D02*
X147750000Y-75500000D01*
X147750000Y-75500000D02*
X148750000Y-76500000D01*
X148750000Y-76500000D02*
X164500000Y-76500000D01*
X164500000Y-76500000D02*
X165000000Y-76000000D01*
X148500000Y-93250000D02*
X148500000Y-100000000D01*
X148500000Y-100000000D02*
X149250000Y-100750000D01*
X149250000Y-100750000D02*
X163750000Y-100750000D01*
X163750000Y-100750000D02*
X164500000Y-100000000D01*
D20*
G04 #@! TO.N,+3V3*
X136750000Y-39154800D02*
X136750000Y-58750000D01*
X136750000Y-58750000D02*
X141750000Y-63750000D01*
X141750000Y-63750000D02*
X141750000Y-67500000D01*
X136750000Y-58750000D02*
X136750000Y-83500000D01*
X136750000Y-83500000D02*
X142500000Y-89250000D01*
X142500000Y-89250000D02*
X142500000Y-91500000D01*
D19*
X138500000Y-37404800D02*
X138500000Y-36000000D01*
X136750000Y-39154800D02*
X138500000Y-37404800D01*
X139604000Y-36000000D02*
X138500000Y-36000000D01*
X142523157Y-38919157D02*
X139604000Y-36000000D01*
X142523157Y-44729307D02*
X142523157Y-38919157D01*
G04 #@! TD*
G04 #@! TO.N,GND*
G36*
X181544001Y-109794000D02*
X135206000Y-109794000D01*
X135206000Y-104165628D01*
X147069000Y-104165628D01*
X147069000Y-104834372D01*
X147324917Y-105452210D01*
X147797790Y-105925083D01*
X148415628Y-106181000D01*
X149084372Y-106181000D01*
X149702210Y-105925083D01*
X150175083Y-105452210D01*
X150431000Y-104834372D01*
X150431000Y-104165628D01*
X156569000Y-104165628D01*
X156569000Y-104834372D01*
X156824917Y-105452210D01*
X157297790Y-105925083D01*
X157915628Y-106181000D01*
X158584372Y-106181000D01*
X159202210Y-105925083D01*
X159221610Y-105905683D01*
X175769000Y-105905683D01*
X175769000Y-106594317D01*
X176032529Y-107230533D01*
X176519467Y-107717471D01*
X177155683Y-107981000D01*
X177844317Y-107981000D01*
X178480533Y-107717471D01*
X178967471Y-107230533D01*
X179231000Y-106594317D01*
X179231000Y-105905683D01*
X178967471Y-105269467D01*
X178480533Y-104782529D01*
X177844317Y-104519000D01*
X177155683Y-104519000D01*
X176519467Y-104782529D01*
X176032529Y-105269467D01*
X175769000Y-105905683D01*
X159221610Y-105905683D01*
X159675083Y-105452210D01*
X159931000Y-104834372D01*
X159931000Y-104165628D01*
X159675083Y-103547790D01*
X159202210Y-103074917D01*
X158584372Y-102819000D01*
X157915628Y-102819000D01*
X157297790Y-103074917D01*
X156824917Y-103547790D01*
X156569000Y-104165628D01*
X150431000Y-104165628D01*
X150175083Y-103547790D01*
X149702210Y-103074917D01*
X149084372Y-102819000D01*
X148415628Y-102819000D01*
X147797790Y-103074917D01*
X147324917Y-103547790D01*
X147069000Y-104165628D01*
X135206000Y-104165628D01*
X135206000Y-100660000D01*
X138994884Y-100660000D01*
X139090424Y-101140312D01*
X139362499Y-101547501D01*
X139769688Y-101819576D01*
X140128761Y-101891000D01*
X140371239Y-101891000D01*
X140730312Y-101819576D01*
X141137501Y-101547501D01*
X141409576Y-101140312D01*
X141505116Y-100660000D01*
X141409576Y-100179688D01*
X141137501Y-99772499D01*
X140730312Y-99500424D01*
X140371239Y-99429000D01*
X140128761Y-99429000D01*
X139769688Y-99500424D01*
X139362499Y-99772499D01*
X139090424Y-100179688D01*
X138994884Y-100660000D01*
X135206000Y-100660000D01*
X135206000Y-98120000D01*
X138994884Y-98120000D01*
X139090424Y-98600312D01*
X139362499Y-99007501D01*
X139769688Y-99279576D01*
X140128761Y-99351000D01*
X140371239Y-99351000D01*
X140730312Y-99279576D01*
X141137501Y-99007501D01*
X141409576Y-98600312D01*
X141505116Y-98120000D01*
X141409576Y-97639688D01*
X141137501Y-97232499D01*
X140730312Y-96960424D01*
X140371239Y-96889000D01*
X140128761Y-96889000D01*
X139769688Y-96960424D01*
X139362499Y-97232499D01*
X139090424Y-97639688D01*
X138994884Y-98120000D01*
X135206000Y-98120000D01*
X135206000Y-95580000D01*
X138994884Y-95580000D01*
X139090424Y-96060312D01*
X139362499Y-96467501D01*
X139769688Y-96739576D01*
X140128761Y-96811000D01*
X140371239Y-96811000D01*
X140730312Y-96739576D01*
X141137501Y-96467501D01*
X141409576Y-96060312D01*
X141505116Y-95580000D01*
X141409576Y-95099688D01*
X141137501Y-94692499D01*
X140730312Y-94420424D01*
X140371239Y-94349000D01*
X140128761Y-94349000D01*
X139769688Y-94420424D01*
X139362499Y-94692499D01*
X139090424Y-95099688D01*
X138994884Y-95580000D01*
X135206000Y-95580000D01*
X135206000Y-93040000D01*
X138994884Y-93040000D01*
X139090424Y-93520312D01*
X139362499Y-93927501D01*
X139769688Y-94199576D01*
X140128761Y-94271000D01*
X140371239Y-94271000D01*
X140730312Y-94199576D01*
X141137501Y-93927501D01*
X141409576Y-93520312D01*
X141494245Y-93094649D01*
X147719000Y-93094649D01*
X147719000Y-93405351D01*
X147837900Y-93692401D01*
X147992000Y-93846501D01*
X147992001Y-99949967D01*
X147982049Y-100000000D01*
X148021475Y-100198211D01*
X148105412Y-100323832D01*
X148105415Y-100323835D01*
X148133754Y-100366247D01*
X148176166Y-100394586D01*
X148855414Y-101073835D01*
X148883753Y-101116247D01*
X148926165Y-101144586D01*
X148926167Y-101144588D01*
X149051788Y-101228525D01*
X149199968Y-101258000D01*
X149199971Y-101258000D01*
X149249999Y-101267951D01*
X149300027Y-101258000D01*
X163699972Y-101258000D01*
X163750000Y-101267951D01*
X163800028Y-101258000D01*
X163800032Y-101258000D01*
X163948212Y-101228525D01*
X164116247Y-101116247D01*
X164144588Y-101073832D01*
X164437420Y-100781000D01*
X164655351Y-100781000D01*
X164942401Y-100662100D01*
X165162100Y-100442401D01*
X165281000Y-100155351D01*
X165281000Y-99844649D01*
X165162100Y-99557599D01*
X164942401Y-99337900D01*
X164655351Y-99219000D01*
X164344649Y-99219000D01*
X164057599Y-99337900D01*
X163837900Y-99557599D01*
X163719000Y-99844649D01*
X163719000Y-100062580D01*
X163539580Y-100242000D01*
X149460421Y-100242000D01*
X149008000Y-99789580D01*
X149008000Y-98080000D01*
X167592876Y-98080000D01*
X167696371Y-98600306D01*
X167991101Y-99041399D01*
X168432194Y-99336129D01*
X168821165Y-99413500D01*
X169178835Y-99413500D01*
X169567806Y-99336129D01*
X170008899Y-99041399D01*
X170303629Y-98600306D01*
X170407124Y-98080000D01*
X170303629Y-97559694D01*
X170008899Y-97118601D01*
X169567806Y-96823871D01*
X169178835Y-96746500D01*
X168821165Y-96746500D01*
X168432194Y-96823871D01*
X167991101Y-97118601D01*
X167696371Y-97559694D01*
X167592876Y-98080000D01*
X149008000Y-98080000D01*
X149008000Y-93846501D01*
X149162100Y-93692401D01*
X149281000Y-93405351D01*
X149281000Y-93094649D01*
X149162100Y-92807599D01*
X148942401Y-92587900D01*
X148655351Y-92469000D01*
X148344649Y-92469000D01*
X148057599Y-92587900D01*
X147837900Y-92807599D01*
X147719000Y-93094649D01*
X141494245Y-93094649D01*
X141505116Y-93040000D01*
X141409576Y-92559688D01*
X141137501Y-92152499D01*
X140730312Y-91880424D01*
X140371239Y-91809000D01*
X140128761Y-91809000D01*
X139769688Y-91880424D01*
X139362499Y-92152499D01*
X139090424Y-92559688D01*
X138994884Y-93040000D01*
X135206000Y-93040000D01*
X135206000Y-89650000D01*
X139011536Y-89650000D01*
X139011536Y-91350000D01*
X139041106Y-91498659D01*
X139125314Y-91624686D01*
X139251341Y-91708894D01*
X139400000Y-91738464D01*
X141100000Y-91738464D01*
X141248659Y-91708894D01*
X141374686Y-91624686D01*
X141458894Y-91498659D01*
X141488464Y-91350000D01*
X141488464Y-89650000D01*
X141458894Y-89501341D01*
X141374686Y-89375314D01*
X141248659Y-89291106D01*
X141100000Y-89261536D01*
X139400000Y-89261536D01*
X139251341Y-89291106D01*
X139125314Y-89375314D01*
X139041106Y-89501341D01*
X139011536Y-89650000D01*
X135206000Y-89650000D01*
X135206000Y-58750000D01*
X136206152Y-58750000D01*
X136216600Y-58802526D01*
X136216601Y-83447469D01*
X136206152Y-83500000D01*
X136216601Y-83552531D01*
X136247550Y-83708122D01*
X136365442Y-83884559D01*
X136409975Y-83914315D01*
X141966600Y-89470941D01*
X141966601Y-90928898D01*
X141837900Y-91057599D01*
X141719000Y-91344649D01*
X141719000Y-91655351D01*
X141837900Y-91942401D01*
X142057599Y-92162100D01*
X142344649Y-92281000D01*
X142655351Y-92281000D01*
X142942401Y-92162100D01*
X143057001Y-92047500D01*
X167611536Y-92047500D01*
X167611536Y-93952500D01*
X167641106Y-94101159D01*
X167725314Y-94227186D01*
X167851341Y-94311394D01*
X168000000Y-94340964D01*
X170000000Y-94340964D01*
X170148659Y-94311394D01*
X170274686Y-94227186D01*
X170358894Y-94101159D01*
X170388464Y-93952500D01*
X170388464Y-92047500D01*
X170358894Y-91898841D01*
X170274686Y-91772814D01*
X170148659Y-91688606D01*
X170000000Y-91659036D01*
X168000000Y-91659036D01*
X167851341Y-91688606D01*
X167725314Y-91772814D01*
X167641106Y-91898841D01*
X167611536Y-92047500D01*
X143057001Y-92047500D01*
X143162100Y-91942401D01*
X143281000Y-91655351D01*
X143281000Y-91344649D01*
X143162100Y-91057599D01*
X143033400Y-90928899D01*
X143033400Y-90500000D01*
X143084884Y-90500000D01*
X143180424Y-90980312D01*
X143452499Y-91387501D01*
X143859688Y-91659576D01*
X144218761Y-91731000D01*
X144461239Y-91731000D01*
X144820312Y-91659576D01*
X145227501Y-91387501D01*
X145499576Y-90980312D01*
X145595116Y-90500000D01*
X145624884Y-90500000D01*
X145720424Y-90980312D01*
X145992499Y-91387501D01*
X146399688Y-91659576D01*
X146758761Y-91731000D01*
X147001239Y-91731000D01*
X147360312Y-91659576D01*
X147767501Y-91387501D01*
X148039576Y-90980312D01*
X148135116Y-90500000D01*
X148164884Y-90500000D01*
X148260424Y-90980312D01*
X148532499Y-91387501D01*
X148939688Y-91659576D01*
X149298761Y-91731000D01*
X149541239Y-91731000D01*
X149900312Y-91659576D01*
X150307501Y-91387501D01*
X150579576Y-90980312D01*
X150675116Y-90500000D01*
X150704884Y-90500000D01*
X150800424Y-90980312D01*
X151072499Y-91387501D01*
X151479688Y-91659576D01*
X151838761Y-91731000D01*
X152081239Y-91731000D01*
X152440312Y-91659576D01*
X152847501Y-91387501D01*
X153119576Y-90980312D01*
X153215116Y-90500000D01*
X153119576Y-90019688D01*
X152872559Y-89650000D01*
X153261536Y-89650000D01*
X153261536Y-91350000D01*
X153291106Y-91498659D01*
X153375314Y-91624686D01*
X153501341Y-91708894D01*
X153650000Y-91738464D01*
X155350000Y-91738464D01*
X155498659Y-91708894D01*
X155624686Y-91624686D01*
X155708894Y-91498659D01*
X155738464Y-91350000D01*
X155738464Y-89650000D01*
X155708894Y-89501341D01*
X155624686Y-89375314D01*
X155498659Y-89291106D01*
X155350000Y-89261536D01*
X153650000Y-89261536D01*
X153501341Y-89291106D01*
X153375314Y-89375314D01*
X153291106Y-89501341D01*
X153261536Y-89650000D01*
X152872559Y-89650000D01*
X152847501Y-89612499D01*
X152440312Y-89340424D01*
X152081239Y-89269000D01*
X151838761Y-89269000D01*
X151479688Y-89340424D01*
X151072499Y-89612499D01*
X150800424Y-90019688D01*
X150704884Y-90500000D01*
X150675116Y-90500000D01*
X150579576Y-90019688D01*
X150307501Y-89612499D01*
X149900312Y-89340424D01*
X149541239Y-89269000D01*
X149298761Y-89269000D01*
X148939688Y-89340424D01*
X148532499Y-89612499D01*
X148260424Y-90019688D01*
X148164884Y-90500000D01*
X148135116Y-90500000D01*
X148039576Y-90019688D01*
X147767501Y-89612499D01*
X147360312Y-89340424D01*
X147001239Y-89269000D01*
X146758761Y-89269000D01*
X146399688Y-89340424D01*
X145992499Y-89612499D01*
X145720424Y-90019688D01*
X145624884Y-90500000D01*
X145595116Y-90500000D01*
X145499576Y-90019688D01*
X145227501Y-89612499D01*
X144820312Y-89340424D01*
X144461239Y-89269000D01*
X144218761Y-89269000D01*
X143859688Y-89340424D01*
X143452499Y-89612499D01*
X143180424Y-90019688D01*
X143084884Y-90500000D01*
X143033400Y-90500000D01*
X143033400Y-89302526D01*
X143043848Y-89250000D01*
X143033400Y-89197474D01*
X143033400Y-89197469D01*
X143002451Y-89041878D01*
X142884559Y-88865441D01*
X142840026Y-88835685D01*
X137283400Y-83279060D01*
X137283400Y-80415628D01*
X147319000Y-80415628D01*
X147319000Y-81084372D01*
X147574917Y-81702210D01*
X148047790Y-82175083D01*
X148665628Y-82431000D01*
X149334372Y-82431000D01*
X149952210Y-82175083D01*
X150425083Y-81702210D01*
X150681000Y-81084372D01*
X150681000Y-80415628D01*
X156569000Y-80415628D01*
X156569000Y-81084372D01*
X156824917Y-81702210D01*
X157297790Y-82175083D01*
X157915628Y-82431000D01*
X158584372Y-82431000D01*
X159202210Y-82175083D01*
X159675083Y-81702210D01*
X159931000Y-81084372D01*
X159931000Y-80415628D01*
X159675083Y-79797790D01*
X159202210Y-79324917D01*
X158584372Y-79069000D01*
X157915628Y-79069000D01*
X157297790Y-79324917D01*
X156824917Y-79797790D01*
X156569000Y-80415628D01*
X150681000Y-80415628D01*
X150425083Y-79797790D01*
X149952210Y-79324917D01*
X149334372Y-79069000D01*
X148665628Y-79069000D01*
X148047790Y-79324917D01*
X147574917Y-79797790D01*
X147319000Y-80415628D01*
X137283400Y-80415628D01*
X137283400Y-75910000D01*
X137994884Y-75910000D01*
X138090424Y-76390312D01*
X138362499Y-76797501D01*
X138769688Y-77069576D01*
X139128761Y-77141000D01*
X139371239Y-77141000D01*
X139730312Y-77069576D01*
X140137501Y-76797501D01*
X140409576Y-76390312D01*
X140505116Y-75910000D01*
X140409576Y-75429688D01*
X140137501Y-75022499D01*
X139730312Y-74750424D01*
X139371239Y-74679000D01*
X139128761Y-74679000D01*
X138769688Y-74750424D01*
X138362499Y-75022499D01*
X138090424Y-75429688D01*
X137994884Y-75910000D01*
X137283400Y-75910000D01*
X137283400Y-73370000D01*
X137994884Y-73370000D01*
X138090424Y-73850312D01*
X138362499Y-74257501D01*
X138769688Y-74529576D01*
X139128761Y-74601000D01*
X139371239Y-74601000D01*
X139730312Y-74529576D01*
X140137501Y-74257501D01*
X140409576Y-73850312D01*
X140505116Y-73370000D01*
X140409576Y-72889688D01*
X140137501Y-72482499D01*
X139730312Y-72210424D01*
X139371239Y-72139000D01*
X139128761Y-72139000D01*
X138769688Y-72210424D01*
X138362499Y-72482499D01*
X138090424Y-72889688D01*
X137994884Y-73370000D01*
X137283400Y-73370000D01*
X137283400Y-70830000D01*
X137994884Y-70830000D01*
X138090424Y-71310312D01*
X138362499Y-71717501D01*
X138769688Y-71989576D01*
X139128761Y-72061000D01*
X139371239Y-72061000D01*
X139730312Y-71989576D01*
X140137501Y-71717501D01*
X140409576Y-71310312D01*
X140505116Y-70830000D01*
X140409576Y-70349688D01*
X140137501Y-69942499D01*
X139730312Y-69670424D01*
X139371239Y-69599000D01*
X139128761Y-69599000D01*
X138769688Y-69670424D01*
X138362499Y-69942499D01*
X138090424Y-70349688D01*
X137994884Y-70830000D01*
X137283400Y-70830000D01*
X137283400Y-68290000D01*
X137994884Y-68290000D01*
X138090424Y-68770312D01*
X138362499Y-69177501D01*
X138769688Y-69449576D01*
X139128761Y-69521000D01*
X139371239Y-69521000D01*
X139730312Y-69449576D01*
X140137501Y-69177501D01*
X140409576Y-68770312D01*
X140444517Y-68594649D01*
X146969000Y-68594649D01*
X146969000Y-68905351D01*
X147087900Y-69192401D01*
X147242000Y-69346501D01*
X147242001Y-75449967D01*
X147232049Y-75500000D01*
X147271475Y-75698211D01*
X147355412Y-75823832D01*
X147355415Y-75823835D01*
X147383754Y-75866247D01*
X147426166Y-75894586D01*
X148355412Y-76823832D01*
X148383753Y-76866247D01*
X148551788Y-76978525D01*
X148699968Y-77008000D01*
X148699972Y-77008000D01*
X148750000Y-77017951D01*
X148800028Y-77008000D01*
X164449972Y-77008000D01*
X164500000Y-77017951D01*
X164550028Y-77008000D01*
X164550032Y-77008000D01*
X164698212Y-76978525D01*
X164866247Y-76866247D01*
X164894588Y-76823833D01*
X164937420Y-76781000D01*
X165155351Y-76781000D01*
X165442401Y-76662100D01*
X165662100Y-76442401D01*
X165781000Y-76155351D01*
X165781000Y-75844649D01*
X165662100Y-75557599D01*
X165442401Y-75337900D01*
X165155351Y-75219000D01*
X164844649Y-75219000D01*
X164557599Y-75337900D01*
X164337900Y-75557599D01*
X164219000Y-75844649D01*
X164219000Y-75992000D01*
X148960420Y-75992000D01*
X148258000Y-75289580D01*
X148258000Y-74330000D01*
X167592876Y-74330000D01*
X167696371Y-74850306D01*
X167991101Y-75291399D01*
X168432194Y-75586129D01*
X168821165Y-75663500D01*
X169178835Y-75663500D01*
X169567806Y-75586129D01*
X170008899Y-75291399D01*
X170303629Y-74850306D01*
X170407124Y-74330000D01*
X170303629Y-73809694D01*
X170008899Y-73368601D01*
X169567806Y-73073871D01*
X169178835Y-72996500D01*
X168821165Y-72996500D01*
X168432194Y-73073871D01*
X167991101Y-73368601D01*
X167696371Y-73809694D01*
X167592876Y-74330000D01*
X148258000Y-74330000D01*
X148258000Y-69346501D01*
X148412100Y-69192401D01*
X148531000Y-68905351D01*
X148531000Y-68594649D01*
X148412100Y-68307599D01*
X148402001Y-68297500D01*
X167611536Y-68297500D01*
X167611536Y-70202500D01*
X167641106Y-70351159D01*
X167725314Y-70477186D01*
X167851341Y-70561394D01*
X168000000Y-70590964D01*
X170000000Y-70590964D01*
X170148659Y-70561394D01*
X170274686Y-70477186D01*
X170358894Y-70351159D01*
X170388464Y-70202500D01*
X170388464Y-68297500D01*
X170358894Y-68148841D01*
X170274686Y-68022814D01*
X170148659Y-67938606D01*
X170000000Y-67909036D01*
X168000000Y-67909036D01*
X167851341Y-67938606D01*
X167725314Y-68022814D01*
X167641106Y-68148841D01*
X167611536Y-68297500D01*
X148402001Y-68297500D01*
X148192401Y-68087900D01*
X147905351Y-67969000D01*
X147594649Y-67969000D01*
X147307599Y-68087900D01*
X147087900Y-68307599D01*
X146969000Y-68594649D01*
X140444517Y-68594649D01*
X140505116Y-68290000D01*
X140409576Y-67809688D01*
X140137501Y-67402499D01*
X139730312Y-67130424D01*
X139371239Y-67059000D01*
X139128761Y-67059000D01*
X138769688Y-67130424D01*
X138362499Y-67402499D01*
X138090424Y-67809688D01*
X137994884Y-68290000D01*
X137283400Y-68290000D01*
X137283400Y-64900000D01*
X138011536Y-64900000D01*
X138011536Y-66600000D01*
X138041106Y-66748659D01*
X138125314Y-66874686D01*
X138251341Y-66958894D01*
X138400000Y-66988464D01*
X140100000Y-66988464D01*
X140248659Y-66958894D01*
X140374686Y-66874686D01*
X140458894Y-66748659D01*
X140488464Y-66600000D01*
X140488464Y-64900000D01*
X140458894Y-64751341D01*
X140374686Y-64625314D01*
X140248659Y-64541106D01*
X140100000Y-64511536D01*
X138400000Y-64511536D01*
X138251341Y-64541106D01*
X138125314Y-64625314D01*
X138041106Y-64751341D01*
X138011536Y-64900000D01*
X137283400Y-64900000D01*
X137283400Y-60037740D01*
X141216600Y-63970941D01*
X141216601Y-66928898D01*
X141087900Y-67057599D01*
X140969000Y-67344649D01*
X140969000Y-67655351D01*
X141087900Y-67942401D01*
X141307599Y-68162100D01*
X141594649Y-68281000D01*
X141905351Y-68281000D01*
X142192401Y-68162100D01*
X142412100Y-67942401D01*
X142531000Y-67655351D01*
X142531000Y-67344649D01*
X142412100Y-67057599D01*
X142283400Y-66928899D01*
X142283400Y-65750000D01*
X142334884Y-65750000D01*
X142430424Y-66230312D01*
X142702499Y-66637501D01*
X143109688Y-66909576D01*
X143468761Y-66981000D01*
X143711239Y-66981000D01*
X144070312Y-66909576D01*
X144477501Y-66637501D01*
X144749576Y-66230312D01*
X144845116Y-65750000D01*
X144874884Y-65750000D01*
X144970424Y-66230312D01*
X145242499Y-66637501D01*
X145649688Y-66909576D01*
X146008761Y-66981000D01*
X146251239Y-66981000D01*
X146610312Y-66909576D01*
X147017501Y-66637501D01*
X147289576Y-66230312D01*
X147385116Y-65750000D01*
X147414884Y-65750000D01*
X147510424Y-66230312D01*
X147782499Y-66637501D01*
X148189688Y-66909576D01*
X148548761Y-66981000D01*
X148791239Y-66981000D01*
X149150312Y-66909576D01*
X149557501Y-66637501D01*
X149829576Y-66230312D01*
X149925116Y-65750000D01*
X149954884Y-65750000D01*
X150050424Y-66230312D01*
X150322499Y-66637501D01*
X150729688Y-66909576D01*
X151088761Y-66981000D01*
X151331239Y-66981000D01*
X151690312Y-66909576D01*
X152097501Y-66637501D01*
X152369576Y-66230312D01*
X152465116Y-65750000D01*
X152369576Y-65269688D01*
X152122559Y-64900000D01*
X152511536Y-64900000D01*
X152511536Y-66600000D01*
X152541106Y-66748659D01*
X152625314Y-66874686D01*
X152751341Y-66958894D01*
X152900000Y-66988464D01*
X154600000Y-66988464D01*
X154748659Y-66958894D01*
X154874686Y-66874686D01*
X154958894Y-66748659D01*
X154988464Y-66600000D01*
X154988464Y-64900000D01*
X154958894Y-64751341D01*
X154874686Y-64625314D01*
X154748659Y-64541106D01*
X154600000Y-64511536D01*
X152900000Y-64511536D01*
X152751341Y-64541106D01*
X152625314Y-64625314D01*
X152541106Y-64751341D01*
X152511536Y-64900000D01*
X152122559Y-64900000D01*
X152097501Y-64862499D01*
X151690312Y-64590424D01*
X151331239Y-64519000D01*
X151088761Y-64519000D01*
X150729688Y-64590424D01*
X150322499Y-64862499D01*
X150050424Y-65269688D01*
X149954884Y-65750000D01*
X149925116Y-65750000D01*
X149829576Y-65269688D01*
X149557501Y-64862499D01*
X149150312Y-64590424D01*
X148791239Y-64519000D01*
X148548761Y-64519000D01*
X148189688Y-64590424D01*
X147782499Y-64862499D01*
X147510424Y-65269688D01*
X147414884Y-65750000D01*
X147385116Y-65750000D01*
X147289576Y-65269688D01*
X147017501Y-64862499D01*
X146610312Y-64590424D01*
X146251239Y-64519000D01*
X146008761Y-64519000D01*
X145649688Y-64590424D01*
X145242499Y-64862499D01*
X144970424Y-65269688D01*
X144874884Y-65750000D01*
X144845116Y-65750000D01*
X144749576Y-65269688D01*
X144477501Y-64862499D01*
X144070312Y-64590424D01*
X143711239Y-64519000D01*
X143468761Y-64519000D01*
X143109688Y-64590424D01*
X142702499Y-64862499D01*
X142430424Y-65269688D01*
X142334884Y-65750000D01*
X142283400Y-65750000D01*
X142283400Y-63802527D01*
X142293848Y-63750000D01*
X142283400Y-63697473D01*
X142283400Y-63697469D01*
X142252451Y-63541878D01*
X142134559Y-63365441D01*
X142090026Y-63335685D01*
X137283400Y-58529060D01*
X137283400Y-57415628D01*
X146819000Y-57415628D01*
X146819000Y-58084372D01*
X147074917Y-58702210D01*
X147547790Y-59175083D01*
X148165628Y-59431000D01*
X148834372Y-59431000D01*
X149452210Y-59175083D01*
X149925083Y-58702210D01*
X150181000Y-58084372D01*
X150181000Y-57415628D01*
X156819000Y-57415628D01*
X156819000Y-58084372D01*
X157074917Y-58702210D01*
X157547790Y-59175083D01*
X158165628Y-59431000D01*
X158834372Y-59431000D01*
X159452210Y-59175083D01*
X159925083Y-58702210D01*
X160181000Y-58084372D01*
X160181000Y-57415628D01*
X159925083Y-56797790D01*
X159452210Y-56324917D01*
X158834372Y-56069000D01*
X158165628Y-56069000D01*
X157547790Y-56324917D01*
X157074917Y-56797790D01*
X156819000Y-57415628D01*
X150181000Y-57415628D01*
X149925083Y-56797790D01*
X149452210Y-56324917D01*
X148834372Y-56069000D01*
X148165628Y-56069000D01*
X147547790Y-56324917D01*
X147074917Y-56797790D01*
X146819000Y-57415628D01*
X137283400Y-57415628D01*
X137283400Y-53660000D01*
X137494884Y-53660000D01*
X137590424Y-54140312D01*
X137862499Y-54547501D01*
X138269688Y-54819576D01*
X138628761Y-54891000D01*
X138871239Y-54891000D01*
X139230312Y-54819576D01*
X139637501Y-54547501D01*
X139909576Y-54140312D01*
X140005116Y-53660000D01*
X139909576Y-53179688D01*
X139637501Y-52772499D01*
X139230312Y-52500424D01*
X138871239Y-52429000D01*
X138628761Y-52429000D01*
X138269688Y-52500424D01*
X137862499Y-52772499D01*
X137590424Y-53179688D01*
X137494884Y-53660000D01*
X137283400Y-53660000D01*
X137283400Y-51120000D01*
X137494884Y-51120000D01*
X137590424Y-51600312D01*
X137862499Y-52007501D01*
X138269688Y-52279576D01*
X138628761Y-52351000D01*
X138871239Y-52351000D01*
X139230312Y-52279576D01*
X139637501Y-52007501D01*
X139909576Y-51600312D01*
X140005116Y-51120000D01*
X139909576Y-50639688D01*
X139637501Y-50232499D01*
X139230312Y-49960424D01*
X138871239Y-49889000D01*
X138628761Y-49889000D01*
X138269688Y-49960424D01*
X137862499Y-50232499D01*
X137590424Y-50639688D01*
X137494884Y-51120000D01*
X137283400Y-51120000D01*
X137283400Y-48580000D01*
X137494884Y-48580000D01*
X137590424Y-49060312D01*
X137862499Y-49467501D01*
X138269688Y-49739576D01*
X138628761Y-49811000D01*
X138871239Y-49811000D01*
X139230312Y-49739576D01*
X139637501Y-49467501D01*
X139909576Y-49060312D01*
X140005116Y-48580000D01*
X139909576Y-48099688D01*
X139637501Y-47692499D01*
X139230312Y-47420424D01*
X138871239Y-47349000D01*
X138628761Y-47349000D01*
X138269688Y-47420424D01*
X137862499Y-47692499D01*
X137590424Y-48099688D01*
X137494884Y-48580000D01*
X137283400Y-48580000D01*
X137283400Y-46040000D01*
X137494884Y-46040000D01*
X137590424Y-46520312D01*
X137862499Y-46927501D01*
X138269688Y-47199576D01*
X138628761Y-47271000D01*
X138871239Y-47271000D01*
X139230312Y-47199576D01*
X139637501Y-46927501D01*
X139909576Y-46520312D01*
X139994245Y-46094649D01*
X146969000Y-46094649D01*
X146969000Y-46405351D01*
X147087900Y-46692401D01*
X147242000Y-46846501D01*
X147242001Y-52449967D01*
X147232049Y-52500000D01*
X147271475Y-52698211D01*
X147355412Y-52823832D01*
X147355415Y-52823835D01*
X147383754Y-52866247D01*
X147426166Y-52894586D01*
X148605414Y-54073835D01*
X148633753Y-54116247D01*
X148676165Y-54144586D01*
X148676167Y-54144588D01*
X148801788Y-54228525D01*
X148949968Y-54258000D01*
X148949972Y-54258000D01*
X149000000Y-54267951D01*
X149050028Y-54258000D01*
X163949972Y-54258000D01*
X164000000Y-54267951D01*
X164050028Y-54258000D01*
X164050032Y-54258000D01*
X164198212Y-54228525D01*
X164366247Y-54116247D01*
X164394588Y-54073832D01*
X164937420Y-53531000D01*
X165155351Y-53531000D01*
X165442401Y-53412100D01*
X165662100Y-53192401D01*
X165781000Y-52905351D01*
X165781000Y-52594649D01*
X165662100Y-52307599D01*
X165442401Y-52087900D01*
X165155351Y-51969000D01*
X164844649Y-51969000D01*
X164557599Y-52087900D01*
X164337900Y-52307599D01*
X164219000Y-52594649D01*
X164219000Y-52812580D01*
X163789580Y-53242000D01*
X149210421Y-53242000D01*
X148258000Y-52289580D01*
X148258000Y-51330000D01*
X168342876Y-51330000D01*
X168446371Y-51850306D01*
X168741101Y-52291399D01*
X169182194Y-52586129D01*
X169571165Y-52663500D01*
X169928835Y-52663500D01*
X170317806Y-52586129D01*
X170758899Y-52291399D01*
X171053629Y-51850306D01*
X171157124Y-51330000D01*
X171053629Y-50809694D01*
X170758899Y-50368601D01*
X170317806Y-50073871D01*
X169928835Y-49996500D01*
X169571165Y-49996500D01*
X169182194Y-50073871D01*
X168741101Y-50368601D01*
X168446371Y-50809694D01*
X168342876Y-51330000D01*
X148258000Y-51330000D01*
X148258000Y-46846501D01*
X148412100Y-46692401D01*
X148531000Y-46405351D01*
X148531000Y-46094649D01*
X148412100Y-45807599D01*
X148192401Y-45587900D01*
X147905351Y-45469000D01*
X147594649Y-45469000D01*
X147307599Y-45587900D01*
X147087900Y-45807599D01*
X146969000Y-46094649D01*
X139994245Y-46094649D01*
X140005116Y-46040000D01*
X139909576Y-45559688D01*
X139637501Y-45152499D01*
X139230312Y-44880424D01*
X138871239Y-44809000D01*
X138628761Y-44809000D01*
X138269688Y-44880424D01*
X137862499Y-45152499D01*
X137590424Y-45559688D01*
X137494884Y-46040000D01*
X137283400Y-46040000D01*
X137283400Y-42650000D01*
X137511536Y-42650000D01*
X137511536Y-44350000D01*
X137541106Y-44498659D01*
X137625314Y-44624686D01*
X137751341Y-44708894D01*
X137900000Y-44738464D01*
X139600000Y-44738464D01*
X139748659Y-44708894D01*
X139874686Y-44624686D01*
X139958894Y-44498659D01*
X139988464Y-44350000D01*
X139988464Y-42650000D01*
X139958894Y-42501341D01*
X139874686Y-42375314D01*
X139748659Y-42291106D01*
X139600000Y-42261536D01*
X137900000Y-42261536D01*
X137751341Y-42291106D01*
X137625314Y-42375314D01*
X137541106Y-42501341D01*
X137511536Y-42650000D01*
X137283400Y-42650000D01*
X137283400Y-39339820D01*
X138823836Y-37799385D01*
X138866247Y-37771047D01*
X138894586Y-37728635D01*
X138894588Y-37728633D01*
X138978525Y-37603012D01*
X138978525Y-37603011D01*
X139008000Y-37454832D01*
X139008000Y-37454828D01*
X139017951Y-37404800D01*
X139008000Y-37354772D01*
X139008000Y-37238464D01*
X139350000Y-37238464D01*
X139498659Y-37208894D01*
X139624686Y-37124686D01*
X139708894Y-36998659D01*
X139737986Y-36852406D01*
X142015158Y-39129578D01*
X142015157Y-44132806D01*
X141861057Y-44286906D01*
X141742157Y-44573956D01*
X141742157Y-44884658D01*
X141861057Y-45171708D01*
X142080756Y-45391407D01*
X142367806Y-45510307D01*
X142678508Y-45510307D01*
X142965558Y-45391407D01*
X143059465Y-45297500D01*
X168361536Y-45297500D01*
X168361536Y-47202500D01*
X168391106Y-47351159D01*
X168475314Y-47477186D01*
X168601341Y-47561394D01*
X168750000Y-47590964D01*
X170750000Y-47590964D01*
X170898659Y-47561394D01*
X171024686Y-47477186D01*
X171108894Y-47351159D01*
X171138464Y-47202500D01*
X171138464Y-45297500D01*
X171108894Y-45148841D01*
X171024686Y-45022814D01*
X170898659Y-44938606D01*
X170750000Y-44909036D01*
X168750000Y-44909036D01*
X168601341Y-44938606D01*
X168475314Y-45022814D01*
X168391106Y-45148841D01*
X168361536Y-45297500D01*
X143059465Y-45297500D01*
X143185257Y-45171708D01*
X143304157Y-44884658D01*
X143304157Y-44622471D01*
X143359688Y-44659576D01*
X143718761Y-44731000D01*
X143961239Y-44731000D01*
X144320312Y-44659576D01*
X144727501Y-44387501D01*
X144999576Y-43980312D01*
X145095116Y-43500000D01*
X145124884Y-43500000D01*
X145220424Y-43980312D01*
X145492499Y-44387501D01*
X145899688Y-44659576D01*
X146258761Y-44731000D01*
X146501239Y-44731000D01*
X146860312Y-44659576D01*
X147267501Y-44387501D01*
X147539576Y-43980312D01*
X147635116Y-43500000D01*
X147664884Y-43500000D01*
X147760424Y-43980312D01*
X148032499Y-44387501D01*
X148439688Y-44659576D01*
X148798761Y-44731000D01*
X149041239Y-44731000D01*
X149400312Y-44659576D01*
X149807501Y-44387501D01*
X150079576Y-43980312D01*
X150175116Y-43500000D01*
X150204884Y-43500000D01*
X150300424Y-43980312D01*
X150572499Y-44387501D01*
X150979688Y-44659576D01*
X151338761Y-44731000D01*
X151581239Y-44731000D01*
X151940312Y-44659576D01*
X152347501Y-44387501D01*
X152619576Y-43980312D01*
X152715116Y-43500000D01*
X152619576Y-43019688D01*
X152372559Y-42650000D01*
X152761536Y-42650000D01*
X152761536Y-44350000D01*
X152791106Y-44498659D01*
X152875314Y-44624686D01*
X153001341Y-44708894D01*
X153150000Y-44738464D01*
X154850000Y-44738464D01*
X154998659Y-44708894D01*
X155124686Y-44624686D01*
X155208894Y-44498659D01*
X155238464Y-44350000D01*
X155238464Y-42650000D01*
X155208894Y-42501341D01*
X155124686Y-42375314D01*
X154998659Y-42291106D01*
X154850000Y-42261536D01*
X153150000Y-42261536D01*
X153001341Y-42291106D01*
X152875314Y-42375314D01*
X152791106Y-42501341D01*
X152761536Y-42650000D01*
X152372559Y-42650000D01*
X152347501Y-42612499D01*
X151940312Y-42340424D01*
X151581239Y-42269000D01*
X151338761Y-42269000D01*
X150979688Y-42340424D01*
X150572499Y-42612499D01*
X150300424Y-43019688D01*
X150204884Y-43500000D01*
X150175116Y-43500000D01*
X150079576Y-43019688D01*
X149807501Y-42612499D01*
X149400312Y-42340424D01*
X149041239Y-42269000D01*
X148798761Y-42269000D01*
X148439688Y-42340424D01*
X148032499Y-42612499D01*
X147760424Y-43019688D01*
X147664884Y-43500000D01*
X147635116Y-43500000D01*
X147539576Y-43019688D01*
X147267501Y-42612499D01*
X146860312Y-42340424D01*
X146501239Y-42269000D01*
X146258761Y-42269000D01*
X145899688Y-42340424D01*
X145492499Y-42612499D01*
X145220424Y-43019688D01*
X145124884Y-43500000D01*
X145095116Y-43500000D01*
X144999576Y-43019688D01*
X144727501Y-42612499D01*
X144320312Y-42340424D01*
X143961239Y-42269000D01*
X143718761Y-42269000D01*
X143359688Y-42340424D01*
X143031157Y-42559941D01*
X143031157Y-38969184D01*
X143041108Y-38919156D01*
X143031157Y-38869128D01*
X143031157Y-38869125D01*
X143001682Y-38720945D01*
X142889404Y-38552910D01*
X142846989Y-38524569D01*
X139998588Y-35676168D01*
X139970247Y-35633753D01*
X139802212Y-35521475D01*
X139738464Y-35508795D01*
X139738464Y-35150000D01*
X139708894Y-35001341D01*
X139624686Y-34875314D01*
X139498659Y-34791106D01*
X139350000Y-34761536D01*
X137650000Y-34761536D01*
X137501341Y-34791106D01*
X137375314Y-34875314D01*
X137291106Y-35001341D01*
X137261536Y-35150000D01*
X137261536Y-36850000D01*
X137291106Y-36998659D01*
X137375314Y-37124686D01*
X137501341Y-37208894D01*
X137650000Y-37238464D01*
X137947915Y-37238464D01*
X136518229Y-38668151D01*
X136365441Y-38770241D01*
X136247549Y-38946679D01*
X136216600Y-39102270D01*
X136216601Y-58697465D01*
X136216600Y-58697470D01*
X136216600Y-58697474D01*
X136206152Y-58750000D01*
X135206000Y-58750000D01*
X135206000Y-27499560D01*
X142361096Y-27499560D01*
X142361096Y-32000440D01*
X142390666Y-32149099D01*
X142474874Y-32275126D01*
X142600901Y-32359334D01*
X142749560Y-32388904D01*
X147250440Y-32388904D01*
X147399099Y-32359334D01*
X147525126Y-32275126D01*
X147609334Y-32149099D01*
X147638904Y-32000440D01*
X147638904Y-27499560D01*
X147609334Y-27350901D01*
X147525126Y-27224874D01*
X147399099Y-27140666D01*
X147250440Y-27111096D01*
X142749560Y-27111096D01*
X142600901Y-27140666D01*
X142474874Y-27224874D01*
X142390666Y-27350901D01*
X142361096Y-27499560D01*
X135206000Y-27499560D01*
X135206000Y-22155683D01*
X137019000Y-22155683D01*
X137019000Y-22844317D01*
X137282529Y-23480533D01*
X137769467Y-23967471D01*
X138405683Y-24231000D01*
X139094317Y-24231000D01*
X139730533Y-23967471D01*
X140217471Y-23480533D01*
X140416514Y-23000000D01*
X153861536Y-23000000D01*
X153861536Y-31000000D01*
X153891106Y-31148659D01*
X153975314Y-31274686D01*
X154101341Y-31358894D01*
X154250000Y-31388464D01*
X158250000Y-31388464D01*
X158398659Y-31358894D01*
X158524686Y-31274686D01*
X158608894Y-31148659D01*
X158638464Y-31000000D01*
X158638464Y-23000000D01*
X164361536Y-23000000D01*
X164361536Y-31000000D01*
X164391106Y-31148659D01*
X164475314Y-31274686D01*
X164601341Y-31358894D01*
X164750000Y-31388464D01*
X168750000Y-31388464D01*
X168898659Y-31358894D01*
X169024686Y-31274686D01*
X169108894Y-31148659D01*
X169138464Y-31000000D01*
X169138464Y-23000000D01*
X174861536Y-23000000D01*
X174861536Y-31000000D01*
X174891106Y-31148659D01*
X174975314Y-31274686D01*
X175101341Y-31358894D01*
X175250000Y-31388464D01*
X179250000Y-31388464D01*
X179398659Y-31358894D01*
X179524686Y-31274686D01*
X179608894Y-31148659D01*
X179638464Y-31000000D01*
X179638464Y-23000000D01*
X179608894Y-22851341D01*
X179524686Y-22725314D01*
X179398659Y-22641106D01*
X179250000Y-22611536D01*
X175250000Y-22611536D01*
X175101341Y-22641106D01*
X174975314Y-22725314D01*
X174891106Y-22851341D01*
X174861536Y-23000000D01*
X169138464Y-23000000D01*
X169108894Y-22851341D01*
X169024686Y-22725314D01*
X168898659Y-22641106D01*
X168750000Y-22611536D01*
X164750000Y-22611536D01*
X164601341Y-22641106D01*
X164475314Y-22725314D01*
X164391106Y-22851341D01*
X164361536Y-23000000D01*
X158638464Y-23000000D01*
X158608894Y-22851341D01*
X158524686Y-22725314D01*
X158398659Y-22641106D01*
X158250000Y-22611536D01*
X154250000Y-22611536D01*
X154101341Y-22641106D01*
X153975314Y-22725314D01*
X153891106Y-22851341D01*
X153861536Y-23000000D01*
X140416514Y-23000000D01*
X140481000Y-22844317D01*
X140481000Y-22155683D01*
X140217471Y-21519467D01*
X139730533Y-21032529D01*
X139094317Y-20769000D01*
X138405683Y-20769000D01*
X137769467Y-21032529D01*
X137282529Y-21519467D01*
X137019000Y-22155683D01*
X135206000Y-22155683D01*
X135206000Y-18956000D01*
X181544000Y-18956000D01*
X181544001Y-109794000D01*
X181544001Y-109794000D01*
G37*
X181544001Y-109794000D02*
X135206000Y-109794000D01*
X135206000Y-104165628D01*
X147069000Y-104165628D01*
X147069000Y-104834372D01*
X147324917Y-105452210D01*
X147797790Y-105925083D01*
X148415628Y-106181000D01*
X149084372Y-106181000D01*
X149702210Y-105925083D01*
X150175083Y-105452210D01*
X150431000Y-104834372D01*
X150431000Y-104165628D01*
X156569000Y-104165628D01*
X156569000Y-104834372D01*
X156824917Y-105452210D01*
X157297790Y-105925083D01*
X157915628Y-106181000D01*
X158584372Y-106181000D01*
X159202210Y-105925083D01*
X159221610Y-105905683D01*
X175769000Y-105905683D01*
X175769000Y-106594317D01*
X176032529Y-107230533D01*
X176519467Y-107717471D01*
X177155683Y-107981000D01*
X177844317Y-107981000D01*
X178480533Y-107717471D01*
X178967471Y-107230533D01*
X179231000Y-106594317D01*
X179231000Y-105905683D01*
X178967471Y-105269467D01*
X178480533Y-104782529D01*
X177844317Y-104519000D01*
X177155683Y-104519000D01*
X176519467Y-104782529D01*
X176032529Y-105269467D01*
X175769000Y-105905683D01*
X159221610Y-105905683D01*
X159675083Y-105452210D01*
X159931000Y-104834372D01*
X159931000Y-104165628D01*
X159675083Y-103547790D01*
X159202210Y-103074917D01*
X158584372Y-102819000D01*
X157915628Y-102819000D01*
X157297790Y-103074917D01*
X156824917Y-103547790D01*
X156569000Y-104165628D01*
X150431000Y-104165628D01*
X150175083Y-103547790D01*
X149702210Y-103074917D01*
X149084372Y-102819000D01*
X148415628Y-102819000D01*
X147797790Y-103074917D01*
X147324917Y-103547790D01*
X147069000Y-104165628D01*
X135206000Y-104165628D01*
X135206000Y-100660000D01*
X138994884Y-100660000D01*
X139090424Y-101140312D01*
X139362499Y-101547501D01*
X139769688Y-101819576D01*
X140128761Y-101891000D01*
X140371239Y-101891000D01*
X140730312Y-101819576D01*
X141137501Y-101547501D01*
X141409576Y-101140312D01*
X141505116Y-100660000D01*
X141409576Y-100179688D01*
X141137501Y-99772499D01*
X140730312Y-99500424D01*
X140371239Y-99429000D01*
X140128761Y-99429000D01*
X139769688Y-99500424D01*
X139362499Y-99772499D01*
X139090424Y-100179688D01*
X138994884Y-100660000D01*
X135206000Y-100660000D01*
X135206000Y-98120000D01*
X138994884Y-98120000D01*
X139090424Y-98600312D01*
X139362499Y-99007501D01*
X139769688Y-99279576D01*
X140128761Y-99351000D01*
X140371239Y-99351000D01*
X140730312Y-99279576D01*
X141137501Y-99007501D01*
X141409576Y-98600312D01*
X141505116Y-98120000D01*
X141409576Y-97639688D01*
X141137501Y-97232499D01*
X140730312Y-96960424D01*
X140371239Y-96889000D01*
X140128761Y-96889000D01*
X139769688Y-96960424D01*
X139362499Y-97232499D01*
X139090424Y-97639688D01*
X138994884Y-98120000D01*
X135206000Y-98120000D01*
X135206000Y-95580000D01*
X138994884Y-95580000D01*
X139090424Y-96060312D01*
X139362499Y-96467501D01*
X139769688Y-96739576D01*
X140128761Y-96811000D01*
X140371239Y-96811000D01*
X140730312Y-96739576D01*
X141137501Y-96467501D01*
X141409576Y-96060312D01*
X141505116Y-95580000D01*
X141409576Y-95099688D01*
X141137501Y-94692499D01*
X140730312Y-94420424D01*
X140371239Y-94349000D01*
X140128761Y-94349000D01*
X139769688Y-94420424D01*
X139362499Y-94692499D01*
X139090424Y-95099688D01*
X138994884Y-95580000D01*
X135206000Y-95580000D01*
X135206000Y-93040000D01*
X138994884Y-93040000D01*
X139090424Y-93520312D01*
X139362499Y-93927501D01*
X139769688Y-94199576D01*
X140128761Y-94271000D01*
X140371239Y-94271000D01*
X140730312Y-94199576D01*
X141137501Y-93927501D01*
X141409576Y-93520312D01*
X141494245Y-93094649D01*
X147719000Y-93094649D01*
X147719000Y-93405351D01*
X147837900Y-93692401D01*
X147992000Y-93846501D01*
X147992001Y-99949967D01*
X147982049Y-100000000D01*
X148021475Y-100198211D01*
X148105412Y-100323832D01*
X148105415Y-100323835D01*
X148133754Y-100366247D01*
X148176166Y-100394586D01*
X148855414Y-101073835D01*
X148883753Y-101116247D01*
X148926165Y-101144586D01*
X148926167Y-101144588D01*
X149051788Y-101228525D01*
X149199968Y-101258000D01*
X149199971Y-101258000D01*
X149249999Y-101267951D01*
X149300027Y-101258000D01*
X163699972Y-101258000D01*
X163750000Y-101267951D01*
X163800028Y-101258000D01*
X163800032Y-101258000D01*
X163948212Y-101228525D01*
X164116247Y-101116247D01*
X164144588Y-101073832D01*
X164437420Y-100781000D01*
X164655351Y-100781000D01*
X164942401Y-100662100D01*
X165162100Y-100442401D01*
X165281000Y-100155351D01*
X165281000Y-99844649D01*
X165162100Y-99557599D01*
X164942401Y-99337900D01*
X164655351Y-99219000D01*
X164344649Y-99219000D01*
X164057599Y-99337900D01*
X163837900Y-99557599D01*
X163719000Y-99844649D01*
X163719000Y-100062580D01*
X163539580Y-100242000D01*
X149460421Y-100242000D01*
X149008000Y-99789580D01*
X149008000Y-98080000D01*
X167592876Y-98080000D01*
X167696371Y-98600306D01*
X167991101Y-99041399D01*
X168432194Y-99336129D01*
X168821165Y-99413500D01*
X169178835Y-99413500D01*
X169567806Y-99336129D01*
X170008899Y-99041399D01*
X170303629Y-98600306D01*
X170407124Y-98080000D01*
X170303629Y-97559694D01*
X170008899Y-97118601D01*
X169567806Y-96823871D01*
X169178835Y-96746500D01*
X168821165Y-96746500D01*
X168432194Y-96823871D01*
X167991101Y-97118601D01*
X167696371Y-97559694D01*
X167592876Y-98080000D01*
X149008000Y-98080000D01*
X149008000Y-93846501D01*
X149162100Y-93692401D01*
X149281000Y-93405351D01*
X149281000Y-93094649D01*
X149162100Y-92807599D01*
X148942401Y-92587900D01*
X148655351Y-92469000D01*
X148344649Y-92469000D01*
X148057599Y-92587900D01*
X147837900Y-92807599D01*
X147719000Y-93094649D01*
X141494245Y-93094649D01*
X141505116Y-93040000D01*
X141409576Y-92559688D01*
X141137501Y-92152499D01*
X140730312Y-91880424D01*
X140371239Y-91809000D01*
X140128761Y-91809000D01*
X139769688Y-91880424D01*
X139362499Y-92152499D01*
X139090424Y-92559688D01*
X138994884Y-93040000D01*
X135206000Y-93040000D01*
X135206000Y-89650000D01*
X139011536Y-89650000D01*
X139011536Y-91350000D01*
X139041106Y-91498659D01*
X139125314Y-91624686D01*
X139251341Y-91708894D01*
X139400000Y-91738464D01*
X141100000Y-91738464D01*
X141248659Y-91708894D01*
X141374686Y-91624686D01*
X141458894Y-91498659D01*
X141488464Y-91350000D01*
X141488464Y-89650000D01*
X141458894Y-89501341D01*
X141374686Y-89375314D01*
X141248659Y-89291106D01*
X141100000Y-89261536D01*
X139400000Y-89261536D01*
X139251341Y-89291106D01*
X139125314Y-89375314D01*
X139041106Y-89501341D01*
X139011536Y-89650000D01*
X135206000Y-89650000D01*
X135206000Y-58750000D01*
X136206152Y-58750000D01*
X136216600Y-58802526D01*
X136216601Y-83447469D01*
X136206152Y-83500000D01*
X136216601Y-83552531D01*
X136247550Y-83708122D01*
X136365442Y-83884559D01*
X136409975Y-83914315D01*
X141966600Y-89470941D01*
X141966601Y-90928898D01*
X141837900Y-91057599D01*
X141719000Y-91344649D01*
X141719000Y-91655351D01*
X141837900Y-91942401D01*
X142057599Y-92162100D01*
X142344649Y-92281000D01*
X142655351Y-92281000D01*
X142942401Y-92162100D01*
X143057001Y-92047500D01*
X167611536Y-92047500D01*
X167611536Y-93952500D01*
X167641106Y-94101159D01*
X167725314Y-94227186D01*
X167851341Y-94311394D01*
X168000000Y-94340964D01*
X170000000Y-94340964D01*
X170148659Y-94311394D01*
X170274686Y-94227186D01*
X170358894Y-94101159D01*
X170388464Y-93952500D01*
X170388464Y-92047500D01*
X170358894Y-91898841D01*
X170274686Y-91772814D01*
X170148659Y-91688606D01*
X170000000Y-91659036D01*
X168000000Y-91659036D01*
X167851341Y-91688606D01*
X167725314Y-91772814D01*
X167641106Y-91898841D01*
X167611536Y-92047500D01*
X143057001Y-92047500D01*
X143162100Y-91942401D01*
X143281000Y-91655351D01*
X143281000Y-91344649D01*
X143162100Y-91057599D01*
X143033400Y-90928899D01*
X143033400Y-90500000D01*
X143084884Y-90500000D01*
X143180424Y-90980312D01*
X143452499Y-91387501D01*
X143859688Y-91659576D01*
X144218761Y-91731000D01*
X144461239Y-91731000D01*
X144820312Y-91659576D01*
X145227501Y-91387501D01*
X145499576Y-90980312D01*
X145595116Y-90500000D01*
X145624884Y-90500000D01*
X145720424Y-90980312D01*
X145992499Y-91387501D01*
X146399688Y-91659576D01*
X146758761Y-91731000D01*
X147001239Y-91731000D01*
X147360312Y-91659576D01*
X147767501Y-91387501D01*
X148039576Y-90980312D01*
X148135116Y-90500000D01*
X148164884Y-90500000D01*
X148260424Y-90980312D01*
X148532499Y-91387501D01*
X148939688Y-91659576D01*
X149298761Y-91731000D01*
X149541239Y-91731000D01*
X149900312Y-91659576D01*
X150307501Y-91387501D01*
X150579576Y-90980312D01*
X150675116Y-90500000D01*
X150704884Y-90500000D01*
X150800424Y-90980312D01*
X151072499Y-91387501D01*
X151479688Y-91659576D01*
X151838761Y-91731000D01*
X152081239Y-91731000D01*
X152440312Y-91659576D01*
X152847501Y-91387501D01*
X153119576Y-90980312D01*
X153215116Y-90500000D01*
X153119576Y-90019688D01*
X152872559Y-89650000D01*
X153261536Y-89650000D01*
X153261536Y-91350000D01*
X153291106Y-91498659D01*
X153375314Y-91624686D01*
X153501341Y-91708894D01*
X153650000Y-91738464D01*
X155350000Y-91738464D01*
X155498659Y-91708894D01*
X155624686Y-91624686D01*
X155708894Y-91498659D01*
X155738464Y-91350000D01*
X155738464Y-89650000D01*
X155708894Y-89501341D01*
X155624686Y-89375314D01*
X155498659Y-89291106D01*
X155350000Y-89261536D01*
X153650000Y-89261536D01*
X153501341Y-89291106D01*
X153375314Y-89375314D01*
X153291106Y-89501341D01*
X153261536Y-89650000D01*
X152872559Y-89650000D01*
X152847501Y-89612499D01*
X152440312Y-89340424D01*
X152081239Y-89269000D01*
X151838761Y-89269000D01*
X151479688Y-89340424D01*
X151072499Y-89612499D01*
X150800424Y-90019688D01*
X150704884Y-90500000D01*
X150675116Y-90500000D01*
X150579576Y-90019688D01*
X150307501Y-89612499D01*
X149900312Y-89340424D01*
X149541239Y-89269000D01*
X149298761Y-89269000D01*
X148939688Y-89340424D01*
X148532499Y-89612499D01*
X148260424Y-90019688D01*
X148164884Y-90500000D01*
X148135116Y-90500000D01*
X148039576Y-90019688D01*
X147767501Y-89612499D01*
X147360312Y-89340424D01*
X147001239Y-89269000D01*
X146758761Y-89269000D01*
X146399688Y-89340424D01*
X145992499Y-89612499D01*
X145720424Y-90019688D01*
X145624884Y-90500000D01*
X145595116Y-90500000D01*
X145499576Y-90019688D01*
X145227501Y-89612499D01*
X144820312Y-89340424D01*
X144461239Y-89269000D01*
X144218761Y-89269000D01*
X143859688Y-89340424D01*
X143452499Y-89612499D01*
X143180424Y-90019688D01*
X143084884Y-90500000D01*
X143033400Y-90500000D01*
X143033400Y-89302526D01*
X143043848Y-89250000D01*
X143033400Y-89197474D01*
X143033400Y-89197469D01*
X143002451Y-89041878D01*
X142884559Y-88865441D01*
X142840026Y-88835685D01*
X137283400Y-83279060D01*
X137283400Y-80415628D01*
X147319000Y-80415628D01*
X147319000Y-81084372D01*
X147574917Y-81702210D01*
X148047790Y-82175083D01*
X148665628Y-82431000D01*
X149334372Y-82431000D01*
X149952210Y-82175083D01*
X150425083Y-81702210D01*
X150681000Y-81084372D01*
X150681000Y-80415628D01*
X156569000Y-80415628D01*
X156569000Y-81084372D01*
X156824917Y-81702210D01*
X157297790Y-82175083D01*
X157915628Y-82431000D01*
X158584372Y-82431000D01*
X159202210Y-82175083D01*
X159675083Y-81702210D01*
X159931000Y-81084372D01*
X159931000Y-80415628D01*
X159675083Y-79797790D01*
X159202210Y-79324917D01*
X158584372Y-79069000D01*
X157915628Y-79069000D01*
X157297790Y-79324917D01*
X156824917Y-79797790D01*
X156569000Y-80415628D01*
X150681000Y-80415628D01*
X150425083Y-79797790D01*
X149952210Y-79324917D01*
X149334372Y-79069000D01*
X148665628Y-79069000D01*
X148047790Y-79324917D01*
X147574917Y-79797790D01*
X147319000Y-80415628D01*
X137283400Y-80415628D01*
X137283400Y-75910000D01*
X137994884Y-75910000D01*
X138090424Y-76390312D01*
X138362499Y-76797501D01*
X138769688Y-77069576D01*
X139128761Y-77141000D01*
X139371239Y-77141000D01*
X139730312Y-77069576D01*
X140137501Y-76797501D01*
X140409576Y-76390312D01*
X140505116Y-75910000D01*
X140409576Y-75429688D01*
X140137501Y-75022499D01*
X139730312Y-74750424D01*
X139371239Y-74679000D01*
X139128761Y-74679000D01*
X138769688Y-74750424D01*
X138362499Y-75022499D01*
X138090424Y-75429688D01*
X137994884Y-75910000D01*
X137283400Y-75910000D01*
X137283400Y-73370000D01*
X137994884Y-73370000D01*
X138090424Y-73850312D01*
X138362499Y-74257501D01*
X138769688Y-74529576D01*
X139128761Y-74601000D01*
X139371239Y-74601000D01*
X139730312Y-74529576D01*
X140137501Y-74257501D01*
X140409576Y-73850312D01*
X140505116Y-73370000D01*
X140409576Y-72889688D01*
X140137501Y-72482499D01*
X139730312Y-72210424D01*
X139371239Y-72139000D01*
X139128761Y-72139000D01*
X138769688Y-72210424D01*
X138362499Y-72482499D01*
X138090424Y-72889688D01*
X137994884Y-73370000D01*
X137283400Y-73370000D01*
X137283400Y-70830000D01*
X137994884Y-70830000D01*
X138090424Y-71310312D01*
X138362499Y-71717501D01*
X138769688Y-71989576D01*
X139128761Y-72061000D01*
X139371239Y-72061000D01*
X139730312Y-71989576D01*
X140137501Y-71717501D01*
X140409576Y-71310312D01*
X140505116Y-70830000D01*
X140409576Y-70349688D01*
X140137501Y-69942499D01*
X139730312Y-69670424D01*
X139371239Y-69599000D01*
X139128761Y-69599000D01*
X138769688Y-69670424D01*
X138362499Y-69942499D01*
X138090424Y-70349688D01*
X137994884Y-70830000D01*
X137283400Y-70830000D01*
X137283400Y-68290000D01*
X137994884Y-68290000D01*
X138090424Y-68770312D01*
X138362499Y-69177501D01*
X138769688Y-69449576D01*
X139128761Y-69521000D01*
X139371239Y-69521000D01*
X139730312Y-69449576D01*
X140137501Y-69177501D01*
X140409576Y-68770312D01*
X140444517Y-68594649D01*
X146969000Y-68594649D01*
X146969000Y-68905351D01*
X147087900Y-69192401D01*
X147242000Y-69346501D01*
X147242001Y-75449967D01*
X147232049Y-75500000D01*
X147271475Y-75698211D01*
X147355412Y-75823832D01*
X147355415Y-75823835D01*
X147383754Y-75866247D01*
X147426166Y-75894586D01*
X148355412Y-76823832D01*
X148383753Y-76866247D01*
X148551788Y-76978525D01*
X148699968Y-77008000D01*
X148699972Y-77008000D01*
X148750000Y-77017951D01*
X148800028Y-77008000D01*
X164449972Y-77008000D01*
X164500000Y-77017951D01*
X164550028Y-77008000D01*
X164550032Y-77008000D01*
X164698212Y-76978525D01*
X164866247Y-76866247D01*
X164894588Y-76823833D01*
X164937420Y-76781000D01*
X165155351Y-76781000D01*
X165442401Y-76662100D01*
X165662100Y-76442401D01*
X165781000Y-76155351D01*
X165781000Y-75844649D01*
X165662100Y-75557599D01*
X165442401Y-75337900D01*
X165155351Y-75219000D01*
X164844649Y-75219000D01*
X164557599Y-75337900D01*
X164337900Y-75557599D01*
X164219000Y-75844649D01*
X164219000Y-75992000D01*
X148960420Y-75992000D01*
X148258000Y-75289580D01*
X148258000Y-74330000D01*
X167592876Y-74330000D01*
X167696371Y-74850306D01*
X167991101Y-75291399D01*
X168432194Y-75586129D01*
X168821165Y-75663500D01*
X169178835Y-75663500D01*
X169567806Y-75586129D01*
X170008899Y-75291399D01*
X170303629Y-74850306D01*
X170407124Y-74330000D01*
X170303629Y-73809694D01*
X170008899Y-73368601D01*
X169567806Y-73073871D01*
X169178835Y-72996500D01*
X168821165Y-72996500D01*
X168432194Y-73073871D01*
X167991101Y-73368601D01*
X167696371Y-73809694D01*
X167592876Y-74330000D01*
X148258000Y-74330000D01*
X148258000Y-69346501D01*
X148412100Y-69192401D01*
X148531000Y-68905351D01*
X148531000Y-68594649D01*
X148412100Y-68307599D01*
X148402001Y-68297500D01*
X167611536Y-68297500D01*
X167611536Y-70202500D01*
X167641106Y-70351159D01*
X167725314Y-70477186D01*
X167851341Y-70561394D01*
X168000000Y-70590964D01*
X170000000Y-70590964D01*
X170148659Y-70561394D01*
X170274686Y-70477186D01*
X170358894Y-70351159D01*
X170388464Y-70202500D01*
X170388464Y-68297500D01*
X170358894Y-68148841D01*
X170274686Y-68022814D01*
X170148659Y-67938606D01*
X170000000Y-67909036D01*
X168000000Y-67909036D01*
X167851341Y-67938606D01*
X167725314Y-68022814D01*
X167641106Y-68148841D01*
X167611536Y-68297500D01*
X148402001Y-68297500D01*
X148192401Y-68087900D01*
X147905351Y-67969000D01*
X147594649Y-67969000D01*
X147307599Y-68087900D01*
X147087900Y-68307599D01*
X146969000Y-68594649D01*
X140444517Y-68594649D01*
X140505116Y-68290000D01*
X140409576Y-67809688D01*
X140137501Y-67402499D01*
X139730312Y-67130424D01*
X139371239Y-67059000D01*
X139128761Y-67059000D01*
X138769688Y-67130424D01*
X138362499Y-67402499D01*
X138090424Y-67809688D01*
X137994884Y-68290000D01*
X137283400Y-68290000D01*
X137283400Y-64900000D01*
X138011536Y-64900000D01*
X138011536Y-66600000D01*
X138041106Y-66748659D01*
X138125314Y-66874686D01*
X138251341Y-66958894D01*
X138400000Y-66988464D01*
X140100000Y-66988464D01*
X140248659Y-66958894D01*
X140374686Y-66874686D01*
X140458894Y-66748659D01*
X140488464Y-66600000D01*
X140488464Y-64900000D01*
X140458894Y-64751341D01*
X140374686Y-64625314D01*
X140248659Y-64541106D01*
X140100000Y-64511536D01*
X138400000Y-64511536D01*
X138251341Y-64541106D01*
X138125314Y-64625314D01*
X138041106Y-64751341D01*
X138011536Y-64900000D01*
X137283400Y-64900000D01*
X137283400Y-60037740D01*
X141216600Y-63970941D01*
X141216601Y-66928898D01*
X141087900Y-67057599D01*
X140969000Y-67344649D01*
X140969000Y-67655351D01*
X141087900Y-67942401D01*
X141307599Y-68162100D01*
X141594649Y-68281000D01*
X141905351Y-68281000D01*
X142192401Y-68162100D01*
X142412100Y-67942401D01*
X142531000Y-67655351D01*
X142531000Y-67344649D01*
X142412100Y-67057599D01*
X142283400Y-66928899D01*
X142283400Y-65750000D01*
X142334884Y-65750000D01*
X142430424Y-66230312D01*
X142702499Y-66637501D01*
X143109688Y-66909576D01*
X143468761Y-66981000D01*
X143711239Y-66981000D01*
X144070312Y-66909576D01*
X144477501Y-66637501D01*
X144749576Y-66230312D01*
X144845116Y-65750000D01*
X144874884Y-65750000D01*
X144970424Y-66230312D01*
X145242499Y-66637501D01*
X145649688Y-66909576D01*
X146008761Y-66981000D01*
X146251239Y-66981000D01*
X146610312Y-66909576D01*
X147017501Y-66637501D01*
X147289576Y-66230312D01*
X147385116Y-65750000D01*
X147414884Y-65750000D01*
X147510424Y-66230312D01*
X147782499Y-66637501D01*
X148189688Y-66909576D01*
X148548761Y-66981000D01*
X148791239Y-66981000D01*
X149150312Y-66909576D01*
X149557501Y-66637501D01*
X149829576Y-66230312D01*
X149925116Y-65750000D01*
X149954884Y-65750000D01*
X150050424Y-66230312D01*
X150322499Y-66637501D01*
X150729688Y-66909576D01*
X151088761Y-66981000D01*
X151331239Y-66981000D01*
X151690312Y-66909576D01*
X152097501Y-66637501D01*
X152369576Y-66230312D01*
X152465116Y-65750000D01*
X152369576Y-65269688D01*
X152122559Y-64900000D01*
X152511536Y-64900000D01*
X152511536Y-66600000D01*
X152541106Y-66748659D01*
X152625314Y-66874686D01*
X152751341Y-66958894D01*
X152900000Y-66988464D01*
X154600000Y-66988464D01*
X154748659Y-66958894D01*
X154874686Y-66874686D01*
X154958894Y-66748659D01*
X154988464Y-66600000D01*
X154988464Y-64900000D01*
X154958894Y-64751341D01*
X154874686Y-64625314D01*
X154748659Y-64541106D01*
X154600000Y-64511536D01*
X152900000Y-64511536D01*
X152751341Y-64541106D01*
X152625314Y-64625314D01*
X152541106Y-64751341D01*
X152511536Y-64900000D01*
X152122559Y-64900000D01*
X152097501Y-64862499D01*
X151690312Y-64590424D01*
X151331239Y-64519000D01*
X151088761Y-64519000D01*
X150729688Y-64590424D01*
X150322499Y-64862499D01*
X150050424Y-65269688D01*
X149954884Y-65750000D01*
X149925116Y-65750000D01*
X149829576Y-65269688D01*
X149557501Y-64862499D01*
X149150312Y-64590424D01*
X148791239Y-64519000D01*
X148548761Y-64519000D01*
X148189688Y-64590424D01*
X147782499Y-64862499D01*
X147510424Y-65269688D01*
X147414884Y-65750000D01*
X147385116Y-65750000D01*
X147289576Y-65269688D01*
X147017501Y-64862499D01*
X146610312Y-64590424D01*
X146251239Y-64519000D01*
X146008761Y-64519000D01*
X145649688Y-64590424D01*
X145242499Y-64862499D01*
X144970424Y-65269688D01*
X144874884Y-65750000D01*
X144845116Y-65750000D01*
X144749576Y-65269688D01*
X144477501Y-64862499D01*
X144070312Y-64590424D01*
X143711239Y-64519000D01*
X143468761Y-64519000D01*
X143109688Y-64590424D01*
X142702499Y-64862499D01*
X142430424Y-65269688D01*
X142334884Y-65750000D01*
X142283400Y-65750000D01*
X142283400Y-63802527D01*
X142293848Y-63750000D01*
X142283400Y-63697473D01*
X142283400Y-63697469D01*
X142252451Y-63541878D01*
X142134559Y-63365441D01*
X142090026Y-63335685D01*
X137283400Y-58529060D01*
X137283400Y-57415628D01*
X146819000Y-57415628D01*
X146819000Y-58084372D01*
X147074917Y-58702210D01*
X147547790Y-59175083D01*
X148165628Y-59431000D01*
X148834372Y-59431000D01*
X149452210Y-59175083D01*
X149925083Y-58702210D01*
X150181000Y-58084372D01*
X150181000Y-57415628D01*
X156819000Y-57415628D01*
X156819000Y-58084372D01*
X157074917Y-58702210D01*
X157547790Y-59175083D01*
X158165628Y-59431000D01*
X158834372Y-59431000D01*
X159452210Y-59175083D01*
X159925083Y-58702210D01*
X160181000Y-58084372D01*
X160181000Y-57415628D01*
X159925083Y-56797790D01*
X159452210Y-56324917D01*
X158834372Y-56069000D01*
X158165628Y-56069000D01*
X157547790Y-56324917D01*
X157074917Y-56797790D01*
X156819000Y-57415628D01*
X150181000Y-57415628D01*
X149925083Y-56797790D01*
X149452210Y-56324917D01*
X148834372Y-56069000D01*
X148165628Y-56069000D01*
X147547790Y-56324917D01*
X147074917Y-56797790D01*
X146819000Y-57415628D01*
X137283400Y-57415628D01*
X137283400Y-53660000D01*
X137494884Y-53660000D01*
X137590424Y-54140312D01*
X137862499Y-54547501D01*
X138269688Y-54819576D01*
X138628761Y-54891000D01*
X138871239Y-54891000D01*
X139230312Y-54819576D01*
X139637501Y-54547501D01*
X139909576Y-54140312D01*
X140005116Y-53660000D01*
X139909576Y-53179688D01*
X139637501Y-52772499D01*
X139230312Y-52500424D01*
X138871239Y-52429000D01*
X138628761Y-52429000D01*
X138269688Y-52500424D01*
X137862499Y-52772499D01*
X137590424Y-53179688D01*
X137494884Y-53660000D01*
X137283400Y-53660000D01*
X137283400Y-51120000D01*
X137494884Y-51120000D01*
X137590424Y-51600312D01*
X137862499Y-52007501D01*
X138269688Y-52279576D01*
X138628761Y-52351000D01*
X138871239Y-52351000D01*
X139230312Y-52279576D01*
X139637501Y-52007501D01*
X139909576Y-51600312D01*
X140005116Y-51120000D01*
X139909576Y-50639688D01*
X139637501Y-50232499D01*
X139230312Y-49960424D01*
X138871239Y-49889000D01*
X138628761Y-49889000D01*
X138269688Y-49960424D01*
X137862499Y-50232499D01*
X137590424Y-50639688D01*
X137494884Y-51120000D01*
X137283400Y-51120000D01*
X137283400Y-48580000D01*
X137494884Y-48580000D01*
X137590424Y-49060312D01*
X137862499Y-49467501D01*
X138269688Y-49739576D01*
X138628761Y-49811000D01*
X138871239Y-49811000D01*
X139230312Y-49739576D01*
X139637501Y-49467501D01*
X139909576Y-49060312D01*
X140005116Y-48580000D01*
X139909576Y-48099688D01*
X139637501Y-47692499D01*
X139230312Y-47420424D01*
X138871239Y-47349000D01*
X138628761Y-47349000D01*
X138269688Y-47420424D01*
X137862499Y-47692499D01*
X137590424Y-48099688D01*
X137494884Y-48580000D01*
X137283400Y-48580000D01*
X137283400Y-46040000D01*
X137494884Y-46040000D01*
X137590424Y-46520312D01*
X137862499Y-46927501D01*
X138269688Y-47199576D01*
X138628761Y-47271000D01*
X138871239Y-47271000D01*
X139230312Y-47199576D01*
X139637501Y-46927501D01*
X139909576Y-46520312D01*
X139994245Y-46094649D01*
X146969000Y-46094649D01*
X146969000Y-46405351D01*
X147087900Y-46692401D01*
X147242000Y-46846501D01*
X147242001Y-52449967D01*
X147232049Y-52500000D01*
X147271475Y-52698211D01*
X147355412Y-52823832D01*
X147355415Y-52823835D01*
X147383754Y-52866247D01*
X147426166Y-52894586D01*
X148605414Y-54073835D01*
X148633753Y-54116247D01*
X148676165Y-54144586D01*
X148676167Y-54144588D01*
X148801788Y-54228525D01*
X148949968Y-54258000D01*
X148949972Y-54258000D01*
X149000000Y-54267951D01*
X149050028Y-54258000D01*
X163949972Y-54258000D01*
X164000000Y-54267951D01*
X164050028Y-54258000D01*
X164050032Y-54258000D01*
X164198212Y-54228525D01*
X164366247Y-54116247D01*
X164394588Y-54073832D01*
X164937420Y-53531000D01*
X165155351Y-53531000D01*
X165442401Y-53412100D01*
X165662100Y-53192401D01*
X165781000Y-52905351D01*
X165781000Y-52594649D01*
X165662100Y-52307599D01*
X165442401Y-52087900D01*
X165155351Y-51969000D01*
X164844649Y-51969000D01*
X164557599Y-52087900D01*
X164337900Y-52307599D01*
X164219000Y-52594649D01*
X164219000Y-52812580D01*
X163789580Y-53242000D01*
X149210421Y-53242000D01*
X148258000Y-52289580D01*
X148258000Y-51330000D01*
X168342876Y-51330000D01*
X168446371Y-51850306D01*
X168741101Y-52291399D01*
X169182194Y-52586129D01*
X169571165Y-52663500D01*
X169928835Y-52663500D01*
X170317806Y-52586129D01*
X170758899Y-52291399D01*
X171053629Y-51850306D01*
X171157124Y-51330000D01*
X171053629Y-50809694D01*
X170758899Y-50368601D01*
X170317806Y-50073871D01*
X169928835Y-49996500D01*
X169571165Y-49996500D01*
X169182194Y-50073871D01*
X168741101Y-50368601D01*
X168446371Y-50809694D01*
X168342876Y-51330000D01*
X148258000Y-51330000D01*
X148258000Y-46846501D01*
X148412100Y-46692401D01*
X148531000Y-46405351D01*
X148531000Y-46094649D01*
X148412100Y-45807599D01*
X148192401Y-45587900D01*
X147905351Y-45469000D01*
X147594649Y-45469000D01*
X147307599Y-45587900D01*
X147087900Y-45807599D01*
X146969000Y-46094649D01*
X139994245Y-46094649D01*
X140005116Y-46040000D01*
X139909576Y-45559688D01*
X139637501Y-45152499D01*
X139230312Y-44880424D01*
X138871239Y-44809000D01*
X138628761Y-44809000D01*
X138269688Y-44880424D01*
X137862499Y-45152499D01*
X137590424Y-45559688D01*
X137494884Y-46040000D01*
X137283400Y-46040000D01*
X137283400Y-42650000D01*
X137511536Y-42650000D01*
X137511536Y-44350000D01*
X137541106Y-44498659D01*
X137625314Y-44624686D01*
X137751341Y-44708894D01*
X137900000Y-44738464D01*
X139600000Y-44738464D01*
X139748659Y-44708894D01*
X139874686Y-44624686D01*
X139958894Y-44498659D01*
X139988464Y-44350000D01*
X139988464Y-42650000D01*
X139958894Y-42501341D01*
X139874686Y-42375314D01*
X139748659Y-42291106D01*
X139600000Y-42261536D01*
X137900000Y-42261536D01*
X137751341Y-42291106D01*
X137625314Y-42375314D01*
X137541106Y-42501341D01*
X137511536Y-42650000D01*
X137283400Y-42650000D01*
X137283400Y-39339820D01*
X138823836Y-37799385D01*
X138866247Y-37771047D01*
X138894586Y-37728635D01*
X138894588Y-37728633D01*
X138978525Y-37603012D01*
X138978525Y-37603011D01*
X139008000Y-37454832D01*
X139008000Y-37454828D01*
X139017951Y-37404800D01*
X139008000Y-37354772D01*
X139008000Y-37238464D01*
X139350000Y-37238464D01*
X139498659Y-37208894D01*
X139624686Y-37124686D01*
X139708894Y-36998659D01*
X139737986Y-36852406D01*
X142015158Y-39129578D01*
X142015157Y-44132806D01*
X141861057Y-44286906D01*
X141742157Y-44573956D01*
X141742157Y-44884658D01*
X141861057Y-45171708D01*
X142080756Y-45391407D01*
X142367806Y-45510307D01*
X142678508Y-45510307D01*
X142965558Y-45391407D01*
X143059465Y-45297500D01*
X168361536Y-45297500D01*
X168361536Y-47202500D01*
X168391106Y-47351159D01*
X168475314Y-47477186D01*
X168601341Y-47561394D01*
X168750000Y-47590964D01*
X170750000Y-47590964D01*
X170898659Y-47561394D01*
X171024686Y-47477186D01*
X171108894Y-47351159D01*
X171138464Y-47202500D01*
X171138464Y-45297500D01*
X171108894Y-45148841D01*
X171024686Y-45022814D01*
X170898659Y-44938606D01*
X170750000Y-44909036D01*
X168750000Y-44909036D01*
X168601341Y-44938606D01*
X168475314Y-45022814D01*
X168391106Y-45148841D01*
X168361536Y-45297500D01*
X143059465Y-45297500D01*
X143185257Y-45171708D01*
X143304157Y-44884658D01*
X143304157Y-44622471D01*
X143359688Y-44659576D01*
X143718761Y-44731000D01*
X143961239Y-44731000D01*
X144320312Y-44659576D01*
X144727501Y-44387501D01*
X144999576Y-43980312D01*
X145095116Y-43500000D01*
X145124884Y-43500000D01*
X145220424Y-43980312D01*
X145492499Y-44387501D01*
X145899688Y-44659576D01*
X146258761Y-44731000D01*
X146501239Y-44731000D01*
X146860312Y-44659576D01*
X147267501Y-44387501D01*
X147539576Y-43980312D01*
X147635116Y-43500000D01*
X147664884Y-43500000D01*
X147760424Y-43980312D01*
X148032499Y-44387501D01*
X148439688Y-44659576D01*
X148798761Y-44731000D01*
X149041239Y-44731000D01*
X149400312Y-44659576D01*
X149807501Y-44387501D01*
X150079576Y-43980312D01*
X150175116Y-43500000D01*
X150204884Y-43500000D01*
X150300424Y-43980312D01*
X150572499Y-44387501D01*
X150979688Y-44659576D01*
X151338761Y-44731000D01*
X151581239Y-44731000D01*
X151940312Y-44659576D01*
X152347501Y-44387501D01*
X152619576Y-43980312D01*
X152715116Y-43500000D01*
X152619576Y-43019688D01*
X152372559Y-42650000D01*
X152761536Y-42650000D01*
X152761536Y-44350000D01*
X152791106Y-44498659D01*
X152875314Y-44624686D01*
X153001341Y-44708894D01*
X153150000Y-44738464D01*
X154850000Y-44738464D01*
X154998659Y-44708894D01*
X155124686Y-44624686D01*
X155208894Y-44498659D01*
X155238464Y-44350000D01*
X155238464Y-42650000D01*
X155208894Y-42501341D01*
X155124686Y-42375314D01*
X154998659Y-42291106D01*
X154850000Y-42261536D01*
X153150000Y-42261536D01*
X153001341Y-42291106D01*
X152875314Y-42375314D01*
X152791106Y-42501341D01*
X152761536Y-42650000D01*
X152372559Y-42650000D01*
X152347501Y-42612499D01*
X151940312Y-42340424D01*
X151581239Y-42269000D01*
X151338761Y-42269000D01*
X150979688Y-42340424D01*
X150572499Y-42612499D01*
X150300424Y-43019688D01*
X150204884Y-43500000D01*
X150175116Y-43500000D01*
X150079576Y-43019688D01*
X149807501Y-42612499D01*
X149400312Y-42340424D01*
X149041239Y-42269000D01*
X148798761Y-42269000D01*
X148439688Y-42340424D01*
X148032499Y-42612499D01*
X147760424Y-43019688D01*
X147664884Y-43500000D01*
X147635116Y-43500000D01*
X147539576Y-43019688D01*
X147267501Y-42612499D01*
X146860312Y-42340424D01*
X146501239Y-42269000D01*
X146258761Y-42269000D01*
X145899688Y-42340424D01*
X145492499Y-42612499D01*
X145220424Y-43019688D01*
X145124884Y-43500000D01*
X145095116Y-43500000D01*
X144999576Y-43019688D01*
X144727501Y-42612499D01*
X144320312Y-42340424D01*
X143961239Y-42269000D01*
X143718761Y-42269000D01*
X143359688Y-42340424D01*
X143031157Y-42559941D01*
X143031157Y-38969184D01*
X143041108Y-38919156D01*
X143031157Y-38869128D01*
X143031157Y-38869125D01*
X143001682Y-38720945D01*
X142889404Y-38552910D01*
X142846989Y-38524569D01*
X139998588Y-35676168D01*
X139970247Y-35633753D01*
X139802212Y-35521475D01*
X139738464Y-35508795D01*
X139738464Y-35150000D01*
X139708894Y-35001341D01*
X139624686Y-34875314D01*
X139498659Y-34791106D01*
X139350000Y-34761536D01*
X137650000Y-34761536D01*
X137501341Y-34791106D01*
X137375314Y-34875314D01*
X137291106Y-35001341D01*
X137261536Y-35150000D01*
X137261536Y-36850000D01*
X137291106Y-36998659D01*
X137375314Y-37124686D01*
X137501341Y-37208894D01*
X137650000Y-37238464D01*
X137947915Y-37238464D01*
X136518229Y-38668151D01*
X136365441Y-38770241D01*
X136247549Y-38946679D01*
X136216600Y-39102270D01*
X136216601Y-58697465D01*
X136216600Y-58697470D01*
X136216600Y-58697474D01*
X136206152Y-58750000D01*
X135206000Y-58750000D01*
X135206000Y-27499560D01*
X142361096Y-27499560D01*
X142361096Y-32000440D01*
X142390666Y-32149099D01*
X142474874Y-32275126D01*
X142600901Y-32359334D01*
X142749560Y-32388904D01*
X147250440Y-32388904D01*
X147399099Y-32359334D01*
X147525126Y-32275126D01*
X147609334Y-32149099D01*
X147638904Y-32000440D01*
X147638904Y-27499560D01*
X147609334Y-27350901D01*
X147525126Y-27224874D01*
X147399099Y-27140666D01*
X147250440Y-27111096D01*
X142749560Y-27111096D01*
X142600901Y-27140666D01*
X142474874Y-27224874D01*
X142390666Y-27350901D01*
X142361096Y-27499560D01*
X135206000Y-27499560D01*
X135206000Y-22155683D01*
X137019000Y-22155683D01*
X137019000Y-22844317D01*
X137282529Y-23480533D01*
X137769467Y-23967471D01*
X138405683Y-24231000D01*
X139094317Y-24231000D01*
X139730533Y-23967471D01*
X140217471Y-23480533D01*
X140416514Y-23000000D01*
X153861536Y-23000000D01*
X153861536Y-31000000D01*
X153891106Y-31148659D01*
X153975314Y-31274686D01*
X154101341Y-31358894D01*
X154250000Y-31388464D01*
X158250000Y-31388464D01*
X158398659Y-31358894D01*
X158524686Y-31274686D01*
X158608894Y-31148659D01*
X158638464Y-31000000D01*
X158638464Y-23000000D01*
X164361536Y-23000000D01*
X164361536Y-31000000D01*
X164391106Y-31148659D01*
X164475314Y-31274686D01*
X164601341Y-31358894D01*
X164750000Y-31388464D01*
X168750000Y-31388464D01*
X168898659Y-31358894D01*
X169024686Y-31274686D01*
X169108894Y-31148659D01*
X169138464Y-31000000D01*
X169138464Y-23000000D01*
X174861536Y-23000000D01*
X174861536Y-31000000D01*
X174891106Y-31148659D01*
X174975314Y-31274686D01*
X175101341Y-31358894D01*
X175250000Y-31388464D01*
X179250000Y-31388464D01*
X179398659Y-31358894D01*
X179524686Y-31274686D01*
X179608894Y-31148659D01*
X179638464Y-31000000D01*
X179638464Y-23000000D01*
X179608894Y-22851341D01*
X179524686Y-22725314D01*
X179398659Y-22641106D01*
X179250000Y-22611536D01*
X175250000Y-22611536D01*
X175101341Y-22641106D01*
X174975314Y-22725314D01*
X174891106Y-22851341D01*
X174861536Y-23000000D01*
X169138464Y-23000000D01*
X169108894Y-22851341D01*
X169024686Y-22725314D01*
X168898659Y-22641106D01*
X168750000Y-22611536D01*
X164750000Y-22611536D01*
X164601341Y-22641106D01*
X164475314Y-22725314D01*
X164391106Y-22851341D01*
X164361536Y-23000000D01*
X158638464Y-23000000D01*
X158608894Y-22851341D01*
X158524686Y-22725314D01*
X158398659Y-22641106D01*
X158250000Y-22611536D01*
X154250000Y-22611536D01*
X154101341Y-22641106D01*
X153975314Y-22725314D01*
X153891106Y-22851341D01*
X153861536Y-23000000D01*
X140416514Y-23000000D01*
X140481000Y-22844317D01*
X140481000Y-22155683D01*
X140217471Y-21519467D01*
X139730533Y-21032529D01*
X139094317Y-20769000D01*
X138405683Y-20769000D01*
X137769467Y-21032529D01*
X137282529Y-21519467D01*
X137019000Y-22155683D01*
X135206000Y-22155683D01*
X135206000Y-18956000D01*
X181544000Y-18956000D01*
X181544001Y-109794000D01*
G04 #@! TD*
M02*
