# WaveFront *.obj file (generated by Autodesk ATF)

mtllib Manipulator_Sterowniki_Robotow_III_czlon.mtl

g Solid1

v 122.616049 25.556768 139.495387
v 23.378094 37.878628 139.495387
v 122.579142 25.259528 136.510377
v 26.318325 37.211732 136.510377
v 25.001986 26.610183 30.045010
v 22.024848 26.979839 30.045010
v 27.454883 46.365360 48.147945
v 24.477745 46.735016 48.147945
v 27.500037 46.729018 49.116196
v 24.522899 47.098674 49.116196
v 27.475432 46.530859 47.126191
v 24.498294 46.900514 47.126191
v 27.598794 47.524392 49.771499
v 24.621656 47.894048 49.771499
v 27.556178 47.181170 46.324710
v 24.579040 47.550826 46.324710
v 27.724694 48.538362 49.938269
v 24.747555 48.908018 49.938269
v 27.675485 48.142043 45.958259
v 24.698347 48.511699 45.958259
v 27.844000 49.499234 49.571818
v 24.866862 49.868889 49.571818
v 27.801384 49.156011 46.125029
v 24.824246 49.525667 46.125029
v 27.924746 50.149546 48.770337
v 24.947608 50.519202 48.770337
v 27.900142 49.951387 46.780332
v 24.923003 50.321042 46.780332
v 27.945295 50.315045 47.748582
v 24.968157 50.684701 47.748582
v 127.520166 65.053610 135.501758
v 28.282211 77.375470 135.501758
v 127.483259 64.756370 132.516748
v 31.222442 76.708575 132.516748
v 29.906103 66.107026 26.051381
v 26.928965 66.476681 26.051381
vt 0.300000 -0.628319 0.000000
vt 0.300000 -0.523599 0.000000
vt 0.300000 -0.418879 0.000000
vt 0.300000 -0.314159 0.000000
vt 0.300000 -0.209440 0.000000
vt 0.300000 -0.104720 0.000000
vt 0.300000 0.000000 0.000000
vt 0.300000 0.104720 0.000000
vt 0.300000 0.209440 0.000000
vt 0.300000 0.314159 0.000000
vt 0.300000 0.418879 0.000000
vt 0.300000 0.523599 0.000000
vt 0.000000 0.628319 0.000000
vt 0.000000 0.523599 0.000000
vt 0.000000 0.418879 0.000000
vt 0.000000 0.314159 0.000000
vt 0.000000 0.209440 0.000000
vt 0.000000 0.104720 0.000000
vt 0.000000 0.000000 0.000000
vt 0.000000 -0.104720 0.000000
vt 0.000000 -0.209440 0.000000
vt 0.000000 -0.314159 0.000000
vt 0.000000 -0.418879 0.000000
vt 0.000000 -0.523599 0.000000
vt 0.000000 -0.628319 0.000000
vt 0.300000 0.628319 0.000000
vt 4.000000 0.300000 0.000000
vt -0.000000 0.300000 0.000000
vt -0.000000 0.000000 0.000000
vt 4.000000 0.000000 0.000000
vt -0.000000 -4.000000 0.000000
vt 10.000000 -4.000000 0.000000
vt 10.000000 0.000000 0.000000
vt -0.000000 0.000000 0.000000
vt 10.000000 0.000000 0.000000
vt 9.700000 0.000000 0.000000
vt 9.700000 -4.000000 0.000000
vt 10.000000 -4.000000 0.000000
vt -1.800000 -2.000000 0.000000
vt -1.826795 -2.100000 0.000000
vt -1.900000 -2.173205 0.000000
vt -2.000000 -2.200000 0.000000
vt -2.100000 -2.173205 0.000000
vt -2.173205 -2.100000 0.000000
vt -2.200000 -2.000000 0.000000
vt -2.173205 -1.900000 0.000000
vt -2.100000 -1.826795 0.000000
vt -2.000000 -1.800000 0.000000
vt -1.900000 -1.826795 0.000000
vt -1.826795 -1.900000 0.000000
vt -4.000000 0.000000 0.000000
vt -4.000000 -11.000000 0.000000
vt -0.000000 -11.000000 0.000000
vt -0.000000 0.000000 0.000000
vt 7.000000 -2.200000 0.000000
vt -2.700000 -2.200000 0.000000
vt -2.700000 8.500000 0.000000
vt -3.000000 8.500000 0.000000
vt -3.000000 -2.500000 0.000000
vt 7.000000 -2.500000 0.000000
vt 2.700000 8.500000 0.000000
vt 2.700000 -2.200000 0.000000
vt -7.000000 -2.200000 0.000000
vt -7.000000 -2.500000 0.000000
vt 3.000000 -2.500000 0.000000
vt 3.000000 8.500000 0.000000
vt -10.000000 -4.000000 0.000000
vt -0.300000 -4.000000 0.000000
vt -0.300000 0.000000 0.000000
vt -10.000000 0.000000 0.000000
vt 1.800000 -2.000000 0.000000
vt 1.826795 -1.900000 0.000000
vt 1.900000 -1.826795 0.000000
vt 2.000000 -1.800000 0.000000
vt 2.100000 -1.826795 0.000000
vt 2.173205 -1.900000 0.000000
vt 2.200000 -2.000000 0.000000
vt 2.173205 -2.100000 0.000000
vt 2.100000 -2.173205 0.000000
vt 2.000000 -2.200000 0.000000
vt 1.900000 -2.173205 0.000000
vt 1.826795 -2.100000 0.000000
vt 4.000000 -10.700000 0.000000
vt 4.000000 0.000000 0.000000
vt 0.000000 0.000000 0.000000
vt 0.000000 -10.700000 0.000000
vn -0.012260 -0.098742 0.009984
vn -0.011233 -0.090467 -0.041104
vn -0.007196 -0.057952 -0.081178
vn -0.001230 -0.009908 -0.099500
vn 0.005065 0.040790 -0.091162
vn 0.010003 0.080559 -0.058397
vn 0.012260 0.098742 -0.009984
vn 0.011233 0.090467 0.041104
vn 0.007196 0.057952 0.081178
vn 0.001230 0.009908 0.099500
vn -0.005065 -0.040790 0.091162
vn -0.010003 -0.080559 0.058397
vn -0.012260 -0.098742 0.009984
vn -0.010003 -0.080559 0.058397
vn -0.005065 -0.040790 0.091162
vn 0.001230 0.009908 0.099500
vn 0.007196 0.057952 0.081178
vn 0.011233 0.090467 0.041104
vn 0.012260 0.098742 -0.009984
vn 0.010003 0.080559 -0.058397
vn 0.005065 0.040790 -0.091162
vn -0.001230 -0.009908 -0.099500
vn -0.007196 -0.057952 -0.081178
vn -0.011233 -0.090467 -0.041104
vn -0.012260 -0.098742 0.009984
vn -0.012260 -0.098742 0.009984
vn 0.099238 -0.012322 -0.000000
vn 0.099238 -0.012322 -0.000000
vn 0.099238 -0.012322 -0.000000
vn 0.099238 -0.012322 -0.000000
vn 0.001230 0.009908 0.099500
vn 0.001230 0.009908 0.099500
vn 0.001230 0.009908 0.099500
vn 0.001230 0.009908 0.099500
vn -0.001230 -0.009908 -0.099500
vn -0.001230 -0.009908 -0.099500
vn -0.001230 -0.009908 -0.099500
vn -0.001230 -0.009908 -0.099500
vn -0.099238 0.012322 0.000000
vn -0.099238 0.012322 0.000000
vn -0.099238 0.012322 0.000000
vn -0.099238 0.012322 0.000000
vn -0.099238 0.012322 0.000000
vn -0.099238 0.012322 0.000000
vn -0.099238 0.012322 0.000000
vn -0.099238 0.012322 0.000000
vn -0.099238 0.012322 0.000000
vn -0.099238 0.012322 0.000000
vn -0.099238 0.012322 0.000000
vn -0.099238 0.012322 0.000000
vn -0.099238 0.012322 0.000000
vn -0.099238 0.012322 0.000000
vn -0.099238 0.012322 0.000000
vn -0.099238 0.012322 0.000000
vn 0.012260 0.098742 -0.009984
vn 0.012260 0.098742 -0.009984
vn 0.012260 0.098742 -0.009984
vn 0.012260 0.098742 -0.009984
vn 0.012260 0.098742 -0.009984
vn 0.012260 0.098742 -0.009984
vn -0.012260 -0.098742 0.009984
vn -0.012260 -0.098742 0.009984
vn -0.012260 -0.098742 0.009984
vn -0.012260 -0.098742 0.009984
vn -0.012260 -0.098742 0.009984
vn -0.012260 -0.098742 0.009984
vn -0.001230 -0.009908 -0.099500
vn -0.001230 -0.009908 -0.099500
vn -0.001230 -0.009908 -0.099500
vn -0.001230 -0.009908 -0.099500
vn 0.099238 -0.012322 -0.000000
vn 0.099238 -0.012322 -0.000000
vn 0.099238 -0.012322 -0.000000
vn 0.099238 -0.012322 -0.000000
vn 0.099238 -0.012322 -0.000000
vn 0.099238 -0.012322 -0.000000
vn 0.099238 -0.012322 -0.000000
vn 0.099238 -0.012322 -0.000000
vn 0.099238 -0.012322 -0.000000
vn 0.099238 -0.012322 -0.000000
vn 0.099238 -0.012322 -0.000000
vn 0.099238 -0.012322 -0.000000
vn 0.099238 -0.012322 -0.000000
vn 0.099238 -0.012322 -0.000000
vn 0.099238 -0.012322 -0.000000
vn 0.099238 -0.012322 -0.000000
usemtl 254,254,255
f 25/2/2 26/24/24 29/1/1
f 29/1/1 26/24/24 30/25/25
f 29/26/26 30/13/13 27/12/12
f 27/12/12 30/13/13 28/14/14
f 27/12/12 28/14/14 23/11/11
f 23/11/11 28/14/14 24/15/15
f 23/11/11 24/15/15 19/10/10
f 19/10/10 24/15/15 20/16/16
f 19/10/10 20/16/16 15/9/9
f 15/9/9 20/16/16 16/17/17
f 15/9/9 16/17/17 11/8/8
f 11/8/8 16/17/17 12/18/18
f 11/8/8 12/18/18 7/7/7
f 7/7/7 12/18/18 8/19/19
f 7/7/7 8/19/19 9/6/6
f 9/6/6 8/19/19 10/20/20
f 9/6/6 10/20/20 13/5/5
f 13/5/5 10/20/20 14/21/21
f 13/5/5 14/21/21 17/4/4
f 17/4/4 14/21/21 18/22/22
f 17/4/4 18/22/22 21/3/3
f 21/3/3 18/22/22 22/23/23
f 21/3/3 22/23/23 25/2/2
f 25/2/2 22/23/23 26/24/24
f 3/27/27 33/28/28 1/30/30
f 1/30/30 33/28/28 31/29/29
f 2/31/31 1/32/32 32/34/34
f 32/34/34 1/32/32 31/33/33
f 36/35/35 35/36/36 6/38/38
f 6/38/38 35/36/36 5/37/37
f 28/50/50 30/39/39 36/54/54
f 36/54/54 30/39/39 26/40/40
f 36/54/54 26/40/40 32/53/53
f 32/53/53 26/40/40 22/41/41
f 32/53/53 22/41/41 18/42/42
f 32/53/53 18/42/42 2/52/52
f 2/52/52 18/42/42 14/43/43
f 2/52/52 14/43/43 10/44/44
f 2/52/52 10/44/44 6/51/51
f 6/51/51 10/44/44 8/45/45
f 6/51/51 8/45/45 12/46/46
f 12/46/46 16/47/47 6/51/51
f 6/51/51 16/47/47 20/48/48
f 6/51/51 20/48/48 36/54/54
f 36/54/54 20/48/48 24/49/49
f 36/54/54 24/49/49 28/50/50
f 33/55/55 34/56/56 31/60/60
f 31/60/60 34/56/56 32/59/59
f 32/59/59 34/56/56 36/58/58
f 36/58/58 34/56/56 35/57/57
f 5/61/61 4/62/62 6/66/66
f 6/66/66 4/62/62 2/65/65
f 2/65/65 4/62/62 1/64/64
f 1/64/64 4/62/62 3/63/63
f 3/67/67 4/68/68 33/70/70
f 33/70/70 4/68/68 34/69/69
f 25/82/82 29/71/71 35/85/85
f 35/85/85 29/71/71 27/72/72
f 35/85/85 27/72/72 23/73/73
f 23/73/73 19/74/74 35/85/85
f 35/85/85 19/74/74 5/84/84
f 5/84/84 19/74/74 15/75/75
f 5/84/84 15/75/75 11/76/76
f 11/76/76 7/77/77 5/84/84
f 5/84/84 7/77/77 9/78/78
f 5/84/84 9/78/78 4/83/83
f 4/83/83 9/78/78 13/79/79
f 4/83/83 13/79/79 17/80/80
f 4/83/83 17/80/80 34/86/86
f 34/86/86 17/80/80 21/81/81
f 34/86/86 21/81/81 25/82/82
f 34/86/86 25/82/82 35/85/85

# 36 vertices
# 86 texture params
# 86 normals
# 72 facets

# 1 groups
